<?xml version="1.0" encoding="utf-8"?>
<!-- Generator: Adobe Illustrator 26.0.0, SVG Export Plug-In . SVG Version: 6.00 Build 0)  -->
<svg version="1.1" id="Capa_1" xmlns="http://www.w3.org/2000/svg" xmlns:xlink="http://www.w3.org/1999/xlink" x="0px" y="0px"
	 viewBox="0 0 80 60" style="enable-background:new 0 0 80 60;" xml:space="preserve">
<style type="text/css">
	.st0{fill:#FFFFFF;}
	.st1{fill:none;}
</style>
<g>
	<g>
		<path class="st0" d="M15.62,51.9c-0.2-0.2-0.44-0.36-0.72-0.47c-0.28-0.11-0.58-0.17-0.91-0.17c-0.17,0-0.36,0.02-0.54,0.05
			c-0.19,0.03-0.37,0.08-0.55,0.16c-0.18,0.08-0.35,0.18-0.52,0.32c-0.16,0.13-0.3,0.3-0.42,0.51c-0.19-0.32-0.46-0.57-0.79-0.75
			c-0.33-0.18-0.71-0.27-1.14-0.27c-0.14,0-0.29,0.01-0.45,0.04c-0.15,0.03-0.31,0.07-0.46,0.14c-0.15,0.06-0.3,0.15-0.43,0.26
			c-0.14,0.11-0.26,0.25-0.38,0.42v-0.7H7.11v5.76h1.22v-3.19c0-0.24,0.04-0.46,0.12-0.65c0.08-0.19,0.18-0.35,0.31-0.48
			c0.13-0.13,0.28-0.23,0.46-0.29c0.17-0.07,0.36-0.1,0.56-0.1c0.41,0,0.73,0.13,0.96,0.39c0.23,0.26,0.34,0.63,0.34,1.12v3.21h1.22
			v-3.19c0-0.24,0.04-0.46,0.12-0.65c0.08-0.19,0.18-0.35,0.31-0.48c0.13-0.13,0.28-0.23,0.46-0.29c0.17-0.07,0.36-0.1,0.56-0.1
			c0.41,0,0.73,0.13,0.96,0.39c0.23,0.26,0.34,0.63,0.34,1.12v3.21h1.22v-3.62c0-0.34-0.06-0.65-0.17-0.93
			C15.98,52.34,15.83,52.1,15.62,51.9z"/>
		<path class="st0" d="M22.07,52.1c-0.2-0.26-0.45-0.46-0.75-0.62c-0.3-0.15-0.65-0.23-1.06-0.23c-0.4,0-0.78,0.08-1.13,0.23
			c-0.35,0.15-0.65,0.36-0.91,0.63c-0.26,0.27-0.47,0.59-0.61,0.96c-0.15,0.37-0.22,0.78-0.22,1.22c0,0.44,0.07,0.85,0.22,1.22
			c0.15,0.37,0.35,0.69,0.61,0.96c0.26,0.27,0.57,0.48,0.91,0.63c0.35,0.15,0.73,0.23,1.13,0.23c0.41,0,0.77-0.08,1.06-0.23
			c0.3-0.15,0.55-0.36,0.75-0.61v0.69h1.26v-5.76h-1.26V52.1z M22.02,55.02c-0.08,0.22-0.2,0.42-0.35,0.58
			c-0.15,0.16-0.33,0.29-0.55,0.39c-0.21,0.09-0.45,0.14-0.71,0.14c-0.27,0-0.52-0.05-0.73-0.15c-0.21-0.1-0.4-0.23-0.54-0.4
			c-0.15-0.17-0.26-0.36-0.34-0.59c-0.08-0.22-0.12-0.46-0.12-0.72c0-0.25,0.04-0.49,0.12-0.72c0.08-0.22,0.19-0.42,0.34-0.59
			c0.15-0.17,0.33-0.3,0.54-0.4c0.21-0.1,0.46-0.15,0.73-0.15c0.26,0,0.5,0.05,0.71,0.14c0.21,0.09,0.39,0.22,0.55,0.39
			c0.15,0.16,0.27,0.36,0.35,0.58c0.08,0.22,0.13,0.47,0.13,0.73S22.11,54.79,22.02,55.02z"/>
		<path class="st0" d="M29.1,54.28c-0.35-0.27-0.84-0.46-1.47-0.55l-0.6-0.09c-0.13-0.02-0.26-0.04-0.37-0.07
			c-0.12-0.03-0.22-0.06-0.3-0.11c-0.08-0.04-0.15-0.1-0.2-0.17c-0.05-0.07-0.08-0.15-0.08-0.25c0-0.2,0.1-0.37,0.29-0.5
			c0.19-0.13,0.46-0.19,0.8-0.19c0.18,0,0.36,0.02,0.53,0.05c0.17,0.03,0.34,0.07,0.5,0.12c0.16,0.05,0.3,0.1,0.43,0.16
			c0.13,0.06,0.24,0.11,0.32,0.17l0.54-0.98c-0.3-0.19-0.65-0.34-1.05-0.45c-0.4-0.11-0.83-0.16-1.28-0.16
			c-0.37,0-0.7,0.04-0.99,0.13c-0.29,0.09-0.54,0.21-0.75,0.37c-0.21,0.16-0.36,0.35-0.48,0.58c-0.11,0.23-0.17,0.49-0.17,0.77
			c0,0.47,0.17,0.84,0.5,1.13c0.33,0.29,0.82,0.47,1.46,0.56l0.6,0.08c0.34,0.05,0.6,0.13,0.76,0.23c0.16,0.11,0.24,0.24,0.24,0.41
			c0,0.22-0.11,0.39-0.33,0.51c-0.22,0.13-0.55,0.19-0.98,0.19c-0.24,0-0.45-0.02-0.63-0.05c-0.19-0.03-0.36-0.08-0.51-0.13
			c-0.15-0.05-0.29-0.12-0.41-0.19c-0.12-0.07-0.24-0.15-0.34-0.23l-0.58,0.94c0.21,0.16,0.43,0.28,0.66,0.38
			c0.23,0.1,0.45,0.17,0.67,0.23c0.22,0.05,0.43,0.09,0.63,0.11c0.2,0.02,0.37,0.03,0.52,0.03c0.41,0,0.78-0.05,1.11-0.14
			c0.33-0.09,0.6-0.22,0.82-0.39c0.22-0.17,0.39-0.36,0.51-0.6s0.18-0.48,0.18-0.76C29.63,54.94,29.46,54.55,29.1,54.28z"/>
		<path class="st0" d="M40.87,52.09c-0.24-0.27-0.53-0.47-0.86-0.62c-0.33-0.15-0.7-0.22-1.1-0.22c-0.43,0-0.81,0.07-1.16,0.22
			c-0.35,0.15-0.65,0.35-0.91,0.62c-0.25,0.27-0.45,0.59-0.59,0.96c-0.14,0.37-0.21,0.78-0.21,1.23c0,0.46,0.07,0.87,0.22,1.24
			c0.14,0.37,0.35,0.69,0.61,0.96c0.26,0.26,0.57,0.47,0.93,0.61c0.36,0.14,0.76,0.22,1.19,0.22c0.44,0,0.85-0.06,1.25-0.18
			c0.39-0.12,0.77-0.33,1.12-0.63l-0.63-0.9c-0.24,0.19-0.51,0.34-0.8,0.45c-0.29,0.11-0.58,0.16-0.87,0.16
			c-0.2,0-0.4-0.03-0.59-0.08c-0.19-0.06-0.36-0.14-0.51-0.26c-0.15-0.12-0.28-0.27-0.39-0.45c-0.11-0.18-0.18-0.41-0.22-0.67h4.26
			c0.01-0.07,0.01-0.15,0.02-0.23c0-0.08,0.01-0.16,0.01-0.24c0-0.45-0.07-0.86-0.2-1.23C41.3,52.68,41.11,52.36,40.87,52.09z
			 M37.36,53.79c0.03-0.21,0.09-0.4,0.17-0.57c0.08-0.17,0.18-0.32,0.31-0.45c0.13-0.13,0.28-0.22,0.45-0.29
			c0.17-0.07,0.37-0.1,0.6-0.1c0.4,0,0.73,0.12,0.98,0.37c0.25,0.25,0.41,0.6,0.48,1.05H37.36z"/>
		<path class="st0" d="M57.57,52.1c-0.2-0.26-0.45-0.46-0.75-0.62c-0.3-0.15-0.65-0.23-1.06-0.23c-0.4,0-0.78,0.08-1.13,0.23
			c-0.35,0.15-0.65,0.36-0.91,0.63c-0.26,0.27-0.47,0.59-0.61,0.96c-0.15,0.37-0.22,0.78-0.22,1.22c0,0.44,0.07,0.85,0.22,1.22
			c0.15,0.37,0.35,0.69,0.61,0.96c0.26,0.27,0.57,0.48,0.91,0.63c0.35,0.15,0.73,0.23,1.13,0.23c0.41,0,0.77-0.08,1.06-0.23
			c0.3-0.15,0.55-0.36,0.75-0.61v0.69h1.26v-5.76h-1.26V52.1z M57.52,55.02c-0.08,0.22-0.2,0.42-0.35,0.58
			c-0.15,0.16-0.33,0.29-0.55,0.39c-0.21,0.09-0.45,0.14-0.71,0.14c-0.27,0-0.52-0.05-0.73-0.15c-0.21-0.1-0.4-0.23-0.54-0.4
			s-0.26-0.36-0.34-0.59c-0.08-0.22-0.12-0.46-0.12-0.72c0-0.25,0.04-0.49,0.12-0.72c0.08-0.22,0.19-0.42,0.34-0.59
			c0.15-0.17,0.33-0.3,0.54-0.4c0.21-0.1,0.46-0.15,0.73-0.15c0.26,0,0.5,0.05,0.71,0.14c0.21,0.09,0.39,0.22,0.55,0.39
			c0.15,0.16,0.27,0.36,0.35,0.58c0.08,0.22,0.13,0.47,0.13,0.73S57.61,54.79,57.52,55.02z"/>
		<path class="st0" d="M34.49,56.02c-0.2,0.08-0.4,0.11-0.6,0.11c-0.13,0-0.25-0.02-0.36-0.06c-0.11-0.04-0.21-0.1-0.29-0.19
			c-0.08-0.09-0.15-0.2-0.2-0.33c-0.05-0.14-0.07-0.3-0.07-0.49v-2.51H35v-1.14h-2.02v-1.74h-1.26v1.74h-1.15v1.14h1.15v2.53
			c0,0.77,0.18,1.33,0.54,1.69c0.36,0.36,0.87,0.54,1.52,0.54c0.36,0,0.69-0.06,0.98-0.17c0.19-0.07,0.37-0.16,0.54-0.25l-0.43-1.05
			C34.76,55.91,34.63,55.97,34.49,56.02z"/>
		<path class="st0" d="M45.84,51.25c-0.35,0-0.67,0.06-0.96,0.19c-0.28,0.13-0.52,0.44-0.72,0.71v-0.76h-1.14v5.76h1.15V54
			c0-0.24,0.03-0.46,0.1-0.66c0.07-0.19,0.16-0.35,0.28-0.49c0.12-0.13,0.26-0.23,0.43-0.3c0.17-0.07,0.35-0.1,0.55-0.1
			c0.15,0,0.32,0.02,0.49,0.05c0.09,0.02,0.17,0.04,0.25,0.07l0.37-1.2c-0.1-0.03-0.2-0.06-0.31-0.08
			C46.21,51.27,46.03,51.25,45.84,51.25z"/>
		<path class="st0" d="M63.31,51.25c-0.35,0-0.67,0.06-0.96,0.19c-0.28,0.13-0.52,0.44-0.72,0.71v-0.76H60.5v5.76h1.15V54
			c0-0.24,0.03-0.46,0.1-0.66c0.07-0.19,0.16-0.35,0.28-0.49c0.12-0.13,0.26-0.23,0.43-0.3c0.17-0.07,0.35-0.1,0.55-0.1
			c0.15,0,0.32,0.02,0.49,0.05c0.09,0.02,0.17,0.04,0.25,0.07l0.37-1.2c-0.1-0.03-0.2-0.06-0.31-0.08
			C63.68,51.27,63.5,51.25,63.31,51.25z"/>
		<path class="st0" d="M69.18,49.06v3.04c-0.2-0.26-0.45-0.46-0.75-0.62c-0.3-0.15-0.65-0.23-1.06-0.23c-0.4,0-0.78,0.08-1.13,0.23
			c-0.35,0.15-0.65,0.36-0.91,0.63c-0.26,0.27-0.47,0.59-0.61,0.96c-0.15,0.37-0.22,0.78-0.22,1.22c0,0.44,0.07,0.85,0.22,1.22
			c0.15,0.37,0.35,0.69,0.61,0.96c0.26,0.27,0.57,0.48,0.91,0.63c0.35,0.15,0.73,0.23,1.13,0.23c0.41,0,0.77-0.08,1.06-0.23
			c0.3-0.15,0.55-0.36,0.75-0.61v0.69h1.26v-8.1H69.18z M69.13,55.02c-0.08,0.22-0.2,0.42-0.35,0.58c-0.15,0.16-0.33,0.29-0.55,0.39
			c-0.21,0.09-0.45,0.14-0.71,0.14c-0.27,0-0.52-0.05-0.73-0.15c-0.21-0.1-0.4-0.23-0.54-0.4c-0.15-0.17-0.26-0.36-0.34-0.59
			c-0.08-0.22-0.12-0.46-0.12-0.72c0-0.25,0.04-0.49,0.12-0.72c0.08-0.22,0.19-0.42,0.34-0.59c0.15-0.17,0.33-0.3,0.54-0.4
			c0.21-0.1,0.46-0.15,0.73-0.15c0.26,0,0.5,0.05,0.71,0.14c0.21,0.09,0.39,0.22,0.55,0.39c0.15,0.16,0.27,0.36,0.35,0.58
			c0.08,0.22,0.13,0.47,0.13,0.73S69.22,54.79,69.13,55.02z"/>
		<path class="st0" d="M48.85,52.95c0.16-0.16,0.35-0.29,0.57-0.38c0.22-0.09,0.46-0.14,0.72-0.14v0c0.28,0,0.54,0.05,0.79,0.14
			c0.23,0.09,0.44,0.21,0.61,0.36l0.61-1.01c-0.23-0.18-0.48-0.33-0.77-0.45c-0.38-0.15-0.79-0.23-1.24-0.23
			c-0.45,0-0.86,0.08-1.24,0.23c-0.38,0.15-0.71,0.37-0.98,0.64c-0.27,0.27-0.49,0.59-0.65,0.96c-0.16,0.37-0.23,0.77-0.23,1.2
			c0,0.43,0.08,0.83,0.23,1.2c0.16,0.37,0.37,0.69,0.65,0.96c0.27,0.27,0.6,0.48,0.98,0.64s0.79,0.23,1.24,0.23
			c0.44,0,0.86-0.08,1.24-0.23c0.28-0.12,0.54-0.26,0.77-0.45l-0.61-1.01c-0.17,0.15-0.38,0.28-0.61,0.36
			c-0.24,0.09-0.51,0.14-0.79,0.14v0c-0.26,0-0.5-0.05-0.72-0.14c-0.22-0.09-0.41-0.22-0.57-0.38c-0.16-0.16-0.29-0.36-0.38-0.58
			c-0.09-0.23-0.14-0.48-0.14-0.75c0-0.27,0.05-0.52,0.14-0.75C48.56,53.31,48.69,53.12,48.85,52.95z"/>
	</g>
	<g>
		<path class="st0" d="M73.09,56.32c0.08,0,0.16,0.02,0.24,0.05c0.07,0.03,0.14,0.07,0.19,0.13c0.05,0.05,0.1,0.12,0.13,0.19
			c0.03,0.07,0.05,0.15,0.05,0.23c0,0.08-0.02,0.16-0.05,0.23c-0.03,0.07-0.07,0.13-0.13,0.19c-0.05,0.05-0.12,0.1-0.19,0.13
			c-0.07,0.03-0.15,0.05-0.24,0.05c-0.09,0-0.17-0.02-0.24-0.05c-0.07-0.03-0.14-0.07-0.19-0.13c-0.05-0.05-0.1-0.12-0.13-0.19
			c-0.03-0.07-0.05-0.15-0.05-0.23c0-0.08,0.02-0.16,0.05-0.23c0.03-0.07,0.07-0.13,0.13-0.19c0.05-0.05,0.12-0.1,0.19-0.13
			C72.92,56.34,73,56.32,73.09,56.32z M73.09,57.33c0.06,0,0.11-0.01,0.16-0.03c0.05-0.02,0.1-0.05,0.13-0.09
			c0.04-0.04,0.07-0.08,0.09-0.13c0.02-0.05,0.03-0.11,0.03-0.17c0-0.06-0.01-0.11-0.03-0.17c-0.02-0.05-0.05-0.1-0.09-0.13
			c-0.04-0.04-0.08-0.07-0.13-0.09c-0.05-0.02-0.11-0.03-0.16-0.03c-0.06,0-0.12,0.01-0.17,0.03c-0.05,0.02-0.1,0.05-0.14,0.09
			c-0.04,0.04-0.07,0.08-0.09,0.13c-0.02,0.05-0.03,0.11-0.03,0.17c0,0.06,0.01,0.11,0.03,0.17c0.02,0.05,0.05,0.1,0.09,0.13
			c0.04,0.04,0.08,0.07,0.14,0.09C72.97,57.32,73.03,57.33,73.09,57.33z M73.12,56.65c0.07,0,0.13,0.02,0.16,0.05
			c0.04,0.03,0.06,0.07,0.06,0.13c0,0.04-0.01,0.08-0.04,0.1c-0.03,0.03-0.07,0.05-0.12,0.05l0.16,0.19h-0.18l-0.15-0.18h-0.02v0.18
			h-0.15v-0.52H73.12z M73.01,56.78v0.1h0.11c0.02,0,0.04,0,0.05-0.01c0.01-0.01,0.02-0.02,0.02-0.04c0-0.02-0.01-0.03-0.02-0.04
			c-0.01-0.01-0.03-0.01-0.05-0.01H73.01z"/>
	</g>
	<g>
		<path class="st0" d="M30.49,24.48c0-6.9,3.22-13.05,8.24-17.02c-3.7-2.93-8.38-4.69-13.47-4.69c-11.99,0-21.71,9.72-21.71,21.71
			s9.72,21.71,21.71,21.71c5.09,0,9.77-1.76,13.47-4.69C33.71,37.52,30.49,31.38,30.49,24.48z"/>
		<path class="st0" d="M72.44,36.22v-0.64h-0.26v-0.17h0.7v0.17h-0.26v0.64H72.44z M73.8,36.22v-0.56l-0.18,0.48h-0.2l-0.18-0.48
			v0.56h-0.19v-0.81h0.27l0.2,0.52l0.2-0.52h0.27v0.81H73.8z"/>
		<path class="st0" d="M52.2,2.77c-5.09,0-9.77,1.76-13.47,4.69c5.02,3.98,8.24,10.12,8.24,17.02s-3.22,13.05-8.24,17.02
			c3.7,2.93,8.38,4.69,13.47,4.69c11.99,0,21.71-9.72,21.71-21.71S64.19,2.77,52.2,2.77z"/>
	</g>
</g>
</svg>
