<?xml version="1.0" encoding="utf-8"?>
<!-- Generator: Adobe Illustrator 26.0.0, SVG Export Plug-In . SVG Version: 6.00 Build 0)  -->
<svg version="1.1" id="Capa_1" xmlns="http://www.w3.org/2000/svg" xmlns:xlink="http://www.w3.org/1999/xlink" x="0px" y="0px"
	 viewBox="0 0 80 60" style="enable-background:new 0 0 80 60;" xml:space="preserve">
<style type="text/css">
	.st0{fill:#FFFFFF;}
	.st1{fill:none;}
</style>
<g>
	<path class="st0" d="M49.75,35.78c0-0.78-0.32-1.2-0.84-1.51c-0.54-0.29-1.14-0.32-1.96-0.32h-3.76v6.82h1.64v-2.49h1.74
		c0.59,0,0.96,0.06,1.2,0.3c0.3,0.32,0.26,0.92,0.26,1.33v0.85h1.64v-1.35c-0.01-0.6-0.04-0.91-0.27-1.25
		c-0.14-0.2-0.44-0.44-0.8-0.57C49.03,37.43,49.75,36.87,49.75,35.78z M47.61,36.75c-0.22,0.13-0.49,0.14-0.8,0.14h-1.98v-1.53h2.01
		c0.29,0,0.58,0.01,0.78,0.12c0.21,0.11,0.34,0.32,0.34,0.61C47.95,36.38,47.83,36.62,47.61,36.75z"/>
	<polygon class="st0" points="56.1,35.36 56.1,33.94 50.66,33.94 50.66,40.77 56.1,40.77 56.1,39.35 52.28,39.34 52.28,37.99 
		56,37.99 56,36.6 52.28,36.6 52.28,35.36 	"/>
	<path class="st0" d="M60.24,39.3h-3.16v1.46h3.17c1.64,0,2.56-0.69,2.56-2.15c0-0.7-0.17-1.12-0.49-1.45
		c-0.37-0.37-0.98-0.53-1.86-0.55l-0.88-0.02c-0.28,0-0.46-0.02-0.63-0.08c-0.21-0.08-0.36-0.25-0.36-0.51
		c0-0.22,0.07-0.38,0.24-0.49c0.16-0.11,0.36-0.12,0.65-0.12h2.99v-1.45h-3.27c-1.71,0-2.33,1.04-2.33,2.03
		c0,2.16,1.91,2.06,3.43,2.11c0.28,0,0.46,0.05,0.58,0.15c0.11,0.09,0.2,0.25,0.2,0.45c0,0.19-0.08,0.34-0.19,0.44
		C60.76,39.26,60.55,39.3,60.24,39.3z"/>
	<path class="st0" d="M39.68,33.94h-5.21l-2.07,2.24l-2.01-2.24h-6.56v6.82h6.46l2.09-2.26l2.01,2.26h3.17v-2.29h2.03
		c1.42,0,2.84-0.39,2.84-2.29C42.43,34.3,40.97,33.94,39.68,33.94z M29.47,39.34h-4.01v-1.36h3.58V36.6h-3.58v-1.24h4.09l1.78,1.99
		L29.47,39.34z M35.93,40.15l-2.5-2.78l2.5-2.69V40.15z M39.66,37.09h-2.11v-1.74h2.13c0.59,0,1,0.24,1,0.84
		C40.68,36.78,40.29,37.09,39.66,37.09z"/>
	<g>
		<polygon class="st0" points="35.09,23.63 35.09,22.21 29.65,22.21 29.65,29.03 35.09,29.03 35.09,27.62 31.28,27.62 31.28,26.25 
			35,26.25 35,24.86 31.28,24.86 31.28,23.63 		"/>
		<path class="st0" d="M42.77,24.04c0-0.76-0.31-1.2-0.82-1.51c-0.53-0.3-1.14-0.33-1.97-0.33h-3.75v6.82h1.63v-2.48h1.75
			c0.59,0,0.95,0.05,1.19,0.29c0.3,0.33,0.26,0.92,0.26,1.33l0.01,0.86h1.64v-1.34c0-0.61-0.04-0.91-0.27-1.25
			c-0.14-0.2-0.45-0.44-0.81-0.57C42.04,25.69,42.77,25.13,42.77,24.04z M40.64,25c-0.22,0.14-0.49,0.14-0.81,0.14h-1.98v-1.51h2.01
			c0.28,0,0.58,0.01,0.77,0.12c0.21,0.1,0.34,0.31,0.34,0.6C40.97,24.65,40.85,24.89,40.64,25z"/>
		<path class="st0" d="M66.6,39.3h-3.14v1.46h3.15c1.04,0,1.82-0.29,2.21-0.87c0.23-0.33,0.34-0.76,0.34-1.28
			c0-0.6-0.11-0.97-0.34-1.28c-0.05-0.06-0.09-0.12-0.15-0.17c-0.36-0.37-0.96-0.53-1.85-0.55l-0.88-0.02
			c-0.27,0-0.46-0.02-0.63-0.08c-0.21-0.08-0.36-0.25-0.36-0.51c0-0.22,0.07-0.38,0.24-0.49c0.17-0.11,0.36-0.12,0.66-0.12h2.97V0.9
			H10.83v24.48l1.97-4.52h4.25l0.55,1.12v-1.12h4.98l1.09,2.46l1.06-2.46h15.82c0.72,0,1.37,0.13,1.84,0.56v-0.56h4.33v0.56
			c0.75-0.41,1.67-0.56,2.72-0.56h6.28l0.58,1.12v-1.12h4.65l0.63,1.12v-1.12h4.53v9.51h-4.58l-0.86-1.44v1.44h-5.71l-0.62-1.51
			h-1.41l-0.63,1.51h-2.96c-1.16,0-2.05-0.27-2.61-0.58v0.58h-7.04v-2.16c0-0.3-0.05-0.32-0.24-0.33h-0.26l0.01,2.49H25.58v-1.18
			l-0.49,1.18h-2.84l-0.49-1.16v1.16h-5.48l-0.63-1.51h-1.41l-0.63,1.51h-2.78V59.1h57.99V41.67c-0.65,0.32-1.51,0.44-2.39,0.44
			h-4.22V41.5c-0.49,0.39-1.37,0.61-2.22,0.61H46.68v-2.2c0-0.27-0.03-0.28-0.3-0.28h-0.21v2.48h-4.38v-2.57
			c-0.73,0.32-1.57,0.35-2.27,0.33h-0.52v2.24l-5.31,0l-1.31-1.48l-1.39,1.48h-8.62v-9.52h8.79l1.26,1.46l1.35-1.46h5.88
			c0.68,0,1.8,0.07,2.3,0.56v-0.56h5.26c0.49,0,1.56,0.1,2.2,0.56v-0.56h7.97v0.56c0.4-0.38,1.23-0.56,1.95-0.56h4.46v0.56
			c0.47-0.34,1.13-0.56,2.04-0.56h3.02v1.36h-3.25c-1.71,0-2.34,1.04-2.34,2.03c0,2.16,1.91,2.06,3.44,2.11
			c0.28,0,0.46,0.05,0.57,0.15c0.12,0.09,0.2,0.25,0.2,0.45c0,0.19-0.08,0.34-0.19,0.44C67.13,39.26,66.91,39.3,66.6,39.3z"/>
		<path class="st0" d="M23.76,26.83l-2.13-4.63h-2.66v6.46l-2.77-6.46h-2.42l-2.92,6.82h1.77l0.63-1.52h3.39l0.63,1.52h3.32v-5.35
			l2.37,5.35h1.43l2.36-5.34l0.01,5.34h1.67v-6.82h-2.71L23.76,26.83z M13.83,26.08l1.11-2.72l1.12,2.72H13.83z"/>
		<path class="st0" d="M49.56,23.67h1.55v-1.46h-1.58c-1.12,0-1.95,0.25-2.48,0.8c-0.7,0.73-0.88,1.66-0.88,2.67
			c0,1.24,0.3,2.02,0.87,2.6c0.57,0.58,1.57,0.75,2.36,0.75h1.91l0.62-1.52h3.39l0.63,1.52h3.32v-5.12l3.09,5.12h2.31v-6.82H63v4.75
			l-2.87-4.75h-2.48v6.45l-2.76-6.45h-2.44l-2.3,5.36h-0.73c-0.43,0-0.88-0.08-1.14-0.35c-0.3-0.34-0.45-0.87-0.45-1.6
			c0-0.71,0.19-1.26,0.47-1.54C48.63,23.76,48.97,23.67,49.56,23.67z M53.63,23.37l1.13,2.72h-2.25L53.63,23.37z"/>
		<rect x="43.71" y="22.21" class="st0" width="1.66" height="6.82"/>
	</g>
</g>
</svg>
