<?xml version="1.0" encoding="utf-8"?>
<!-- Generator: Adobe Illustrator 26.0.0, SVG Export Plug-In . SVG Version: 6.00 Build 0)  -->
<svg version="1.1" id="Capa_1" xmlns="http://www.w3.org/2000/svg" xmlns:xlink="http://www.w3.org/1999/xlink" x="0px" y="0px"
	 viewBox="0 0 98.99 60" style="enable-background:new 0 0 98.99 60;" xml:space="preserve">
<style type="text/css">
	.st0{fill:#FFFFFF;}
	.st1{fill:none;}
</style>
<g>
	<path class="st0" d="M51.1,24.54c-0.05,4.21,3.76,6.57,6.63,7.97c2.95,1.44,3.94,2.36,3.93,3.64c-0.02,1.96-2.35,2.83-4.53,2.86
		c-3.8,0.06-6.02-1.03-7.77-1.85l-1.37,6.41c1.76,0.81,5.03,1.52,8.42,1.55c7.95,0,13.15-3.93,13.18-10.01
		c0.03-7.72-10.68-8.15-10.61-11.6c0.03-1.05,1.02-2.16,3.21-2.45c1.08-0.14,4.07-0.25,7.46,1.31l1.33-6.2
		c-1.82-0.66-4.17-1.3-7.08-1.3C56.41,14.87,51.15,18.85,51.1,24.54 M83.77,15.41c-1.45,0-2.68,0.85-3.22,2.15L69.19,44.67h7.95
		l1.58-4.37h9.71l0.92,4.37h7l-6.11-29.27H83.77 M84.88,23.31l2.29,10.99h-6.28L84.88,23.31 M41.47,15.41l-6.26,29.27h7.57
		l6.26-29.27H41.47 M30.27,15.41l-7.88,19.92L19.2,18.39c-0.37-1.89-1.85-2.98-3.49-2.98H2.82l-0.18,0.85
		c2.64,0.57,5.65,1.5,7.47,2.49c1.11,0.6,1.43,1.13,1.8,2.57l6.04,23.36h8l12.27-29.27H30.27"/>
</g>
</svg>
