<?xml version="1.0" encoding="utf-8"?>
<!-- Generator: Adobe Illustrator 26.0.0, SVG Export Plug-In . SVG Version: 6.00 Build 0)  -->
<svg version="1.1" id="Capa_1" xmlns="http://www.w3.org/2000/svg" xmlns:xlink="http://www.w3.org/1999/xlink" x="0px" y="0px"
	 viewBox="0 0 166.11 60" style="enable-background:new 0 0 166.11 60;" xml:space="preserve">
<style type="text/css">
	.st0{fill:#FFFFFF;}
	.st1{fill:none;}
</style>
<g>
	<g>
		<path class="st0" d="M62.21,18.99c0-1.95-1.01-1.82-1.99-1.84v-0.56c0.84,0.04,1.71,0.04,2.55,0.04c0.91,0,2.14-0.04,3.74-0.04
			c5.6,0,8.65,3.74,8.65,7.57c0,2.14-1.25,7.53-8.91,7.53c-1.1,0-2.12-0.04-3.14-0.04c-0.97,0-1.92,0.02-2.9,0.04v-0.56
			c1.3-0.13,1.92-0.17,1.99-1.64L62.21,18.99L62.21,18.99z M64.33,29.13c0,1.67,1.19,1.86,2.25,1.86c4.67,0,6.21-3.53,6.21-6.75
			c0-4.04-2.6-6.96-6.77-6.96c-0.89,0-1.3,0.06-1.69,0.09L64.33,29.13z M75.92,31.12h0.41c0.6,0,1.04,0,1.04-0.72v-5.86
			c0-0.95-0.32-1.08-1.12-1.51v-0.35c1.02-0.31,2.23-0.71,2.31-0.78c0.15-0.09,0.28-0.11,0.39-0.11c0.11,0,0.15,0.13,0.15,0.3v8.3
			c0,0.72,0.48,0.72,1.08,0.72h0.37v0.56c-0.74,0-1.49-0.04-2.27-0.04c-0.78,0-1.56,0.02-2.36,0.04L75.92,31.12L75.92,31.12z
			 M78.23,18.47c-0.56,0-1.06-0.52-1.06-1.08c0-0.54,0.52-1.04,1.06-1.04c0.56,0,1.06,0.46,1.06,1.04
			C79.29,17.97,78.81,18.47,78.23,18.47z M82.6,24.68c0-0.8-0.24-1.02-1.25-1.43v-0.41c0.93-0.3,1.81-0.58,2.85-1.04
			c0.06,0,0.13,0.04,0.13,0.22v1.41c1.23-0.89,2.29-1.62,3.75-1.62c1.84,0,2.48,1.34,2.48,3.03v5.58c0,0.72,0.48,0.72,1.08,0.72
			h0.39v0.56c-0.76,0-1.52-0.04-2.29-0.04c-0.78,0-1.56,0.02-2.34,0.04v-0.56h0.39c0.61,0,1.04,0,1.04-0.72v-5.6
			c0-1.23-0.75-1.84-1.99-1.84c-0.69,0-1.79,0.56-2.51,1.04v6.4c0,0.72,0.48,0.72,1.08,0.72h0.39v0.56c-0.76,0-1.51-0.04-2.29-0.04
			c-0.78,0-1.56,0.02-2.34,0.04v-0.56h0.39c0.61,0,1.04,0,1.04-0.72L82.6,24.68L82.6,24.68z M93.67,25.72
			c-0.04,0.2-0.04,0.52,0,1.25c0.13,2.05,1.45,3.74,3.18,3.74c1.19,0,2.12-0.65,2.92-1.45l0.3,0.3c-1,1.32-2.23,2.44-4,2.44
			c-3.44,0-4.13-3.33-4.13-4.71c0-4.24,2.85-5.49,4.37-5.49c1.75,0,3.64,1.1,3.66,3.4c0,0.13,0,0.26-0.02,0.39l-0.2,0.13H93.67z
			 M97.5,25.02c0.54,0,0.6-0.28,0.6-0.54c0-1.1-0.67-1.99-1.88-1.99c-1.32,0-2.23,0.97-2.49,2.53H97.5z M100.46,31.12h0.58
			c0.6,0,1.04,0,1.04-0.72v-6.08c0-0.67-0.8-0.8-1.12-0.97v-0.32c1.58-0.67,2.44-1.23,2.64-1.23c0.13,0,0.19,0.07,0.19,0.28v1.95
			h0.05c0.54-0.84,1.45-2.23,2.77-2.23c0.54,0,1.23,0.37,1.23,1.15c0,0.58-0.41,1.1-1.01,1.1c-0.67,0-0.67-0.52-1.43-0.52
			c-0.37,0-1.58,0.5-1.58,1.8v5.08c0,0.72,0.43,0.72,1.04,0.72h1.21v0.56c-1.19-0.02-2.09-0.04-3.03-0.04
			c-0.89,0-1.8,0.02-2.57,0.04L100.46,31.12L100.46,31.12z M108.79,28.68c0.28,1.43,1.15,2.64,2.73,2.64c1.27,0,1.75-0.78,1.75-1.54
			c0-2.55-4.71-1.73-4.71-5.21c0-1.21,0.97-2.77,3.35-2.77c0.69,0,1.62,0.2,2.46,0.63l0.15,2.2h-0.5c-0.22-1.36-0.97-2.14-2.36-2.14
			c-0.86,0-1.69,0.5-1.69,1.43c0,2.53,5.02,1.75,5.02,5.15c0,1.43-1.15,2.94-3.72,2.94c-0.86,0-1.88-0.3-2.64-0.73l-0.24-2.49
			L108.79,28.68z M134.52,20.5h-0.54c-0.41-2.53-2.21-3.55-4.63-3.55c-2.49,0-6.1,1.66-6.1,6.85c0,4.37,3.12,7.51,6.45,7.51
			c2.14,0,3.91-1.47,4.35-3.74l0.5,0.13l-0.5,3.16c-0.91,0.56-3.35,1.15-4.78,1.15c-5.06,0-8.26-3.27-8.26-8.13
			c0-4.43,3.96-7.61,8.19-7.61c1.75,0,3.44,0.56,5.1,1.15L134.52,20.5z M135.3,31.12h0.41c0.61,0,1.04,0,1.04-0.72V18.36
			c0-1.41-0.32-1.45-1.15-1.69v-0.35c0.86-0.28,1.77-0.67,2.23-0.93c0.24-0.13,0.41-0.24,0.47-0.24c0.13,0,0.18,0.13,0.18,0.3v14.94
			c0,0.72,0.47,0.72,1.08,0.72h0.36v0.56c-0.73,0-1.49-0.04-2.27-0.04c-0.78,0-1.56,0.02-2.36,0.04L135.3,31.12L135.3,31.12z
			 M149.18,30.49c0,0.39,0.24,0.41,0.6,0.41c0.26,0,0.58-0.02,0.87-0.02v0.46c-0.93,0.09-2.7,0.54-3.12,0.67l-0.11-0.07v-1.75
			c-1.3,1.06-2.29,1.82-3.83,1.82c-1.17,0-2.38-0.76-2.38-2.57V23.9c0-0.56-0.09-1.1-1.29-1.21v-0.41c0.78-0.02,2.51-0.15,2.79-0.15
			c0.24,0,0.24,0.15,0.24,0.63v5.58c0,0.65,0,2.51,1.88,2.51c0.74,0,1.71-0.56,2.62-1.32V23.7c0-0.43-1.04-0.67-1.81-0.89v-0.39
			c1.94-0.13,3.16-0.3,3.37-0.3c0.18,0,0.18,0.15,0.18,0.39L149.18,30.49L149.18,30.49z M153.49,23.36
			c0.86-0.74,2.03-1.56,3.22-1.56c2.51,0,4.02,2.19,4.02,4.54c0,2.83-2.07,5.67-5.17,5.67c-1.6,0-2.44-0.52-3.01-0.76l-0.65,0.5
			l-0.45-0.24c0.19-1.28,0.3-2.53,0.3-3.85v-9.3c0-1.41-0.33-1.45-1.15-1.69v-0.35c0.87-0.28,1.77-0.67,2.23-0.93
			c0.24-0.13,0.41-0.24,0.48-0.24c0.13,0,0.17,0.13,0.17,0.3L153.49,23.36L153.49,23.36L153.49,23.36z M153.49,29.24
			c0,0.82,0.78,2.21,2.23,2.21c2.31,0,3.29-2.27,3.29-4.2c0-2.34-1.77-4.28-3.46-4.28c-0.8,0-1.47,0.52-2.05,1.02L153.49,29.24
			L153.49,29.24z M60.19,44.26h0.17c0.42,0,0.87-0.06,0.87-0.67v-6.17c0-0.61-0.45-0.67-0.87-0.67h-0.17V36.4
			c0.46,0,1.17,0.05,1.74,0.05c0.59,0,1.29-0.05,1.85-0.05v0.35h-0.17c-0.42,0-0.87,0.06-0.87,0.67v6.17c0,0.61,0.45,0.67,0.87,0.67
			h0.17v0.36c-0.56,0-1.27-0.05-1.86-0.05c-0.58,0-1.27,0.05-1.73,0.05L60.19,44.26z"/>
		<path class="st0" d="M63.78,44.66c-0.57,0-1.27-0.05-1.86-0.05c-0.58,0-1.27,0.05-1.73,0.05h-0.05v-0.46h0.22
			c0.43-0.01,0.82-0.04,0.82-0.62v-6.17c0-0.58-0.39-0.61-0.82-0.62h-0.22v-0.46h0.05c0.46,0,1.17,0.05,1.74,0.05
			c0.59,0,1.29-0.05,1.85-0.05h0.05v0.46h-0.22c-0.43,0.01-0.82,0.05-0.82,0.62v6.17c0,0.58,0.39,0.61,0.82,0.62h0.22v0.46H63.78z
			 M63.73,44.56v-0.25h-0.11c-0.42,0-0.92-0.07-0.92-0.72v-6.17c0-0.65,0.5-0.72,0.92-0.72h0.11v-0.25c-0.54,0-1.22,0.05-1.8,0.05
			c-0.56,0-1.24-0.04-1.69-0.05v0.25h0.11c0.42,0,0.92,0.07,0.92,0.72v6.17c0,0.65-0.5,0.72-0.92,0.72h-0.11v0.25
			c0.46,0,1.12-0.05,1.68-0.05C62.5,44.52,63.18,44.56,63.73,44.56z M71.87,42.29l0.02-0.02v-4.41c0-0.97-0.67-1.11-1.02-1.11h-0.26
			V36.4c0.55,0,1.09,0.05,1.65,0.05c0.48,0,0.97-0.05,1.45-0.05v0.35h-0.18c-0.5,0-1.05,0.09-1.05,1.49v5.36
			c0,0.41,0.01,0.82,0.07,1.19H72.1l-6.06-6.76v4.85c0,1.02,0.2,1.38,1.11,1.38h0.2v0.35c-0.5,0-1.01-0.05-1.52-0.05
			c-0.53,0-1.07,0.05-1.6,0.05v-0.35h0.16c0.81,0,1.06-0.55,1.06-1.49v-4.96c0-0.66-0.54-1.06-1.07-1.06h-0.15V36.4
			c0.45,0,0.91,0.05,1.35,0.05c0.35,0,0.7-0.05,1.05-0.05L71.87,42.29z"/>
		<path class="st0" d="M72.55,44.84l-0.49-0.02l-5.97-6.66v4.72c0.01,1.02,0.17,1.31,1.06,1.33h0.25v0.46h-0.05
			c-0.51,0-1.02-0.05-1.52-0.05c-0.53,0-1.07,0.05-1.6,0.05h-0.05v-0.46h0.22c0.78,0,1-0.5,1.01-1.44v-4.96
			c0-0.63-0.52-1.01-1.02-1.01h-0.21v-0.45h0.05c0.45,0,0.91,0.04,1.35,0.04c0.35,0,0.69-0.04,1.09-0.03l5.17,5.82v-4.33
			c-0.01-0.94-0.63-1.05-0.97-1.06h-0.31v-0.45h0.05c0.56,0,1.1,0.04,1.65,0.04c0.48,0,0.96-0.04,1.45-0.04h0.05v0.45h-0.23
			c-0.49,0.01-0.98,0.06-1,1.44v5.35c0,0.41,0.01,0.82,0.07,1.18l0.01,0.06L72.55,44.84L72.55,44.84z M72.1,44.74h0.39
			c-0.05-0.35-0.06-0.74-0.06-1.14v-5.35c0-1.41,0.59-1.55,1.1-1.55h0.12v-0.25c-0.46,0-0.93,0.05-1.4,0.05
			c-0.54,0-1.06-0.04-1.6-0.05l0,0.25h0.21c0.36,0,1.08,0.16,1.08,1.16l-0.02,4.45l-0.02,0.02l-0.04,0.04l-5.23-5.92
			c-0.35,0-0.69,0.05-1.05,0.05c-0.43,0-0.87-0.04-1.3-0.05l0,0.25h0.1c0.55,0,1.12,0.42,1.12,1.11v4.96c0,0.94-0.26,1.54-1.11,1.55
			l-0.11,0v0.25c0.51,0,1.03-0.05,1.55-0.05c0.49,0,0.98,0.04,1.47,0.05v-0.25h-0.15c-0.93,0-1.16-0.41-1.16-1.43V37.9L72.1,44.74z
			 M71.87,42.29l0.04-0.03L71.87,42.29z M71.84,42.27L71.84,42.27l-0.01-0.01L71.84,42.27z M75.46,36.99
			c-0.88,0-0.92,0.21-1.09,1.07h-0.35c0.05-0.33,0.11-0.66,0.14-1c0.05-0.33,0.07-0.66,0.07-1h0.28c0.09,0.35,0.39,0.34,0.71,0.34
			h6.07c0.32,0,0.61-0.01,0.64-0.37l0.28,0.05c-0.05,0.32-0.09,0.64-0.13,0.95c-0.02,0.32-0.02,0.64-0.02,0.95l-0.35,0.13
			c-0.02-0.43-0.08-1.13-0.87-1.13H78.9v6.26c0,0.91,0.41,1.01,0.98,1.01h0.22v0.35c-0.46,0-1.28-0.05-1.92-0.05
			c-0.71,0-1.53,0.05-1.99,0.05v-0.35h0.22c0.65,0,0.98-0.06,0.98-0.99v-6.29L75.46,36.99z"/>
		<path class="st0" d="M80.1,44.66c-0.46,0-1.29-0.05-1.92-0.05c-0.7,0-1.53,0.05-1.99,0.05h-0.05v-0.46h0.27
			c0.65-0.02,0.91-0.02,0.92-0.94v-6.23h-1.88v-0.1h1.98v6.34c0,0.94-0.38,1.04-1.03,1.04h-0.17v0.25c0.46,0,1.26-0.04,1.94-0.04
			c0.61,0,1.4,0.04,1.87,0.04v-0.25h-0.17c-0.57,0-1.03-0.14-1.03-1.06v-6.31h1.98c0.79,0,0.89,0.67,0.92,1.11L82,37.95
			c0-0.31,0-0.61,0.02-0.92c0.03-0.3,0.08-0.6,0.12-0.9l-0.18-0.03c-0.05,0.34-0.39,0.36-0.68,0.36h-6.13
			c-0.28,0-0.58-0.01-0.68-0.34h-0.19c0,0.32-0.02,0.64-0.07,0.95c-0.03,0.32-0.09,0.63-0.13,0.94h0.25
			c0.15-0.82,0.26-1.09,1.13-1.07v0.1c-0.87,0.02-0.85,0.16-1.04,1.03l-0.01,0.04h-0.45l0.01-0.06c0.05-0.33,0.11-0.66,0.14-1
			c0.05-0.33,0.07-0.65,0.07-0.99v-0.05h0.37l0.01,0.04c0.08,0.3,0.3,0.3,0.6,0.3h6.13c0.33,0,0.57-0.01,0.59-0.32l0-0.06l0.05,0.01
			l0.33,0.05l-0.01,0.05c-0.05,0.31-0.09,0.63-0.13,0.95c-0.02,0.31-0.02,0.63-0.02,0.95v0.04l-0.03,0.01l-0.42,0.15l0-0.07
			c-0.03-0.44-0.08-1.08-0.82-1.08h-1.88v6.21c0.01,0.89,0.36,0.95,0.92,0.96h0.28v0.46L80.1,44.66z M82.58,44.26h0.17
			c0.42,0,0.87-0.06,0.87-0.67v-6.17c0-0.61-0.45-0.67-0.87-0.67h-0.17V36.4c0.72,0,1.94,0.05,2.93,0.05c0.99,0,2.21-0.05,3.01-0.05
			c-0.02,0.51-0.01,1.28,0.03,1.8l-0.35,0.09c-0.06-0.76-0.2-1.38-1.43-1.38h-1.63V40h1.4c0.71,0,0.86-0.4,0.93-1.04h0.35
			c-0.02,0.46-0.04,0.92-0.04,1.38c0,0.45,0.01,0.89,0.04,1.34l-0.35,0.07c-0.07-0.71-0.11-1.16-0.92-1.16h-1.41v2.74
			c0,0.77,0.68,0.77,1.43,0.77c1.41,0,2.03-0.1,2.39-1.44l0.33,0.08c-0.15,0.63-0.29,1.25-0.4,1.87c-0.75,0-2.11-0.05-3.17-0.05
			c-1.06,0-2.46,0.05-3.13,0.05V44.26z"/>
		<path class="st0" d="M88.88,44.66c-0.76,0-2.11-0.05-3.16-0.05c-1.06,0-2.46,0.05-3.13,0.05h-0.05v-0.46h0.21
			c0.43-0.01,0.81-0.04,0.82-0.62v-6.17c-0.01-0.57-0.39-0.61-0.82-0.62h-0.21v-0.45h0.05c0.72,0,1.94,0.04,2.93,0.04
			c0.99,0,2.21-0.04,3.01-0.04h0.05l0,0.05c-0.01,0.18-0.01,0.39-0.01,0.61c0,0.41,0.01,0.85,0.04,1.19l0,0.04l-0.04,0.01
			l-0.41,0.11l0-0.06c-0.07-0.76-0.17-1.32-1.38-1.33h-1.59l0,2.98h1.35c0.68-0.01,0.8-0.35,0.88-0.99l0-0.05h0.45l0,0.05
			c-0.02,0.46-0.04,0.92-0.04,1.38c0,0.45,0.01,0.89,0.04,1.34l0,0.04l-0.04,0.01l-0.41,0.08l0-0.06c-0.08-0.72-0.09-1.11-0.87-1.12
			l-1.36,0v2.69c0,0.71,0.62,0.71,1.38,0.71c1.42-0.01,1.98-0.08,2.34-1.4l0.01-0.05l0.05,0.01l0.38,0.1l-0.01,0.05
			c-0.15,0.62-0.29,1.25-0.4,1.87l-0.01,0.04L88.88,44.66z M88.83,44.56c0.1-0.59,0.24-1.19,0.38-1.78l-0.23-0.06
			c-0.35,1.32-1.03,1.43-2.42,1.43c-0.74,0-1.48,0-1.49-0.82v-2.79h1.46c0.82-0.01,0.91,0.49,0.96,1.16l0.25-0.05
			c-0.02-0.43-0.03-0.87-0.03-1.3c0-0.44,0.01-0.88,0.03-1.33H87.5c-0.07,0.61-0.26,1.04-0.97,1.04h-1.45v-3.19h1.69
			c1.22-0.01,1.43,0.62,1.48,1.36l0.25-0.07c-0.02-0.33-0.03-0.76-0.03-1.15c0-0.2,0-0.39,0.01-0.56c-0.8,0-1.99,0.05-2.96,0.05
			c-0.97,0-2.16-0.04-2.88-0.05v0.25h0.11c0.42,0,0.92,0.07,0.92,0.72v6.17c0,0.65-0.5,0.72-0.92,0.72h-0.11v0.25
			c0.69,0,2.05-0.04,3.08-0.04C86.75,44.52,88.08,44.56,88.83,44.56L88.83,44.56z M90.87,37.65c0-0.86-0.47-0.89-0.84-0.89h-0.21
			V36.4c0.38,0,1.11,0.05,1.82,0.05c0.71,0,1.27-0.05,1.89-0.05c1.48,0,2.8,0.4,2.8,2.07c0,1.06-0.71,1.7-1.64,2.07l2.01,3.01
			c0.33,0.5,0.56,0.64,1.14,0.71v0.36c-0.39,0-0.77-0.05-1.15-0.05c-0.36,0-0.74,0.05-1.11,0.05c-0.91-1.19-1.68-2.46-2.45-3.81
			h-0.77v2.52c0,0.91,0.42,0.94,0.96,0.94h0.21v0.36c-0.67,0-1.35-0.05-2.02-0.05c-0.57,0-1.12,0.05-1.71,0.05v-0.36h0.21
			c0.44,0,0.84-0.2,0.84-0.63L90.87,37.65z M92.37,40.38h0.57c1.18,0,1.81-0.45,1.81-1.84c0-1.05-0.67-1.72-1.72-1.72
			c-0.35,0-0.5,0.04-0.67,0.05L92.37,40.38L92.37,40.38z"/>
		<path class="st0" d="M97.85,44.66c-0.39,0-0.77-0.05-1.16-0.05c-0.36,0-0.73,0.05-1.14,0.03c-0.9-1.18-1.68-2.45-2.44-3.79h-0.7
			v2.47c0.01,0.89,0.37,0.88,0.91,0.89h0.26v0.46h-0.05c-0.67,0-1.36-0.05-2.02-0.05c-0.56,0-1.11,0.05-1.7,0.05h-0.05v-0.46h0.26
			c0.42,0,0.78-0.19,0.78-0.58v-5.98c-0.01-0.84-0.42-0.83-0.78-0.84h-0.26v-0.46h0.05c0.38,0,1.11,0.05,1.82,0.05
			c0.7,0,1.27-0.05,1.89-0.05c1.48,0,2.85,0.41,2.85,2.12c0,1.06-0.7,1.73-1.61,2.1l1.98,2.96c0.33,0.49,0.53,0.61,1.11,0.68
			l0.04,0.01v0.45L97.85,44.66L97.85,44.66z M92.37,40.75h0.8l0.01,0.03c0.77,1.35,1.54,2.62,2.41,3.79c0.36,0,0.74-0.05,1.1-0.05
			c0.38,0,0.74,0.04,1.1,0.05V44.3c-0.55-0.07-0.81-0.23-1.13-0.72l-2.05-3.06l0.06-0.02c0.92-0.36,1.6-0.99,1.6-2.03
			c0-1.63-1.27-2.01-2.75-2.02c-0.62,0-1.19,0.05-1.89,0.05c-0.69,0-1.39-0.04-1.77-0.05v0.25h0.16c0.37,0,0.89,0.06,0.89,0.95v5.98
			c0,0.47-0.44,0.69-0.89,0.69h-0.16v0.25c0.57,0,1.1-0.05,1.65-0.05c0.66,0,1.32,0.04,1.97,0.05v-0.25h-0.16
			c-0.54,0-1.01-0.07-1.01-1v-2.57H92.37L92.37,40.75z M92.37,40.43h-0.05v-3.6l0.04,0c0.16-0.01,0.32-0.05,0.68-0.05
			c1.07,0,1.77,0.7,1.77,1.77c0,1.41-0.68,1.88-1.86,1.88L92.37,40.43L92.37,40.43z M92.95,40.32c1.17-0.01,1.75-0.41,1.76-1.78
			c-0.01-1.03-0.65-1.67-1.67-1.67c-0.32,0-0.47,0.03-0.62,0.04v3.41H92.95z M105.84,42.29l0.02-0.02v-4.41
			c0-0.97-0.67-1.11-1.02-1.11h-0.26V36.4c0.55,0,1.09,0.05,1.65,0.05c0.48,0,0.96-0.05,1.45-0.05v0.35h-0.18
			c-0.49,0-1.05,0.09-1.05,1.49v5.36c0,0.41,0.01,0.82,0.07,1.19h-0.45l-6.06-6.76v4.85c0,1.02,0.2,1.38,1.11,1.38h0.2v0.35
			c-0.51,0-1.01-0.05-1.52-0.05c-0.53,0-1.07,0.05-1.6,0.05v-0.35h0.16c0.81,0,1.06-0.55,1.06-1.49v-4.96
			c0-0.66-0.54-1.06-1.07-1.06h-0.15V36.4c0.45,0,0.91,0.05,1.35,0.05c0.35,0,0.69-0.05,1.05-0.05L105.84,42.29z"/>
		<path class="st0" d="M106.52,44.84l-0.48-0.02l-5.97-6.66v4.72c0.01,1.02,0.17,1.31,1.06,1.33h0.25v0.46h-0.05
			c-0.51,0-1.01-0.05-1.52-0.05c-0.53,0-1.07,0.05-1.6,0.05h-0.05v-0.46h0.22c0.78,0,1-0.5,1.01-1.45v-4.95
			c0-0.63-0.51-1.01-1.02-1.01h-0.21v-0.46h0.05c0.45,0,0.91,0.05,1.35,0.05c0.35,0,0.69-0.05,1.08-0.03l5.17,5.82v-4.33
			c0-0.94-0.63-1.05-0.97-1.06h-0.31v-0.46h0.05c0.56,0,1.1,0.05,1.65,0.05c0.48,0,0.96-0.05,1.45-0.05h0.05v0.46h-0.23
			c-0.49,0.01-0.99,0.06-1,1.44v5.35c0,0.41,0.01,0.82,0.07,1.18l0.01,0.06L106.52,44.84z M106.08,44.74h0.39
			c-0.05-0.35-0.06-0.74-0.06-1.14v-5.35c0-1.41,0.6-1.54,1.1-1.55h0.12v-0.25c-0.46,0-0.93,0.05-1.4,0.05
			c-0.54,0-1.06-0.04-1.6-0.05v0.25h0.21c0.36,0,1.08,0.16,1.08,1.16l-0.02,4.45l-0.02,0.02l-0.04,0.04l-5.24-5.92
			c-0.35,0-0.69,0.05-1.05,0.05c-0.44,0-0.88-0.04-1.3-0.05v0.25h0.1c0.55,0,1.12,0.42,1.12,1.11v4.95c0,0.94-0.27,1.55-1.11,1.55
			l-0.11,0v0.25c0.51,0,1.03-0.04,1.55-0.04c0.49,0,0.98,0.04,1.47,0.04v-0.25h-0.15c-0.93,0-1.16-0.41-1.16-1.43V37.9L106.08,44.74
			z M105.84,42.29l0.04-0.03L105.84,42.29z M105.81,42.27L105.81,42.27l-0.01-0.01L105.81,42.27z M109.57,42.93
			c-0.12,0.4-0.26,0.71-0.26,0.92c0,0.35,0.5,0.41,0.88,0.41h0.13v0.35c-0.47-0.03-0.95-0.05-1.43-0.05c-0.42,0-0.84,0.02-1.27,0.05
			v-0.35h0.07c0.46,0,0.85-0.27,1.02-0.77l1.88-5.4c0.15-0.44,0.37-1.02,0.44-1.46c0.37-0.13,0.85-0.36,1.07-0.51
			c0.04-0.01,0.06-0.02,0.09-0.02c0.04,0,0.06,0,0.08,0.04c0.03,0.09,0.07,0.2,0.11,0.29l2.16,6.16c0.14,0.41,0.28,0.85,0.43,1.2
			c0.14,0.33,0.39,0.47,0.78,0.47h0.07v0.35c-0.53-0.03-1.06-0.05-1.62-0.05c-0.58,0-1.17,0.02-1.77,0.05v-0.35h0.13
			c0.27,0,0.73-0.05,0.73-0.34c0-0.15-0.11-0.47-0.24-0.85l-0.46-1.37h-2.67L109.57,42.93z M111.29,37.72h-0.02l-1.09,3.33h2.2
			L111.29,37.72z"/>
		<path class="st0" d="M115.84,44.66c-0.53-0.02-1.06-0.05-1.62-0.05c-0.58,0-1.16,0.02-1.76,0.05l-0.05,0v-0.46h0.18
			c0.27,0,0.68-0.06,0.68-0.29c0-0.13-0.1-0.46-0.23-0.83l-0.45-1.33h-2.6l-0.37,1.19c-0.12,0.4-0.26,0.71-0.26,0.9
			c0,0.29,0.44,0.36,0.83,0.36h0.18v0.46l-0.05,0c-0.47-0.02-0.95-0.05-1.42-0.05c-0.42,0-0.85,0.02-1.27,0.05l-0.05,0v-0.46h0.12
			c0.44,0,0.8-0.25,0.97-0.73l1.88-5.4c0.15-0.44,0.37-1.02,0.47-1.49c0.37-0.12,0.84-0.36,1.07-0.51c0.03-0.01,0.07-0.03,0.11-0.03
			c0.03,0,0.09,0.01,0.13,0.07c0.03,0.1,0.07,0.2,0.11,0.3l2.17,6.15c0.14,0.41,0.28,0.85,0.43,1.2c0.14,0.31,0.35,0.44,0.73,0.44
			h0.12v0.46L115.84,44.66z M112.5,44.56c0.58-0.02,1.15-0.04,1.72-0.04c0.55,0,1.06,0.02,1.57,0.04v-0.25h-0.02
			c-0.4,0-0.68-0.16-0.83-0.5c-0.15-0.36-0.3-0.79-0.43-1.21l-2.17-6.15c-0.04-0.09-0.07-0.2-0.1-0.28
			c-0.01-0.01-0.01-0.01-0.02-0.01h-0.02c-0.02,0-0.04,0.01-0.07,0.02c-0.23,0.15-0.7,0.38-1.05,0.47
			c-0.07,0.45-0.28,1.03-0.44,1.47l-1.88,5.4c-0.18,0.51-0.59,0.8-1.07,0.8h-0.02v0.25c0.4-0.02,0.81-0.04,1.22-0.04
			c0.45,0,0.92,0.02,1.37,0.04v-0.25h-0.08c-0.38,0-0.92-0.05-0.93-0.46c0-0.23,0.15-0.54,0.26-0.93l0.05,0.02l-0.05-0.02l0.39-1.26
			h2.74l0.47,1.4c0.13,0.38,0.24,0.69,0.24,0.86c-0.02,0.36-0.51,0.39-0.78,0.39h-0.08L112.5,44.56L112.5,44.56z M110.1,41.1
			l1.13-3.43h0.06v0.05l-0.01,0l0.01,0v-0.05h0.04l1.12,3.43H110.1z M110.24,41h2.06l-1.02-3.15L110.24,41z M111.24,37.73l0.03-0.01
			L111.24,37.73z M116.36,36.99c-0.88,0-0.92,0.21-1.1,1.07h-0.35c0.05-0.33,0.11-0.66,0.14-1c0.05-0.33,0.07-0.66,0.07-1h0.28
			c0.09,0.35,0.39,0.34,0.71,0.34h6.07c0.32,0,0.61-0.01,0.63-0.37l0.28,0.05c-0.04,0.32-0.09,0.64-0.13,0.95
			c-0.03,0.32-0.03,0.64-0.03,0.95l-0.35,0.13c-0.02-0.43-0.08-1.13-0.87-1.13h-1.93v6.26c0,0.91,0.41,1.01,0.98,1.01h0.22v0.35
			c-0.46,0-1.28-0.05-1.92-0.05c-0.7,0-1.53,0.05-1.99,0.05v-0.35h0.22c0.65,0,0.98-0.06,0.98-0.99v-6.29L116.36,36.99z"/>
		<path class="st0" d="M120.99,44.66c-0.46,0-1.29-0.05-1.92-0.05c-0.7,0-1.53,0.05-1.99,0.05h-0.05v-0.46h0.27
			c0.65-0.02,0.91-0.02,0.93-0.94l0-6.23h-1.88v-0.1h1.98v6.34c0,0.94-0.38,1.04-1.03,1.04h-0.17v0.25c0.47,0,1.26-0.05,1.94-0.05
			c0.61,0,1.4,0.04,1.87,0.05v-0.25h-0.17c-0.57,0-1.02-0.14-1.03-1.06v-6.31h1.98c0.79,0,0.89,0.67,0.92,1.11l0.26-0.09
			c0-0.31,0-0.61,0.02-0.92c0.03-0.3,0.08-0.6,0.12-0.9l-0.18-0.03c-0.05,0.34-0.39,0.36-0.68,0.36h-6.13
			c-0.28,0-0.58-0.01-0.68-0.34h-0.19c0,0.33-0.03,0.64-0.07,0.96c-0.03,0.32-0.09,0.64-0.13,0.94h0.25
			c0.16-0.82,0.26-1.09,1.14-1.07v0.1c-0.87,0.01-0.85,0.16-1.05,1.03l-0.01,0.04h-0.45l0.01-0.06c0.05-0.33,0.11-0.66,0.14-1
			c0.05-0.33,0.07-0.66,0.07-0.99v-0.05h0.37l0.01,0.04c0.08,0.3,0.3,0.3,0.6,0.3l0.06,0h6.07c0.32-0.01,0.56-0.01,0.58-0.32l0-0.06
			l0.06,0.01l0.33,0.05l-0.01,0.05c-0.05,0.31-0.09,0.63-0.13,0.95C123,37.35,123,37.67,123,37.99v0.04l-0.03,0.01l-0.42,0.15
			l0-0.07c-0.03-0.44-0.08-1.08-0.82-1.08h-1.88v6.21c0.01,0.89,0.36,0.95,0.92,0.96h0.28v0.46L120.99,44.66z M123.53,44.26h0.16
			c0.43,0,0.87-0.06,0.87-0.67v-6.17c0-0.61-0.44-0.67-0.87-0.67h-0.16V36.4c0.46,0,1.16,0.05,1.74,0.05c0.59,0,1.3-0.05,1.85-0.05
			v0.35h-0.16c-0.42,0-0.87,0.06-0.87,0.67v6.17c0,0.61,0.45,0.67,0.87,0.67h0.16v0.36c-0.57,0-1.27-0.05-1.86-0.05
			c-0.58,0-1.27,0.05-1.73,0.05L123.53,44.26z"/>
		<path class="st0" d="M127.12,44.66c-0.57,0-1.27-0.05-1.86-0.05c-0.58,0-1.27,0.05-1.73,0.05h-0.05v-0.46h0.22
			c0.43-0.01,0.82-0.04,0.82-0.62v-6.17c0-0.57-0.39-0.61-0.82-0.62h-0.22v-0.45h0.05c0.46,0,1.17,0.04,1.74,0.04
			c0.59,0,1.29-0.04,1.85-0.04h0.05v0.45h-0.21c-0.43,0.01-0.82,0.05-0.82,0.62v6.17c0.01,0.58,0.39,0.61,0.82,0.62h0.21v0.46
			H127.12z M127.07,44.56v-0.25h-0.11c-0.42,0-0.92-0.07-0.92-0.72v-6.17c0-0.65,0.5-0.72,0.92-0.72h0.11v-0.25
			c-0.54,0-1.22,0.05-1.8,0.05c-0.56,0-1.23-0.04-1.69-0.05v0.25h0.11c0.42,0,0.92,0.07,0.92,0.72v6.17c0,0.65-0.5,0.72-0.92,0.72
			h-0.11v0.25c0.45,0,1.12-0.04,1.68-0.04C125.83,44.52,126.52,44.56,127.07,44.56L127.07,44.56z M131.82,36.22
			c2.51,0,4.51,1.56,4.51,4.06c0,2.71-1.94,4.51-4.45,4.51c-2.5,0-4.4-1.69-4.4-4.22C127.48,38.12,129.37,36.22,131.82,36.22z
			 M131.99,44.27c2.28,0,2.68-2.01,2.68-3.73c0-1.72-0.93-3.8-2.88-3.8c-2.06,0-2.67,1.84-2.67,3.41
			C129.12,42.26,130.09,44.27,131.99,44.27z"/>
		<path class="st0" d="M127.42,40.57c0-2.48,1.92-4.39,4.39-4.39v0.1c-2.42,0-4.29,1.87-4.29,4.29c0.01,2.5,1.88,4.17,4.35,4.17
			c2.48,0,4.39-1.77,4.4-4.46c0-2.47-1.97-4.01-4.46-4.01v-0.1c2.53,0,4.55,1.57,4.56,4.11c0,2.74-1.97,4.55-4.5,4.56
			C129.36,44.83,127.43,43.12,127.42,40.57L127.42,40.57L127.42,40.57z M129.07,40.15c0-1.58,0.62-3.46,2.72-3.46
			c2,0,2.93,2.13,2.93,3.86c0,1.72-0.41,3.78-2.73,3.78v-0.1c2.24,0,2.62-1.96,2.63-3.68c0-1.71-0.92-3.75-2.83-3.75
			c-2.02,0-2.62,1.79-2.62,3.36c0,2.1,0.96,4.06,2.82,4.07v0.1C130.04,44.32,129.07,42.27,129.07,40.15z M144.25,42.29l0.02-0.02
			v-4.41c0-0.97-0.67-1.11-1.03-1.11H143V36.4c0.55,0,1.09,0.05,1.64,0.05c0.48,0,0.97-0.05,1.45-0.05v0.35h-0.18
			c-0.49,0-1.05,0.09-1.05,1.49v5.36c0,0.41,0.01,0.82,0.07,1.19h-0.45l-6.06-6.76v4.85c0,1.02,0.2,1.38,1.1,1.38h0.2v0.35
			c-0.51,0-1.01-0.05-1.52-0.05c-0.53,0-1.07,0.05-1.6,0.05v-0.35h0.17c0.81,0,1.06-0.55,1.06-1.49v-4.96
			c0-0.66-0.54-1.06-1.07-1.06h-0.15V36.4c0.45,0,0.91,0.05,1.35,0.05c0.35,0,0.69-0.05,1.05-0.05L144.25,42.29z"/>
		<path class="st0" d="M144.94,44.84l-0.49-0.02l-5.97-6.66v4.72c0.01,1.02,0.17,1.31,1.05,1.32h0.25v0.46h-0.05
			c-0.51,0-1.01-0.05-1.52-0.05c-0.53,0-1.07,0.05-1.6,0.05h-0.05v-0.46h0.22c0.78,0,1-0.5,1.01-1.44v-4.96
			c0-0.63-0.51-1.01-1.02-1.01h-0.2v-0.45h0.05c0.45,0,0.91,0.04,1.35,0.04c0.35,0,0.69-0.04,1.09-0.03l5.17,5.82v-4.33
			c0-0.94-0.63-1.05-0.97-1.06h-0.31v-0.45h0.05c0.55,0,1.1,0.04,1.64,0.04c0.48,0,0.96-0.04,1.45-0.04h0.05v0.45h-0.23
			c-0.48,0.01-0.98,0.06-0.99,1.44v5.35c0,0.41,0.01,0.82,0.07,1.18l0.01,0.06L144.94,44.84L144.94,44.84z M144.49,44.74h0.39
			c-0.05-0.35-0.06-0.74-0.06-1.14v-5.35c0-1.41,0.59-1.54,1.1-1.55h0.13v-0.25c-0.46,0-0.93,0.05-1.4,0.05
			c-0.54,0-1.06-0.04-1.59-0.05v0.25h0.21c0.36,0,1.07,0.16,1.07,1.16l-0.01,4.45l-0.02,0.02l-0.04,0.04l-5.24-5.92
			c-0.35,0-0.69,0.05-1.05,0.05c-0.43,0-0.87-0.04-1.3-0.05v0.25h0.1c0.55,0,1.12,0.42,1.12,1.11v4.96c0,0.94-0.26,1.54-1.11,1.55
			l-0.12,0v0.25c0.51,0,1.03-0.04,1.55-0.04c0.49,0,0.98,0.04,1.47,0.04v-0.25h-0.15c-0.92,0-1.15-0.41-1.15-1.43V37.9L144.49,44.74
			z M144.25,42.29l0.04-0.03L144.25,42.29z M144.22,42.27L144.22,42.27l-0.01-0.01L144.22,42.27z M147.98,42.93
			c-0.12,0.4-0.26,0.71-0.26,0.92c0,0.35,0.5,0.41,0.88,0.41h0.13v0.35c-0.47-0.03-0.95-0.05-1.42-0.05c-0.43,0-0.85,0.02-1.27,0.05
			v-0.35h0.07c0.46,0,0.85-0.27,1.02-0.77l1.88-5.4c0.15-0.44,0.36-1.02,0.43-1.46c0.38-0.13,0.85-0.36,1.07-0.51
			c0.03-0.01,0.06-0.02,0.09-0.02c0.04,0,0.06,0,0.08,0.04c0.04,0.09,0.07,0.2,0.11,0.29l2.16,6.16c0.14,0.41,0.28,0.85,0.44,1.2
			c0.14,0.33,0.39,0.47,0.78,0.47h0.07v0.35c-0.53-0.03-1.06-0.05-1.63-0.05c-0.58,0-1.16,0.02-1.76,0.05v-0.35h0.13
			c0.27,0,0.73-0.05,0.73-0.34c0-0.15-0.11-0.47-0.24-0.85l-0.46-1.37h-2.67L147.98,42.93z M149.7,37.72h-0.02l-1.1,3.33h2.2
			L149.7,37.72z"/>
		<path class="st0" d="M154.25,44.66c-0.53-0.02-1.06-0.05-1.62-0.05c-0.57,0-1.16,0.03-1.76,0.05l-0.05,0v-0.46h0.18
			c0.27,0,0.68-0.06,0.68-0.29c0-0.13-0.1-0.45-0.23-0.83l-0.45-1.33h-2.6l-0.36,1.19c-0.12,0.4-0.26,0.71-0.26,0.9
			c0,0.29,0.44,0.36,0.83,0.36h0.18v0.46l-0.05,0c-0.47-0.02-0.95-0.05-1.42-0.05c-0.42,0-0.84,0.03-1.27,0.05l-0.05,0v-0.46h0.12
			c0.44,0,0.81-0.25,0.98-0.73l1.88-5.4c0.15-0.44,0.36-1.02,0.47-1.49c0.37-0.13,0.84-0.36,1.07-0.51
			c0.03-0.01,0.06-0.02,0.11-0.02c0.03,0,0.09,0,0.13,0.07c0.04,0.09,0.07,0.2,0.11,0.29l2.16,6.15c0.14,0.41,0.28,0.85,0.43,1.2
			c0.14,0.31,0.35,0.43,0.73,0.44h0.12v0.46L154.25,44.66z M150.91,44.56c0.58-0.02,1.15-0.04,1.71-0.04c0.55,0,1.06,0.02,1.57,0.04
			l0-0.25h-0.02c-0.4,0-0.68-0.16-0.82-0.5c-0.16-0.36-0.3-0.79-0.44-1.2l-2.17-6.16c-0.04-0.09-0.07-0.2-0.1-0.28
			c-0.01-0.01-0.01-0.01-0.02-0.01h-0.02c-0.02,0-0.04,0.01-0.07,0.02c-0.23,0.14-0.7,0.38-1.05,0.47
			c-0.07,0.45-0.29,1.03-0.44,1.47l-1.88,5.4c-0.18,0.51-0.59,0.8-1.07,0.8h-0.02v0.25c0.4-0.02,0.81-0.04,1.22-0.04
			c0.46,0,0.92,0.02,1.37,0.04v-0.25h-0.08c-0.38,0-0.92-0.05-0.93-0.47c0-0.23,0.15-0.53,0.26-0.93l0.05,0.02l-0.05-0.02l0.39-1.26
			h2.74l0.47,1.4c0.13,0.38,0.24,0.69,0.24,0.86c-0.02,0.36-0.51,0.39-0.78,0.39h-0.08L150.91,44.56L150.91,44.56z M148.51,41.1
			l1.13-3.43h0.06v0.05l-0.01,0l0.01,0v-0.05h0.04l1.11,3.43H148.51z M148.65,41h2.06l-1.02-3.15L148.65,41z M149.65,37.73
			l0.02-0.01L149.65,37.73z M157.22,43.46c0,0.47,0.33,0.61,0.7,0.66c0.48,0.04,1.01,0.04,1.56-0.02c0.49-0.06,0.92-0.34,1.13-0.64
			c0.19-0.26,0.29-0.59,0.36-0.85h0.34c-0.13,0.67-0.29,1.33-0.44,2c-1.03,0-2.07-0.05-3.1-0.05c-1.04,0-2.07,0.05-3.11,0.05v-0.36
			h0.16c0.43,0,0.89-0.06,0.89-0.79v-6.05c0-0.61-0.46-0.67-0.89-0.67h-0.16V36.4c0.62,0,1.23,0.05,1.86,0.05
			c0.6,0,1.19-0.05,1.79-0.05v0.35h-0.3c-0.45,0-0.8,0.01-0.8,0.63V43.46z"/>
		<path class="st0" d="M160.87,44.66c-1.04,0-2.07-0.05-3.1-0.05c-1.04,0-2.07,0.05-3.11,0.05h-0.05v-0.46h0.21
			c0.43-0.01,0.83-0.04,0.83-0.74v-6.05c0-0.57-0.41-0.61-0.83-0.62h-0.21v-0.45h0.05c0.63,0,1.24,0.04,1.86,0.04
			c0.6,0,1.18-0.04,1.79-0.04h0.05v0.45h-0.34c-0.46,0.01-0.74-0.01-0.75,0.59v6.07c0,0.44,0.29,0.56,0.66,0.61
			c0.21,0.01,0.43,0.02,0.65,0.02c0.29,0,0.59-0.01,0.89-0.05c0.48-0.06,0.89-0.33,1.09-0.61c0.18-0.25,0.29-0.57,0.36-0.83
			l0.01-0.04h0.44l-0.01,0.06c-0.13,0.67-0.29,1.33-0.44,2l-0.01,0.04L160.87,44.66L160.87,44.66z M160.83,44.56
			c0.14-0.64,0.29-1.26,0.42-1.9h-0.24c-0.07,0.26-0.18,0.57-0.36,0.83c-0.22,0.31-0.66,0.59-1.17,0.66
			c-0.31,0.03-0.61,0.05-0.9,0.05c-0.23,0-0.45-0.01-0.66-0.03c-0.38-0.04-0.75-0.21-0.75-0.71v-6.07c0-0.65,0.41-0.69,0.85-0.69
			h0.24v-0.25c-0.58,0-1.15,0.05-1.74,0.05c-0.61,0-1.21-0.04-1.81-0.05v0.25h0.11c0.42,0,0.93,0.07,0.93,0.72v6.05
			c0,0.76-0.51,0.84-0.93,0.84h-0.11v0.25c1.02,0,2.04-0.04,3.06-0.04C158.79,44.52,159.81,44.56,160.83,44.56L160.83,44.56z
			 M161.17,36.06c0.71,0,1.24,0.55,1.24,1.24c0,0.7-0.53,1.24-1.24,1.24c-0.71,0-1.24-0.54-1.24-1.24
			C159.93,36.61,160.46,36.06,161.17,36.06z M161.17,38.31c0.55,0,0.98-0.47,0.98-1c0-0.53-0.42-1.01-0.98-1.01
			c-0.56,0-0.98,0.48-0.98,1.01C160.18,37.84,160.61,38.31,161.17,38.31z M160.55,37.96V37.9c0.15-0.02,0.18-0.02,0.18-0.11v-0.92
			c0-0.13-0.01-0.17-0.17-0.17v-0.06h0.63c0.22,0,0.42,0.1,0.42,0.33c0,0.18-0.12,0.32-0.29,0.37l0.2,0.28
			c0.1,0.13,0.2,0.25,0.27,0.29v0.04h-0.24c-0.12,0-0.22-0.24-0.45-0.57h-0.14v0.41c0,0.08,0.03,0.08,0.18,0.1v0.06L160.55,37.96
			L160.55,37.96z M160.97,37.31h0.15c0.16,0,0.23-0.12,0.23-0.32c0-0.2-0.12-0.27-0.24-0.27h-0.14V37.31z"/>
	</g>
	<path class="st1" d="M24.49,10.68C13.84,10.68,5.17,19.35,5.17,30c0,10.65,8.67,19.32,19.32,19.32c10.65,0,19.32-8.67,19.32-19.32
		C43.81,19.35,35.14,10.68,24.49,10.68z M24.49,48.32C14.39,48.32,6.17,40.1,6.17,30c0-10.1,8.22-18.32,18.32-18.33
		c10.1,0,18.32,8.22,18.32,18.33C42.81,40.1,34.59,48.32,24.49,48.32z"/>
	<path class="st0" d="M24.49,11.68C14.39,11.68,6.17,19.9,6.17,30c0,10.1,8.22,18.32,18.32,18.32c10.1,0,18.32-8.22,18.32-18.32
		C42.81,19.9,34.59,11.68,24.49,11.68z M20.22,41.13c-4.47-1.72-7.65-6.05-7.66-11.13c0.01-5.08,3.18-9.41,7.66-11.14V41.13z
		 M28.76,41.14V18.86c4.48,1.72,7.65,6.05,7.66,11.14C36.41,35.08,33.23,39.42,28.76,41.14z"/>
	<path class="st0" d="M34.12,9.44h-9.67c-11.37,0-20.74,8.48-20.74,20.74c0,11.22,9.36,20.44,20.74,20.38h9.67
		c11.24,0.05,21.5-9.17,21.5-20.38C55.61,17.91,45.36,9.43,34.12,9.44z M24.49,49.32C13.84,49.32,5.17,40.65,5.17,30
		c0-10.65,8.67-19.32,19.32-19.33c10.65,0,19.32,8.67,19.32,19.33C43.81,40.65,35.14,49.32,24.49,49.32z"/>
</g>
</svg>
