<?xml version="1.0" encoding="utf-8"?>
<!-- Generator: Adobe Illustrator 26.0.0, SVG Export Plug-In . SVG Version: 6.00 Build 0)  -->
<svg version="1.1" id="Capa_1" xmlns="http://www.w3.org/2000/svg" xmlns:xlink="http://www.w3.org/1999/xlink" x="0px" y="0px"
	 viewBox="0 0 35 35" style="enable-background:new 0 0 35 35;" xml:space="preserve">
<style type="text/css">
	.st0{fill:#6336C7;}
	.st1{fill:#6336C7;stroke:#FFFFFF;stroke-width:0.25;stroke-miterlimit:10;}
</style>
<g>
	<path class="st0" d="M24.92,3.8c1.14,0,2.28,0,3.42,0c1.74,0,2.87,1.13,2.87,2.88c0,2.26-0.01,4.52,0,6.77
		c0,0.89-0.31,1.61-0.94,2.24c-4.85,4.84-9.7,9.69-14.55,14.53c-1.29,1.28-2.91,1.28-4.19,0c-2.26-2.26-4.52-4.52-6.78-6.78
		c-1.3-1.3-1.3-2.88-0.01-4.18c4.85-4.85,9.7-9.69,14.54-14.54c0.63-0.63,1.35-0.95,2.24-0.94C22.66,3.82,23.79,3.8,24.92,3.8z
		 M24.96,5.74c-1.13,0-2.26,0.01-3.39,0c-0.36,0-0.63,0.11-0.88,0.37c-4.85,4.86-9.71,9.71-14.56,14.56c-0.51,0.51-0.51,0.88,0,1.39
		c2.27,2.27,4.55,4.55,6.82,6.82c0.51,0.51,0.88,0.51,1.39,0.01c4.85-4.85,9.71-9.71,14.57-14.56c0.25-0.25,0.37-0.53,0.37-0.88
		c-0.01-2.25,0-4.5-0.01-6.74c0-0.69-0.26-0.95-0.95-0.96C27.2,5.74,26.08,5.74,24.96,5.74z"/>
	<path class="st0" d="M25.91,8.05c0.53,0,0.96,0.42,0.97,0.95c0,0.54-0.44,0.99-0.98,0.98C25.38,9.97,24.95,9.52,24.95,9
		C24.95,8.47,25.38,8.05,25.91,8.05z"/>
</g>
</svg>
