<?xml version="1.0" encoding="utf-8"?>
<!-- Generator: Adobe Illustrator 26.0.0, SVG Export Plug-In . SVG Version: 6.00 Build 0)  -->
<svg version="1.1" id="Capa_1" xmlns="http://www.w3.org/2000/svg" xmlns:xlink="http://www.w3.org/1999/xlink" x="0px" y="0px"
	 viewBox="0 0 35 35" style="enable-background:new 0 0 35 35;" xml:space="preserve">
<style type="text/css">
	.st0{fill:#6336C7;}
	.st1{fill:#6336C7;stroke:#FFFFFF;stroke-width:0.25;stroke-miterlimit:10;}
</style>
<g>
	<path class="st0" d="M17.75,33.29c-0.88-0.18-1.5-0.74-2.1-1.36c-1.24-1.27-2.51-2.52-3.77-3.78c-0.08-0.08-0.16-0.15-0.28-0.27
		c-0.2,0.21-0.38,0.42-0.58,0.61c-1.18,1.16-2.85,1.16-4.02,0c-0.84-0.83-1.68-1.67-2.51-2.51c-1.18-1.19-1.18-2.85,0-4.04
		c1.66-1.68,3.36-3.33,5-5.03c2.62-2.7,4.27-5.92,5.04-9.6c0.01-0.03,0-0.06,0.01-0.11c-0.46-0.74-0.6-1.55-0.32-2.41
		c0.6-1.87,2.92-2.52,4.42-1.26c0.09,0.07,0.17,0.15,0.25,0.23c3.43,3.43,6.86,6.86,10.29,10.29c0.9,0.91,1.15,2.08,0.68,3.16
		c-0.64,1.48-2.39,2.1-3.83,1.35c-0.09-0.05-0.18-0.1-0.28-0.15c-2.66,0.53-5.11,1.56-7.38,3.14c0.13,0.13,0.24,0.24,0.35,0.36
		c1.2,1.22,1.21,2.87,0.01,4.09c-0.19,0.19-0.38,0.37-0.61,0.6c0.71,0.69,1.42,1.33,2.07,2.03c1.31,1.42,0.8,3.69-0.98,4.43
		c-0.22,0.09-0.45,0.14-0.67,0.21C18.29,33.29,18.02,33.29,17.75,33.29z M11.64,17.34c1.35,1.35,2.67,2.67,4.01,4.01
		c2.46-2.12,5.3-3.6,8.46-4.44c-2.69-2.68-5.35-5.35-8.03-8.03C15.24,12.05,13.74,14.89,11.64,17.34z M10.3,18.77
		c-0.05,0.04-0.11,0.1-0.17,0.15c-1.43,1.43-2.86,2.86-4.29,4.29c-0.5,0.5-0.5,1,0,1.5c0.79,0.79,1.58,1.58,2.38,2.37
		c0.56,0.56,1.03,0.56,1.59,0c1.4-1.4,2.8-2.8,4.2-4.21c0.08-0.08,0.15-0.16,0.19-0.21C12.89,21.37,11.6,20.07,10.3,18.77z
		 M28.24,16.23c0.01-0.42-0.16-0.66-0.37-0.88c-3.42-3.41-6.83-6.83-10.25-10.24c-0.07-0.07-0.13-0.13-0.2-0.19
		c-0.3-0.21-0.62-0.26-0.96-0.09C16.13,5,15.96,5.27,15.94,5.62c-0.02,0.34,0.15,0.58,0.37,0.81c3.42,3.41,6.83,6.83,10.25,10.24
		c0.07,0.07,0.13,0.14,0.2,0.19c0.3,0.21,0.62,0.25,0.96,0.09C28.06,16.78,28.22,16.5,28.24,16.23z M12.97,26.62
		c1.51,1.51,3.02,3.03,4.55,4.54c0.24,0.24,0.54,0.33,0.88,0.24c0.73-0.2,0.93-1.04,0.37-1.6c-1.46-1.46-2.92-2.92-4.38-4.38
		c-0.04-0.04-0.09-0.08-0.12-0.1C13.83,25.76,13.41,26.18,12.97,26.62z M16.87,25.25c1.36-1.13,1.07-1.67-0.01-2.52
		c-0.43,0.41-0.87,0.82-1.29,1.22C16.02,24.4,16.44,24.82,16.87,25.25z"/>
	<path class="st0" d="M29.6,4.54C29.48,4.75,29.39,5,29.22,5.18c-0.57,0.6-1.17,1.19-1.76,1.77c-0.41,0.41-0.97,0.42-1.35,0.05
		c-0.38-0.38-0.37-0.93,0.04-1.35c0.59-0.6,1.19-1.2,1.79-1.79c0.3-0.29,0.65-0.38,1.05-0.21C29.33,3.79,29.54,4.12,29.6,4.54z"/>
	<path class="st0" d="M29.53,10.96c-0.3,0-0.6,0.01-0.89,0c-0.54-0.01-0.96-0.42-0.95-0.93c0-0.5,0.41-0.91,0.93-0.91
		c0.62-0.01,1.23-0.01,1.85,0c0.53,0.01,0.92,0.41,0.91,0.93c0,0.51-0.4,0.9-0.93,0.92C30.15,10.97,29.84,10.96,29.53,10.96z"/>
	<path class="st0" d="M23.99,3.58c0,0.3,0.01,0.6,0,0.89c-0.01,0.54-0.4,0.93-0.9,0.94c-0.49,0.01-0.92-0.37-0.93-0.88
		c-0.02-0.65-0.02-1.3,0-1.94c0.02-0.51,0.45-0.89,0.94-0.88c0.51,0.01,0.89,0.4,0.9,0.94C23.99,2.96,23.99,3.27,23.99,3.58z"/>
	<path class="st0" d="M10.21,21.74c0.51,0.02,0.8,0.2,0.95,0.55c0.15,0.35,0.12,0.7-0.14,0.98c-0.45,0.48-0.91,0.95-1.39,1.39
		c-0.38,0.35-0.93,0.31-1.28-0.06c-0.33-0.35-0.35-0.89,0-1.26c0.44-0.46,0.89-0.92,1.35-1.35C9.86,21.85,10.1,21.79,10.21,21.74z"
		/>
</g>
</svg>
