<?xml version="1.0" encoding="utf-8"?>
<!-- Generator: Adobe Illustrator 26.0.0, SVG Export Plug-In . SVG Version: 6.00 Build 0)  -->
<svg version="1.1" id="Capa_1" xmlns="http://www.w3.org/2000/svg" xmlns:xlink="http://www.w3.org/1999/xlink" x="0px" y="0px"
	 viewBox="0 0 35 35" style="enable-background:new 0 0 35 35;" xml:space="preserve">
<style type="text/css">
	.st0{fill:#6336C7;}
	.st1{fill:#6336C7;stroke:#FFFFFF;stroke-width:0.25;stroke-miterlimit:10;}
</style>
<g>
	<path class="st0" d="M2.16,8.21c0.12-0.54,0.3-1.04,0.67-1.47c0.73-0.85,2.03-1.16,3.08-0.7c1.09,0.47,1.76,1.63,1.61,2.77
		c-0.16,1.22-1.06,2.18-2.18,2.35c-1.29,0.19-2.41-0.39-2.94-1.55C2.29,9.36,2.24,9.08,2.16,8.81C2.16,8.61,2.16,8.41,2.16,8.21z
		 M4.85,9.41c0.49,0.01,0.9-0.4,0.91-0.89c0.01-0.49-0.4-0.9-0.89-0.91c-0.49-0.01-0.9,0.4-0.91,0.89C3.96,8.99,4.36,9.4,4.85,9.41z
		"/>
	<path class="st0" d="M2.16,17.2c0.12-0.54,0.3-1.04,0.67-1.47c0.73-0.85,2.03-1.16,3.08-0.7c1.09,0.47,1.76,1.63,1.61,2.77
		c-0.16,1.22-1.06,2.18-2.18,2.35c-1.29,0.19-2.41-0.39-2.94-1.55c-0.11-0.25-0.16-0.53-0.24-0.79C2.16,17.6,2.16,17.4,2.16,17.2z
		 M4.87,16.6c-0.49-0.01-0.9,0.4-0.91,0.89c-0.01,0.49,0.4,0.9,0.89,0.91c0.49,0.01,0.9-0.4,0.91-0.89
		C5.76,17.02,5.35,16.61,4.87,16.6z"/>
	<path class="st0" d="M2.16,26.19c0.12-0.54,0.3-1.04,0.67-1.47c0.73-0.85,2.03-1.16,3.08-0.7c1.09,0.47,1.76,1.63,1.61,2.77
		C7.36,28,6.46,28.97,5.34,29.13c-1.29,0.19-2.41-0.39-2.94-1.55c-0.11-0.25-0.16-0.53-0.24-0.79C2.16,26.59,2.16,26.39,2.16,26.19z
		 M5.75,26.49c0-0.49-0.41-0.9-0.9-0.9c-0.49,0-0.9,0.41-0.9,0.9c0,0.49,0.41,0.9,0.9,0.9C5.34,27.39,5.75,26.98,5.75,26.49z"/>
	<path class="st0" d="M21.09,5.82c2.97,0,5.93,0,8.9,0c1.16,0,2.03,0.49,2.57,1.53c0.8,1.55-0.26,3.59-1.99,3.81
		c-0.2,0.03-0.4,0.05-0.6,0.05c-5.92,0-11.84,0-17.76,0c-1.17,0-2.05-0.49-2.6-1.54c-0.79-1.54,0.27-3.57,1.98-3.8
		c0.25-0.03,0.5-0.05,0.75-0.05C15.26,5.81,18.18,5.82,21.09,5.82z M21.1,9.41c2.94,0,5.87,0,8.81,0c0.72,0,1.14-0.33,1.14-0.9
		c0-0.57-0.42-0.9-1.14-0.9c-5.87,0-11.74,0-17.62,0c-0.11,0-0.22,0-0.33,0.01c-0.46,0.05-0.81,0.44-0.81,0.89
		c0,0.45,0.35,0.84,0.81,0.89c0.11,0.01,0.22,0.01,0.33,0.01C15.22,9.41,18.16,9.41,21.1,9.41z"/>
	<path class="st0" d="M21.09,20.2c-2.97,0-5.93,0-8.9,0c-1.15,0-2.01-0.48-2.56-1.51c-0.82-1.56,0.24-3.61,1.99-3.83
		c0.24-0.03,0.48-0.05,0.72-0.05c5.87,0,11.74,0,17.61,0c1.05,0,1.93,0.37,2.47,1.29c1.11,1.88-0.17,4.09-2.38,4.1
		c-2.58,0.01-5.15,0-7.73,0C21.91,20.2,21.5,20.2,21.09,20.2z M21.13,16.6c-2.95,0-5.89,0-8.84,0c-0.72,0-1.14,0.33-1.14,0.9
		c0,0.57,0.42,0.9,1.14,0.9c5.87,0,11.74,0,17.62,0c0.11,0,0.22,0,0.33-0.01c0.46-0.05,0.81-0.44,0.81-0.89
		c0-0.45-0.35-0.84-0.81-0.89c-0.11-0.01-0.22-0.01-0.33-0.01C26.98,16.6,24.05,16.6,21.13,16.6z"/>
	<path class="st0" d="M21.11,23.79c2.97,0,5.93,0,8.9,0c1.16,0,2.03,0.5,2.57,1.54c0.79,1.54-0.27,3.57-1.99,3.8
		c-0.25,0.03-0.5,0.05-0.75,0.05c-5.87,0-11.74,0-17.61,0c-1.17,0-2.06-0.48-2.6-1.53c-0.8-1.55,0.26-3.59,1.99-3.81
		c0.24-0.03,0.48-0.05,0.72-0.05C15.26,23.79,18.19,23.79,21.11,23.79z M21.07,27.39c2.95,0,5.89,0,8.84,0
		c0.72,0,1.14-0.33,1.14-0.9c0-0.57-0.42-0.9-1.14-0.9c-5.87,0-11.74,0-17.62,0c-0.11,0-0.22,0-0.33,0.01
		c-0.46,0.05-0.81,0.44-0.81,0.89c0,0.45,0.35,0.84,0.81,0.89c0.11,0.01,0.22,0.01,0.33,0.01C15.21,27.39,18.14,27.39,21.07,27.39z"
		/>
</g>
</svg>
