<?xml version="1.0" encoding="utf-8"?>
<!-- Generator: Adobe Illustrator 26.0.0, SVG Export Plug-In . SVG Version: 6.00 Build 0)  -->
<svg version="1.1" id="Capa_1" xmlns="http://www.w3.org/2000/svg" xmlns:xlink="http://www.w3.org/1999/xlink" x="0px" y="0px"
	 viewBox="0 0 35 35" style="enable-background:new 0 0 35 35;" xml:space="preserve">
<style type="text/css">
	.st0{fill:#6336C7;}
	.st1{fill:#6336C7;stroke:#FFFFFF;stroke-width:0.25;stroke-miterlimit:10;}
</style>
<g>
	<path class="st0" d="M18.07,2.86c0.62,0.11,1.25,0.18,1.85,0.35c2.25,0.61,4,1.93,5.26,3.88c1.05,1.62,1.51,3.4,1.42,5.33
		c-0.05,1.05-0.31,2.05-0.64,3.04c-0.67,2.01-1.63,3.88-2.7,5.7c-0.52,0.89-1.08,1.75-1.62,2.63c-0.05,0.08-0.1,0.16-0.17,0.28
		c0.42,0.05,0.8,0.1,1.18,0.16c1.79,0.27,3.55,0.61,5.19,1.42c0.62,0.31,1.19,0.69,1.58,1.29c0.55,0.86,0.42,1.86-0.3,2.58
		c-0.71,0.69-1.58,1.09-2.49,1.41c-2,0.69-4.07,1.03-6.17,1.13c-1.68,0.08-3.38,0.11-5.06,0.06c-2.34-0.08-4.65-0.4-6.89-1.14
		c-0.91-0.3-1.78-0.67-2.5-1.34c-1.08-1.01-1.02-2.4,0.14-3.33c0.71-0.57,1.53-0.93,2.38-1.22c1.53-0.51,3.1-0.78,4.69-0.97
		c0.08-0.01,0.15-0.02,0.23-0.03c0.02,0,0.03-0.02,0.06-0.05c-0.06-0.09-0.12-0.19-0.18-0.28c-1.44-2.24-2.79-4.53-3.8-7
		c-0.6-1.47-1.12-2.97-1.13-4.58C8.39,8.75,9.85,6.1,12.71,4.24c1.23-0.8,2.6-1.22,4.06-1.34c0.06,0,0.11-0.03,0.16-0.04
		C17.31,2.86,17.69,2.86,18.07,2.86z M17.49,26.49c0.06-0.06,0.08-0.09,0.1-0.12c1.8-2.44,3.49-4.96,4.91-7.64
		c0.81-1.53,1.53-3.11,1.99-4.79c0.3-1.12,0.38-2.25,0.15-3.4c-0.79-3.91-4.62-6.47-8.53-5.69c-2.22,0.44-3.9,1.69-5,3.66
		c-0.83,1.51-1.09,3.13-0.74,4.84c0.3,1.45,0.85,2.8,1.49,4.13c1.18,2.46,2.64,4.77,4.19,7.01C16.52,25.16,17,25.81,17.49,26.49z
		 M20.3,25.79c-0.08,0.1-0.13,0.17-0.18,0.24c-0.58,0.79-1.16,1.59-1.75,2.37c-0.55,0.74-1.18,0.73-1.74-0.01
		c-0.31-0.41-0.62-0.82-0.92-1.24c-0.33-0.44-0.65-0.89-1.02-1.4c-1.29,0.2-2.6,0.39-3.9,0.63c-1.03,0.19-2.04,0.48-2.97,1
		c-0.28,0.16-0.52,0.39-0.85,0.64c0.28,0.23,0.46,0.45,0.69,0.55c0.7,0.31,1.4,0.64,2.14,0.86c1.68,0.5,3.41,0.7,5.16,0.82
		c3.08,0.2,6.14,0.09,9.17-0.54c1.12-0.23,2.23-0.52,3.22-1.13c0.23-0.14,0.42-0.33,0.63-0.51c-0.3-0.47-0.7-0.68-1.12-0.87
		c-1.28-0.58-2.64-0.88-4.01-1.09C21.99,25.99,21.13,25.9,20.3,25.79z"/>
	<path class="st0" d="M21.76,11.98c0.01,2.34-1.9,4.26-4.25,4.27c-2.35,0.01-4.28-1.92-4.28-4.27c0.01-2.34,1.9-4.24,4.23-4.25
		C19.83,7.72,21.75,9.62,21.76,11.98z M19.92,12c0.01-1.32-1.08-2.42-2.41-2.43c-1.32-0.01-2.42,1.09-2.42,2.42
		c-0.01,1.32,1.08,2.42,2.41,2.43C18.81,14.42,19.91,13.32,19.92,12z"/>
</g>
</svg>
