<?xml version="1.0" encoding="utf-8"?>
<!-- Generator: Adobe Illustrator 26.0.0, SVG Export Plug-In . SVG Version: 6.00 Build 0)  -->
<svg version="1.1" id="Capa_1" xmlns="http://www.w3.org/2000/svg" xmlns:xlink="http://www.w3.org/1999/xlink" x="0px" y="0px"
	 viewBox="0 0 35 35" style="enable-background:new 0 0 35 35;" xml:space="preserve">
<style type="text/css">
	.st0{fill:#6336C7;}
	.st1{fill:#6336C7;stroke:#FFFFFF;stroke-width:0.25;stroke-miterlimit:10;}
</style>
<g>
	<path class="st0" d="M3.59,22.66c0-6.16,0-12.31,0-18.47c0.19-0.37,0.45-0.6,0.9-0.6c8.67,0,17.34,0,26.02,0
		c0.56,0,0.89,0.33,0.89,0.9c0,5.96,0,11.91,0,17.87c0,0.56-0.33,0.89-0.9,0.89c-0.72,0-1.43,0-2.15,0c-0.09,0-0.17,0-0.27,0
		c0,0.79,0,1.54,0,2.29c0,1.57-1.04,2.6-2.61,2.6c-2.85,0-5.7,0-8.55,0c-0.11,0-0.21,0-0.3,0c-0.03,0.04-0.04,0.04-0.04,0.05
		c-0.02,0.06-0.03,0.12-0.05,0.18c-0.39,1.34-1.23,2.27-2.53,2.77c-0.31,0.12-0.64,0.17-0.96,0.26c-0.76,0-1.52,0-2.28,0
		c-0.8-0.4-0.73-1.13-0.2-1.56c0.15-0.13,0.29-0.28,0.42-0.42c0.32-0.36,0.57-0.77,0.69-1.27c-0.12,0-0.21,0-0.31,0
		c-0.69,0-1.38,0.02-2.06-0.01c-0.92-0.03-1.62-0.46-2.08-1.26C7,26.5,6.91,26.08,6.91,25.64c0-0.78,0-1.57,0-2.38
		c-0.76,0-1.49-0.02-2.22,0.01C4.18,23.29,3.81,23.13,3.59,22.66z M12.77,29.75c0.04,0.01,0.07,0.02,0.09,0.02
		c1.17-0.11,2.12-1.11,2.18-2.3c0.03-0.68,0.32-0.95,1.01-0.95c3.15,0,6.3,0,9.45,0c0.63,0,0.95-0.32,0.95-0.95
		c0-3.71,0-7.42,0-11.14c0-0.63-0.32-0.95-0.95-0.95c-5.34,0-10.68,0-16.02,0c-0.64,0-0.95,0.31-0.95,0.95c0,3.71,0,7.42,0,11.14
		c0,0.64,0.32,0.95,0.95,0.95c1.02,0,2.05,0,3.07,0c0.52,0,0.86,0.34,0.87,0.84c0,0.15-0.01,0.31-0.03,0.46
		C13.33,28.5,13.11,29.14,12.77,29.75z M29.76,5.25c-8.19,0-16.36,0-24.53,0c0,5.47,0,10.91,0,16.37c0.56,0,1.1,0,1.67,0
		c0-0.12,0-0.23,0-0.34c0-2.26,0-4.53,0-6.79c0-1.61,1.02-2.63,2.62-2.63c5.31,0,10.63,0,15.94,0c1.59,0,2.62,1.02,2.62,2.61
		c0,2.28,0,4.56,0,6.84c0,0.1,0,0.21,0,0.31c0.58,0,1.12,0,1.67,0C29.76,16.16,29.76,10.71,29.76,5.25z"/>
	<path class="st0" d="M17.5,19.19c1.61,0,3.22,0,4.83,0c0.65,0,1.06,0.59,0.8,1.14c-0.16,0.34-0.44,0.49-0.81,0.48
		c-1.22,0-2.44,0-3.66,0c-1.99,0-3.98,0-5.97,0c-0.65,0-1.07-0.58-0.82-1.13c0.16-0.35,0.45-0.5,0.83-0.5
		C14.3,19.19,15.9,19.19,17.5,19.19z"/>
	<path class="st0" d="M17.47,24.07c-1.6,0-3.2,0-4.8,0c-0.65,0-1.05-0.6-0.79-1.15c0.16-0.34,0.44-0.48,0.81-0.48
		c1.83,0,3.65,0,5.48,0c1.39,0,2.79,0,4.18,0c0.34,0,0.59,0.14,0.76,0.44c0.15,0.27,0.14,0.54-0.02,0.8
		c-0.18,0.29-0.45,0.4-0.78,0.4C20.69,24.07,19.08,24.07,17.47,24.07z"/>
	<path class="st0" d="M19.13,17.56c-1.05,0-2.1,0-3.15,0c-0.55,0-0.92-0.32-0.93-0.81c-0.01-0.49,0.37-0.82,0.94-0.82
		c2.11,0,4.21,0,6.32,0c0.64,0,1.05,0.55,0.83,1.11c-0.13,0.33-0.42,0.52-0.81,0.52C21.26,17.56,20.2,17.56,19.13,17.56z"/>
	<path class="st0" d="M11.79,6.86c1.33,0,2.66,0,3.99,0c0.53,0,0.9,0.33,0.9,0.81c0.01,0.48-0.36,0.82-0.88,0.82c-2.67,0-5.34,0-8,0
		c-0.65,0-1.07-0.58-0.82-1.13c0.15-0.34,0.43-0.5,0.8-0.49C9.12,6.86,10.46,6.86,11.79,6.86z"/>
	<path class="st0" d="M20.76,8.48c-0.44,0-0.81-0.37-0.81-0.81c0-0.45,0.38-0.83,0.83-0.82c0.44,0.01,0.8,0.38,0.8,0.82
		C21.57,8.12,21.2,8.48,20.76,8.48z"/>
	<path class="st0" d="M24.83,7.67c0,0.44-0.37,0.81-0.81,0.81c-0.45,0-0.83-0.38-0.82-0.83c0.01-0.44,0.38-0.8,0.82-0.8
		C24.47,6.86,24.83,7.23,24.83,7.67z"/>
	<path class="st0" d="M28.09,7.66c0.01,0.44-0.36,0.81-0.8,0.82c-0.45,0.01-0.83-0.37-0.83-0.82c0-0.44,0.37-0.81,0.81-0.81
		C27.71,6.85,28.09,7.22,28.09,7.66z"/>
</g>
</svg>
