<?xml version="1.0" encoding="utf-8"?>
<!-- Generator: Adobe Illustrator 26.0.0, SVG Export Plug-In . SVG Version: 6.00 Build 0)  -->
<svg version="1.1" id="Capa_1" xmlns="http://www.w3.org/2000/svg" xmlns:xlink="http://www.w3.org/1999/xlink" x="0px" y="0px"
	 viewBox="0 0 35 35" style="enable-background:new 0 0 35 35;" xml:space="preserve">
<style type="text/css">
	.st0{fill:#6336C7;}
	.st1{fill:#6336C7;stroke:#FFFFFF;stroke-width:0.25;stroke-miterlimit:10;}
</style>
<g>
	<path class="st1" d="M25.82,15.18l-6.19,6.19c-0.65,0.65-0.65,1.71,0,2.37l0,0c0.65,0.65,1.71,0.65,2.37,0l6.19-6.19
		c0.65-0.65,0.65-1.71,0-2.37l0,0C27.53,14.52,26.47,14.52,25.82,15.18z"/>
	<path class="st1" d="M26.08,10.33L26.08,10.33c-0.65-0.65-1.71-0.65-2.37,0l-7.56,7.56c-0.65,0.65-0.65,1.71,0,2.37l0,0
		c0.65,0.65,1.71,0.65,2.37,0l7.56-7.56C26.74,12.04,26.74,10.98,26.08,10.33z"/>
	<path class="st1" d="M12.68,16.78L12.68,16.78c0.65,0.65,1.71,0.65,2.37,0L25.37,6.45c0.65-0.65,0.65-1.71,0-2.37l0,0
		c-0.65-0.65-1.71-0.65-2.37,0L12.68,14.41C12.02,15.07,12.02,16.12,12.68,16.78z"/>
	<path class="st1" d="M29.64,20.68L29.64,20.68c-0.65-0.65-1.71-0.65-2.37,0l-4.84,4.84c-2.96,2.96-7.74,3.5-11.04,0.92
		c-3.95-3.08-4.21-8.83-0.77-12.26l-0.01-0.01c1.71-1.9,2.25-4.48,1.62-6.81c-0.49-1.8-2.73-2.41-4.05-1.09l0,0
		c-0.12,0.12-0.12,0.31,0,0.42c1.34,1.56,1.28,3.92-0.2,5.39l0.01,0.01c-4.43,4.73-4.13,12.3,0.9,16.63
		c4.63,3.99,11.67,3.41,15.99-0.91l4.76-4.76C30.29,22.4,30.29,21.34,29.64,20.68z"/>
</g>
</svg>
