<?xml version="1.0" encoding="utf-8"?>
<!-- Generator: Adobe Illustrator 26.0.0, SVG Export Plug-In . SVG Version: 6.00 Build 0)  -->
<svg version="1.1" id="Capa_1" xmlns="http://www.w3.org/2000/svg" xmlns:xlink="http://www.w3.org/1999/xlink" x="0px" y="0px"
	 viewBox="0 0 35 35" style="enable-background:new 0 0 35 35;" xml:space="preserve">
<style type="text/css">
	.st0{fill:#6336C7;}
	.st1{fill:#6336C7;stroke:#FFFFFF;stroke-width:0.25;stroke-miterlimit:10;}
</style>
<g>
	<path class="st0" d="M16.06,20.43c0-0.13,0-0.26,0-0.4c0-4.89,0-9.77,0-14.66c0-0.4,0.05-0.77,0.3-1.09
		c0.36-0.47,0.98-0.68,1.55-0.51c0.59,0.17,1,0.68,1.04,1.29c0.01,0.15,0.01,0.29,0.01,0.44c0,4.84,0,9.68,0,14.52
		c0,0.13,0,0.27,0,0.49c0.14-0.13,0.23-0.21,0.31-0.29c1.47-1.47,2.93-2.94,4.39-4.41c0.47-0.47,1.01-0.64,1.64-0.39
		c0.9,0.35,1.2,1.47,0.62,2.23c-0.08,0.11-0.18,0.2-0.28,0.3c-2.32,2.32-4.63,4.63-6.95,6.95c-0.79,0.78-1.58,0.78-2.36,0
		c-2.35-2.35-4.7-4.7-7.05-7.05c-0.72-0.72-0.63-1.79,0.18-2.31c0.6-0.39,1.32-0.29,1.88,0.27c1.2,1.19,2.39,2.39,3.58,3.59
		c0.35,0.35,0.69,0.71,1.04,1.07C16,20.46,16.03,20.44,16.06,20.43z"/>
	<path class="st0" d="M17.51,31.29c-4.32,0-8.64,0-12.96,0c-1.11,0-1.83-0.97-1.46-1.95c0.22-0.59,0.67-0.89,1.29-0.95
		c0.11-0.01,0.23-0.01,0.34-0.01c8.53,0,17.05,0,25.58,0c0.25,0,0.5,0.02,0.74,0.09c0.68,0.21,1.07,0.88,0.96,1.6
		c-0.09,0.64-0.66,1.16-1.33,1.21c-0.12,0.01-0.25,0-0.37,0C26.03,31.29,21.77,31.29,17.51,31.29z"/>
</g>
</svg>
