<?xml version="1.0" encoding="utf-8"?>
<!-- Generator: Adobe Illustrator 26.0.0, SVG Export Plug-In . SVG Version: 6.00 Build 0)  -->
<svg version="1.1" id="Capa_1" xmlns="http://www.w3.org/2000/svg" xmlns:xlink="http://www.w3.org/1999/xlink" x="0px" y="0px"
	 viewBox="0 0 35 35" style="enable-background:new 0 0 35 35;" xml:space="preserve">
<style type="text/css">
	.st0{fill:#6336C7;}
	.st1{fill:#6336C7;stroke:#FFFFFF;stroke-width:0.25;stroke-miterlimit:10;}
</style>
<g>
	<path class="st0" d="M23.41,27.64c0.78,0,1.54,0.02,2.3-0.01c0.7-0.03,1.23-0.36,1.65-1.01c-0.28,0-0.51,0-0.74,0
		c-1.13-0.02-2.01-0.89-2.02-2.02c-0.01-2.38-0.01-4.76,0-7.14c0-1.11,0.89-1.98,2-2.01c0.34-0.01,0.67,0,1.06,0
		c-0.13-3.56-1.53-6.43-4.49-8.39c-3.53-2.33-7.25-2.44-10.89-0.3c-3.24,1.91-4.8,4.89-4.96,8.68c0.36,0,0.67,0,0.98,0
		c1.21,0.01,2.08,0.88,2.08,2.09c0.01,2.34,0.01,4.67,0,7.01c0,1.19-0.88,2.07-2.07,2.06c-0.63,0-1.28,0.01-1.89-0.12
		c-1.86-0.4-3.14-2.03-3.15-3.93c-0.01-0.97,0-1.95,0-2.92c0-1.52,0.63-2.71,1.91-3.55c0.03-0.02,0.07-0.05,0.12-0.08
		c-0.07-3.97,1.33-7.31,4.38-9.89c2.4-2.03,5.21-2.96,8.35-2.83c6.64,0.28,11.94,5.92,11.65,12.65c0.38,0.36,0.77,0.66,1.08,1.02
		c0.63,0.72,0.92,1.58,0.93,2.53c0.01,0.92-0.01,1.84,0.01,2.76c0.03,1.66-0.64,2.94-2.08,3.84c-0.11,0.8-0.42,1.54-0.97,2.17
		c-0.77,0.88-1.75,1.35-2.92,1.39c-0.77,0.03-1.54,0.01-2.33,0.01c-0.05,0.11-0.1,0.21-0.15,0.31c-0.57,1.09-1.47,1.68-2.69,1.71
		c-0.86,0.02-1.74,0.05-2.59-0.06c-1.54-0.2-2.61-1.63-2.51-3.2c0.1-1.52,1.38-2.78,2.91-2.82c0.75-0.02,1.5-0.03,2.25,0
		c1.18,0.05,2.05,0.63,2.61,1.68c0.03,0.06,0.05,0.12,0.08,0.17C23.36,27.52,23.38,27.57,23.41,27.64z M8.35,17.5
		c-0.42,0-0.81-0.03-1.2,0.01c-1.01,0.08-1.81,0.93-1.83,1.94c-0.02,1.07-0.02,2.13,0,3.2c0.01,0.87,0.62,1.67,1.46,1.86
		c0.5,0.11,1.04,0.09,1.57,0.13C8.35,22.22,8.35,19.88,8.35,17.5z M26.65,24.59c0.4,0,0.76,0.01,1.11,0
		c1.04-0.05,1.89-0.91,1.91-1.96c0.02-1.06,0.03-2.11,0-3.17c-0.02-0.85-0.45-1.46-1.23-1.81c-0.58-0.26-1.19-0.15-1.8-0.16
		C26.65,19.88,26.65,22.22,26.65,24.59z M19.54,29.67c0.34,0,0.68,0.01,1.01,0c0.57-0.02,1-0.47,1-1.02c0-0.55-0.44-1-1.01-1.01
		c-0.68-0.01-1.35-0.01-2.03,0c-0.58,0.01-1.01,0.45-1.02,1c-0.01,0.56,0.44,1.01,1.03,1.02C18.87,29.68,19.2,29.67,19.54,29.67z"/>
</g>
</svg>
