<?xml version="1.0" encoding="utf-8"?>
<!-- Generator: Adobe Illustrator 24.3.0, SVG Export Plug-In . SVG Version: 6.00 Build 0)  -->
<svg version="1.1" id="Capa_1" xmlns="http://www.w3.org/2000/svg" xmlns:xlink="http://www.w3.org/1999/xlink" x="0px" y="0px"
	 viewBox="0 0 55.52 55.52" style="enable-background:new 0 0 55.52 55.52;" xml:space="preserve">
<style type="text/css">
	.st0{fill:#732DAA;}
	.st1{opacity:0.15;}
	.st2{fill:#FFFFFF;}
	.st3{opacity:0.7;fill:#F4F4F4;}
	.st4{opacity:0.9;fill:#732DAA;}
	.st5{fill:#F7F7FA;}
	.st6{fill:#F39200;}
	.st7{opacity:0.4;fill:#606060;}
	.st8{fill:none;stroke:#F39200;stroke-width:2;stroke-linecap:round;stroke-linejoin:round;stroke-miterlimit:10;}
	.st9{fill:#8F12D1;}
	.st10{fill:#606060;}
	.st11{fill-rule:evenodd;clip-rule:evenodd;fill:url(#SVGID_9_);}
	.st12{fill-rule:evenodd;clip-rule:evenodd;fill:#FFFFFF;}
	.st13{opacity:0.86;fill:#DADADA;}
	.st14{fill:#FFFFFF;stroke:#878787;stroke-width:0.5;stroke-miterlimit:10;}
	.st15{fill:url(#SVGID_10_);}
	.st16{fill-rule:evenodd;clip-rule:evenodd;fill:url(#bubble_1_);}
	.st17{fill:#FD0000;}
	.st18{fill:#EC1655;}
	.st19{fill:#0CBAC6;}
	.st20{clip-path:url(#SVGID_12_);}
	.st21{fill:#1677F0;}
	.st22{fill:#EDEDED;}
	.st23{clip-path:url(#SVGID_16_);fill:url(#SVGID_17_);}
	.st24{fill:url(#path70_1_);}
	.st25{fill:url(#path94_1_);}
	.st26{fill:url(#path114_1_);}
	.st27{fill:url(#path140_1_);}
	.st28{fill:#28E3D7;}
	.st29{clip-path:url(#SVGID_19_);}
	.st30{fill:#7C4DFF;}
	.st31{fill:#1D1D1B;}
	.st32{clip-path:url(#SVGID_21_);}
	.st33{opacity:0.21;fill:#6F35A4;}
	.st34{opacity:0.8;fill:#FFFFFF;}
	.st35{fill:url(#SVGID_22_);}
	.st36{opacity:0.49;fill:#011525;}
	.st37{fill:#39C1DA;}
	.st38{fill:#FFCD57;}
	.st39{fill:#FDFDFE;}
	.st40{fill:#FDFDFD;}
	.st41{fill:#FCFCFC;}
	.st42{fill:#FEFEFE;}
	.st43{fill:#FBDEDD;}
	.st44{fill:#00B3BA;}
	.st45{fill:#91230D;}
	.st46{fill:#513D38;}
	.st47{fill:#ED6C76;}
	.st48{fill:#DF030D;}
	.st49{fill:#F4AE00;}
	.st50{fill:#0BB5CB;}
	.st51{fill:#00546C;}
	.st52{fill:#8D0701;}
	.st53{fill:none;}
	.st54{fill:none;stroke:#8D0701;stroke-width:2;}
</style>
<path class="st0" d="M41.64,31.25c-2.08-0.5-4.2-1.35-6.33-2.52l-1.55-0.86v-2.2c1.98-1.54,3.48-3.87,3.85-6.56
	c0.01-0.06,0-0.11,0.01-0.17l0.97-0.8c1.1-0.89,1.49-2.4,0.97-3.72c-0.22-0.55-0.65-0.99-1.05-1.31V6.6c0-3.61-2.97-6.6-6.59-6.6
	h-8.56c-3.62,0-6.5,2.99-6.5,6.61v6.7c-0.38,0.3-0.68,0.7-0.86,1.15c-0.54,1.31-0.15,2.82,0.94,3.72l1,0.8
	c0.33,2.69,1.76,5.12,3.93,6.72v2.43l-2.03,1c-1.9,0.93-3.9,1.64-5.96,2.11c-4.84,1.15-8.25,5.47-8.24,10.44v13.33
	c0,0.44,0.35,0.8,0.79,0.81h42.65c0.44-0.01,0.79-0.37,0.78-0.81V41.69C49.89,36.72,46.48,32.4,41.64,31.25z M35.02,30.39
	l-1.68,4.89l-3.64-2.8c1.37-0.45,2.67-1.37,3.83-2.74c0.03-0.04,0.06-0.08,0.08-0.12L35.02,30.39z M30.23,34.87l-1.21,3.01H26.5
	l-1.23-2.97l2.5-1.92L30.23,34.87z M23.47,28.93v-2.26c2.75,1.34,5.97,1.34,8.71-0.02v2.28c-1.32,1.49-2.83,2.27-4.36,2.27
	C26.3,31.2,24.79,30.42,23.47,28.93z M38.08,15.02c0.27,0.67,0.07,1.44-0.49,1.9l-0.01,0.01l-0.39-2.74
	C37.58,14.34,37.9,14.63,38.08,15.02z M17.95,16.95L17.95,16.95c-0.57-0.46-0.76-1.23-0.49-1.91c0.17-0.39,0.49-0.69,0.88-0.84
	L17.95,16.95z M18.61,12.51c-0.06,0.01-0.15,0.01-0.15,0.02V6.61c0-2.74,2.18-5.02,4.92-5.02h8.56c2.76,0.02,4.99,2.26,5,5.02v5.55
	l-0.6-4.14c-0.32-2.48-2.45-4.34-4.95-4.32h-0.2l-0.7,0.34c-1.87,1-4.12,0.91-5.91-0.23l-0.2-0.11h-0.23
	c-2.5-0.01-4.61,1.84-4.93,4.31L18.61,12.51z M19.48,18.72c-0.05-0.51-0.04-1.02,0.03-1.53l1.27-9c0.2-1.61,1.53-2.85,3.15-2.96
	c2.23,1.33,5,1.4,7.29,0.18l0.34-0.18c1.64,0.09,2.97,1.35,3.18,2.97l1.27,8.98c0.08,0.57,0.09,1.15,0.01,1.72
	c-0.64,4.56-4.85,7.74-9.42,7.11C22.86,25.48,19.93,22.49,19.48,18.72L19.48,18.72z M20.54,30.55l1.52-0.76
	c1.15,1.34,2.43,2.24,3.78,2.68l-3.64,2.81l-1.68-4.72C20.53,30.56,20.54,30.56,20.54,30.55L20.54,30.55z M15.16,54.25v-8.31
	c0.01-0.44-0.33-0.8-0.77-0.82c-0.44-0.01-0.8,0.33-0.82,0.77c0,0.01,0,0.02,0,0.02v8.34H7.24V41.69c-0.01-4.24,2.89-7.92,7.02-8.9
	c0.16-0.04,0.32-0.05,0.48-0.09l2.64,5.64c0.13,0.28,0.41,0.46,0.72,0.46h0c0.44,0,0.79-0.36,0.79-0.79c0-0.12-0.03-0.23-0.07-0.34
	l-2.53-5.41c0.95-0.29,1.89-0.63,2.81-1.02l1.99,5.61c0.15,0.41,0.6,0.62,1.01,0.48c0.08-0.03,0.15-0.07,0.22-0.12l1.67-1.29
	l1.26,3.07c0.01,0.02,0.02,0.04,0.03,0.06l-1.26,9.69l-2.6-5.51c-0.13-0.28-0.41-0.46-0.72-0.46l0,0c-0.44,0-0.79,0.36-0.79,0.79
	c0,0.12,0.03,0.23,0.08,0.34l4.88,10.35H15.16z M28.87,54.25H26.6l-1.34-2.87l1.55-11.92h1.85l1.41,11.39L28.87,54.25z M30.3,38.97
	l1.24-3.09l1.72,1.32c0.35,0.27,0.84,0.2,1.11-0.14c0.05-0.07,0.09-0.14,0.12-0.23l1.97-5.74c0.91,0.42,1.85,0.8,2.8,1.12
	l-7.91,16.01l-1.13-9.11C30.25,39.07,30.28,39.02,30.3,38.97z M48.29,54.25h-6.34V45.9c0-0.44-0.35-0.79-0.79-0.79
	c-0.44,0-0.79,0.35-0.79,0.79v8.34h-9.81l1.06-2.99l9.18-18.58c0.16,0.04,0.32,0.08,0.48,0.12c4.12,0.98,7.02,4.66,7.01,8.9V54.25z"
	/>
</svg>
