<?xml version="1.0" encoding="utf-8"?>
<!-- Generator: Adobe Illustrator 24.3.0, SVG Export Plug-In . SVG Version: 6.00 Build 0)  -->
<svg version="1.1" id="Capa_1" xmlns="http://www.w3.org/2000/svg" xmlns:xlink="http://www.w3.org/1999/xlink" x="0px" y="0px"
	 viewBox="0 0 55.52 55.52" style="enable-background:new 0 0 55.52 55.52;" xml:space="preserve">
<style type="text/css">
	.st0{fill:#732DAA;}
	.st1{opacity:0.15;}
	.st2{fill:#FFFFFF;}
	.st3{opacity:0.7;fill:#F4F4F4;}
	.st4{opacity:0.9;fill:#732DAA;}
	.st5{fill:#F7F7FA;}
	.st6{fill:#F39200;}
	.st7{opacity:0.4;fill:#606060;}
	.st8{fill:none;stroke:#F39200;stroke-width:2;stroke-linecap:round;stroke-linejoin:round;stroke-miterlimit:10;}
	.st9{fill:#8F12D1;}
	.st10{fill:#606060;}
	.st11{fill-rule:evenodd;clip-rule:evenodd;fill:url(#SVGID_9_);}
	.st12{fill-rule:evenodd;clip-rule:evenodd;fill:#FFFFFF;}
	.st13{opacity:0.86;fill:#DADADA;}
	.st14{fill:#FFFFFF;stroke:#878787;stroke-width:0.5;stroke-miterlimit:10;}
	.st15{fill:url(#SVGID_10_);}
	.st16{fill-rule:evenodd;clip-rule:evenodd;fill:url(#bubble_1_);}
	.st17{fill:#FD0000;}
	.st18{fill:#EC1655;}
	.st19{fill:#0CBAC6;}
	.st20{clip-path:url(#SVGID_12_);}
	.st21{fill:#1677F0;}
	.st22{fill:#EDEDED;}
	.st23{clip-path:url(#SVGID_16_);fill:url(#SVGID_17_);}
	.st24{fill:url(#path70_1_);}
	.st25{fill:url(#path94_1_);}
	.st26{fill:url(#path114_1_);}
	.st27{fill:url(#path140_1_);}
	.st28{fill:#28E3D7;}
	.st29{clip-path:url(#SVGID_19_);}
	.st30{fill:#7C4DFF;}
	.st31{fill:#1D1D1B;}
	.st32{clip-path:url(#SVGID_21_);}
	.st33{opacity:0.21;fill:#6F35A4;}
	.st34{opacity:0.8;fill:#FFFFFF;}
	.st35{fill:url(#SVGID_22_);}
	.st36{opacity:0.49;fill:#011525;}
	.st37{fill:#39C1DA;}
	.st38{fill:#FFCD57;}
	.st39{fill:#FDFDFE;}
	.st40{fill:#FDFDFD;}
	.st41{fill:#FCFCFC;}
	.st42{fill:#FEFEFE;}
	.st43{fill:#FBDEDD;}
	.st44{fill:#00B3BA;}
	.st45{fill:#91230D;}
	.st46{fill:#513D38;}
	.st47{fill:#ED6C76;}
	.st48{fill:#DF030D;}
	.st49{fill:#F4AE00;}
	.st50{fill:#0BB5CB;}
	.st51{fill:#00546C;}
	.st52{fill:#8D0701;}
	.st53{fill:none;}
	.st54{fill:none;stroke:#8D0701;stroke-width:2;}
</style>
<g id="Page-1_2_">
	<g>
		<path id="Shape_2_" class="st0" d="M54.29,9.36l-25.9-9.25c-0.41-0.14-0.86-0.14-1.26,0L1.23,9.36C0.5,9.63,0.01,10.32,0.01,11.1
			s0.49,1.48,1.22,1.74l12.65,4.52v5.77c0,3.6,12.46,3.7,13.88,3.7c1.42,0,13.88-0.1,13.88-3.7v-5.77l2.78-0.99v2.13
			c0,1.02,0.83,1.85,1.85,1.85h1.85c1.02,0,1.85-0.83,1.85-1.85v-2.78c0-0.43-0.11-0.85-0.3-1.23l4.63-1.65
			c0.73-0.26,1.22-0.96,1.22-1.74S55.03,9.63,54.29,9.36L54.29,9.36z M39.79,21.1c-3.52-1.6-10.95-1.67-12.03-1.67
			c-1.08,0-8.51,0.06-12.03,1.67v-8.06c0.56-0.71,4.92-1.93,12.03-1.93s11.47,1.22,12.03,1.93V21.1z M27.76,24.98
			c-6.85,0-11.15-1.13-11.95-1.85c0.8-0.72,5.11-1.85,11.95-1.85s11.15,1.13,11.95,1.85C38.91,23.85,34.61,24.98,27.76,24.98z
			 M44.85,14.25l-3.21,1.14v-2.44c0-3.6-12.46-3.7-13.88-3.7c-1.42,0-13.88,0.1-13.88,3.7v2.44L1.85,11.1l25.92-9.25l18.49,6.61
			v4.67C45.68,13.33,45.18,13.73,44.85,14.25z M48.12,18.51h-1.85v-2.78c0-0.51,0.41-0.93,0.93-0.93c0.51,0,0.93,0.41,0.93,0.93
			V18.51z M48.12,13.09V9.12l5.55,1.98L48.12,13.09z"/>
		<path class="st0" d="M52.75,28.69c-0.06,0-0.11,0-0.17,0.01c-8.21,1.28-16.51,1.89-24.82,1.84c-8.31,0.05-16.61-0.56-24.82-1.84
			c-0.05-0.01-0.11-0.01-0.17-0.01C2.13,28.69,0,29.42,0,38.87s2.13,10.18,2.78,10.18c0.06,0,0.11-0.01,0.17-0.02
			c6.31-1,12.68-1.58,19.06-1.74l-1.81,4.33c-0.28,0.69-0.11,1.49,0.43,2.01c0.54,0.52,1.33,0.67,2.02,0.37l0.71-0.3l0.31,0.7
			c0.29,0.68,0.96,1.13,1.7,1.12h0.02c0.75-0.01,1.42-0.46,1.7-1.15l1.61-3.85l1.6,3.83c0.28,0.7,0.95,1.16,1.7,1.17h0.03
			c0.74,0,1.4-0.43,1.7-1.11l0.31-0.71l0.7,0.3c0.69,0.3,1.49,0.16,2.03-0.37c0.54-0.52,0.71-1.32,0.42-2.02l-1.77-4.25
			c5.76,0.2,11.5,0.76,17.19,1.67c0.05,0.01,0.11,0.01,0.16,0.01c0.65,0,2.78-0.73,2.78-10.18C55.52,29.42,53.39,28.69,52.75,28.69
			L52.75,28.69z M30.72,32.36c0.38,1.41,0.61,2.86,0.67,4.33c-2.1-0.98-4.56-0.75-6.44,0.6c-0.05-1.66-0.26-3.31-0.64-4.93
			c1.12,0.02,2.27,0.04,3.45,0.04C28.77,32.39,29.75,32.38,30.72,32.36z M28.69,47.19c-2.56,0-4.63-2.07-4.63-4.63
			s2.07-4.63,4.63-4.63s4.63,2.07,4.63,4.63C33.31,45.12,31.24,47.19,28.69,47.19z M2.78,31c0.71,2.56,1.02,5.21,0.93,7.87
			c0.1,2.65-0.22,5.31-0.93,7.87c-0.71-2.56-1.02-5.21-0.93-7.87C1.75,36.21,2.07,33.56,2.78,31z M4.65,46.89
			c0.51-1.47,0.91-3.92,0.91-8.02s-0.4-6.56-0.91-8.02c5.88,0.81,11.8,1.3,17.73,1.46c0.56,2.14,0.81,4.35,0.76,6.56
			c0,0.13,0,0.26-0.01,0.39c-1.11,1.84-1.22,4.12-0.3,6.06l-0.04,0.1C16.72,45.57,10.66,46.06,4.65,46.89L4.65,46.89z M25.36,53.67
			l-0.68-1.55c-0.2-0.47-0.75-0.68-1.21-0.48l-1.56,0.69l2.17-5.2c0.89,0.9,2.03,1.52,3.27,1.79L25.36,53.67z M33.9,51.64
			c-0.47-0.2-1.01,0.01-1.21,0.48L32,53.66l-1.98-4.75c1.24-0.26,2.38-0.88,3.27-1.79l2.17,5.18L33.9,51.64z M52.56,47.15
			c-5.95-0.91-11.94-1.47-17.95-1.67l-0.07-0.16c1.16-2.45,0.66-5.37-1.25-7.3c-0.01-1.92-0.23-3.83-0.66-5.7
			c6.67-0.15,13.33-0.73,19.93-1.74c0.43,0.73,1.11,3.61,1.11,8.28S52.99,46.42,52.56,47.15L52.56,47.15z"/>
	</g>
</g>
</svg>
