<?xml version="1.0" encoding="utf-8"?>
<!-- Generator: Adobe Illustrator 24.3.0, SVG Export Plug-In . SVG Version: 6.00 Build 0)  -->
<svg version="1.1" id="Capa_1" xmlns="http://www.w3.org/2000/svg" xmlns:xlink="http://www.w3.org/1999/xlink" x="0px" y="0px"
	 viewBox="0 0 55.52 55.52" style="enable-background:new 0 0 55.52 55.52;" xml:space="preserve">
<style type="text/css">
	.st0{fill:#732DAA;}
	.st1{opacity:0.15;}
	.st2{fill:#FFFFFF;}
	.st3{opacity:0.7;fill:#F4F4F4;}
	.st4{opacity:0.9;fill:#732DAA;}
	.st5{fill:#F7F7FA;}
	.st6{fill:#F39200;}
	.st7{opacity:0.4;fill:#606060;}
	.st8{fill:none;stroke:#F39200;stroke-width:2;stroke-linecap:round;stroke-linejoin:round;stroke-miterlimit:10;}
	.st9{fill:#8F12D1;}
	.st10{fill:#606060;}
	.st11{fill-rule:evenodd;clip-rule:evenodd;fill:url(#SVGID_9_);}
	.st12{fill-rule:evenodd;clip-rule:evenodd;fill:#FFFFFF;}
	.st13{opacity:0.86;fill:#DADADA;}
	.st14{fill:#FFFFFF;stroke:#878787;stroke-width:0.5;stroke-miterlimit:10;}
	.st15{fill:url(#SVGID_10_);}
	.st16{fill-rule:evenodd;clip-rule:evenodd;fill:url(#bubble_1_);}
	.st17{fill:#FD0000;}
	.st18{fill:#EC1655;}
	.st19{fill:#0CBAC6;}
	.st20{clip-path:url(#SVGID_12_);}
	.st21{fill:#1677F0;}
	.st22{fill:#EDEDED;}
	.st23{clip-path:url(#SVGID_16_);fill:url(#SVGID_17_);}
	.st24{fill:url(#path70_1_);}
	.st25{fill:url(#path94_1_);}
	.st26{fill:url(#path114_1_);}
	.st27{fill:url(#path140_1_);}
	.st28{fill:#28E3D7;}
	.st29{clip-path:url(#SVGID_19_);}
	.st30{fill:#7C4DFF;}
	.st31{fill:#1D1D1B;}
	.st32{clip-path:url(#SVGID_21_);}
	.st33{opacity:0.21;fill:#6F35A4;}
	.st34{opacity:0.8;fill:#FFFFFF;}
	.st35{fill:url(#SVGID_22_);}
	.st36{opacity:0.49;fill:#011525;}
	.st37{fill:#39C1DA;}
	.st38{fill:#FFCD57;}
	.st39{fill:#FDFDFE;}
	.st40{fill:#FDFDFD;}
	.st41{fill:#FCFCFC;}
	.st42{fill:#FEFEFE;}
	.st43{fill:#FBDEDD;}
	.st44{fill:#00B3BA;}
	.st45{fill:#91230D;}
	.st46{fill:#513D38;}
	.st47{fill:#ED6C76;}
	.st48{fill:#DF030D;}
	.st49{fill:#F4AE00;}
	.st50{fill:#0BB5CB;}
	.st51{fill:#00546C;}
	.st52{fill:#8D0701;}
	.st53{fill:none;}
	.st54{fill:none;stroke:#8D0701;stroke-width:2;}
</style>
<g>
	<path class="st0" d="M39.97,10.04c0.06,0.01,0.1,0.02,0.68,0.02c0.28,0,0.68,0,1.27,0c0.45,0,0.81-0.37,0.81-0.82
		c0-0.45-0.37-0.81-0.81-0.81h-0.01c-0.34,0-0.69,0-0.99,0V4.07c0-0.45-0.36-0.81-0.81-0.81c-0.45,0-0.81,0.36-0.81,0.81v5.17
		C39.29,9.64,39.58,9.98,39.97,10.04L39.97,10.04z M26.43,6.66c0-1.87-1.53-3.4-3.4-3.4c-1.87,0-3.4,1.53-3.4,3.4
		c0,1.88,1.53,3.4,3.4,3.4C24.9,10.06,26.43,8.53,26.43,6.66L26.43,6.66z M21.26,6.66c0-0.98,0.79-1.77,1.77-1.77
		c0.98,0,1.77,0.79,1.77,1.77c0,0.98-0.79,1.77-1.77,1.77C22.05,8.43,21.26,7.63,21.26,6.66L21.26,6.66z M34.69,10.06h2.16
		c0.45,0,0.81-0.36,0.81-0.81c0-0.45-0.36-0.81-0.81-0.81H35.5V7.5h1.19c0.45,0,0.81-0.36,0.81-0.81c0-0.45-0.36-0.81-0.81-0.81
		H35.5V4.93h1.34c0.45,0,0.81-0.36,0.81-0.81c0-0.45-0.36-0.81-0.81-0.81h-2.16c-0.45,0-0.81,0.36-0.81,0.81v5.12
		C33.87,9.69,34.24,10.06,34.69,10.06L34.69,10.06z M17.19,3.26c-0.45,0-0.81,0.36-0.81,0.81v1.68h-1.95V4.07
		c0-0.45-0.36-0.81-0.81-0.81c-0.45,0-0.81,0.36-0.81,0.81v5.17c0,0.45,0.36,0.81,0.81,0.81c0.45,0,0.81-0.36,0.81-0.81V7.38h1.95
		v1.86c0,0.45,0.36,0.81,0.81,0.81c0.45,0,0.81-0.36,0.81-0.81V4.07C18,3.62,17.64,3.26,17.19,3.26L17.19,3.26z M28.57,4.89h0.61
		v4.36c0,0.45,0.36,0.81,0.81,0.81c0.45,0,0.81-0.36,0.81-0.81V4.89h0.62c0.45,0,0.81-0.36,0.81-0.81s-0.36-0.81-0.81-0.81h-2.86
		c-0.45,0-0.81,0.36-0.81,0.81S28.12,4.89,28.57,4.89L28.57,4.89z M39.11,47.45h9.18c0.87,0,1.57-0.71,1.57-1.57V35.21
		c0-0.87-0.71-1.57-1.57-1.57h-9.18c-0.87,0-1.57,0.71-1.57,1.57v10.66C37.53,46.74,38.24,47.45,39.11,47.45L39.11,47.45z
		 M44.51,35.27h3.72v4.46h-3.72V35.27z M44.51,41.36h3.72v4.46h-3.72V41.36z M39.16,35.27h3.72v4.46h-3.72V35.27z M39.16,41.36h3.72
		v4.46h-3.72V41.36z M53.66,49.08h-0.54V19.01c0-2.25-1.83-4.07-4.07-4.07h-6.62v-1.63h0.08c2.25,0,4.07-1.83,4.07-4.07V4.07
		C46.58,1.83,44.75,0,42.5,0H13.02c-2.25,0-4.07,1.83-4.07,4.07v5.17c0,2.25,1.83,4.07,4.07,4.07h0.08v1.63H6.48
		c-2.25,0-4.07,1.83-4.07,4.07v30.06H1.86c-1.05,0-1.9,0.85-1.9,1.9v2.72c0,1.05,0.85,1.9,1.9,1.9h51.8c1.05,0,1.9-0.85,1.9-1.9
		v-2.72C55.56,49.93,54.71,49.08,53.66,49.08L53.66,49.08z M13.02,11.68c-1.35,0-2.44-1.1-2.44-2.44V4.07c0-1.35,1.1-2.44,2.44-2.44
		H42.5c1.35,0,2.44,1.1,2.44,2.44v5.17c0,1.35-1.1,2.44-2.44,2.44H25.35c-0.45,0-0.81,0.36-0.81,0.81c0,0.45,0.36,0.81,0.81,0.81
		h12.18v1.63H17.99v-1.63h3.57c0.45,0,0.81-0.36,0.81-0.81c0-0.45-0.36-0.81-0.81-0.81H13.02z M40.79,13.31v1.63h-1.63v-1.63H40.79z
		 M16.36,13.31v1.63h-1.63v-1.63H16.36z M4.03,19.01c0-1.35,1.1-2.44,2.44-2.44h42.57c1.35,0,2.44,1.1,2.44,2.44v30.06h-16.6v-4.39
		c0-0.45-0.36-0.81-0.81-0.81c-0.45,0-0.81,0.36-0.81,0.81v4.39h-4.69V35.27h4.42c0.15,0,0.27,0.12,0.27,0.27v5.35
		c0,0.45,0.36,0.81,0.81,0.81c0.45,0,0.81-0.36,0.81-0.81v-5.35c0-1.05-0.85-1.9-1.9-1.9H22.53c-1.05,0-1.9,0.85-1.9,1.9v13.54H4.03
		V19.01z M26.95,35.27v13.81h-4.69V35.54c0-0.15,0.12-0.27,0.27-0.27H26.95z M53.93,53.7c0,0.15-0.12,0.27-0.27,0.27H1.86
		c-0.15,0-0.27-0.12-0.27-0.27v-2.72c0-0.15,0.12-0.27,0.27-0.27h51.8c0.15,0,0.27,0.12,0.27,0.27V53.7z M34.33,32.01
		c0.87,0,1.57-0.71,1.57-1.57V19.77c0-0.87-0.71-1.57-1.57-1.57H21.2c-0.87,0-1.57,0.71-1.57,1.57v10.66c0,0.87,0.71,1.57,1.57,1.57
		H34.33z M28.58,19.83h5.7v4.46h-5.7V19.83z M28.58,25.92h5.7v4.46h-5.7V25.92z M21.26,19.83h5.7v4.46h-5.7V19.83z M21.26,25.92h5.7
		v4.46h-5.7V25.92z M16.41,33.64H7.24c-0.87,0-1.57,0.71-1.57,1.57v10.66c0,0.87,0.71,1.57,1.57,1.57h9.18
		c0.87,0,1.57-0.71,1.57-1.57V35.21C17.99,34.34,17.28,33.64,16.41,33.64L16.41,33.64z M11.01,45.82H7.29v-4.46h3.72V45.82z
		 M11.01,39.73H7.29v-4.46h3.72V39.73z M16.36,45.82h-3.72v-4.46h3.72V45.82z M16.36,39.73h-3.72v-4.46h3.72V39.73z M39.11,32.01
		h9.18c0.87,0,1.57-0.71,1.57-1.57V19.77c0-0.87-0.71-1.57-1.57-1.57h-9.18c-0.87,0-1.57,0.71-1.57,1.57v10.66
		C37.53,31.3,38.24,32.01,39.11,32.01L39.11,32.01z M44.51,19.83h3.72v4.46h-3.72V19.83z M44.51,25.92h3.72v4.46h-3.72V25.92z
		 M39.16,19.83h3.72v4.46h-3.72V19.83z M39.16,25.92h3.72v4.46h-3.72V25.92z M16.41,18.2H7.24c-0.87,0-1.57,0.71-1.57,1.57v10.66
		c0,0.87,0.71,1.57,1.57,1.57h9.18c0.87,0,1.57-0.71,1.57-1.57V19.77C17.99,18.9,17.28,18.2,16.41,18.2L16.41,18.2z M11.01,30.38
		H7.29v-4.46h3.72V30.38z M11.01,24.29H7.29v-4.46h3.72V24.29z M16.36,30.38h-3.72v-4.46h3.72V30.38z M16.36,24.29h-3.72v-4.46h3.72
		V24.29z M16.36,24.29"/>
</g>
</svg>
