<svg id="Capa_1" data-name="Capa 1" xmlns="http://www.w3.org/2000/svg" viewBox="0 0 65 52"><defs><style>.cls-1{fill:#ff9200;}</style></defs><path class="cls-1" d="M6.3,16.78c1.94-2.3,3.87-4.63,5.85-6.9a2.57,2.57,0,0,0,.74-2c-.07-.81,0-1.63,0-2.45a2.82,2.82,0,0,1,3-3H38.93a.71.71,0,0,1,.68.71.68.68,0,0,1-.55.76,2.32,2.32,0,0,1-.65.06H16.15c-1.33,0-1.74.41-1.74,1.74V8.48H50.55c0-1.16.05-2.3,0-3.44,0-.7-.59-1.07-1.38-1.07H42.34a3.53,3.53,0,0,1-.46,0,.74.74,0,0,1-.7-.79.71.71,0,0,1,.76-.73c2.54,0,5.08,0,7.62,0a2.77,2.77,0,0,1,2.56,2.87c0,1.08,0,2.15,0,3.23a1.33,1.33,0,0,0,.27.77q2.93,3.48,5.89,6.94a1.5,1.5,0,0,1,.4,1.11c0,1.26,0,2.54-.1,3.78a6.73,6.73,0,0,1-3.34,5.13.74.74,0,0,0-.39.74q0,4.06,0,8.13a2.47,2.47,0,0,1-.05.61.75.75,0,0,1-1.47-.09,4.35,4.35,0,0,1,0-.51V27.25H50v9.32a2.85,2.85,0,0,1-3.15,3.12h-5l-.11.15c.44.41.9.81,1.33,1.23s1.05,1.34,1.74,1.62a6.48,6.48,0,0,0,2.38.09h6.18V40.39c0-.58,0-1.16,0-1.74a.74.74,0,0,1,.74-.76.76.76,0,0,1,.77.69,3.46,3.46,0,0,1,0,.56v3.64h2c.38,0,.75,0,1.13,0a.76.76,0,0,1,0,1.52,4.34,4.34,0,0,1-.51,0H46.21c-.31.38-.55.72-.84,1-1.22,1.24-2.46,2.47-3.69,3.7-.72.72-1,.72-1.68,0l-4-3.94c-.13-.14-.22-.31-.38-.52-.52.55-.93,1-1.36,1.43a.79.79,0,0,1-1.43-.32c-.16-.44-.21-1.07-.53-1.28s-1-.09-1.44-.09H7.42A1.1,1.1,0,0,1,6.3,43.8v-.51a1.12,1.12,0,0,1,1.08-.52c.9,0,1.8,0,2.71,0,0-.16,0-.26,0-.36q0-7.76,0-15.51a.61.61,0,0,0-.36-.6,7,7,0,0,1-3.2-4.2c-.1-.34-.18-.69-.26-1ZM30.85,39.69h-.63c-4,0-8,0-12.08,0a2.8,2.8,0,0,1-2.94-2.86c0-1.25,0-2.49,0-3.74,0-.59.3-1,.77-.94s.77.36.77,1v3.42c0,1.18.46,1.63,1.65,1.63H29.79l.52,0c-.07-.23-.12-.41-.18-.58-.46-1.37-.92-2.75-1.39-4.11a.92.92,0,0,1,.1-1,.89.89,0,0,1,1-.12l5.66,1.91,6.53,2.21c.84.29,1,.82.36,1.5a2.4,2.4,0,0,0-.16.27c1.66,0,3.27,0,4.87,0a1.27,1.27,0,0,0,1.34-1.41c0-3.24,0-6.48,0-9.72a.58.58,0,0,0-.37-.58,7,7,0,0,1-2.68-2.6l-.23-.35a7.2,7.2,0,0,1-12.72,0,7.2,7.2,0,0,1-12.73,0,7,7,0,0,1-2.65,2.83.65.65,0,0,0-.39.68c0,.94,0,1.88,0,2.81a.75.75,0,0,1-.79.81.77.77,0,0,1-.74-.82V27.24h-3.5V42.75H31.88ZM44.2,44.27a3.28,3.28,0,0,1-.44-.32L39.7,39.9c-.55-.55-.55-.91,0-1.47l.95-.89-10-3.4L34,44.08l.18.13a2.71,2.71,0,0,1,.33-.52c1.16-1.18,1.17-1.18,2.33,0l4,4ZM18.91,17.84h-11a25.11,25.11,0,0,0,0,3.25,5.55,5.55,0,0,0,10.94.13A22.36,22.36,0,0,0,18.91,17.84Zm27.09,0c0,.88,0,1.73,0,2.57a5.57,5.57,0,0,0,5,5.37,5.48,5.48,0,0,0,6-4.12,28,28,0,0,0,.32-3.82Zm-14.38,0h-11a29.52,29.52,0,0,0,0,3,5.55,5.55,0,0,0,11,.44A20.47,20.47,0,0,0,31.62,17.83Zm1.67,0c0,.95,0,1.86,0,2.76a5.58,5.58,0,0,0,8.82,4.15c2.43-1.73,2.48-4.28,2.29-6.91ZM22.45,10.09,22.23,10c-2.65,0-5.29,0-7.93,0a.82.82,0,0,0-.54.3c-1.54,1.79-3.07,3.6-4.61,5.41l-.35.45a.62.62,0,0,0,.18.05c3.34,0,6.68,0,10,0a.68.68,0,0,0,.47-.33c.43-.79.83-1.61,1.24-2.41C21.28,12.39,21.85,11.26,22.45,10.09Zm33.82,6.18c-1.77-2.09-3.44-4.06-5.13-6a.86.86,0,0,0-.58-.19H43l-.43,0c.09.2.16.36.24.51.88,1.74,1.78,3.48,2.65,5.24a.71.71,0,0,0,.73.46c3.17,0,6.34,0,9.52,0Zm-23,0H43.89a1.08,1.08,0,0,0,0-.17c-1-1.92-1.93-3.83-2.93-5.73a.75.75,0,0,0-.56-.28c-2.2,0-4.4,0-6.59,0l-.47,0Zm-1.61-6.15a1.6,1.6,0,0,0-.27,0c-2.3,0-4.6,0-6.9,0a.71.71,0,0,0-.5.37c-.9,1.72-1.77,3.45-2.65,5.18l-.29.62H31.69Z"/></svg>