<svg id="Capa_1" data-name="Capa 1" xmlns="http://www.w3.org/2000/svg" viewBox="0 0 65 52"><defs><style>.cls-1{fill:#ff9200;}</style></defs><path class="cls-1" d="M30.61,25.83l-2.7,7.23c-.13.34-.29.46-.57.46h-.09c-.28,0-.45-.12-.57-.46l-1.83-5-1.79,5c-.13.34-.29.46-.57.46H22.4c-.28,0-.45-.12-.58-.46l-2.7-7.23c-.11-.31.09-.47.39-.47h.71a.63.63,0,0,1,.67.47l1.65,4.94,1.69-5a.59.59,0,0,1,.59-.45h.1a.57.57,0,0,1,.58.45l1.74,5.06,1.68-5a.63.63,0,0,1,.66-.47h.65C30.54,25.36,30.74,25.52,30.61,25.83Z"/><path class="cls-1" d="M32.2,33V25.84a.45.45,0,0,1,.5-.48h4.79a.44.44,0,0,1,.5.47v.44a.45.45,0,0,1-.5.48h-3.6v2h2.7a.44.44,0,0,1,.5.48v.37a.45.45,0,0,1-.5.49h-2.7v2h3.63a.43.43,0,0,1,.48.48V33a.44.44,0,0,1-.48.49H32.7A.46.46,0,0,1,32.2,33Z"/><path class="cls-1" d="M46.23,31.19c0,1.38-1.18,2.27-3,2.27h-3a.46.46,0,0,1-.5-.5V25.84a.45.45,0,0,1,.5-.48H43c1.71,0,2.72.79,2.72,2.13a1.86,1.86,0,0,1-1,1.67A2.12,2.12,0,0,1,46.23,31.19ZM44.56,31c0-.7-.54-1.16-1.39-1.16H41.5v2.31h1.56C44,32.18,44.56,31.76,44.56,31Zm-3.05-4.4v2.12h1.36c.78,0,1.26-.39,1.26-1.06s-.46-1.06-1.26-1.06Z"/><path class="cls-1" d="M61.42,47.13a2.89,2.89,0,0,1-3.16,2c-5.76,0-11.52,0-17.28,0a2.6,2.6,0,0,1-.56,0,.84.84,0,0,1,0-1.66,2.61,2.61,0,0,1,.56,0H58.44c1.06,0,1.29-.22,1.29-1.29V13H50.28a.87.87,0,0,1-.8-.86.83.83,0,0,1,.84-.82c.54,0,1.09,0,1.63,0h7.73a3.59,3.59,0,0,0,0-.44c0-1.76,0-3.51,0-5.26,0-.79-.29-1.08-1.1-1.08H6.38c-.81,0-1.1.29-1.1,1.08q0,2.62,0,5.25c0,.13,0,.26,0,.45H46.93A.84.84,0,0,1,47,13a5.19,5.19,0,0,1-.56,0H5.27V46.22c0,1,.24,1.24,1.28,1.24H36.71c.88,0,1.28.26,1.3.82s-.41.87-1.31.87H6.48a2.58,2.58,0,0,1-2.9-2.88V5.73A2.58,2.58,0,0,1,6.47,2.84q25.89,0,51.79,0a2.9,2.9,0,0,1,3.16,2.05Z"/><path class="cls-1" d="M32.55,20.13H48.31A2.58,2.58,0,0,1,51.17,23V35.93a2.57,2.57,0,0,1-2.87,2.85H24.87a3.38,3.38,0,0,1-.45,0,.84.84,0,0,1-.08-1.66,2.56,2.56,0,0,1,.62,0H48.12c1.17,0,1.35-.18,1.35-1.32V23.05c0-1-.24-1.22-1.24-1.22H16.77c-1,0-1.24.23-1.24,1.22V35.87c0,1,.23,1.21,1.24,1.21H21c.68,0,1.08.45.95,1a.82.82,0,0,1-.91.67c-1.58,0-3.16,0-4.74,0a2.44,2.44,0,0,1-2.4-2.38q0-6.93,0-13.84a2.48,2.48,0,0,1,2.67-2.41h16Z"/><path class="cls-1" d="M15.22,7.82a1.42,1.42,0,0,1-1.41,1.44,1.45,1.45,0,0,1-1.41-1.4,1.41,1.41,0,0,1,1.43-1.43A1.38,1.38,0,0,1,15.22,7.82Z"/><path class="cls-1" d="M16.66,7.85A1.39,1.39,0,0,1,18,6.43a1.42,1.42,0,0,1,1.46,1.4,1.46,1.46,0,0,1-1.44,1.43A1.42,1.42,0,0,1,16.66,7.85Z"/><path class="cls-1" d="M8.16,7.84A1.4,1.4,0,0,1,9.54,6.43,1.41,1.41,0,0,1,11,7.84a1.42,1.42,0,1,1-2.83,0Z"/></svg>