<?xml version="1.0" encoding="utf-8"?>
<!-- Generator: Adobe Illustrator 24.3.0, SVG Export Plug-In . SVG Version: 6.00 Build 0)  -->
<svg version="1.1" id="Capa_1" xmlns="http://www.w3.org/2000/svg" xmlns:xlink="http://www.w3.org/1999/xlink" x="0px" y="0px"
	 viewBox="0 0 55.52 55.52" style="enable-background:new 0 0 55.52 55.52;" xml:space="preserve">
<style type="text/css">
	.st0{fill:#732DAA;}
	.st1{opacity:0.15;}
	.st2{fill:#FFFFFF;}
	.st3{opacity:0.7;fill:#F4F4F4;}
	.st4{opacity:0.9;fill:#732DAA;}
	.st5{fill:#F7F7FA;}
	.st6{fill:#F39200;}
	.st7{opacity:0.4;fill:#606060;}
	.st8{fill:none;stroke:#F39200;stroke-width:2;stroke-linecap:round;stroke-linejoin:round;stroke-miterlimit:10;}
	.st9{fill:#8F12D1;}
	.st10{fill:#606060;}
	.st11{fill-rule:evenodd;clip-rule:evenodd;fill:url(#SVGID_9_);}
	.st12{fill-rule:evenodd;clip-rule:evenodd;fill:#FFFFFF;}
	.st13{opacity:0.86;fill:#DADADA;}
	.st14{fill:#FFFFFF;stroke:#878787;stroke-width:0.5;stroke-miterlimit:10;}
	.st15{fill:url(#SVGID_10_);}
	.st16{fill-rule:evenodd;clip-rule:evenodd;fill:url(#bubble_1_);}
	.st17{fill:#FD0000;}
	.st18{fill:#EC1655;}
	.st19{fill:#0CBAC6;}
	.st20{clip-path:url(#SVGID_12_);}
	.st21{fill:#1677F0;}
	.st22{fill:#EDEDED;}
	.st23{clip-path:url(#SVGID_16_);fill:url(#SVGID_17_);}
	.st24{fill:url(#path70_1_);}
	.st25{fill:url(#path94_1_);}
	.st26{fill:url(#path114_1_);}
	.st27{fill:url(#path140_1_);}
	.st28{fill:#28E3D7;}
	.st29{clip-path:url(#SVGID_19_);}
	.st30{fill:#7C4DFF;}
	.st31{fill:#1D1D1B;}
	.st32{clip-path:url(#SVGID_21_);}
	.st33{opacity:0.21;fill:#6F35A4;}
	.st34{opacity:0.8;fill:#FFFFFF;}
	.st35{fill:url(#SVGID_22_);}
	.st36{opacity:0.49;fill:#011525;}
	.st37{fill:#39C1DA;}
	.st38{fill:#FFCD57;}
	.st39{fill:#FDFDFE;}
	.st40{fill:#FDFDFD;}
	.st41{fill:#FCFCFC;}
	.st42{fill:#FEFEFE;}
	.st43{fill:#FBDEDD;}
	.st44{fill:#00B3BA;}
	.st45{fill:#91230D;}
	.st46{fill:#513D38;}
	.st47{fill:#ED6C76;}
	.st48{fill:#DF030D;}
	.st49{fill:#F4AE00;}
	.st50{fill:#0BB5CB;}
	.st51{fill:#00546C;}
	.st52{fill:#8D0701;}
	.st53{fill:none;}
	.st54{fill:none;stroke:#8D0701;stroke-width:2;}
</style>
<g>
	<g>
		<g>
			<path class="st0" d="M17.71,45.53h-4.55c-0.44,0-0.8,0.36-0.8,0.8c0,0.44,0.36,0.8,0.8,0.8h4.55c0.44,0,0.8-0.36,0.8-0.8
				C18.51,45.89,18.15,45.53,17.71,45.53z"/>
		</g>
	</g>
	<g>
		<g>
			<path class="st0" d="M30.48,44.81H24.4c-0.44,0-0.8,0.36-0.8,0.8c0,0.44,0.36,0.8,0.8,0.8h6.08c0.44,0,0.8-0.36,0.8-0.8
				C31.28,45.17,30.92,44.81,30.48,44.81z"/>
		</g>
	</g>
	<g>
		<g>
			<path class="st0" d="M30.48,47.33H24.4c-0.44,0-0.8,0.36-0.8,0.8c0,0.44,0.36,0.8,0.8,0.8h6.08c0.44,0,0.8-0.36,0.8-0.8
				C31.28,47.68,30.92,47.33,30.48,47.33z"/>
		</g>
	</g>
	<g>
		<g>
			<path class="st0" d="M44.07,46.62h-8.4c-0.44,0-0.8,0.36-0.8,0.8c0,0.44,0.36,0.8,0.8,0.8h8.4c0.44,0,0.8-0.36,0.8-0.8
				C44.87,46.98,44.51,46.62,44.07,46.62z"/>
		</g>
	</g>
	<g>
		<g>
			<path class="st0" d="M15.43,31.9c-1.95,0-3.54,1.59-3.54,3.54c0,1.95,1.59,3.54,3.54,3.54c1.95,0,3.54-1.59,3.54-3.54
				S17.38,31.9,15.43,31.9z M15.43,37.37c-1.07,0-1.94-0.87-1.94-1.94c0-1.07,0.87-1.94,1.94-1.94c1.07,0,1.94,0.87,1.94,1.94
				C17.37,36.5,16.5,37.37,15.43,37.37z"/>
		</g>
	</g>
	<g>
		<g>
			<path class="st0" d="M31.27,21.05c-2.47-1.04-5.18-1.04-7.65,0c-0.8,0.34-1.31,1.15-1.28,2.01l0.06,1.55
				c0.02,0.41,0.25,0.78,0.62,0.97c0.37,0.19,0.81,0.16,1.15-0.06c2.11-1.39,4.43-1.38,6.54,0c0.19,0.12,0.41,0.19,0.63,0.19
				c0.18,0,0.36-0.04,0.52-0.13c0.37-0.19,0.6-0.56,0.62-0.97l0.06-1.55C32.58,22.2,32.07,21.39,31.27,21.05z M30.91,23.77
				c-1.12-0.6-2.3-0.9-3.47-0.9c-1.17,0-2.35,0.3-3.47,0.89L23.94,23c-0.01-0.2,0.11-0.39,0.3-0.47c2.1-0.88,4.31-0.88,6.41,0
				c0.19,0.08,0.31,0.27,0.3,0.47L30.91,23.77z"/>
		</g>
	</g>
	<g>
		<g>
			<path class="st0" d="M31.57,28.66c-0.25-0.26-0.59-0.4-0.94-0.4h-6.37c-0.36,0-0.69,0.14-0.94,0.4
				c-0.25,0.26-0.38,0.59-0.38,0.95l0.09,4.87c0.01,0.72,0.61,1.3,1.32,1.3h6.19c0.72,0,1.31-0.58,1.32-1.3l0.09-4.87
				C31.96,29.25,31.82,28.92,31.57,28.66z M30.26,34.18h-5.64l-0.08-4.31h5.8L30.26,34.18z"/>
		</g>
	</g>
	<g>
		<g>
			<path class="st0" d="M39.87,37.49c-2.72,0-4.85,1.57-4.85,3.58c0,2.01,2.13,3.58,4.85,3.58c2.72,0,4.85-1.57,4.85-3.58
				C44.72,39.06,42.59,37.49,39.87,37.49z M39.87,43.04c-1.76,0-3.25-0.9-3.25-1.98c0-1.07,1.49-1.98,3.25-1.98
				c1.76,0,3.25,0.9,3.25,1.98C43.11,42.14,41.63,43.04,39.87,43.04z"/>
		</g>
	</g>
	<g>
		<g>
			<path class="st0" d="M47.46,25.21l-3.54-2.82c0.18-0.54,0.33-1.4,0.33-2.75c0-2.04-0.42-3.78-0.78-4.91
				c0.23-0.22,0.36-0.53,0.36-0.88V9.09c0-0.68-0.56-1.24-1.24-1.24h-5.45c-0.68,0-1.24,0.56-1.24,1.24v4.77
				c0,0.34,0.14,0.65,0.36,0.88c-0.36,1.13-0.78,2.87-0.78,4.91c0,1.35,0.15,2.21,0.33,2.75l-0.66,0.53l0.07-3.75
				c0.03-0.68-0.23-1.35-0.71-1.84l-3.1-3.19c-0.32-0.32-0.49-0.75-0.49-1.2V11.6c0.18-0.22,0.29-0.49,0.29-0.8V1.25
				c0-0.69-0.56-1.25-1.25-1.25h-5.06c-0.69,0-1.25,0.56-1.25,1.25v9.56c0,0.3,0.11,0.58,0.29,0.8v1.33c0,0.45-0.17,0.88-0.49,1.2
				l-3.1,3.19c-0.48,0.49-0.73,1.16-0.71,1.84l0.11,6.25c-0.84-0.37-1.42-1.19-1.48-2.13c0.34-0.22,0.56-0.59,0.56-1.02v-4.07
				c0-0.67-0.55-1.22-1.22-1.22h-4.41c-0.67,0-1.22,0.55-1.22,1.22v4.07c0,0.43,0.23,0.81,0.56,1.02c-0.07,1.19-0.99,2.18-2.18,2.33
				c0,0,0,0,0,0c-2.08,0.26-3.65,2.04-3.65,4.13v2.51c0,0.44,0.36,0.8,0.8,0.8c0.44,0,0.8-0.36,0.8-0.8v-2.51
				c0-1.29,0.96-2.38,2.24-2.54c0.08-0.01,0.28-0.01,0.57-0.02c0,0,0,0,0,0c0.07,0,0.15,0,0.23,0c0.03,0,0.06,0,0.08,0
				c0.02,0,0.03,0,0.05,0c0.02,0,0.05,0,0.07,0c0.02,0,0.05,0,0.07,0c1.88-0.02,5.68-0.02,7.56,0c0.03,0,0.06,0,0.09,0
				c0.02,0,0.03,0,0.05,0c0.02,0,0.05,0,0.07,0c0.02,0,0.04,0,0.06,0c0.12,0,0.23,0,0.32,0l0.04,2.49h-9
				c-1.03,0-1.86,0.83-1.86,1.86v16.53c0,0.86,0.7,1.56,1.56,1.56h9.63c-0.01,0.04-0.03,0.07-0.06,0.09
				c-0.4,0.29-0.63,0.76-0.62,1.26l0.07,2.62c0,0.1,0.02,0.21,0.03,0.31H9.02c-0.38,0-0.68-0.31-0.68-0.68V35.99
				c0-0.44-0.36-0.8-0.8-0.8c-0.44,0-0.8,0.36-0.8,0.8v17.25c0,1.26,1.02,2.28,2.28,2.28h37.35c0,0,0,0,0,0
				c1.33,0,2.42-1.09,2.42-2.42V27.98C48.79,26.9,48.3,25.89,47.46,25.21z M13.61,18.58h3.64v3.3h-3.64V18.58z M14.39,25.57
				C14.39,25.57,14.38,25.57,14.39,25.57c-0.35,0-0.68,0-1,0c0,0,0,0-0.01,0c0.44-0.6,0.72-1.32,0.79-2.09h2.52
				c0.06,0.78,0.35,1.5,0.79,2.09C16.51,25.57,15.42,25.57,14.39,25.57z M10.58,31.55c0-0.14,0.12-0.26,0.26-0.26h9.03l0.14,8.33
				h-9.43V31.55z M10.58,41.22h9.46l0.02,1.27h-9.48V41.22z M10.58,48.04L10.58,48.04v-3.94h9.51l0.07,3.94H10.58L10.58,48.04z
				 M25.27,1.6h4.34v1.24h-4.34V1.6z M25.27,4.44h4.34v6h-4.34V4.44z M33.71,53.57c-0.01,0.2-0.16,0.35-0.36,0.35c0,0,0,0,0,0H21.53
				c-0.2,0-0.35-0.15-0.36-0.35L21.1,51c0.44-0.34,0.7-0.89,0.69-1.48l-0.53-30.39c0,0,0-0.02,0-0.02
				c-0.01-0.25,0.08-0.49,0.26-0.67l3.1-3.19c0.61-0.63,0.94-1.45,0.94-2.32v-0.88h3.76v0.88c0,0.87,0.33,1.7,0.94,2.32l3.1,3.19
				c0.17,0.18,0.27,0.42,0.26,0.67c0,0,0,0.02,0,0.02l-0.53,30.39c-0.01,0.59,0.25,1.14,0.69,1.48L33.71,53.57z M37.51,9.46h4.72
				v1.23h-4.72V9.46z M37.51,12.18h4.72v1.32h-4.72V12.18z M37.84,15.1h4.06c0.27,0.82,0.59,2.04,0.71,3.5h-5.47
				C37.24,17.14,37.56,15.92,37.84,15.1z M46.37,53.92H35.28c0.02-0.1,0.03-0.2,0.03-0.31l0.04-1.49h11.83v0.98h0
				C47.19,53.55,46.82,53.92,46.37,53.92z M47.19,28.8L47.19,28.8h-7.03c-0.44,0-0.8,0.36-0.8,0.8c0,0.44,0.36,0.8,0.8,0.8h7.03
				v20.11H35.32c-0.09-0.31-0.29-0.59-0.56-0.79c-0.04-0.03-0.07-0.11-0.07-0.19l0.23-13.43c0.27,0.27,0.63,0.41,1.01,0.41
				c0.2,0,0.39-0.04,0.58-0.12c2.29-1.02,4.41-1.02,6.7,0c0,0,0,0,0,0c0.66,0.3,1.45,0.05,1.82-0.58l0.62-1.04
				c0.21-0.35,0.26-0.77,0.14-1.16c-0.12-0.39-0.4-0.71-0.77-0.88c-3.33-1.54-6.7-1.58-10.03-0.12l0.04-2.21h1.37
				c0.44,0,0.8-0.36,0.8-0.8c0-0.44-0.36-0.8-0.8-0.8h-1.35L35.12,25l2.19-1.75c0.18-0.14,0.29-0.35,0.3-0.58
				c0.01-0.2-0.05-0.4-0.18-0.55c-0.04-0.07-0.28-0.54-0.33-1.92h5.53c-0.05,1.37-0.3,1.85-0.33,1.92
				c-0.13,0.15-0.19,0.35-0.18,0.55c0.01,0.23,0.12,0.44,0.3,0.58l4.04,3.22c0.46,0.37,0.73,0.92,0.73,1.51V28.8L47.19,28.8z
				 M43.73,34.88c-2.6-1.12-5.13-1.12-7.73,0l-0.45-0.76c2.86-1.28,5.77-1.28,8.63,0L43.73,34.88z"/>
		</g>
	</g>
</g>
</svg>
