<?xml version="1.0" encoding="utf-8"?>
<!-- Generator: Adobe Illustrator 24.3.0, SVG Export Plug-In . SVG Version: 6.00 Build 0)  -->
<svg version="1.1" id="Capa_1" xmlns="http://www.w3.org/2000/svg" xmlns:xlink="http://www.w3.org/1999/xlink" x="0px" y="0px"
	 viewBox="0 0 55.52 55.52" style="enable-background:new 0 0 55.52 55.52;" xml:space="preserve">
<style type="text/css">
	.st0{fill:#732DAA;}
	.st1{opacity:0.15;}
	.st2{fill:#FFFFFF;}
	.st3{opacity:0.7;fill:#F4F4F4;}
	.st4{opacity:0.9;fill:#732DAA;}
	.st5{fill:#F7F7FA;}
	.st6{fill:#F39200;}
	.st7{opacity:0.4;fill:#606060;}
	.st8{fill:none;stroke:#F39200;stroke-width:2;stroke-linecap:round;stroke-linejoin:round;stroke-miterlimit:10;}
	.st9{fill:#8F12D1;}
	.st10{fill:#606060;}
	.st11{fill-rule:evenodd;clip-rule:evenodd;fill:url(#SVGID_9_);}
	.st12{fill-rule:evenodd;clip-rule:evenodd;fill:#FFFFFF;}
	.st13{opacity:0.86;fill:#DADADA;}
	.st14{fill:#FFFFFF;stroke:#878787;stroke-width:0.5;stroke-miterlimit:10;}
	.st15{fill:url(#SVGID_10_);}
	.st16{fill-rule:evenodd;clip-rule:evenodd;fill:url(#bubble_1_);}
	.st17{fill:#FD0000;}
	.st18{fill:#EC1655;}
	.st19{fill:#0CBAC6;}
	.st20{clip-path:url(#SVGID_12_);}
	.st21{fill:#1677F0;}
	.st22{fill:#EDEDED;}
	.st23{clip-path:url(#SVGID_16_);fill:url(#SVGID_17_);}
	.st24{fill:url(#path70_1_);}
	.st25{fill:url(#path94_1_);}
	.st26{fill:url(#path114_1_);}
	.st27{fill:url(#path140_1_);}
	.st28{fill:#28E3D7;}
	.st29{clip-path:url(#SVGID_19_);}
	.st30{fill:#7C4DFF;}
	.st31{fill:#1D1D1B;}
	.st32{clip-path:url(#SVGID_21_);}
	.st33{opacity:0.21;fill:#6F35A4;}
	.st34{opacity:0.8;fill:#FFFFFF;}
	.st35{fill:url(#SVGID_22_);}
	.st36{opacity:0.49;fill:#011525;}
	.st37{fill:#39C1DA;}
	.st38{fill:#FFCD57;}
	.st39{fill:#FDFDFE;}
	.st40{fill:#FDFDFD;}
	.st41{fill:#FCFCFC;}
	.st42{fill:#FEFEFE;}
	.st43{fill:#FBDEDD;}
	.st44{fill:#00B3BA;}
	.st45{fill:#91230D;}
	.st46{fill:#513D38;}
	.st47{fill:#ED6C76;}
	.st48{fill:#DF030D;}
	.st49{fill:#F4AE00;}
	.st50{fill:#0BB5CB;}
	.st51{fill:#00546C;}
	.st52{fill:#8D0701;}
	.st53{fill:none;}
	.st54{fill:none;stroke:#8D0701;stroke-width:2;}
</style>
<path class="st0" d="M52.77,32.39h-2.78v-9.26c0-2.56-2.08-4.63-4.63-4.63H30.54c-2.56,0-4.63,2.07-4.63,4.63v9.26h-2.78
	c-1.53,0-2.78,1.24-2.78,2.78v9.26c0.01,2.44,1.91,4.45,4.34,4.6l-1.33,4.66H14.7c-0.44-2.15-2.34-3.7-4.54-3.71H8.31V7.34
	c0-2.9,2.24-5.3,5.13-5.51c2.89-0.21,5.45,1.86,5.86,4.73l0.02,0.11c-1.2,0.49-1.89,1.75-1.67,3.02l0.25,1.5l-2.48,4.25
	c-0.33,0.57-0.34,1.28-0.01,1.85c0.33,0.57,0.94,0.93,1.6,0.93c0.11,0,0.21-0.01,0.32-0.03l8.89-1.5c0.71-0.12,1.28-0.64,1.48-1.33
	c0.19-0.69-0.03-1.43-0.58-1.9l-3.74-3.2l-0.25-1.5c-0.18-1.04-0.94-1.89-1.95-2.19L21.13,6.3c-0.55-3.83-3.96-6.59-7.82-6.31
	C9.45,0.26,6.45,3.47,6.45,7.34V50H4.6v-0.93c0-0.51-0.41-0.93-0.93-0.93c-0.51,0-0.93,0.41-0.93,0.93v1.32
	c-1.69,0.74-2.78,2.4-2.78,4.24c0,0.51,0.41,0.93,0.93,0.93h53.73c0.51,0,0.93-0.41,0.93-0.93c0-0.51-0.41-0.93-0.93-0.93h-2.08
	l-1.33-4.66c2.43-0.15,4.33-2.16,4.34-4.6v-9.26C55.55,33.64,54.31,32.4,52.77,32.39L52.77,32.39z M25.91,14.88l-8.89,1.5l2.43-4.17
	l2.8-0.47L25.91,14.88L25.91,14.88z M21.45,9.99l-1.83,0.31l-0.15-0.91c-0.08-0.5,0.25-0.98,0.76-1.07c0.05-0.01,0.1-0.01,0.16-0.01
	c0.45,0,0.84,0.33,0.91,0.77L21.45,9.99z M30.54,20.35h14.82c1.53,0,2.78,1.25,2.78,2.78v9.44c-1.11,0.39-1.85,1.43-1.85,2.61v1.88
	c-0.8-0.61-1.77-0.95-2.78-0.95h-3.32l2.12-2.12c0.35-0.36,0.35-0.94-0.01-1.3c-0.36-0.36-0.94-0.36-1.3-0.01l-2.12,2.12v-4.25
	c0-0.51-0.42-0.93-0.93-0.93c-0.51,0-0.93,0.41-0.93,0.93v4.25l-2.12-2.12c-0.36-0.35-0.94-0.35-1.3,0.01
	c-0.36,0.36-0.36,0.94-0.01,1.3l2.12,2.12h-3.32c-1.01,0-1.98,0.34-2.78,0.95v-1.88c0-1.17-0.75-2.22-1.85-2.61v-9.44
	C27.76,21.6,29.01,20.35,30.54,20.35L30.54,20.35z M43.51,37.95c1.53,0,2.78,1.25,2.78,2.78v0.93H29.61v-0.93
	c0-1.53,1.25-2.78,2.78-2.78H43.51z M44.83,49.07l2.65,4.63H28.43l2.65-4.63H44.83z M46.29,47.22H29.61v-3.71h16.68V47.22z
	 M22.2,44.44v-9.26c0-0.51,0.42-0.93,0.93-0.93h3.71c0.51,0,0.93,0.42,0.93,0.93v12.04h-2.78C23.45,47.21,22.2,45.97,22.2,44.44
	L22.2,44.44z M1.98,53.7c0.39-1.11,1.44-1.85,2.62-1.85h5.56c1.18,0,2.23,0.74,2.62,1.85H1.98z M25.28,53.7l1.32-4.63h2.34
	L26.3,53.7H25.28z M49.61,53.7l-2.65-4.63h2.34l1.32,4.63H49.61z M53.7,44.44c0,1.53-1.25,2.78-2.78,2.78h-2.78V35.17
	c0-0.51,0.42-0.93,0.93-0.93h3.71c0.51,0,0.93,0.42,0.93,0.93V44.44z"/>
</svg>
