<?xml version="1.0" encoding="utf-8"?>
<!-- Generator: Adobe Illustrator 24.3.0, SVG Export Plug-In . SVG Version: 6.00 Build 0)  -->
<svg version="1.1" id="Capa_1" xmlns="http://www.w3.org/2000/svg" xmlns:xlink="http://www.w3.org/1999/xlink" x="0px" y="0px"
	 viewBox="0 0 55.52 55.52" style="enable-background:new 0 0 55.52 55.52;" xml:space="preserve">
<style type="text/css">
	.st0{fill:#732DAA;}
	.st1{opacity:0.15;}
	.st2{fill:#FFFFFF;}
	.st3{opacity:0.7;fill:#F4F4F4;}
	.st4{opacity:0.9;fill:#732DAA;}
	.st5{fill:#F7F7FA;}
	.st6{fill:#F39200;}
	.st7{opacity:0.4;fill:#606060;}
	.st8{fill:none;stroke:#F39200;stroke-width:2;stroke-linecap:round;stroke-linejoin:round;stroke-miterlimit:10;}
	.st9{fill:#8F12D1;}
	.st10{fill:#606060;}
	.st11{fill-rule:evenodd;clip-rule:evenodd;fill:url(#SVGID_9_);}
	.st12{fill-rule:evenodd;clip-rule:evenodd;fill:#FFFFFF;}
	.st13{opacity:0.86;fill:#DADADA;}
	.st14{fill:#FFFFFF;stroke:#878787;stroke-width:0.5;stroke-miterlimit:10;}
	.st15{fill:url(#SVGID_10_);}
	.st16{fill-rule:evenodd;clip-rule:evenodd;fill:url(#bubble_1_);}
	.st17{fill:#FD0000;}
	.st18{fill:#EC1655;}
	.st19{fill:#0CBAC6;}
	.st20{clip-path:url(#SVGID_12_);}
	.st21{fill:#1677F0;}
	.st22{fill:#EDEDED;}
	.st23{clip-path:url(#SVGID_16_);fill:url(#SVGID_17_);}
	.st24{fill:url(#path70_1_);}
	.st25{fill:url(#path94_1_);}
	.st26{fill:url(#path114_1_);}
	.st27{fill:url(#path140_1_);}
	.st28{fill:#28E3D7;}
	.st29{clip-path:url(#SVGID_19_);}
	.st30{fill:#7C4DFF;}
	.st31{fill:#1D1D1B;}
	.st32{clip-path:url(#SVGID_21_);}
	.st33{opacity:0.21;fill:#6F35A4;}
	.st34{opacity:0.8;fill:#FFFFFF;}
	.st35{fill:url(#SVGID_22_);}
	.st36{opacity:0.49;fill:#011525;}
	.st37{fill:#39C1DA;}
	.st38{fill:#FFCD57;}
	.st39{fill:#FDFDFE;}
	.st40{fill:#FDFDFD;}
	.st41{fill:#FCFCFC;}
	.st42{fill:#FEFEFE;}
	.st43{fill:#FBDEDD;}
	.st44{fill:#00B3BA;}
	.st45{fill:#91230D;}
	.st46{fill:#513D38;}
	.st47{fill:#ED6C76;}
	.st48{fill:#DF030D;}
	.st49{fill:#F4AE00;}
	.st50{fill:#0BB5CB;}
	.st51{fill:#00546C;}
	.st52{fill:#8D0701;}
	.st53{fill:none;}
	.st54{fill:none;stroke:#8D0701;stroke-width:2;}
</style>
<path class="st0" d="M9.73,11.63H8.78c-2.08,0-3.78,1.7-3.78,3.78v28.98c0,0.3-0.25,0.55-0.55,0.55H0v2.23h1.26
	c0.27,0,0.5,0.19,0.54,0.46c0.77,4.56,4.68,7.87,9.31,7.87h33.31c4.63,0,8.54-3.31,9.31-7.87c0.04-0.26,0.27-0.46,0.54-0.46h1.26
	v-2.23h-4.45c-0.3,0-0.55-0.25-0.55-0.55V11.63h-4.73c-0.18,0-0.35-0.09-0.45-0.23c-0.1-0.15-0.13-0.33-0.07-0.5
	c0.79-2.22-0.3-4.68-2.48-5.59C42.51,5.2,42.38,4.87,42.5,4.6c0.53-1.28,1.69-2.16,3.03-2.35V0c-2.62,0.24-4.85,2.17-5.42,4.77
	c-0.04,0.19-0.18,0.35-0.37,0.41c-1.16,0.37-2.1,1.17-2.64,2.26c-0.54,1.09-0.61,2.31-0.21,3.46c0.06,0.17,0.03,0.35-0.07,0.5
	c-0.1,0.15-0.27,0.23-0.45,0.23h-3.9c-0.18,0-0.35-0.09-0.45-0.23c-0.1-0.15-0.13-0.33-0.07-0.5c0.79-2.22-0.3-4.68-2.48-5.59
	c-0.28-0.12-0.41-0.44-0.29-0.72c0.53-1.28,1.69-2.16,3.03-2.35V0c-2.62,0.24-4.85,2.17-5.42,4.77c-0.04,0.19-0.18,0.35-0.37,0.41
	c-1.16,0.37-2.1,1.17-2.64,2.26c-0.54,1.09-0.62,2.31-0.21,3.46c0.06,0.17,0.03,0.35-0.07,0.5c-0.1,0.15-0.27,0.23-0.45,0.23h-3.9
	c-0.18,0-0.35-0.09-0.45-0.23c-0.1-0.15-0.13-0.33-0.07-0.5c0.79-2.22-0.3-4.68-2.48-5.59c-0.28-0.12-0.41-0.44-0.29-0.72
	c0.53-1.28,1.69-2.16,3.03-2.35V0c-2.62,0.24-4.85,2.17-5.42,4.77c-0.04,0.19-0.18,0.35-0.37,0.41c-1.16,0.37-2.1,1.17-2.64,2.27
	c-0.54,1.09-0.61,2.31-0.21,3.46c0.06,0.17,0.03,0.35-0.07,0.5C10.07,11.55,9.91,11.63,9.73,11.63z M50.86,47.17
	c0.17,0,0.33,0.08,0.43,0.21c0.1,0.13,0.14,0.31,0.1,0.47c-0.82,3.18-3.69,5.41-6.98,5.41H11.11c-3.29,0-6.16-2.22-6.98-5.41
	c-0.04-0.16-0.01-0.34,0.1-0.47c0.1-0.13,0.26-0.21,0.43-0.21H50.86z M24.43,32.18c2,0,3.77-1.35,4.29-3.28
	c0.04-0.15,0.14-0.28,0.28-0.35c0.14-0.07,0.3-0.08,0.45-0.02c0.52,0.21,1.07,0.31,1.64,0.31c2.45,0,4.45-1.99,4.45-4.45v-0.83
	c0-1.68,1.37-3.05,3.05-3.05h9.16c0.3,0,0.55,0.25,0.55,0.55v15.5c0,0.19-0.1,0.36-0.25,0.46c-0.16,0.1-0.36,0.11-0.52,0.04
	c-0.21-0.1-0.42-0.21-0.63-0.33c-0.83-0.45-1.77-0.96-3.58-0.96c-1.81,0-2.76,0.51-3.59,0.97c-0.71,0.39-1.28,0.7-2.52,0.7
	c-1.24,0-1.8-0.31-2.52-0.69c-0.83-0.46-1.78-0.97-3.59-0.97c-1.81,0-2.76,0.51-3.59,0.97c-0.71,0.39-1.28,0.7-2.52,0.7
	c-1.24,0-1.81-0.31-2.52-0.7c-0.83-0.45-1.78-0.97-3.59-0.97c-1.81,0-2.75,0.51-3.58,0.96c-0.22,0.12-0.42,0.23-0.64,0.33
	c-0.17,0.08-0.37,0.06-0.52-0.04c-0.16-0.1-0.25-0.28-0.25-0.46v-13c0-1.68,1.37-3.05,3.05-3.05c1.68,0,3.05,1.37,3.05,3.05v4.16
	C19.98,30.19,21.98,32.18,24.43,32.18z M14.32,39.52c0.88-0.19,1.5-0.52,2.04-0.82c0.71-0.39,1.28-0.7,2.52-0.7s1.8,0.31,2.52,0.7
	c0.84,0.46,1.78,0.97,3.59,0.97c1.81,0,2.75-0.51,3.59-0.97c0.72-0.39,1.28-0.7,2.52-0.7c1.24,0,1.8,0.31,2.52,0.7
	c0.83,0.45,1.78,0.97,3.59,0.97c1.81,0,2.75-0.51,3.58-0.97c0.72-0.39,1.28-0.7,2.52-0.7c1.24,0,1.8,0.31,2.52,0.7
	c0.54,0.3,1.16,0.63,2.04,0.82c0.25,0.05,0.43,0.28,0.43,0.54v4.33c0,0.3-0.25,0.55-0.55,0.55H14.44c-0.3,0-0.55-0.25-0.55-0.55
	v-4.33C13.89,39.8,14.07,39.58,14.32,39.52z M41.08,7.2c1.22,0,2.21,0.99,2.21,2.21c0,1.22-0.99,2.21-2.21,2.21
	c-1.22,0-2.21-0.99-2.21-2.21C38.87,8.2,39.86,7.2,41.08,7.2z M27.76,7.2c1.22,0,2.21,0.99,2.21,2.21c0,1.22-0.99,2.21-2.21,2.21
	c-1.22,0-2.21-0.99-2.21-2.21C25.55,8.2,26.54,7.2,27.76,7.2z M14.44,7.2c1.22,0,2.21,0.99,2.21,2.21c0,1.22-0.99,2.21-2.21,2.21
	c-1.22,0-2.21-0.99-2.21-2.21C12.22,8.2,13.22,7.2,14.44,7.2z M47.74,13.87c0.3,0,0.55,0.25,0.55,0.55v3.33
	c0,0.3-0.25,0.55-0.55,0.55h-9.16c-2.91,0-5.28,2.37-5.28,5.28v0.83c0,1.22-0.99,2.21-2.21,2.21c-1.22,0-2.21-0.99-2.21-2.21v-2.78
	h-2.23v6.11c0,1.22-0.99,2.21-2.21,2.21c-1.22,0-2.21-0.99-2.21-2.21v-4.16c0-2.91-2.37-5.28-5.28-5.28c-2.91,0-5.28,2.37-5.28,5.28
	v20.82c0,0.3-0.25,0.55-0.55,0.55H7.78c-0.3,0-0.55-0.25-0.55-0.55V15.41c0-0.85,0.69-1.55,1.55-1.55H47.74z"/>
</svg>
