<?xml version="1.0" encoding="utf-8"?>
<!-- Generator: Adobe Illustrator 24.3.0, SVG Export Plug-In . SVG Version: 6.00 Build 0)  -->
<svg version="1.1" id="Capa_1" xmlns="http://www.w3.org/2000/svg" xmlns:xlink="http://www.w3.org/1999/xlink" x="0px" y="0px"
	 viewBox="0 0 55.52 55.52" style="enable-background:new 0 0 55.52 55.52;" xml:space="preserve">
<style type="text/css">
	.st0{fill:#732DAA;}
	.st1{opacity:0.15;}
	.st2{fill:#FFFFFF;}
	.st3{opacity:0.7;fill:#F4F4F4;}
	.st4{opacity:0.9;fill:#732DAA;}
	.st5{fill:#F7F7FA;}
	.st6{fill:#F39200;}
	.st7{opacity:0.4;fill:#606060;}
	.st8{fill:none;stroke:#F39200;stroke-width:2;stroke-linecap:round;stroke-linejoin:round;stroke-miterlimit:10;}
	.st9{fill:#8F12D1;}
	.st10{fill:#606060;}
	.st11{fill-rule:evenodd;clip-rule:evenodd;fill:url(#SVGID_9_);}
	.st12{fill-rule:evenodd;clip-rule:evenodd;fill:#FFFFFF;}
	.st13{opacity:0.86;fill:#DADADA;}
	.st14{fill:#FFFFFF;stroke:#878787;stroke-width:0.5;stroke-miterlimit:10;}
	.st15{fill:url(#SVGID_10_);}
	.st16{fill-rule:evenodd;clip-rule:evenodd;fill:url(#bubble_1_);}
	.st17{fill:#FD0000;}
	.st18{fill:#EC1655;}
	.st19{fill:#0CBAC6;}
	.st20{clip-path:url(#SVGID_12_);}
	.st21{fill:#1677F0;}
	.st22{fill:#EDEDED;}
	.st23{clip-path:url(#SVGID_16_);fill:url(#SVGID_17_);}
	.st24{fill:url(#path70_1_);}
	.st25{fill:url(#path94_1_);}
	.st26{fill:url(#path114_1_);}
	.st27{fill:url(#path140_1_);}
	.st28{fill:#28E3D7;}
	.st29{clip-path:url(#SVGID_19_);}
	.st30{fill:#7C4DFF;}
	.st31{fill:#1D1D1B;}
	.st32{clip-path:url(#SVGID_21_);}
	.st33{opacity:0.21;fill:#6F35A4;}
	.st34{opacity:0.8;fill:#FFFFFF;}
	.st35{fill:url(#SVGID_22_);}
	.st36{opacity:0.49;fill:#011525;}
	.st37{fill:#39C1DA;}
	.st38{fill:#FFCD57;}
	.st39{fill:#FDFDFE;}
	.st40{fill:#FDFDFD;}
	.st41{fill:#FCFCFC;}
	.st42{fill:#FEFEFE;}
	.st43{fill:#FBDEDD;}
	.st44{fill:#00B3BA;}
	.st45{fill:#91230D;}
	.st46{fill:#513D38;}
	.st47{fill:#ED6C76;}
	.st48{fill:#DF030D;}
	.st49{fill:#F4AE00;}
	.st50{fill:#0BB5CB;}
	.st51{fill:#00546C;}
	.st52{fill:#8D0701;}
	.st53{fill:none;}
	.st54{fill:none;stroke:#8D0701;stroke-width:2;}
</style>
<g>
	<g>
		<g>
			<path class="st0" d="M54.8,0.72C54.79,0.72,54.79,0.72,54.8,0.72C54.33,0.26,53.7,0,53.05,0h0c-0.56,0-1.1,0.19-1.54,0.54
				c-5.9,4.72-11.83,9.58-17.62,14.47c-1.41,1.19-2.81,2.38-4.22,3.59L13.62,2.54c-1.59-1.59-4.17-1.59-5.75,0l-7.63,7.63
				c-0.32,0.32-0.32,0.83,0,1.15c0.32,0.32,0.83,0.32,1.15,0l5.33-5.33l1.16,1.16l-5.33,5.33c-0.32,0.32-0.32,0.83,0,1.15
				c0.16,0.16,0.37,0.24,0.58,0.24c0.21,0,0.42-0.08,0.58-0.24L9.03,8.3l1.16,1.16l-5.33,5.33c-0.32,0.32-0.32,0.83,0,1.15
				c0.16,0.16,0.37,0.24,0.58,0.24c0.21,0,0.42-0.08,0.58-0.24l5.33-5.33l1.16,1.16l-5.33,5.33c-0.32,0.32-0.32,0.83,0,1.15
				c0.16,0.16,0.37,0.24,0.58,0.24c0.21,0,0.42-0.08,0.58-0.24l5.33-5.33l1.16,1.16l-5.33,5.33c-0.32,0.32-0.32,0.83,0,1.15
				c0.16,0.16,0.37,0.24,0.58,0.24c0.21,0,0.42-0.08,0.58-0.24l5.33-5.33l1.16,1.16l-5.33,5.33c-0.32,0.32-0.32,0.83,0,1.15
				c0.16,0.16,0.37,0.24,0.58,0.24c0.21,0,0.42-0.08,0.58-0.24l5.33-5.33l1.16,1.16l-5.33,5.33c-0.32,0.32-0.32,0.83,0,1.15
				c0.16,0.16,0.37,0.24,0.58,0.24c0.21,0,0.42-0.08,0.58-0.24l5.33-5.33l1.16,1.16l-5.33,5.33c-0.32,0.32-0.32,0.83,0,1.15
				c0.16,0.16,0.37,0.24,0.58,0.24c0.21,0,0.42-0.08,0.58-0.24l5.33-5.33l1.2,1.2c-2.5,2.17-4.98,4.36-7.44,6.55c0,0,0,0,0,0
				c-0.73,0.65-1.53,1.4-2.31,2.1c-0.48,0.35-0.39,0.96-0.15,1.2c0,0,0,0,0,0c0.78,0.95,1.22,2.16,1.22,3.41
				c0,1.46-0.56,2.83-1.59,3.85c-0.01,0.01-2.44,2.44-2.45,2.45c-3.54,3.62-9.77,1.15-9.77-3.98c0-3.11,2.52-5.68,5.69-5.68
				c1.73,0,3.34,0.77,4.43,2.11c0.29,0.36,0.84,0.4,1.18,0.09c0,0,0.01-0.01,0.01-0.01l0.01-0.01c0.38-0.34,0.35-0.96-0.07-1.26
				c-1.39-1.62-3.41-2.55-5.55-2.55H7.31C3.25,31.68,0,34.99,0,38.99c0,3.01,1.84,5.68,4.56,6.78c1.62,0.66,3.39,0.7,4.99,0.19
				c-1.53,4.75,2.03,9.56,6.96,9.56h0.01c4.03,0,7.32-3.27,7.32-7.32c0-1.92-0.74-3.74-2.09-5.12c0,0,1.66-1.89,1.66-1.89
				c2.93-3.26,5.83-6.54,8.69-9.82l1.23,1.23l-5.33,5.33c-0.32,0.32-0.32,0.83,0,1.15c0.16,0.16,0.37,0.24,0.58,0.24
				c0.21,0,0.42-0.08,0.58-0.24l5.33-5.33l1.16,1.16l-5.33,5.33c-0.32,0.32-0.32,0.83,0,1.15c0.16,0.16,0.37,0.24,0.58,0.24
				c0.21,0,0.42-0.08,0.58-0.24l5.33-5.33l1.16,1.16l-5.33,5.33c-0.32,0.32-0.32,0.83,0,1.15c0.16,0.16,0.37,0.24,0.58,0.24
				c0.21,0,0.42-0.08,0.58-0.24l5.33-5.33l1.16,1.16l-5.33,5.33c-0.32,0.32-0.32,0.83,0,1.15c0.16,0.16,0.37,0.24,0.58,0.24
				c0.21,0,0.42-0.08,0.58-0.24l5.33-5.33l1.16,1.16l-5.33,5.33c-0.32,0.32-0.32,0.83,0,1.15c0.16,0.16,0.37,0.24,0.58,0.24
				c0.21,0,0.42-0.08,0.58-0.24l5.33-5.33l1.16,1.16l-5.33,5.33c-0.32,0.32-0.32,0.83,0,1.15c0.16,0.16,0.37,0.24,0.58,0.24
				c0.21,0,0.42-0.08,0.58-0.24l5.33-5.33l1.16,1.16l-5.33,5.33c-0.32,0.32-0.32,0.83,0,1.15c0.16,0.16,0.37,0.24,0.58,0.24
				c0.21,0,0.42-0.08,0.58-0.24l5.33-5.33l1.16,1.16l-5.33,5.33c-0.32,0.32-0.32,0.83,0,1.15c0.16,0.16,0.37,0.24,0.58,0.24
				c0.21,0,0.42-0.08,0.58-0.24l5.9-5.9c0,0,0,0,0,0c0,0,0,0,0,0l1.72-1.72c0.77-0.77,1.19-1.79,1.19-2.88
				c0-1.09-0.42-2.11-1.19-2.88L36.91,25.83c6.24-7.27,12.28-14.57,18.07-21.82C55.77,3.03,55.69,1.61,54.8,0.72z M7.86,4.84
				l1.15-1.15c0.95-0.95,2.5-0.95,3.45,0l15.97,15.97c-1.03,0.89-2.06,1.77-3.09,2.66L7.86,4.84z M51.83,43.06
				c0.46,0.46,0.71,1.07,0.71,1.73c0,0.65-0.25,1.26-0.71,1.73l-1.15,1.15c-0.54-0.54-16.35-16.35-17.5-17.5
				c0.89-1.03,1.78-2.06,2.67-3.08L51.83,43.06z M22.66,39.61c-0.39-0.3-1.45-0.82-1.62-2.31c-0.05-0.41-0.39-0.72-0.81-0.72
				c-0.49,0-0.87,0.43-0.81,0.91c0,0,0,0,0,0c0.16,1.33,0.88,2.5,1.97,3.22c0.06,0.04,0.11,0.08,0.17,0.12
				c-0.56,0.64-1.03,1.19-1.56,1.78c-0.15,0.16-0.22,0.39-0.21,0.61c0.02,0.22,0.13,0.43,0.3,0.57c1.36,1.11,2.11,2.72,2.11,4.43
				c0,3.13-2.53,5.69-5.69,5.69c-3.13,0-5.69-2.53-5.69-5.69c0-2.57,1.63-3.95,1.76-4.13L15,41.66c1.33-1.33,2.06-3.13,2.06-5
				c0-1.37-0.39-2.69-1.13-3.83c0.64-0.58,1.19-1.1,1.83-1.67l0,0C35.4,15.43,52.32,1.92,52.63,1.74
				c-0.22,0.22-31.95,31.94-32.1,32.1c-0.3,0.34-0.27,0.85,0.07,1.15c0.34,0.3,0.85,0.26,1.15-0.07c0.1-0.11,31.8-31.8,32.03-32.03
				C53.72,3,40.62,19.59,22.66,39.61z"/>
		</g>
	</g>
	<g>
		<g>
			<path class="st0" d="M10.2,36.12c-2.57-2.57-6.94-0.72-6.94,2.87c0,1.09,0.42,2.11,1.19,2.88c0.79,0.79,1.83,1.19,2.88,1.19
				c1.04,0,2.08-0.4,2.88-1.19C11.78,40.28,11.78,37.71,10.2,36.12z M9.05,40.72c-0.95,0.95-2.5,0.95-3.45,0
				c-1.52-1.52-0.46-4.16,1.73-4.16C9.51,36.56,10.56,39.2,9.05,40.72z"/>
		</g>
	</g>
	<g>
		<g>
			<path class="st0" d="M16.52,44.14c-1.67,0-3.11,0.96-3.75,2.51c-0.64,1.55-0.31,3.25,0.87,4.43c0.79,0.79,1.8,1.2,2.84,1.2
				c0.53,0,1.06-0.11,1.58-0.32c1.55-0.64,2.52-2.08,2.52-3.75C20.59,45.97,18.76,44.14,16.52,44.14z M17.45,50.46
				c-0.73,0.3-1.81,0.32-2.65-0.52c-0.85-0.85-0.82-1.93-0.52-2.66c0.3-0.73,1.05-1.5,2.25-1.5c1.35,0,2.44,1.09,2.44,2.44
				C18.96,49.4,18.18,50.15,17.45,50.46z"/>
		</g>
	</g>
</g>
</svg>
