<?xml version="1.0" encoding="utf-8"?>
<!-- Generator: Adobe Illustrator 24.3.0, SVG Export Plug-In . SVG Version: 6.00 Build 0)  -->
<svg version="1.1" id="Capa_1" xmlns="http://www.w3.org/2000/svg" xmlns:xlink="http://www.w3.org/1999/xlink" x="0px" y="0px"
	 viewBox="0 0 55.52 55.52" style="enable-background:new 0 0 55.52 55.52;" xml:space="preserve">
<style type="text/css">
	.st0{fill:#732DAA;}
	.st1{opacity:0.15;}
	.st2{fill:#FFFFFF;}
	.st3{opacity:0.7;fill:#F4F4F4;}
	.st4{opacity:0.9;fill:#732DAA;}
	.st5{fill:#F7F7FA;}
	.st6{fill:#F39200;}
	.st7{opacity:0.4;fill:#606060;}
	.st8{fill:none;stroke:#F39200;stroke-width:2;stroke-linecap:round;stroke-linejoin:round;stroke-miterlimit:10;}
	.st9{fill:#8F12D1;}
	.st10{fill:#606060;}
	.st11{fill-rule:evenodd;clip-rule:evenodd;fill:url(#SVGID_9_);}
	.st12{fill-rule:evenodd;clip-rule:evenodd;fill:#FFFFFF;}
	.st13{opacity:0.86;fill:#DADADA;}
	.st14{fill:#FFFFFF;stroke:#878787;stroke-width:0.5;stroke-miterlimit:10;}
	.st15{fill:url(#SVGID_10_);}
	.st16{fill-rule:evenodd;clip-rule:evenodd;fill:url(#bubble_1_);}
	.st17{fill:#FD0000;}
	.st18{fill:#EC1655;}
	.st19{fill:#0CBAC6;}
	.st20{clip-path:url(#SVGID_12_);}
	.st21{fill:#1677F0;}
	.st22{fill:#EDEDED;}
	.st23{clip-path:url(#SVGID_16_);fill:url(#SVGID_17_);}
	.st24{fill:url(#path70_1_);}
	.st25{fill:url(#path94_1_);}
	.st26{fill:url(#path114_1_);}
	.st27{fill:url(#path140_1_);}
	.st28{fill:#28E3D7;}
	.st29{clip-path:url(#SVGID_19_);}
	.st30{fill:#7C4DFF;}
	.st31{fill:#1D1D1B;}
	.st32{clip-path:url(#SVGID_21_);}
	.st33{opacity:0.21;fill:#6F35A4;}
	.st34{opacity:0.8;fill:#FFFFFF;}
	.st35{fill:url(#SVGID_22_);}
	.st36{opacity:0.49;fill:#011525;}
	.st37{fill:#39C1DA;}
	.st38{fill:#FFCD57;}
	.st39{fill:#FDFDFE;}
	.st40{fill:#FDFDFD;}
	.st41{fill:#FCFCFC;}
	.st42{fill:#FEFEFE;}
	.st43{fill:#FBDEDD;}
	.st44{fill:#00B3BA;}
	.st45{fill:#91230D;}
	.st46{fill:#513D38;}
	.st47{fill:#ED6C76;}
	.st48{fill:#DF030D;}
	.st49{fill:#F4AE00;}
	.st50{fill:#0BB5CB;}
	.st51{fill:#00546C;}
	.st52{fill:#8D0701;}
	.st53{fill:none;}
	.st54{fill:none;stroke:#8D0701;stroke-width:2;}
</style>
<g>
	<g>
		<g>
			<path class="st0" d="M39.32,18.71l-0.59-1.96c-0.75-2.22-3.17-3.41-5.39-2.66c-1.25,0.42-2.23,1.41-2.66,2.66l-0.59,1.96
				c-0.5,1.65-0.6,3.39-0.31,5.09c0.27,1.43,1.18,2.66,2.47,3.34l-0.67,14.87c-0.09,0.83,0.18,1.66,0.74,2.28
				c1.2,1.32,3.25,1.41,4.57,0.2c0.07-0.07,0.14-0.13,0.2-0.2c0.55-0.6,0.82-1.41,0.74-2.22l-0.67-14.94
				c1.28-0.68,2.19-1.91,2.46-3.33C39.92,22.11,39.82,20.36,39.32,18.71z M37.8,23.48c-0.2,1.03-0.93,1.87-1.92,2.21
				c-0.38,0.14-0.62,0.51-0.6,0.91l0.7,15.62c0.03,0.31-0.07,0.61-0.28,0.84c-0.56,0.55-1.45,0.55-2.01,0
				c-0.22-0.24-0.32-0.57-0.27-0.9l0.7-15.56c0.02-0.4-0.22-0.77-0.6-0.91c-0.99-0.34-1.72-1.18-1.92-2.21
				c-0.25-1.41-0.16-2.86,0.25-4.23l0.59-1.96c0.46-1.24,1.84-1.88,3.08-1.42c0.66,0.24,1.18,0.76,1.42,1.42l0.59,1.96
				C37.96,20.62,38.05,22.07,37.8,23.48z"/>
		</g>
	</g>
	<g>
		<g>
			<path class="st0" d="M24.99,13.88c-0.51,0-0.93,0.41-0.93,0.93v7.95l-2.5,2.5c-0.19,0.18-0.28,0.44-0.27,0.7l0.81,16.19
				c0.02,0.35-0.11,0.69-0.35,0.94c-0.51,0.51-1.33,0.51-1.84,0.01c0,0-0.01-0.01-0.01-0.01c-0.24-0.25-0.37-0.59-0.35-0.94
				l0.82-16.19c0.01-0.26-0.09-0.52-0.27-0.7l-2.51-2.5v-7.95c0-0.51-0.41-0.93-0.93-0.93c-0.51,0-0.93,0.41-0.93,0.93v8.33
				c0,0.25,0.1,0.48,0.27,0.65l2.49,2.49L17.7,42.06c-0.08,1.72,1.25,3.19,2.97,3.27c1.72,0.08,3.19-1.25,3.27-2.97
				c0-0.1,0-0.2,0-0.3l-0.79-15.79l2.49-2.49c0.17-0.17,0.27-0.41,0.27-0.65v-8.33C25.91,14.29,25.5,13.88,24.99,13.88z"/>
		</g>
	</g>
	<g>
		<g>
			<path class="st0" d="M19.43,13.88c-0.51,0-0.93,0.41-0.93,0.93v7.4c0,0.51,0.41,0.93,0.93,0.93c0.51,0,0.93-0.41,0.93-0.93v-7.4
				C20.36,14.29,19.94,13.88,19.43,13.88z"/>
		</g>
	</g>
	<g>
		<g>
			<path class="st0" d="M22.21,13.88c-0.51,0-0.93,0.41-0.93,0.93v7.4c0,0.51,0.41,0.93,0.93,0.93c0.51,0,0.93-0.41,0.93-0.93v-7.4
				C23.13,14.29,22.72,13.88,22.21,13.88z"/>
		</g>
	</g>
	<g>
		<g>
			<path class="st0" d="M27.76,0C12.43,0,0,12.43,0,27.76s12.43,27.76,27.76,27.76s27.76-12.43,27.76-27.76
				C55.5,12.44,43.09,0.02,27.76,0z M27.76,53.67c-14.31,0-25.91-11.6-25.91-25.91S13.45,1.85,27.76,1.85s25.91,11.6,25.91,25.91
				C53.66,42.06,42.06,53.66,27.76,53.67z"/>
		</g>
	</g>
	<g>
		<g>
			<path class="st0" d="M30.76,45.13c-0.05-0.51-0.5-0.88-1.01-0.83c-0.01,0-0.02,0-0.04,0l0,0c-1.3,0.15-2.62,0.15-3.92,0
				c-0.51-0.06-0.97,0.3-1.03,0.81s0.3,0.97,0.81,1.03c1.44,0.17,2.9,0.17,4.35,0C30.44,46.09,30.81,45.64,30.76,45.13z"/>
		</g>
	</g>
	<g>
		<g>
			<path class="st0" d="M41.92,15.84c-0.33-0.39-0.91-0.44-1.3-0.11c0,0,0,0,0,0c-0.39,0.33-0.44,0.91-0.11,1.3
				c5.58,6.62,5.15,16.42-0.98,22.53c-0.36,0.36-0.36,0.95,0,1.31s0.95,0.36,1.31,0C47.64,34.08,48.12,23.2,41.92,15.84z"/>
		</g>
	</g>
	<g>
		<g>
			<g>
				<path class="st0" d="M21.56,12.23C21.56,12.23,21.56,12.23,21.56,12.23C21.56,12.23,21.56,12.23,21.56,12.23L21.56,12.23z"/>
				<path class="st0" d="M32.13,9.77c-3.62-0.87-7.41-0.63-10.89,0.67c-0.48,0.18-0.72,0.71-0.54,1.19c0.14,0.36,0.48,0.6,0.87,0.6
					c0.11,0,0.22-0.02,0.32-0.06c3.14-1.17,6.55-1.38,9.81-0.6c0.5,0.12,1-0.19,1.12-0.68C32.93,10.39,32.62,9.89,32.13,9.77z"/>
			</g>
		</g>
	</g>
	<g>
		<g>
			<path class="st0" d="M15.96,39.51c-3.12-3.11-4.87-7.34-4.86-11.75c-0.01-3.52,1.11-6.95,3.18-9.8c0.31-0.41,0.22-0.99-0.18-1.3
				c-0.41-0.31-0.99-0.22-1.3,0.18c-0.01,0.01-0.01,0.01-0.02,0.02c-5.35,7.36-4.56,17.51,1.86,23.95c0.36,0.36,0.95,0.36,1.31,0
				C16.32,40.46,16.32,39.88,15.96,39.51z"/>
		</g>
	</g>
</g>
</svg>
