<?xml version="1.0" encoding="utf-8"?>
<!-- Generator: Adobe Illustrator 24.3.0, SVG Export Plug-In . SVG Version: 6.00 Build 0)  -->
<svg version="1.1" id="Capa_1" xmlns="http://www.w3.org/2000/svg" xmlns:xlink="http://www.w3.org/1999/xlink" x="0px" y="0px"
	 viewBox="0 0 55.52 55.52" style="enable-background:new 0 0 55.52 55.52;" xml:space="preserve">

<g>
	<g>
		<path class="st0" d="M8.66,55.33c-0.06,0-0.12,0-0.19,0c-2.19-0.05-4.2-0.97-5.68-2.59c-2.74-3-2.74-7.69,0-10.69
			c1.5-1.64,3.6-2.57,5.81-2.58l26.32-26.32c-0.73-3.42,0.32-7.03,2.8-9.5c2.58-2.58,6.24-3.6,9.79-2.74
			c0.55,0.13,0.98,0.55,1.13,1.09c0.15,0.54,0.01,1.11-0.39,1.51l-6.57,6.57l0.91,3.39l3.39,0.91l6.57-6.57
			c0.4-0.4,0.96-0.55,1.51-0.39c0.54,0.15,0.96,0.58,1.09,1.13c0.86,3.55-0.16,7.21-2.74,9.79c-2.48,2.48-6.08,3.53-9.5,2.8
			L16.57,47.45c-0.01,2.08-0.84,4.09-2.31,5.56C12.76,54.51,10.77,55.33,8.66,55.33z M8.65,41.14c-1.76,0-3.44,0.73-4.63,2.04
			c-2.17,2.37-2.17,6.08,0,8.45c1.17,1.28,2.77,2.01,4.5,2.05c1.73,0.04,3.36-0.61,4.58-1.84c1.25-1.25,1.9-2.92,1.82-4.7
			l-0.02-0.36l27.49-27.49l0.46,0.12c2.99,0.78,6.2-0.08,8.38-2.26c2.12-2.12,2.99-5.11,2.34-8.03l-7.11,7.11l-5.23-1.4l-1.4-5.23
			l7.11-7.11c-2.92-0.64-5.92,0.23-8.03,2.34c-2.18,2.18-3.04,5.39-2.26,8.38l0.12,0.46L9.27,41.16l-0.36-0.02
			C8.82,41.14,8.73,41.14,8.65,41.14z"/>
	</g>
	<g>
		<path class="st0" d="M8.56,50.97c-1.81,0-3.28-1.47-3.28-3.28c0-1.81,1.47-3.28,3.28-3.28s3.28,1.47,3.28,3.28
			C11.84,49.5,10.37,50.97,8.56,50.97z M8.56,46.06c-0.9,0-1.63,0.73-1.63,1.63c0,0.9,0.73,1.63,1.63,1.63
			c0.9,0,1.63-0.73,1.63-1.63C10.19,46.79,9.46,46.06,8.56,46.06z"/>
	</g>
	<g>
		<g>
			<g>
				<path class="st0" d="M46.28,55.42c-1.32,0-2.55-0.51-3.48-1.44L30.16,39.64c-0.29-0.33-0.27-0.82,0.04-1.13l1.47-1.47
					c0.32-0.32,0.85-0.32,1.17,0c0.32,0.32,0.32,0.85,0,1.17l-0.92,0.92L44,52.84c0.58,0.58,1.4,0.92,2.28,0.92
					c0.87,0,1.69-0.34,2.31-0.96l4.33-4.33c1.27-1.27,1.27-3.35,0-4.62L38.65,31.3c-0.34-0.3-0.38-0.83-0.07-1.17
					c0.3-0.34,0.83-0.38,1.17-0.07l14.3,12.59c1.96,1.96,1.96,5.08,0.04,7l-4.33,4.33C48.83,54.91,47.59,55.42,46.28,55.42z"/>
			</g>
			<g>
				<path class="st0" d="M47.43,48.15c-0.21,0-0.42-0.08-0.59-0.24l-9.72-9.72c-0.32-0.32-0.32-0.85,0-1.17
					c0.32-0.32,0.85-0.32,1.17,0l9.72,9.72c0.32,0.32,0.32,0.85,0,1.17C47.85,48.06,47.64,48.15,47.43,48.15z"/>
			</g>
			<g>
				<path class="st0" d="M27.43,40.13c-0.21,0-0.42-0.08-0.59-0.24l-1.93-1.93c-0.32-0.32-0.32-0.85,0-1.17L36.7,25
					c0.32-0.32,0.85-0.32,1.17,0l1.93,1.93c0.32,0.32,0.32,0.85,0,1.17l-2,2c-0.32,0.32-0.85,0.32-1.17,0
					c-0.32-0.32-0.32-0.85,0-1.17l1.41-1.41l-0.76-0.76L26.67,37.37l0.76,0.76l5.31-5.31c0.32-0.32,0.85-0.32,1.17,0
					c0.32,0.32,0.32,0.85,0,1.17l-5.9,5.9C27.85,40.05,27.64,40.13,27.43,40.13z"/>
			</g>
			<g>
				<path class="st0" d="M34.9,35.81c-0.21,0-0.42-0.08-0.59-0.24c-0.32-0.32-0.32-0.85,0-1.17l4.18-4.18
					c0.32-0.32,0.85-0.32,1.17,0c0.32,0.32,0.32,0.85,0,1.17l-4.18,4.18C35.32,35.73,35.11,35.81,34.9,35.81z"/>
			</g>
		</g>
		<g>
			<path class="st0" d="M21.01,29.02c-0.24,0-0.48-0.11-0.65-0.31L7.76,13.1l-3.18-0.4c-0.26-0.03-0.49-0.19-0.62-0.42L0.1,5.36
				c-0.18-0.32-0.12-0.73,0.14-0.99l4.02-4.02c0.26-0.26,0.67-0.32,0.99-0.14l6.92,3.85c0.23,0.13,0.39,0.36,0.42,0.62l0.4,3.18
				l15.62,12.61c0.36,0.29,0.41,0.81,0.12,1.17c-0.29,0.36-0.81,0.41-1.17,0.12L11.69,8.94c-0.17-0.13-0.27-0.33-0.3-0.54L11,5.31
				L4.99,1.96L1.86,5.1l3.35,6l3.09,0.39c0.21,0.03,0.41,0.14,0.54,0.3l12.82,15.88c0.29,0.36,0.23,0.88-0.12,1.17
				C21.37,28.96,21.19,29.02,21.01,29.02z"/>
		</g>
	</g>
</g>
</svg>
