<?xml version="1.0" encoding="utf-8"?>
<!-- Generator: Adobe Illustrator 24.3.0, SVG Export Plug-In . SVG Version: 6.00 Build 0)  -->
<svg version="1.1" id="Capa_1" xmlns="http://www.w3.org/2000/svg" xmlns:xlink="http://www.w3.org/1999/xlink" x="0px" y="0px"
	 viewBox="0 0 55.52 55.52" style="enable-background:new 0 0 55.52 55.52;" xml:space="preserve">
<style type="text/css">
	.st0{fill:#732DAA;}
	.st1{opacity:0.15;}
	.st2{fill:#FFFFFF;}
	.st3{opacity:0.7;fill:#F4F4F4;}
	.st4{opacity:0.9;fill:#732DAA;}
	.st5{fill:#F7F7FA;}
	.st6{fill:#F39200;}
	.st7{opacity:0.4;fill:#606060;}
	.st8{fill:none;stroke:#F39200;stroke-width:2;stroke-linecap:round;stroke-linejoin:round;stroke-miterlimit:10;}
	.st9{fill:#8F12D1;}
	.st10{fill:#606060;}
	.st11{fill-rule:evenodd;clip-rule:evenodd;fill:url(#SVGID_9_);}
	.st12{fill-rule:evenodd;clip-rule:evenodd;fill:#FFFFFF;}
	.st13{opacity:0.86;fill:#DADADA;}
	.st14{fill:#FFFFFF;stroke:#878787;stroke-width:0.5;stroke-miterlimit:10;}
	.st15{fill:url(#SVGID_10_);}
	.st16{fill-rule:evenodd;clip-rule:evenodd;fill:url(#bubble_1_);}
	.st17{fill:#FD0000;}
	.st18{fill:#EC1655;}
	.st19{fill:#0CBAC6;}
	.st20{clip-path:url(#SVGID_12_);}
	.st21{fill:#1677F0;}
	.st22{fill:#EDEDED;}
	.st23{clip-path:url(#SVGID_16_);fill:url(#SVGID_17_);}
	.st24{fill:url(#path70_1_);}
	.st25{fill:url(#path94_1_);}
	.st26{fill:url(#path114_1_);}
	.st27{fill:url(#path140_1_);}
	.st28{fill:#28E3D7;}
	.st29{clip-path:url(#SVGID_19_);}
	.st30{fill:#7C4DFF;}
	.st31{fill:#1D1D1B;}
	.st32{clip-path:url(#SVGID_21_);}
	.st33{opacity:0.21;fill:#6F35A4;}
	.st34{opacity:0.8;fill:#FFFFFF;}
	.st35{fill:url(#SVGID_22_);}
	.st36{opacity:0.49;fill:#011525;}
	.st37{fill:#39C1DA;}
	.st38{fill:#FFCD57;}
	.st39{fill:#FDFDFE;}
	.st40{fill:#FDFDFD;}
	.st41{fill:#FCFCFC;}
	.st42{fill:#FEFEFE;}
	.st43{fill:#FBDEDD;}
	.st44{fill:#00B3BA;}
	.st45{fill:#91230D;}
	.st46{fill:#513D38;}
	.st47{fill:#ED6C76;}
	.st48{fill:#DF030D;}
	.st49{fill:#F4AE00;}
	.st50{fill:#0BB5CB;}
	.st51{fill:#00546C;}
	.st52{fill:#8D0701;}
	.st53{fill:none;}
	.st54{fill:none;stroke:#8D0701;stroke-width:2;}
</style>
<g>
	<path class="st0" d="M1.08,46.2h3.25v7.16H3.25c-0.6,0-1.08,0.49-1.08,1.08c0,0.6,0.49,1.08,1.08,1.08h8.68
		c0.6,0,1.08-0.49,1.08-1.08c0-0.6-0.49-1.08-1.08-1.08h-1.08V46.2h3.25c0.6,0,1.08-0.49,1.08-1.08s-0.49-1.08-1.08-1.08h-1.08
		v-2.71c0-0.6-0.49-1.08-1.08-1.08c-0.6,0-1.08,0.49-1.08,1.08v2.71H4.34v-2.17h1.08c0.6,0,1.08-0.49,1.08-1.08
		c0-0.6-0.49-1.08-1.08-1.08H4.34v-4.34h1.08c0.6,0,1.08-0.49,1.08-1.08c0-0.6-0.49-1.08-1.08-1.08H4.34v-4.34h6.51v2.71
		c0,0.6,0.49,1.08,1.08,1.08c0.6,0,1.08-0.49,1.08-1.08V16.92c0-0.6-0.49-1.08-1.08-1.08h-1.08v-3.25c0-0.6-0.49-1.08-1.08-1.08
		H8.68V1.08C8.68,0.49,8.19,0,7.59,0S6.51,0.49,6.51,1.08v10.41H5.42c-0.6,0-1.08,0.49-1.08,1.08v3.25H3.25
		c-0.6,0-1.08,0.49-1.08,1.08v27.11H1.08c-0.6,0-1.08,0.49-1.08,1.08S0.49,46.2,1.08,46.2L1.08,46.2z M8.68,53.35H6.51V46.2h2.17
		V53.35z M6.51,13.66h2.17v2.17H6.51V13.66z M10.84,18v8.68H4.34v-4.34h1.08c0.6,0,1.08-0.49,1.08-1.08c0-0.6-0.49-1.08-1.08-1.08
		H4.34V18H10.84z M10.84,18"/>
	<path class="st0" d="M43.59,18.01c-1.79,0-3.25,1.46-3.25,3.25c0,0.6,0.49,1.08,1.08,1.08s1.08-0.49,1.08-1.08
		c0-0.6,0.49-1.08,1.08-1.08c0.6,0,1.08,0.49,1.08,1.08c0,0.6,0.49,1.08,1.08,1.08c0.6,0,1.08-0.49,1.08-1.08
		C46.85,19.47,45.39,18.01,43.59,18.01L43.59,18.01z M43.59,18.01"/>
	<path class="st0" d="M27.33,21.26c0,0.6,0.49,1.08,1.08,1.08c0.6,0,1.08-0.49,1.08-1.08c0-0.6,0.49-1.08,1.08-1.08
		c0.6,0,1.08,0.49,1.08,1.08c0,0.6,0.49,1.08,1.08,1.08s1.08-0.49,1.08-1.08c0-1.79-1.46-3.25-3.25-3.25
		C28.79,18.01,27.33,19.47,27.33,21.26L27.33,21.26z M27.33,21.26"/>
	<path class="st0" d="M21.44,27.99c-0.41,1.22-0.62,2.48-0.62,3.76c0,6.2,4.76,8.92,10.84,9.78v3.6c0,2.99,2.43,5.42,5.42,5.42
		c2.99,0,5.42-2.43,5.42-5.42v-3.6c6.09-0.86,10.84-3.58,10.84-9.78c0-1.28-0.21-2.54-0.62-3.76c1.67-0.8,2.78-2.5,2.78-4.42v-8.3
		c0-4.47-3.64-8.1-8.1-8.1c-2.41,0-3.96,1.07-4.36,1.22c-1.85-0.8-3.9-1.22-5.96-1.22h-0.01c-2.06,0-4.11,0.42-5.97,1.22
		c-0.42-0.17-1.95-1.22-4.36-1.22c-4.47,0-8.1,3.63-8.1,8.1v8.3C18.65,25.49,19.77,27.19,21.44,27.99L21.44,27.99z M36,9.38v9.71
		c0,4.19-3.39,7.59-7.58,7.59h-4.08c0.55-1.36,0.83-2.79,0.82-4.26v-2.24C25.16,14.45,30,9.86,36,9.38L36,9.38z M37.1,31.01
		c-1.78,0-3.23-1.44-3.25-3.22c0.17-0.23,1.29-0.75,3.25-0.75c1.97,0,3.08,0.51,3.25,0.75C40.34,29.57,38.88,31.01,37.1,31.01
		L37.1,31.01z M22.99,31.75c0-0.98,0.15-1.96,0.45-2.9h4.99c1.15,0,2.25-0.2,3.28-0.57c0.23,2.38,2,4.32,4.3,4.79v3.16
		c-0.01,0.88-0.36,1.7-0.99,2.32c-0.61,0.6-1.41,0.93-2.25,0.91C30.41,39.44,22.99,38.2,22.99,31.75L22.99,31.75z M37.09,48.37
		c-1.79,0-3.25-1.46-3.25-3.25v-3.59c0.79-0.16,1.52-0.49,2.17-0.99v2.41c0,0.6,0.49,1.08,1.08,1.08c0.6,0,1.08-0.49,1.08-1.08
		v-2.38c0.63,0.47,1.38,0.81,2.17,0.96v3.59C40.34,46.91,38.88,48.37,37.09,48.37L37.09,48.37z M41.41,39.46
		c-2.12,0.03-3.23-1.91-3.24-3.23v-3.15c2.48-0.5,4.35-2.69,4.35-5.32c0-1.75-2.13-2.88-5.42-2.88c-0.29,0-0.57,0.01-0.85,0.03
		c1.21-1.63,1.92-3.64,1.92-5.82V9.38c5.99,0.49,10.84,5.07,10.84,10.8v2.23c-0.03,4.43,2.17,5.28,2.17,9.33
		C51.18,37.65,44.72,39.44,41.41,39.46L41.41,39.46z M53.35,15.27v8.3c0,1.04-0.58,1.95-1.46,2.41c-0.48-1.13-0.72-2.33-0.71-3.57
		v-2.24c0-4.2-2.16-8.07-5.76-10.5c0.64-0.23,1.32-0.35,2-0.35C50.69,9.33,53.35,12,53.35,15.27L53.35,15.27z M20.82,15.27
		c0-3.27,2.66-5.93,5.93-5.93c0.68,0,1.36,0.12,2,0.35c-3.6,2.43-5.76,6.29-5.76,10.5v2.25c0.01,1.23-0.23,2.43-0.71,3.56
		c-0.88-0.46-1.46-1.38-1.46-2.41V15.27z M20.82,15.27"/>
	<path class="st0" d="M13.01,36.44c0,0.6-0.49,1.08-1.08,1.08c-0.6,0-1.08-0.49-1.08-1.08s0.49-1.08,1.08-1.08
		C12.53,35.35,13.01,35.84,13.01,36.44L13.01,36.44z M13.01,36.44"/>
</g>
</svg>
