<?xml version="1.0" encoding="utf-8"?>
<!-- Generator: Adobe Illustrator 26.0.0, SVG Export Plug-In . SVG Version: 6.00 Build 0)  -->
<svg version="1.1" id="Capa_1" xmlns="http://www.w3.org/2000/svg" xmlns:xlink="http://www.w3.org/1999/xlink" x="0px" y="0px"
	 viewBox="0 0 41.4 41.4" style="enable-background:new 0 0 41.4 41.4;" xml:space="preserve">
<style type="text/css">
	.st0{opacity:0.95;}
	.st1{fill:#721EC7;}
	.st2{fill:none;stroke:#611ED8;stroke-miterlimit:10;}
	.st3{fill:#FF9300;}
	.st4{fill:#FFFFFF;}
</style>
<g>
	<path class="st3" d="M34.14,38.34H7.26c-2.2,0-3.98-1.78-3.98-3.98V7.04c0-2.2,1.78-3.98,3.98-3.98h26.89
		c2.2,0,3.98,1.78,3.98,3.98v27.32C38.12,36.56,36.34,38.34,34.14,38.34z"/>
	<g>
		<path class="st4" d="M19.18,12.44c0.28,0.04,0.57,0.07,0.85,0.13c1.09,0.22,2.06,0.7,2.89,1.45c0.86,0.78,1.46,1.74,1.8,2.86
			c0.28,0.94,0.33,1.9,0.16,2.87c-0.16,0.9-0.51,1.73-1.02,2.5c0.04,0.04,0.08,0.09,0.13,0.14c1.43,1.44,2.87,2.88,4.3,4.32
			c0.4,0.4,0.52,0.87,0.34,1.42c-0.27,0.81-1.33,1.12-1.98,0.57c-0.08-0.07-0.16-0.14-0.24-0.22c-1.43-1.44-2.86-2.88-4.3-4.32
			c-0.04-0.04-0.08-0.1-0.1-0.13c-0.42,0.18-0.79,0.38-1.18,0.51c-1.82,0.61-3.56,0.42-5.2-0.59c-1.18-0.72-2.01-1.76-2.51-3.06
			c-0.4-1.05-0.51-2.15-0.32-3.26c0.23-1.36,0.84-2.53,1.83-3.48c0.85-0.81,1.85-1.34,3-1.57c0.26-0.05,0.53-0.09,0.8-0.13
			C18.67,12.44,18.93,12.44,19.18,12.44z M18.83,14.66c-2.19,0-3.96,1.8-3.96,4.01c0.01,2.21,1.78,4,3.96,4
			c2.18,0,3.96-1.8,3.96-4.02C22.78,16.45,21.01,14.66,18.83,14.66z"/>
	</g>
</g>
</svg>
