<?xml version="1.0" encoding="utf-8"?>
<!-- Generator: Adobe Illustrator 26.0.0, SVG Export Plug-In . SVG Version: 6.00 Build 0)  -->
<svg version="1.1" id="Capa_1" xmlns="http://www.w3.org/2000/svg" xmlns:xlink="http://www.w3.org/1999/xlink" x="0px" y="0px"
	 viewBox="0 0 41.4 41.4" style="enable-background:new 0 0 41.4 41.4;" xml:space="preserve">
<style type="text/css">
	.st0{opacity:0.95;}
	.st1{fill:#721EC7;}
	.st2{fill:none;stroke:#611ED8;stroke-miterlimit:10;}
	.st3{fill:#FF9300;}
	.st4{fill:#FFFFFF;}
</style>
<g>
	<g class="st0">
		<path class="st1" d="M30.28,14.91H11.12c-0.97,0-1.75-0.78-1.75-1.75v0c0-0.97,0.78-1.75,1.75-1.75h19.17
			c0.97,0,1.75,0.78,1.75,1.75v0C32.03,14.12,31.25,14.91,30.28,14.91z"/>
		<path class="st1" d="M30.28,22.45H11.12c-0.97,0-1.75-0.78-1.75-1.75v0c0-0.97,0.78-1.75,1.75-1.75h19.17
			c0.97,0,1.75,0.78,1.75,1.75v0C32.03,21.67,31.25,22.45,30.28,22.45z"/>
		<path class="st1" d="M30.28,29.99H11.12c-0.97,0-1.75-0.78-1.75-1.75v0c0-0.97,0.78-1.75,1.75-1.75h19.17
			c0.97,0,1.75,0.78,1.75,1.75v0C32.03,29.21,31.25,29.99,30.28,29.99z"/>
	</g>
	<path class="st2" d="M32.59,38.02H8.81c-3.35,0-6.06-2.71-6.06-6.06V9.44c0-3.35,2.71-6.06,6.06-6.06h23.77
		c3.35,0,6.06,2.71,6.06,6.06v22.52C38.65,35.3,35.93,38.02,32.59,38.02z"/>
</g>
</svg>
