<?xml version="1.0" encoding="utf-8"?>
<!-- Generator: Adobe Illustrator 26.0.0, SVG Export Plug-In . SVG Version: 6.00 Build 0)  -->
<svg version="1.1" id="Capa_1" xmlns="http://www.w3.org/2000/svg" xmlns:xlink="http://www.w3.org/1999/xlink" x="0px" y="0px"
	 viewBox="0 0 20 20" style="enable-background:new 0 0 20 20;" xml:space="preserve">
<style type="text/css">
	.st0{opacity:0.95;}
	.st1{fill:#721EC7;}
	.st2{fill:none;stroke:#611ED8;stroke-miterlimit:10;}
	.st3{fill:#FF9300;}
	.st4{fill:#FFFFFF;}
</style>
<g>
	<path class="st1" d="M10.42,1.81c0.32,0.05,0.65,0.09,0.97,0.16c2.37,0.53,4.27,2.56,4.66,4.96c0.23,1.41-0.02,2.76-0.53,4.07
		c-0.61,1.56-1.52,2.94-2.55,4.24c-0.77,0.97-1.62,1.89-2.53,2.73c-0.32,0.3-0.56,0.3-0.88,0c-1.72-1.62-3.23-3.4-4.37-5.48
		c-0.6-1.09-1.06-2.24-1.26-3.48C3.39,5.52,5.75,2.45,8.96,1.9c0.21-0.04,0.42-0.06,0.63-0.09C9.86,1.81,10.14,1.81,10.42,1.81z
		 M13.41,7.85c-0.08-1.9-1.65-3.39-3.5-3.31c-1.9,0.07-3.4,1.65-3.32,3.51c0.08,1.89,1.66,3.39,3.5,3.31
		C12,11.28,13.49,9.71,13.41,7.85z"/>
</g>
</svg>
