<?xml version="1.0" encoding="utf-8"?>
<!-- Generator: Adobe Illustrator 26.0.0, SVG Export Plug-In . SVG Version: 6.00 Build 0)  -->
<svg version="1.1" id="Capa_1" xmlns="http://www.w3.org/2000/svg" xmlns:xlink="http://www.w3.org/1999/xlink" x="0px" y="0px"
	 viewBox="0 0 20 20" style="enable-background:new 0 0 20 20;" xml:space="preserve">
<style type="text/css">
	.st0{opacity:0.95;}
	.st1{fill:#721EC7;}
	.st2{fill:none;stroke:#611ED8;stroke-miterlimit:10;}
	.st3{fill:#FF9300;}
	.st4{fill:#FFFFFF;}
</style>
<g class="st0">
	<path class="st1" d="M10.14,0.97c0.31,0.14,0.42,0.39,0.4,0.73c-0.02,0.33,0,0.66,0,1.01c0.15,0.02,0.3,0.04,0.45,0.06
		c3.25,0.44,5.84,3.04,6.25,6.28c0.05,0.41,0.05,0.41,0.47,0.41c0.23,0,0.47,0,0.7,0c0.38,0,0.62,0.21,0.62,0.54
		c0,0.33-0.24,0.53-0.63,0.53c-0.32,0-0.63,0-0.95,0c-0.12,0-0.17,0.02-0.18,0.16c-0.27,3.23-2.83,5.99-6.04,6.5
		c-0.22,0.04-0.45,0.06-0.69,0.1c0,0.41,0,0.81,0,1.21c0,0.26-0.19,0.47-0.45,0.52c-0.25,0.04-0.51-0.1-0.59-0.34
		c-0.03-0.09-0.04-0.18-0.04-0.28c0-0.32-0.01-0.63,0-0.95c0-0.12-0.03-0.17-0.16-0.19c-3.01-0.39-5.07-2-6.18-4.82
		c-0.22-0.55-0.34-1.12-0.38-1.71c-0.01-0.14-0.05-0.2-0.21-0.2c-0.28,0.01-0.56-0.01-0.85,0.01c-0.33,0.02-0.57-0.1-0.7-0.4
		c0-0.09,0-0.19,0-0.28c0.14-0.31,0.37-0.42,0.7-0.4c0.29,0.02,0.58,0,0.86,0.01c0.14,0.01,0.17-0.05,0.19-0.18
		C2.79,8.9,2.84,8.51,2.94,8.13c0.76-2.92,3.3-5.12,6.37-5.4c0.11-0.01,0.15-0.05,0.15-0.16c-0.01-0.3,0.01-0.6-0.01-0.9
		c-0.02-0.33,0.1-0.57,0.41-0.7C9.95,0.97,10.05,0.97,10.14,0.97z M9.99,3.77c-3.43,0-6.22,2.79-6.23,6.22
		c-0.01,3.43,2.8,6.24,6.23,6.24c3.43,0,6.21-2.78,6.23-6.22C16.24,6.58,13.43,3.77,9.99,3.77z"/>
	<g>
		<path class="st1" d="M6.38,10c0-1.99,1.62-3.61,3.61-3.61c2,0,3.61,1.61,3.61,3.61c0,2-1.61,3.61-3.61,3.61
			C8,13.61,6.38,11.99,6.38,10z"/>
	</g>
</g>
</svg>
