<?xml version="1.0" encoding="utf-8"?>
<!-- Generator: Adobe Illustrator 26.0.0, SVG Export Plug-In . SVG Version: 6.00 Build 0)  -->
<svg version="1.1" id="Capa_1" xmlns="http://www.w3.org/2000/svg" xmlns:xlink="http://www.w3.org/1999/xlink" x="0px" y="0px"
	 viewBox="0 0 55.5 55.5" style="enable-background:new 0 0 55.5 55.5;" xml:space="preserve">
<style type="text/css">
	.st0{fill:#FFFFFF;}
</style>
<path class="st0" d="M41.6,31.3c-2.1-0.5-4.2-1.4-6.3-2.5l-1.5-0.9v-2.2c2-1.5,3.5-3.9,3.8-6.6c0-0.1,0-0.1,0-0.2l1-0.8
	c1.1-0.9,1.5-2.4,1-3.7c-0.2-0.6-0.7-1-1-1.3V6.6c0-3.6-3-6.6-6.6-6.6h-8.6c-3.6,0-6.5,3-6.5,6.6v6.7c-0.4,0.3-0.7,0.7-0.9,1.1
	c-0.5,1.3-0.1,2.8,0.9,3.7l1,0.8c0.3,2.7,1.8,5.1,3.9,6.7v2.4l-2,1c-1.9,0.9-3.9,1.6-6,2.1C9,32.4,5.6,36.7,5.6,41.7V55
	c0,0.4,0.3,0.8,0.8,0.8h42.7c0.4,0,0.8-0.4,0.8-0.8V41.7C49.9,36.7,46.5,32.4,41.6,31.3z M35,30.4l-1.7,4.9l-3.6-2.8
	c1.4-0.5,2.7-1.4,3.8-2.7c0,0,0.1-0.1,0.1-0.1L35,30.4z M30.2,34.9l-1.2,3h-2.5l-1.2-3l2.5-1.9L30.2,34.9z M23.5,28.9v-2.3
	c2.8,1.3,6,1.3,8.7,0v2.3c-1.3,1.5-2.8,2.3-4.4,2.3C26.3,31.2,24.8,30.4,23.5,28.9z M38.1,15c0.3,0.7,0.1,1.4-0.5,1.9l0,0l-0.4-2.7
	C37.6,14.3,37.9,14.6,38.1,15z M18,17L18,17c-0.6-0.5-0.8-1.2-0.5-1.9c0.2-0.4,0.5-0.7,0.9-0.8L18,17z M18.6,12.5
	c-0.1,0-0.1,0-0.1,0V6.6c0-2.7,2.2-5,4.9-5h8.6c2.8,0,5,2.3,5,5v5.5L36.3,8c-0.3-2.5-2.5-4.3-5-4.3h-0.2L30.5,4
	c-1.9,1-4.1,0.9-5.9-0.2l-0.2-0.1h-0.2c-2.5,0-4.6,1.8-4.9,4.3L18.6,12.5z M19.5,18.7c0-0.5,0-1,0-1.5l1.3-9c0.2-1.6,1.5-2.8,3.1-3
	c2.2,1.3,5,1.4,7.3,0.2l0.3-0.2c1.6,0.1,3,1.3,3.2,3l1.3,9c0.1,0.6,0.1,1.1,0,1.7c-0.6,4.6-4.9,7.7-9.4,7.1
	C22.9,25.5,19.9,22.5,19.5,18.7L19.5,18.7z M20.5,30.5l1.5-0.8c1.1,1.3,2.4,2.2,3.8,2.7l-3.6,2.8L20.5,30.5
	C20.5,30.6,20.5,30.6,20.5,30.5L20.5,30.5z M15.2,54.3v-8.3c0-0.4-0.3-0.8-0.8-0.8c-0.4,0-0.8,0.3-0.8,0.8c0,0,0,0,0,0v8.3H7.2V41.7
	c0-4.2,2.9-7.9,7-8.9c0.2,0,0.3,0,0.5-0.1l2.6,5.6c0.1,0.3,0.4,0.5,0.7,0.5l0,0c0.4,0,0.8-0.4,0.8-0.8c0-0.1,0-0.2-0.1-0.3l-2.5-5.4
	c1-0.3,1.9-0.6,2.8-1l2,5.6c0.1,0.4,0.6,0.6,1,0.5c0.1,0,0.1-0.1,0.2-0.1l1.7-1.3l1.3,3.1c0,0,0,0,0,0.1L24,48.7l-2.6-5.5
	c-0.1-0.3-0.4-0.5-0.7-0.5l0,0c-0.4,0-0.8,0.4-0.8,0.8c0,0.1,0,0.2,0.1,0.3l4.9,10.4H15.2z M28.9,54.3h-2.3l-1.3-2.9l1.5-11.9h1.9
	l1.4,11.4L28.9,54.3z M30.3,39l1.2-3.1l1.7,1.3c0.3,0.3,0.8,0.2,1.1-0.1c0-0.1,0.1-0.1,0.1-0.2l2-5.7c0.9,0.4,1.8,0.8,2.8,1.1
	l-7.9,16l-1.1-9.1C30.3,39.1,30.3,39,30.3,39z M48.3,54.3H42v-8.3c0-0.4-0.3-0.8-0.8-0.8c-0.4,0-0.8,0.3-0.8,0.8v8.3h-9.8l1.1-3
	l9.2-18.6c0.2,0,0.3,0.1,0.5,0.1c4.1,1,7,4.7,7,8.9C48.3,41.7,48.3,54.3,48.3,54.3z"/>
</svg>
