<?xml version="1.0" encoding="utf-8"?>
<!-- Generator: Adobe Illustrator 26.0.0, SVG Export Plug-In . SVG Version: 6.00 Build 0)  -->
<svg version="1.1" id="Capa_1" xmlns="http://www.w3.org/2000/svg" xmlns:xlink="http://www.w3.org/1999/xlink" x="0px" y="0px"
	 viewBox="0 0 55.5 55.5" style="enable-background:new 0 0 55.5 55.5;" xml:space="preserve">
<style type="text/css">
	.st0{fill:#FFFFFF;}
</style>
<g id="Page-1_2_">
	<g>
		<path id="Shape_2_" class="st0" d="M54.3,9.4L28.4,0.1C28,0,27.5,0,27.1,0.1L1.2,9.4C0.5,9.6,0,10.3,0,11.1s0.5,1.5,1.2,1.7
			l12.6,4.5v5.8c0,3.6,12.5,3.7,13.9,3.7c1.4,0,13.9-0.1,13.9-3.7v-5.8l2.8-1v2.1c0,1,0.8,1.9,1.8,1.9h1.8c1,0,1.8-0.8,1.8-1.9v-2.8
			c0-0.4-0.1-0.9-0.3-1.2l4.6-1.6c0.7-0.3,1.2-1,1.2-1.7S55,9.6,54.3,9.4L54.3,9.4z M39.8,21.1c-3.5-1.6-11-1.7-12-1.7
			c-1.1,0-8.5,0.1-12,1.7V13c0.6-0.7,4.9-1.9,12-1.9s11.5,1.2,12,1.9V21.1z M27.8,25c-6.9,0-11.1-1.1-11.9-1.9
			c0.8-0.7,5.1-1.9,11.9-1.9s11.1,1.1,11.9,1.9C38.9,23.9,34.6,25,27.8,25z M44.8,14.3l-3.2,1.1V13c0-3.6-12.5-3.7-13.9-3.7
			c-1.4,0-13.9,0.1-13.9,3.7v2.4l-12-4.3l25.9-9.3l18.5,6.6v4.7C45.7,13.3,45.2,13.7,44.8,14.3z M48.1,18.5h-1.8v-2.8
			c0-0.5,0.4-0.9,0.9-0.9c0.5,0,0.9,0.4,0.9,0.9L48.1,18.5L48.1,18.5z M48.1,13.1v-4l5.5,2L48.1,13.1z"/>
		<path class="st0" d="M52.8,28.7c-0.1,0-0.1,0-0.2,0c-8.2,1.3-16.5,1.9-24.8,1.8c-8.3,0-16.6-0.6-24.8-1.8c0,0-0.1,0-0.2,0
			C2.1,28.7,0,29.4,0,38.9S2.1,49,2.8,49c0.1,0,0.1,0,0.2,0c6.3-1,12.7-1.6,19.1-1.7l-1.8,4.3c-0.3,0.7-0.1,1.5,0.4,2
			c0.5,0.5,1.3,0.7,2,0.4l0.7-0.3l0.3,0.7c0.3,0.7,1,1.1,1.7,1.1h0c0.8,0,1.4-0.5,1.7-1.2l1.6-3.8l1.6,3.8c0.3,0.7,1,1.2,1.7,1.2h0
			c0.7,0,1.4-0.4,1.7-1.1l0.3-0.7l0.7,0.3c0.7,0.3,1.5,0.2,2-0.4c0.5-0.5,0.7-1.3,0.4-2l-1.8-4.3c5.8,0.2,11.5,0.8,17.2,1.7
			c0,0,0.1,0,0.2,0c0.7,0,2.8-0.7,2.8-10.2C55.5,29.4,53.4,28.7,52.8,28.7L52.8,28.7z M30.7,32.4c0.4,1.4,0.6,2.9,0.7,4.3
			c-2.1-1-4.6-0.8-6.4,0.6c0-1.7-0.3-3.3-0.6-4.9c1.1,0,2.3,0,3.5,0C28.8,32.4,29.8,32.4,30.7,32.4z M28.7,47.2
			c-2.6,0-4.6-2.1-4.6-4.6s2.1-4.6,4.6-4.6s4.6,2.1,4.6,4.6C33.3,45.1,31.2,47.2,28.7,47.2z M2.8,31c0.7,2.6,1,5.2,0.9,7.9
			c0.1,2.7-0.2,5.3-0.9,7.9c-0.7-2.6-1-5.2-0.9-7.9C1.8,36.2,2.1,33.6,2.8,31z M4.7,46.9c0.5-1.5,0.9-3.9,0.9-8s-0.4-6.6-0.9-8
			c5.9,0.8,11.8,1.3,17.7,1.5c0.6,2.1,0.8,4.3,0.8,6.6c0,0.1,0,0.3,0,0.4c-1.1,1.8-1.2,4.1-0.3,6.1l0,0.1
			C16.7,45.6,10.7,46.1,4.7,46.9L4.7,46.9z M25.4,53.7l-0.7-1.5c-0.2-0.5-0.8-0.7-1.2-0.5l-1.6,0.7l2.2-5.2c0.9,0.9,2,1.5,3.3,1.8
			L25.4,53.7z M33.9,51.6c-0.5-0.2-1,0-1.2,0.5L32,53.7l-2-4.8c1.2-0.3,2.4-0.9,3.3-1.8l2.2,5.2L33.9,51.6z M52.6,47.2
			c-6-0.9-11.9-1.5-18-1.7l-0.1-0.2c1.2-2.5,0.7-5.4-1.3-7.3c0-1.9-0.2-3.8-0.7-5.7c6.7-0.2,13.3-0.7,19.9-1.7
			c0.4,0.7,1.1,3.6,1.1,8.3S53,46.4,52.6,47.2L52.6,47.2z"/>
	</g>
</g>
</svg>
