<?xml version="1.0" encoding="utf-8"?>
<!-- Generator: Adobe Illustrator 26.0.0, SVG Export Plug-In . SVG Version: 6.00 Build 0)  -->
<svg version="1.1" id="Capa_1" xmlns="http://www.w3.org/2000/svg" xmlns:xlink="http://www.w3.org/1999/xlink" x="0px" y="0px"
	 viewBox="0 0 55.5 55.5" style="enable-background:new 0 0 55.5 55.5;" xml:space="preserve">
<style type="text/css">
	.st0{fill:#FEFDFF;}
</style>
<g>
	<path class="st0" d="M40,10c0.1,0,0.1,0,0.7,0c0.3,0,0.7,0,1.3,0c0.5,0,0.8-0.4,0.8-0.8s-0.4-0.8-0.8-0.8h0c-0.3,0-0.7,0-1,0V4.1
		c0-0.5-0.4-0.8-0.8-0.8s-0.8,0.4-0.8,0.8v5.2C39.3,9.6,39.6,10,40,10L40,10z M26.4,6.7c0-1.9-1.5-3.4-3.4-3.4
		c-1.9,0-3.4,1.5-3.4,3.4c0,1.9,1.5,3.4,3.4,3.4C24.9,10.1,26.4,8.5,26.4,6.7L26.4,6.7z M21.3,6.7c0-1,0.8-1.8,1.8-1.8
		s1.8,0.8,1.8,1.8S24,8.4,23,8.4C22,8.4,21.3,7.6,21.3,6.7L21.3,6.7z M34.7,10.1h2.2c0.5,0,0.8-0.4,0.8-0.8c0-0.4-0.4-0.8-0.8-0.8
		h-1.3V7.5h1.2c0.5,0,0.8-0.4,0.8-0.8s-0.4-0.8-0.8-0.8h-1.2v-1h1.3c0.5,0,0.8-0.4,0.8-0.8s-0.4-0.8-0.8-0.8h-2.2
		c-0.5,0-0.8,0.4-0.8,0.8v5.1C33.9,9.7,34.2,10.1,34.7,10.1L34.7,10.1z M17.2,3.3c-0.5,0-0.8,0.4-0.8,0.8v1.7h-1.9V4.1
		c0-0.5-0.4-0.8-0.8-0.8c-0.4,0-0.8,0.4-0.8,0.8v5.2c0,0.4,0.4,0.8,0.8,0.8c0.4,0,0.8-0.4,0.8-0.8V7.4h1.9v1.9
		c0,0.4,0.4,0.8,0.8,0.8c0.5,0,0.8-0.4,0.8-0.8V4.1C18,3.6,17.6,3.3,17.2,3.3L17.2,3.3z M28.6,4.9h0.6v4.4c0,0.4,0.4,0.8,0.8,0.8
		c0.5,0,0.8-0.4,0.8-0.8V4.9h0.6c0.5,0,0.8-0.4,0.8-0.8s-0.4-0.8-0.8-0.8h-2.9c-0.5,0-0.8,0.4-0.8,0.8S28.1,4.9,28.6,4.9L28.6,4.9z
		 M39.1,47.5h9.2c0.9,0,1.6-0.7,1.6-1.6V35.2c0-0.9-0.7-1.6-1.6-1.6h-9.2c-0.9,0-1.6,0.7-1.6,1.6v10.7
		C37.5,46.7,38.2,47.5,39.1,47.5L39.1,47.5z M44.5,35.3h3.7v4.5h-3.7V35.3z M44.5,41.4h3.7v4.5h-3.7V41.4z M39.2,35.3h3.7v4.5h-3.7
		V35.3z M39.2,41.4h3.7v4.5h-3.7V41.4z M53.7,49.1h-0.5V19c0-2.3-1.8-4.1-4.1-4.1h-6.6v-1.6h0.1c2.3,0,4.1-1.8,4.1-4.1V4.1
		c0-2.2-1.8-4.1-4.1-4.1H13C10.8,0,9,1.8,9,4.1v5.2c0,2.3,1.8,4.1,4.1,4.1h0.1v1.6H6.5c-2.3,0-4.1,1.8-4.1,4.1v30.1H1.9
		c-1,0-1.9,0.8-1.9,1.9v2.7c0,1,0.9,1.9,1.9,1.9h51.8c1,0,1.9-0.8,1.9-1.9V51C55.6,49.9,54.7,49.1,53.7,49.1L53.7,49.1z M13,11.7
		c-1.4,0-2.4-1.1-2.4-2.4V4.1c0-1.3,1.1-2.4,2.4-2.4h29.5c1.3,0,2.4,1.1,2.4,2.4v5.2c0,1.4-1.1,2.4-2.4,2.4H25.4
		c-0.5,0-0.8,0.4-0.8,0.8c0,0.4,0.4,0.8,0.8,0.8h12.2v1.6H18v-1.6h3.6c0.5,0,0.8-0.4,0.8-0.8c0-0.4-0.4-0.8-0.8-0.8H13z M40.8,13.3
		v1.6h-1.6v-1.6H40.8z M16.4,13.3v1.6h-1.6v-1.6H16.4z M4,19c0-1.4,1.1-2.4,2.4-2.4H49c1.3,0,2.4,1.1,2.4,2.4v30.1H34.9v-4.4
		c0-0.5-0.4-0.8-0.8-0.8s-0.8,0.4-0.8,0.8v4.4h-4.7V35.3H33c0.2,0,0.3,0.1,0.3,0.3v5.3c0,0.5,0.4,0.8,0.8,0.8s0.8-0.4,0.8-0.8v-5.3
		c0-1-0.8-1.9-1.9-1.9H22.5c-1,0-1.9,0.8-1.9,1.9v13.5H4V19z M27,35.3v13.8h-4.7V35.5c0-0.2,0.1-0.3,0.3-0.3H27z M53.9,53.7
		c0,0.2-0.1,0.3-0.3,0.3H1.9c-0.1,0-0.3-0.1-0.3-0.3V51c0-0.2,0.1-0.3,0.3-0.3h51.8c0.2,0,0.3,0.1,0.3,0.3V53.7z M34.3,32
		c0.9,0,1.6-0.7,1.6-1.6V19.8c0-0.9-0.7-1.6-1.6-1.6H21.2c-0.9,0-1.6,0.7-1.6,1.6v10.7c0,0.9,0.7,1.6,1.6,1.6L34.3,32L34.3,32z
		 M28.6,19.8h5.7v4.5h-5.7C28.6,24.3,28.6,19.8,28.6,19.8z M28.6,25.9h5.7v4.5h-5.7C28.6,30.4,28.6,25.9,28.6,25.9z M21.3,19.8H27
		v4.5h-5.7C21.3,24.3,21.3,19.8,21.3,19.8z M21.3,25.9H27v4.5h-5.7C21.3,30.4,21.3,25.9,21.3,25.9z M16.4,33.6H7.2
		c-0.9,0-1.6,0.7-1.6,1.6v10.7c0,0.9,0.7,1.6,1.6,1.6h9.2c0.9,0,1.6-0.7,1.6-1.6V35.2C18,34.3,17.3,33.6,16.4,33.6L16.4,33.6z
		 M11,45.8H7.3v-4.5H11V45.8z M11,39.7H7.3v-4.5H11V39.7z M16.4,45.8h-3.7v-4.5h3.7V45.8z M16.4,39.7h-3.7v-4.5h3.7V39.7z M39.1,32
		h9.2c0.9,0,1.6-0.7,1.6-1.6V19.8c0-0.9-0.7-1.6-1.6-1.6h-9.2c-0.9,0-1.6,0.7-1.6,1.6v10.7C37.5,31.3,38.2,32,39.1,32L39.1,32z
		 M44.5,19.8h3.7v4.5h-3.7V19.8z M44.5,25.9h3.7v4.5h-3.7V25.9z M39.2,19.8h3.7v4.5h-3.7V19.8z M39.2,25.9h3.7v4.5h-3.7V25.9z
		 M16.4,18.2H7.2c-0.9,0-1.6,0.7-1.6,1.6v10.7c0,0.9,0.7,1.6,1.6,1.6h9.2c0.9,0,1.6-0.7,1.6-1.6V19.8C18,18.9,17.3,18.2,16.4,18.2
		L16.4,18.2z M11,30.4H7.3v-4.5H11V30.4z M11,24.3H7.3v-4.5H11V24.3z M16.4,30.4h-3.7v-4.5h3.7V30.4z M16.4,24.3h-3.7v-4.5h3.7V24.3
		z"/>
</g>
</svg>
