<?xml version="1.0" encoding="utf-8"?>
<!-- Generator: Adobe Illustrator 26.0.0, SVG Export Plug-In . SVG Version: 6.00 Build 0)  -->
<svg version="1.1" id="Capa_1" xmlns="http://www.w3.org/2000/svg" xmlns:xlink="http://www.w3.org/1999/xlink" x="0px" y="0px"
	 viewBox="0 0 55.5 55.5" style="enable-background:new 0 0 55.5 55.5;" xml:space="preserve">
<style type="text/css">
	.st0{fill:#FFFFFF;}
</style>
<g>
	<g>
		<g>
			<path class="st0" d="M17.7,45.5h-4.6c-0.4,0-0.8,0.4-0.8,0.8s0.4,0.8,0.8,0.8h4.6c0.4,0,0.8-0.4,0.8-0.8
				C18.5,45.9,18.2,45.5,17.7,45.5z"/>
		</g>
	</g>
	<g>
		<g>
			<path class="st0" d="M30.5,44.8h-6.1c-0.4,0-0.8,0.4-0.8,0.8s0.4,0.8,0.8,0.8h6.1c0.4,0,0.8-0.4,0.8-0.8
				C31.3,45.2,30.9,44.8,30.5,44.8z"/>
		</g>
	</g>
	<g>
		<g>
			<path class="st0" d="M30.5,47.3h-6.1c-0.4,0-0.8,0.4-0.8,0.8s0.4,0.8,0.8,0.8h6.1c0.4,0,0.8-0.4,0.8-0.8
				C31.3,47.7,30.9,47.3,30.5,47.3z"/>
		</g>
	</g>
	<g>
		<g>
			<path class="st0" d="M44.1,46.6h-8.4c-0.4,0-0.8,0.4-0.8,0.8s0.4,0.8,0.8,0.8h8.4c0.4,0,0.8-0.4,0.8-0.8S44.5,46.6,44.1,46.6z"/>
		</g>
	</g>
	<g>
		<g>
			<path class="st0" d="M15.4,31.9c-1.9,0-3.5,1.6-3.5,3.5s1.6,3.5,3.5,3.5s3.5-1.6,3.5-3.5S17.4,31.9,15.4,31.9z M15.4,37.4
				c-1.1,0-1.9-0.9-1.9-1.9s0.9-1.9,1.9-1.9s1.9,0.9,1.9,1.9S16.5,37.4,15.4,37.4z"/>
		</g>
	</g>
	<g>
		<g>
			<path class="st0" d="M31.3,21c-2.5-1-5.2-1-7.6,0c-0.8,0.3-1.3,1.1-1.3,2l0.1,1.5c0,0.4,0.3,0.8,0.6,1c0.4,0.2,0.8,0.2,1.1-0.1
				c2.1-1.4,4.4-1.4,6.5,0c0.2,0.1,0.4,0.2,0.6,0.2c0.2,0,0.4,0,0.5-0.1c0.4-0.2,0.6-0.6,0.6-1l0.1-1.5C32.6,22.2,32.1,21.4,31.3,21
				z M30.9,23.8c-1.1-0.6-2.3-0.9-3.5-0.9s-2.4,0.3-3.5,0.9l0-0.8c0-0.2,0.1-0.4,0.3-0.5c2.1-0.9,4.3-0.9,6.4,0
				c0.2,0.1,0.3,0.3,0.3,0.5L30.9,23.8z"/>
		</g>
	</g>
	<g>
		<g>
			<path class="st0" d="M31.6,28.7c-0.3-0.3-0.6-0.4-0.9-0.4h-6.4c-0.4,0-0.7,0.1-0.9,0.4s-0.4,0.6-0.4,1l0.1,4.9
				c0,0.7,0.6,1.3,1.3,1.3h6.2c0.7,0,1.3-0.6,1.3-1.3l0.1-4.9C32,29.3,31.8,28.9,31.6,28.7z M30.3,34.2h-5.6l-0.1-4.3h5.8L30.3,34.2
				z"/>
		</g>
	</g>
	<g>
		<g>
			<path class="st0" d="M39.9,37.5c-2.7,0-4.8,1.6-4.8,3.6s2.1,3.6,4.8,3.6c2.7,0,4.8-1.6,4.8-3.6C44.7,39.1,42.6,37.5,39.9,37.5z
				 M39.9,43c-1.8,0-3.3-0.9-3.3-2c0-1.1,1.5-2,3.3-2s3.3,0.9,3.3,2C43.1,42.1,41.6,43,39.9,43z"/>
		</g>
	</g>
	<g>
		<g>
			<path class="st0" d="M47.5,25.2l-3.5-2.8c0.2-0.5,0.3-1.4,0.3-2.8c0-2-0.4-3.8-0.8-4.9c0.2-0.2,0.4-0.5,0.4-0.9V9.1
				c0-0.7-0.6-1.2-1.2-1.2h-5.5c-0.7,0-1.2,0.6-1.2,1.2v4.8c0,0.3,0.1,0.6,0.4,0.9c-0.4,1.1-0.8,2.9-0.8,4.9c0,1.4,0.2,2.2,0.3,2.8
				l-0.7,0.5l0.1-3.8c0-0.7-0.2-1.4-0.7-1.8l-3.1-3.2c-0.3-0.3-0.5-0.8-0.5-1.2v-1.4c0.2-0.2,0.3-0.5,0.3-0.8V1.3
				C31.2,0.6,30.7,0,30,0h-5.1c-0.7,0-1.3,0.6-1.3,1.3v9.6c0,0.3,0.1,0.6,0.3,0.8v1.3c0,0.4-0.2,0.9-0.5,1.2l-3.1,3.2
				c-0.5,0.5-0.7,1.2-0.7,1.8l0.1,6.3c-0.8-0.4-1.4-1.2-1.5-2.1c0.3-0.2,0.6-0.6,0.6-1v-4.1c0-0.7-0.5-1.2-1.2-1.2h-4.4
				c-0.7,0-1.2,0.5-1.2,1.2v4.1c0,0.4,0.2,0.8,0.6,1c-0.1,1.2-1,2.2-2.2,2.3l0,0c-2.1,0.3-3.6,2-3.6,4.1v2.5c0,0.4,0.4,0.8,0.8,0.8
				c0.4,0,0.8-0.4,0.8-0.8v-2.5c0-1.3,1-2.4,2.2-2.5c0.1,0,0.3,0,0.6,0l0,0c0.1,0,0.1,0,0.2,0c0,0,0.1,0,0.1,0c0,0,0,0,0.1,0
				s0.1,0,0.1,0c0,0,0.1,0,0.1,0c1.9,0,5.7,0,7.6,0c0,0,0.1,0,0.1,0c0,0,0,0,0,0c0,0,0,0,0.1,0s0,0,0.1,0c0.1,0,0.2,0,0.3,0l0,2.5
				h-9c-1,0-1.9,0.8-1.9,1.9v16.5c0,0.9,0.7,1.6,1.6,1.6h9.6c0,0,0,0.1-0.1,0.1c-0.4,0.3-0.6,0.8-0.6,1.3l0.1,2.6c0,0.1,0,0.2,0,0.3
				H9c-0.4,0-0.7-0.3-0.7-0.7V36c0-0.4-0.4-0.8-0.8-0.8c-0.4,0-0.8,0.4-0.8,0.8v17.3c0,1.3,1,2.3,2.3,2.3h37.4l0,0
				c1.3,0,2.4-1.1,2.4-2.4V28C48.8,26.9,48.3,25.9,47.5,25.2z M13.6,18.6h3.6v3.3h-3.6V18.6z M14.4,25.6
				C14.4,25.6,14.4,25.6,14.4,25.6c-0.4,0-0.7,0-1,0c0,0,0,0,0,0c0.4-0.6,0.7-1.3,0.8-2.1h2.5c0.1,0.8,0.4,1.5,0.8,2.1
				C16.5,25.6,15.4,25.6,14.4,25.6z M10.6,31.5c0-0.1,0.1-0.3,0.3-0.3h9l0.1,8.3h-9.4C10.6,39.6,10.6,31.5,10.6,31.5z M10.6,41.2H20
				l0,1.3h-9.5C10.6,42.5,10.6,41.2,10.6,41.2z M10.6,48L10.6,48v-3.9h9.5l0.1,3.9H10.6L10.6,48z M25.3,1.6h4.3v1.2h-4.3V1.6z
				 M25.3,4.4h4.3v6h-4.3V4.4z M33.7,53.6c0,0.2-0.2,0.3-0.4,0.3l0,0H21.5c-0.2,0-0.4-0.2-0.4-0.3L21.1,51c0.4-0.3,0.7-0.9,0.7-1.5
				l-0.5-30.4v0c0-0.3,0.1-0.5,0.3-0.7l3.1-3.2c0.6-0.6,0.9-1.4,0.9-2.3v-0.9h3.8v0.9c0,0.9,0.3,1.7,0.9,2.3l3.1,3.2
				c0.2,0.2,0.3,0.4,0.3,0.7v0l-0.5,30.4c0,0.6,0.3,1.1,0.7,1.5L33.7,53.6z M37.5,9.5h4.7v1.2h-4.7V9.5z M37.5,12.2h4.7v1.3h-4.7
				V12.2z M37.8,15.1h4.1c0.3,0.8,0.6,2,0.7,3.5h-5.5C37.3,17.1,37.6,15.9,37.8,15.1z M46.4,53.9H35.3c0-0.1,0-0.2,0-0.3l0-1.5h11.8
				v1l0,0C47.2,53.5,46.8,53.9,46.4,53.9z M47.2,28.8L47.2,28.8h-7c-0.4,0-0.8,0.4-0.8,0.8c0,0.4,0.4,0.8,0.8,0.8h7v20.1H35.3
				c-0.1-0.3-0.3-0.6-0.6-0.8c0,0-0.1-0.1-0.1-0.2l0.2-13.4c0.3,0.3,0.6,0.4,1,0.4c0.2,0,0.4,0,0.6-0.1c2.3-1,4.4-1,6.7,0l0,0
				c0.7,0.3,1.5,0,1.8-0.6l0.6-1c0.2-0.3,0.3-0.8,0.1-1.2s-0.4-0.7-0.8-0.9c-3.3-1.5-6.7-1.6-10-0.1l0-2.2h1.4
				c0.4,0,0.8-0.4,0.8-0.8c0-0.4-0.4-0.8-0.8-0.8h-1.3l0.1-3.8l2.2-1.8c0.2-0.1,0.3-0.4,0.3-0.6c0-0.2,0-0.4-0.2-0.5
				c0-0.1-0.3-0.5-0.3-1.9h5.5c0,1.4-0.3,1.9-0.3,1.9c-0.1,0.1-0.2,0.4-0.2,0.5c0,0.2,0.1,0.4,0.3,0.6l4,3.2
				c0.5,0.4,0.7,0.9,0.7,1.5L47.2,28.8L47.2,28.8z M43.7,34.9c-2.6-1.1-5.1-1.1-7.7,0l-0.5-0.8c2.9-1.3,5.8-1.3,8.6,0L43.7,34.9z"/>
		</g>
	</g>
</g>
</svg>
