<?xml version="1.0" encoding="utf-8"?>
<!-- Generator: Adobe Illustrator 26.0.0, SVG Export Plug-In . SVG Version: 6.00 Build 0)  -->
<svg version="1.1" id="Capa_1" xmlns="http://www.w3.org/2000/svg" xmlns:xlink="http://www.w3.org/1999/xlink" x="0px" y="0px"
	 viewBox="0 0 55.5 55.5" style="enable-background:new 0 0 55.5 55.5;" xml:space="preserve">
<style type="text/css">
	.st0{fill:#FFFFFF;}
</style>
<path class="st0" d="M52.8,32.4H50v-9.3c0-2.6-2.1-4.6-4.6-4.6H30.5c-2.6,0-4.6,2.1-4.6,4.6v9.3h-2.8c-1.5,0-2.8,1.2-2.8,2.8v9.3
	c0,2.4,1.9,4.5,4.3,4.6l-1.3,4.7h-8.7c-0.4-2.2-2.3-3.7-4.5-3.7H8.3V7.3c0-2.9,2.2-5.3,5.1-5.5s5.4,1.9,5.9,4.7l0,0.1
	c-1.2,0.5-1.9,1.8-1.7,3l0.3,1.5l-2.5,4.3c-0.3,0.6-0.3,1.3,0,1.9s0.9,0.9,1.6,0.9c0.1,0,0.2,0,0.3,0l8.9-1.5
	c0.7-0.1,1.3-0.6,1.5-1.3c0.2-0.7,0-1.4-0.6-1.9l-3.7-3.2l-0.3-1.5c-0.2-1-0.9-1.9-2-2.2l-0.1-0.3c-0.5-3.8-4-6.6-7.8-6.3
	C9.4,0.3,6.4,3.5,6.4,7.3V50H4.6v-0.9c0-0.5-0.4-0.9-0.9-0.9c-0.5,0-0.9,0.4-0.9,0.9v1.3C1,51.1,0,52.8,0,54.6
	c0,0.5,0.4,0.9,0.9,0.9h53.7c0.5,0,0.9-0.4,0.9-0.9c0-0.5-0.4-0.9-0.9-0.9h-2.1L51.2,49c2.4-0.2,4.3-2.2,4.3-4.6v-9.3
	C55.5,33.6,54.3,32.4,52.8,32.4L52.8,32.4z M25.9,14.9L17,16.4l2.4-4.2l2.8-0.5L25.9,14.9L25.9,14.9z M21.5,10l-1.8,0.3l-0.1-0.9
	c-0.1-0.5,0.3-1,0.8-1.1c0,0,0.1,0,0.2,0c0.5,0,0.8,0.3,0.9,0.8L21.5,10z M30.5,20.4h14.8c1.5,0,2.8,1.3,2.8,2.8v9.4
	C47,33,46.3,34,46.3,35.2v1.9c-0.8-0.6-1.8-1-2.8-1h-3.3l2.1-2.1c0.3-0.4,0.3-0.9,0-1.3c-0.4-0.4-0.9-0.4-1.3,0l-2.1,2.1v-4.3
	c0-0.5-0.4-0.9-0.9-0.9c-0.5,0-0.9,0.4-0.9,0.9v4.3l-2.1-2.1c-0.4-0.3-0.9-0.3-1.3,0c-0.4,0.4-0.4,0.9,0,1.3l2.1,2.1h-3.3
	c-1,0-2,0.3-2.8,1v-1.9c0-1.2-0.8-2.2-1.9-2.6v-9.4C27.8,21.6,29,20.4,30.5,20.4L30.5,20.4z M43.5,38c1.5,0,2.8,1.3,2.8,2.8v0.9
	H29.6v-0.9c0-1.5,1.3-2.8,2.8-2.8H43.5z M44.8,49.1l2.7,4.6H28.4l2.6-4.6H44.8z M46.3,47.2H29.6v-3.7h16.7V47.2z M22.2,44.4v-9.3
	c0-0.5,0.4-0.9,0.9-0.9h3.7c0.5,0,0.9,0.4,0.9,0.9v12H25C23.5,47.2,22.2,46,22.2,44.4L22.2,44.4z M2,53.7c0.4-1.1,1.4-1.8,2.6-1.8
	h5.6c1.2,0,2.2,0.7,2.6,1.8H2z M25.3,53.7l1.3-4.6h2.3l-2.6,4.6H25.3z M49.6,53.7L47,49.1h2.3l1.3,4.6H49.6z M53.7,44.4
	c0,1.5-1.3,2.8-2.8,2.8h-2.8v-12c0-0.5,0.4-0.9,0.9-0.9h3.7c0.5,0,0.9,0.4,0.9,0.9L53.7,44.4L53.7,44.4z"/>
</svg>
