<?xml version="1.0" encoding="utf-8"?>
<!-- Generator: Adobe Illustrator 26.0.0, SVG Export Plug-In . SVG Version: 6.00 Build 0)  -->
<svg version="1.1" id="Capa_1" xmlns="http://www.w3.org/2000/svg" xmlns:xlink="http://www.w3.org/1999/xlink" x="0px" y="0px"
	 viewBox="0 0 55.5 55.5" style="enable-background:new 0 0 55.5 55.5;" xml:space="preserve">
<style type="text/css">
	.st0{fill:#FFFFFF;}
</style>
<path class="st0" d="M9.7,11.6H8.8c-2.1,0-3.8,1.7-3.8,3.8v29c0,0.3-0.3,0.5-0.6,0.5H0v2.2h1.3c0.3,0,0.5,0.2,0.5,0.5
	c0.8,4.6,4.7,7.9,9.3,7.9h33.3c4.6,0,8.5-3.3,9.3-7.9c0-0.3,0.3-0.5,0.5-0.5h1.3v-2.2h-4.5c-0.3,0-0.5-0.3-0.5-0.5V11.6h-4.7
	c-0.2,0-0.3-0.1-0.5-0.2c-0.1-0.1-0.1-0.3-0.1-0.5c0.8-2.2-0.3-4.7-2.5-5.6c-0.3-0.1-0.4-0.4-0.3-0.7c0.5-1.3,1.7-2.2,3-2.3V0
	c-2.6,0.2-4.8,2.2-5.4,4.8c0,0.2-0.2,0.3-0.4,0.4c-1.2,0.4-2.1,1.2-2.6,2.3s-0.6,2.3-0.2,3.5c0.1,0.2,0,0.4-0.1,0.5
	s-0.3,0.2-0.5,0.2h-3.9c-0.2,0-0.3-0.1-0.5-0.2c-0.1-0.1-0.1-0.3-0.1-0.5c0.8-2.2-0.3-4.7-2.5-5.6c-0.3-0.1-0.4-0.4-0.3-0.7
	c0.5-1.3,1.7-2.2,3-2.3V0c-2.6,0.2-4.9,2.2-5.4,4.8c0,0.2-0.2,0.3-0.4,0.4c-1.2,0.4-2.1,1.2-2.6,2.3c-0.5,1.1-0.6,2.3-0.2,3.5
	c0.1,0.2,0,0.4-0.1,0.5s-0.3,0.2-0.5,0.2h-3.9c-0.2,0-0.4-0.1-0.5-0.2c-0.1-0.1-0.1-0.3-0.1-0.5c0.8-2.2-0.3-4.7-2.5-5.6
	c-0.3-0.1-0.4-0.4-0.3-0.7c0.5-1.3,1.7-2.2,3-2.3V0c-2.6,0.2-4.9,2.2-5.4,4.8c0,0.2-0.2,0.3-0.4,0.4c-1.2,0.4-2.1,1.2-2.6,2.3
	c-0.5,1.1-0.6,2.3-0.2,3.5c0.1,0.2,0,0.4-0.1,0.5C10.1,11.6,9.9,11.6,9.7,11.6z M50.9,47.2c0.2,0,0.3,0.1,0.4,0.2
	c0.1,0.1,0.1,0.3,0.1,0.5c-0.8,3.2-3.7,5.4-7,5.4H11.1c-3.3,0-6.2-2.2-7-5.4c0-0.2,0-0.3,0.1-0.5c0.1-0.1,0.3-0.2,0.4-0.2H50.9z
	 M24.4,32.2c2,0,3.8-1.4,4.3-3.3c0-0.1,0.1-0.3,0.3-0.4c0.1-0.1,0.3-0.1,0.5,0c0.5,0.2,1.1,0.3,1.6,0.3c2.4,0,4.4-2,4.4-4.4v-0.8
	c0-1.7,1.4-3,3-3h9.2c0.3,0,0.5,0.3,0.5,0.5v15.5c0,0.2-0.1,0.4-0.3,0.5c-0.2,0.1-0.4,0.1-0.5,0c-0.2-0.1-0.4-0.2-0.6-0.3
	c-0.8-0.5-1.8-1-3.6-1c-1.8,0-2.8,0.5-3.6,1c-0.7,0.4-1.3,0.7-2.5,0.7s-1.8-0.3-2.5-0.7c-0.8-0.5-1.8-1-3.6-1c-1.8,0-2.8,0.5-3.6,1
	c-0.7,0.4-1.3,0.7-2.5,0.7s-1.8-0.3-2.5-0.7c-0.8-0.5-1.8-1-3.6-1s-2.8,0.5-3.6,1c-0.2,0.1-0.4,0.2-0.6,0.3c-0.2,0.1-0.4,0.1-0.5,0
	c-0.2-0.1-0.3-0.3-0.3-0.5v-13c0-1.7,1.4-3,3-3s3,1.4,3,3v4.2C20,30.2,22,32.2,24.4,32.2z M14.3,39.5c0.9-0.2,1.5-0.5,2-0.8
	c0.7-0.4,1.3-0.7,2.5-0.7s1.8,0.3,2.5,0.7c0.8,0.5,1.8,1,3.6,1s2.8-0.5,3.6-1c0.7-0.4,1.3-0.7,2.5-0.7c1.2,0,1.8,0.3,2.5,0.7
	c0.8,0.5,1.8,1,3.6,1s2.8-0.5,3.6-1c0.7-0.4,1.3-0.7,2.5-0.7s1.8,0.3,2.5,0.7c0.5,0.3,1.2,0.6,2,0.8c0.3,0,0.4,0.3,0.4,0.5v4.3
	c0,0.3-0.3,0.5-0.5,0.5H14.4c-0.3,0-0.6-0.3-0.6-0.5v-4.3C13.9,39.8,14.1,39.6,14.3,39.5z M41.1,7.2c1.2,0,2.2,1,2.2,2.2
	s-1,2.2-2.2,2.2c-1.2,0-2.2-1-2.2-2.2C38.9,8.2,39.9,7.2,41.1,7.2z M27.8,7.2c1.2,0,2.2,1,2.2,2.2s-1,2.2-2.2,2.2s-2.2-1-2.2-2.2
	C25.5,8.2,26.5,7.2,27.8,7.2z M14.4,7.2c1.2,0,2.2,1,2.2,2.2s-1,2.2-2.2,2.2s-2.2-1-2.2-2.2C12.2,8.2,13.2,7.2,14.4,7.2z M47.7,13.9
	c0.3,0,0.5,0.3,0.5,0.6v3.3c0,0.3-0.3,0.5-0.5,0.5h-9.2c-2.9,0-5.3,2.4-5.3,5.3v0.8c0,1.2-1,2.2-2.2,2.2c-1.2,0-2.2-1-2.2-2.2v-2.8
	h-2.2v6.1c0,1.2-1,2.2-2.2,2.2s-2.2-1-2.2-2.2v-4.2c0-2.9-2.4-5.3-5.3-5.3s-5.3,2.4-5.3,5.3v20.8c0,0.3-0.3,0.5-0.6,0.5H7.8
	c-0.3,0-0.6-0.3-0.6-0.5v-29c0-0.9,0.7-1.6,1.5-1.6L47.7,13.9L47.7,13.9z"/>
</svg>
