<?xml version="1.0" encoding="utf-8"?>
<!-- Generator: Adobe Illustrator 26.0.0, SVG Export Plug-In . SVG Version: 6.00 Build 0)  -->
<svg version="1.1" id="Capa_1" xmlns="http://www.w3.org/2000/svg" xmlns:xlink="http://www.w3.org/1999/xlink" x="0px" y="0px"
	 viewBox="0 0 55.5 55.5" style="enable-background:new 0 0 55.5 55.5;" xml:space="preserve">
<style type="text/css">
	.st0{fill:#FFFFFF;}
</style>
<g>
	<g>
		<g>
			<path class="st0" d="M54.8,0.7C54.8,0.7,54.8,0.7,54.8,0.7C54.3,0.3,53.7,0,53,0l0,0c-0.6,0-1.1,0.2-1.5,0.5
				C45.6,5.3,39.7,10.1,33.9,15c-1.4,1.2-2.8,2.4-4.2,3.6l-16-16.1c-1.6-1.6-4.2-1.6-5.8,0l-7.6,7.6c-0.3,0.3-0.3,0.8,0,1.1
				s0.8,0.3,1.1,0L6.7,6l1.2,1.2l-5.3,5.3c-0.3,0.3-0.3,0.8,0,1.1c0.2,0.2,0.4,0.2,0.6,0.2s0.4-0.1,0.6-0.2L9,8.3l1.2,1.2l-5.3,5.3
				c-0.3,0.3-0.3,0.8,0,1.1c0.2,0.2,0.4,0.2,0.6,0.2s0.4-0.1,0.6-0.2l5.3-5.3l1.2,1.2l-5.3,5.3c-0.3,0.3-0.3,0.8,0,1.1
				c0.2,0.2,0.4,0.2,0.6,0.2s0.4-0.1,0.6-0.2l5.3-5.3l1.2,1.2l-5.3,5.3c-0.3,0.3-0.3,0.8,0,1.1c0.2,0.2,0.4,0.2,0.6,0.2
				s0.4-0.1,0.6-0.2l5.3-5.3l1.2,1.2l-5.3,5.3c-0.3,0.3-0.3,0.8,0,1.1c0.2,0.2,0.4,0.2,0.6,0.2s0.4-0.1,0.6-0.2l5.3-5.3l1.2,1.2
				L14.1,24c-0.3,0.3-0.3,0.8,0,1.1c0.2,0.2,0.4,0.2,0.6,0.2s0.4-0.1,0.6-0.2l5.3-5.3l1.2,1.2l-5.3,5.3c-0.3,0.3-0.3,0.8,0,1.1
				c0.2,0.2,0.4,0.2,0.6,0.2s0.4-0.1,0.6-0.2l5.3-5.3l1.2,1.2c-2.5,2.2-5,4.4-7.4,6.6l0,0c-0.7,0.6-1.5,1.4-2.3,2.1
				c-0.5,0.3-0.4,1-0.1,1.2l0,0c0.8,1,1.2,2.2,1.2,3.4c0,1.5-0.6,2.8-1.6,3.8c0,0-2.4,2.4-2.4,2.5c-3.5,3.6-9.8,1.2-9.8-4
				c0-3.1,2.5-5.7,5.7-5.7c1.7,0,3.3,0.8,4.4,2.1c0.3,0.4,0.8,0.4,1.2,0.1l0,0l0,0c0.4-0.3,0.4-1-0.1-1.3c-1.4-1.6-3.4-2.5-5.6-2.5
				H7.3C3.3,31.7,0,35,0,39c0,3,1.8,5.7,4.6,6.8c1.6,0.7,3.4,0.7,5,0.2c-1.5,4.8,2,9.6,7,9.6h0c4,0,7.3-3.3,7.3-7.3
				c0-1.9-0.7-3.7-2.1-5.1l1.7-1.9c2.9-3.3,5.8-6.5,8.7-9.8l1.2,1.2L28,37.9c-0.3,0.3-0.3,0.8,0,1.2c0.2,0.2,0.4,0.2,0.6,0.2
				s0.4-0.1,0.6-0.2l5.3-5.3l1.2,1.2l-5.3,5.3c-0.3,0.3-0.3,0.8,0,1.2c0.2,0.2,0.4,0.2,0.6,0.2s0.4-0.1,0.6-0.2l5.3-5.3l1.2,1.2
				l-5.3,5.3c-0.3,0.3-0.3,0.8,0,1.2c0.2,0.2,0.4,0.2,0.6,0.2c0.2,0,0.4-0.1,0.6-0.2l5.3-5.3l1.2,1.2L35,44.9
				c-0.3,0.3-0.3,0.8,0,1.2c0.2,0.2,0.4,0.2,0.6,0.2c0.2,0,0.4-0.1,0.6-0.2l5.3-5.3l1.2,1.2l-5.3,5.3c-0.3,0.3-0.3,0.8,0,1.2
				c0.2,0.2,0.4,0.2,0.6,0.2c0.2,0,0.4-0.1,0.6-0.2l5.3-5.3l1.2,1.2l-5.3,5.3c-0.3,0.3-0.3,0.8,0,1.2c0.2,0.2,0.4,0.2,0.6,0.2
				c0.2,0,0.4-0.1,0.6-0.2l5.3-5.3l1.2,1.2l-5.3,5.3c-0.3,0.3-0.3,0.8,0,1.2c0.2,0.2,0.4,0.2,0.6,0.2c0.2,0,0.4-0.1,0.6-0.2l5.3-5.3
				l1.2,1.2l-5.3,5.3c-0.3,0.3-0.3,0.8,0,1.2c0.2,0.2,0.4,0.2,0.6,0.2c0.2,0,0.4-0.1,0.6-0.2l5.9-5.9l0,0l0,0l1.7-1.7
				c0.8-0.8,1.2-1.8,1.2-2.9s-0.4-2.1-1.2-2.9l-16.1-16C43.2,18.6,49.2,11.3,55,4C55.8,3,55.7,1.6,54.8,0.7z M7.9,4.8L9,3.7
				c0.9-1,2.5-1,3.4,0l16,16c-1,0.9-2.1,1.8-3.1,2.7L7.9,4.8z M51.8,43.1c0.5,0.5,0.7,1.1,0.7,1.7c0,0.7-0.3,1.3-0.7,1.7l-1.2,1.2
				c-0.5-0.5-16.3-16.4-17.5-17.5c0.9-1,1.8-2.1,2.7-3.1L51.8,43.1z M22.7,39.6c-0.4-0.3-1.5-0.8-1.6-2.3c0-0.4-0.4-0.7-0.8-0.7
				c-0.5,0-0.9,0.4-0.8,0.9l0,0c0.2,1.3,0.9,2.5,2,3.2c0.1,0,0.1,0.1,0.2,0.1c-0.6,0.6-1,1.2-1.6,1.8c-0.1,0.2-0.2,0.4-0.2,0.6
				c0,0.2,0.1,0.4,0.3,0.6c1.4,1.1,2.1,2.7,2.1,4.4c0,3.1-2.5,5.7-5.7,5.7c-3.1,0-5.7-2.5-5.7-5.7c0-2.6,1.6-4,1.8-4.1l2.4-2.4
				c1.3-1.3,2.1-3.1,2.1-5c0-1.4-0.4-2.7-1.1-3.8c0.6-0.6,1.2-1.1,1.8-1.7l0,0C35.4,15.4,52.3,1.9,52.6,1.7
				c-0.2,0.2-32,31.9-32.1,32.1c-0.3,0.3-0.3,0.8,0.1,1.2c0.3,0.3,0.9,0.3,1.1-0.1c0.1-0.1,31.8-31.8,32-32
				C53.7,3,40.6,19.6,22.7,39.6z"/>
		</g>
	</g>
	<g>
		<g>
			<path class="st0" d="M10.2,36.1c-2.6-2.6-6.9-0.7-6.9,2.9c0,1.1,0.4,2.1,1.2,2.9c0.8,0.8,1.8,1.2,2.9,1.2c1,0,2.1-0.4,2.9-1.2
				C11.8,40.3,11.8,37.7,10.2,36.1z M9.1,40.7c-0.9,1-2.5,1-3.4,0c-1.5-1.5-0.5-4.2,1.7-4.2C9.5,36.6,10.6,39.2,9.1,40.7z"/>
		</g>
	</g>
	<g>
		<g>
			<path class="st0" d="M16.5,44.1c-1.7,0-3.1,1-3.8,2.5s-0.3,3.3,0.9,4.4c0.8,0.8,1.8,1.2,2.8,1.2c0.5,0,1.1-0.1,1.6-0.3
				c1.5-0.6,2.5-2.1,2.5-3.8C20.6,46,18.8,44.1,16.5,44.1z M17.5,50.5c-0.7,0.3-1.8,0.3-2.6-0.5C14,49.1,14,48,14.3,47.3
				c0.3-0.7,1.1-1.5,2.3-1.5c1.4,0,2.4,1.1,2.4,2.4C19,49.4,18.2,50.2,17.5,50.5z"/>
		</g>
	</g>
</g>
</svg>
