<?xml version="1.0" encoding="utf-8"?>
<!-- Generator: Adobe Illustrator 26.0.0, SVG Export Plug-In . SVG Version: 6.00 Build 0)  -->
<svg version="1.1" id="Capa_1" xmlns="http://www.w3.org/2000/svg" xmlns:xlink="http://www.w3.org/1999/xlink" x="0px" y="0px"
	 viewBox="0 0 55.5 55.5" style="enable-background:new 0 0 55.5 55.5;" xml:space="preserve">
<style type="text/css">
	.st0{fill:#FFFFFF;}
</style>
<g>
	<g>
		<g>
			<path class="st0" d="M39.3,18.7l-0.6-2c-0.8-2.2-3.2-3.4-5.4-2.7c-1.3,0.4-2.2,1.4-2.7,2.7l-0.6,2c-0.5,1.6-0.6,3.4-0.3,5.1
				c0.3,1.4,1.2,2.7,2.5,3.3L31.6,42c-0.1,0.8,0.2,1.7,0.7,2.3c1.2,1.3,3.3,1.4,4.6,0.2c0.1-0.1,0.1-0.1,0.2-0.2
				c0.5-0.6,0.8-1.4,0.7-2.2l-0.7-14.9c1.3-0.7,2.2-1.9,2.5-3.3C39.9,22.1,39.8,20.4,39.3,18.7z M37.8,23.5c-0.2,1-0.9,1.9-1.9,2.2
				c-0.4,0.1-0.6,0.5-0.6,0.9L36,42.2c0,0.3-0.1,0.6-0.3,0.8c-0.6,0.5-1.5,0.5-2,0c-0.2-0.2-0.3-0.6-0.3-0.9l0.7-15.6
				c0-0.4-0.2-0.8-0.6-0.9c-1-0.3-1.7-1.2-1.9-2.2c-0.3-1.4-0.2-2.9,0.3-4.2l0.6-2c0.5-1.2,1.8-1.9,3.1-1.4c0.7,0.2,1.2,0.8,1.4,1.4
				l0.6,2C38,20.6,38,22.1,37.8,23.5z"/>
		</g>
	</g>
	<g>
		<g>
			<path class="st0" d="M25,13.9c-0.5,0-0.9,0.4-0.9,0.9v7.9l-2.5,2.5c-0.2,0.2-0.3,0.4-0.3,0.7l0.8,16.2c0,0.3-0.1,0.7-0.4,0.9
				c-0.5,0.5-1.3,0.5-1.8,0l0,0c-0.2-0.3-0.4-0.6-0.4-0.9L20.4,26c0-0.3-0.1-0.5-0.3-0.7l-2.5-2.5v-7.9c0-0.5-0.4-0.9-0.9-0.9
				c-0.5,0-0.9,0.4-0.9,0.9v8.3c0,0.3,0.1,0.5,0.3,0.6l2.5,2.5l-0.8,15.8c-0.1,1.7,1.3,3.2,3,3.3s3.2-1.3,3.3-3c0-0.1,0-0.2,0-0.3
				l-0.8-15.8l2.5-2.5c0.2-0.2,0.3-0.4,0.3-0.6v-8.3C25.9,14.3,25.5,13.9,25,13.9z"/>
		</g>
	</g>
	<g>
		<g>
			<path class="st0" d="M19.4,13.9c-0.5,0-0.9,0.4-0.9,0.9v7.4c0,0.5,0.4,0.9,0.9,0.9c0.5,0,0.9-0.4,0.9-0.9v-7.4
				C20.4,14.3,19.9,13.9,19.4,13.9z"/>
		</g>
	</g>
	<g>
		<g>
			<path class="st0" d="M22.2,13.9c-0.5,0-0.9,0.4-0.9,0.9v7.4c0,0.5,0.4,0.9,0.9,0.9c0.5,0,0.9-0.4,0.9-0.9v-7.4
				C23.1,14.3,22.7,13.9,22.2,13.9z"/>
		</g>
	</g>
	<g>
		<g>
			<path class="st0" d="M27.8,0C12.4,0,0,12.4,0,27.8s12.4,27.8,27.8,27.8s27.8-12.4,27.8-27.8C55.5,12.4,43.1,0,27.8,0z M27.8,53.7
				c-14.3,0-25.9-11.6-25.9-25.9S13.4,1.9,27.8,1.9s25.9,11.6,25.9,25.9C53.7,42.1,42.1,53.7,27.8,53.7z"/>
		</g>
	</g>
	<g>
		<g>
			<path class="st0" d="M30.8,45.1c0-0.5-0.5-0.9-1-0.8c0,0,0,0,0,0l0,0c-1.3,0.2-2.6,0.2-3.9,0c-0.5-0.1-1,0.3-1,0.8s0.3,1,0.8,1
				c1.4,0.2,2.9,0.2,4.4,0C30.4,46.1,30.8,45.6,30.8,45.1z"/>
		</g>
	</g>
	<g>
		<g>
			<path class="st0" d="M41.9,15.8c-0.3-0.4-0.9-0.4-1.3-0.1l0,0c-0.4,0.3-0.4,0.9-0.1,1.3c5.6,6.6,5.2,16.4-1,22.5
				c-0.4,0.4-0.4,1,0,1.3s1,0.4,1.3,0C47.6,34.1,48.1,23.2,41.9,15.8z"/>
		</g>
	</g>
	<g>
		<g>
			<g>
				<path class="st0" d="M21.6,12.2L21.6,12.2L21.6,12.2L21.6,12.2z"/>
				<path class="st0" d="M32.1,9.8c-3.6-0.9-7.4-0.6-10.9,0.7c-0.5,0.2-0.7,0.7-0.5,1.2c0.1,0.4,0.5,0.6,0.9,0.6
					c0.1,0,0.2,0,0.3-0.1c3.1-1.2,6.6-1.4,9.8-0.6c0.5,0.1,1-0.2,1.1-0.7C32.9,10.4,32.6,9.9,32.1,9.8z"/>
			</g>
		</g>
	</g>
	<g>
		<g>
			<path class="st0" d="M16,39.5c-3.1-3.1-4.9-7.3-4.9-11.8c0-3.5,1.1-7,3.2-9.8c0.3-0.4,0.2-1-0.2-1.3c-0.4-0.3-1-0.2-1.3,0.2
				c0,0,0,0,0,0c-5.3,7.4-4.6,17.5,1.9,24c0.4,0.4,0.9,0.4,1.3,0C16.3,40.5,16.3,39.9,16,39.5z"/>
		</g>
	</g>
</g>
</svg>
