<?xml version="1.0" encoding="utf-8"?>
<!-- Generator: Adobe Illustrator 26.0.0, SVG Export Plug-In . SVG Version: 6.00 Build 0)  -->
<svg version="1.1" id="Capa_1" xmlns="http://www.w3.org/2000/svg" xmlns:xlink="http://www.w3.org/1999/xlink" x="0px" y="0px"
	 viewBox="0 0 55.5 55.5" style="enable-background:new 0 0 55.5 55.5;" xml:space="preserve">
<style type="text/css">
	.st0{fill:#FFFFFF;}
</style>
<g>
	<g>
		<path class="st0" d="M8.7,55.3c-0.1,0-0.1,0-0.2,0c-2.2,0-4.2-1-5.7-2.6c-2.7-3-2.7-7.7,0-10.7c1.5-1.6,3.6-2.6,5.8-2.6l26.3-26.3
			c-0.7-3.4,0.3-7,2.8-9.5c2.6-2.6,6.2-3.6,9.8-2.7c0.5,0.1,1,0.5,1.1,1.1s0,1.1-0.4,1.5l-6.6,6.6l0.9,3.4l3.4,0.9l6.6-6.6
			c0.4-0.4,1-0.6,1.5-0.4c0.5,0.2,1,0.6,1.1,1.1c0.9,3.6-0.2,7.2-2.7,9.8c-2.5,2.5-6.1,3.5-9.5,2.8L16.6,47.5c0,2.1-0.8,4.1-2.3,5.6
			C12.8,54.5,10.8,55.3,8.7,55.3z M8.6,41.1c-1.8,0-3.4,0.7-4.6,2c-2.2,2.4-2.2,6.1,0,8.5c1.2,1.3,2.8,2,4.5,2s3.4-0.6,4.6-1.8
			c1.3-1.3,1.9-2.9,1.8-4.7l0-0.4l27.5-27.5l0.5,0.1c3,0.8,6.2-0.1,8.4-2.3c2.1-2.1,3-5.1,2.3-8l-7.1,7.1l-5.2-1.4l-1.4-5.2l7.1-7.1
			c-2.9-0.6-5.9,0.2-8,2.3c-2.2,2.2-3,5.4-2.3,8.4l0.1,0.5L9.3,41.2l-0.4,0C8.8,41.1,8.7,41.1,8.6,41.1z"/>
	</g>
	<g>
		<path class="st0" d="M8.6,51c-1.8,0-3.3-1.5-3.3-3.3c0-1.8,1.5-3.3,3.3-3.3s3.3,1.5,3.3,3.3S10.4,51,8.6,51z M8.6,46.1
			c-0.9,0-1.6,0.7-1.6,1.6s0.7,1.6,1.6,1.6s1.6-0.7,1.6-1.6C10.2,46.8,9.5,46.1,8.6,46.1z"/>
	</g>
	<g>
		<g>
			<g>
				<path class="st0" d="M46.3,55.4c-1.3,0-2.5-0.5-3.5-1.4L30.2,39.6c-0.3-0.3-0.3-0.8,0-1.1l1.5-1.5c0.3-0.3,0.9-0.3,1.2,0
					s0.3,0.8,0,1.2l-0.9,0.9L44,52.8c0.6,0.6,1.4,0.9,2.3,0.9c0.9,0,1.7-0.3,2.3-1l4.3-4.3c1.3-1.3,1.3-3.3,0-4.6L38.7,31.3
					c-0.3-0.3-0.4-0.8-0.1-1.2c0.3-0.3,0.8-0.4,1.2-0.1L54,42.7c2,2,2,5.1,0,7L49.8,54C48.8,54.9,47.6,55.4,46.3,55.4z"/>
			</g>
			<g>
				<path class="st0" d="M47.4,48.2c-0.2,0-0.4-0.1-0.6-0.2l-9.7-9.7c-0.3-0.3-0.3-0.8,0-1.2s0.8-0.3,1.2,0l9.7,9.7
					c0.3,0.3,0.3,0.8,0,1.2C47.8,48.1,47.6,48.2,47.4,48.2z"/>
			</g>
			<g>
				<path class="st0" d="M27.4,40.1c-0.2,0-0.4-0.1-0.6-0.2L24.9,38c-0.3-0.3-0.3-0.8,0-1.2L36.7,25c0.3-0.3,0.8-0.3,1.2,0l1.9,1.9
					c0.3,0.3,0.3,0.9,0,1.2l-2,2c-0.3,0.3-0.8,0.3-1.2,0s-0.3-0.9,0-1.2l1.4-1.4l-0.8-0.8L26.7,37.4l0.8,0.8l5.3-5.3
					c0.3-0.3,0.8-0.3,1.2,0s0.3,0.8,0,1.2L28,39.9C27.9,40,27.6,40.1,27.4,40.1z"/>
			</g>
			<g>
				<path class="st0" d="M34.9,35.8c-0.2,0-0.4-0.1-0.6-0.2c-0.3-0.3-0.3-0.8,0-1.2l4.2-4.2c0.3-0.3,0.8-0.3,1.2,0s0.3,0.9,0,1.2
					l-4.2,4.2C35.3,35.7,35.1,35.8,34.9,35.8z"/>
			</g>
		</g>
		<g>
			<path class="st0" d="M21,29c-0.2,0-0.5-0.1-0.6-0.3L7.8,13.1l-3.2-0.4c-0.3,0-0.5-0.2-0.6-0.4L0.1,5.4C-0.1,5,0,4.6,0.2,4.4l4-4
				c0.3-0.3,0.7-0.3,1-0.1l6.9,3.9c0.2,0.1,0.4,0.4,0.4,0.6L13,7.9l15.6,12.6c0.4,0.3,0.4,0.8,0.1,1.2c-0.3,0.4-0.8,0.4-1.2,0.1
				L11.7,8.9c-0.2-0.1-0.3-0.3-0.3-0.5L11,5.3L5,2L1.9,5.1l3.3,6l3.1,0.4c0.2,0,0.4,0.1,0.5,0.3l12.8,15.9c0.3,0.4,0.2,0.9-0.1,1.2
				C21.4,29,21.2,29,21,29z"/>
		</g>
	</g>
</g>
</svg>
