<?xml version="1.0" encoding="utf-8"?>
<!-- Generator: Adobe Illustrator 26.0.0, SVG Export Plug-In . SVG Version: 6.00 Build 0)  -->
<svg version="1.1" id="Capa_1" xmlns="http://www.w3.org/2000/svg" xmlns:xlink="http://www.w3.org/1999/xlink" x="0px" y="0px"
	 viewBox="0 0 55.5 55.5" style="enable-background:new 0 0 55.5 55.5;" xml:space="preserve">
<style type="text/css">
	.st0{fill:#FFFFFF;}
</style>
<g>
	<path class="st0" d="M1.1,46.2h3.3v7.2H3.3c-0.6,0-1.1,0.5-1.1,1.1c0,0.6,0.5,1.1,1.1,1.1h8.7c0.6,0,1.1-0.5,1.1-1.1
		c0-0.6-0.5-1.1-1.1-1.1h-1.1v-7.2h3.3c0.6,0,1.1-0.5,1.1-1.1S14.7,44,14.1,44H13v-2.7c0-0.6-0.5-1.1-1.1-1.1
		c-0.6,0-1.1,0.5-1.1,1.1V44H4.3v-2.2h1.1c0.6,0,1.1-0.5,1.1-1.1c0-0.6-0.5-1.1-1.1-1.1H4.3v-4.3h1.1c0.6,0,1.1-0.5,1.1-1.1
		c0-0.6-0.5-1.1-1.1-1.1H4.3v-4.3h6.5v2.7c0,0.6,0.5,1.1,1.1,1.1c0.6,0,1.1-0.5,1.1-1.1V16.9c0-0.6-0.5-1.1-1.1-1.1h-1.1v-3.3
		c0-0.6-0.5-1.1-1.1-1.1H8.7V1.1C8.7,0.5,8.2,0,7.6,0S6.5,0.5,6.5,1.1v10.4H5.4c-0.6,0-1.1,0.5-1.1,1.1v3.3H3.3
		c-0.6,0-1.1,0.5-1.1,1.1V44H1.1C0.5,44,0,44.5,0,45.1S0.5,46.2,1.1,46.2L1.1,46.2z M8.7,53.3H6.5v-7.1h2.2V53.3z M6.5,13.7h2.2v2.2
		H6.5V13.7z M10.8,18v8.7H4.3v-4.3h1.1c0.6,0,1.1-0.5,1.1-1.1c0-0.6-0.5-1.1-1.1-1.1H4.3V18H10.8z"/>
	<path class="st0" d="M43.6,18c-1.8,0-3.3,1.5-3.3,3.3c0,0.6,0.5,1.1,1.1,1.1s1.1-0.5,1.1-1.1c0-0.6,0.5-1.1,1.1-1.1
		c0.6,0,1.1,0.5,1.1,1.1c0,0.6,0.5,1.1,1.1,1.1c0.6,0,1.1-0.5,1.1-1.1C46.8,19.5,45.4,18,43.6,18L43.6,18z"/>
	<path class="st0" d="M27.3,21.3c0,0.6,0.5,1.1,1.1,1.1c0.6,0,1.1-0.5,1.1-1.1c0-0.6,0.5-1.1,1.1-1.1c0.6,0,1.1,0.5,1.1,1.1
		c0,0.6,0.5,1.1,1.1,1.1s1.1-0.5,1.1-1.1c0-1.8-1.5-3.3-3.3-3.3C28.8,18,27.3,19.5,27.3,21.3L27.3,21.3z"/>
	<path class="st0" d="M21.4,28c-0.4,1.2-0.6,2.5-0.6,3.8c0,6.2,4.8,8.9,10.8,9.8v3.6c0,3,2.4,5.4,5.4,5.4s5.4-2.4,5.4-5.4v-3.6
		c6.1-0.9,10.8-3.6,10.8-9.8c0-1.3-0.2-2.5-0.6-3.8c1.7-0.8,2.8-2.5,2.8-4.4v-8.3c0-4.5-3.6-8.1-8.1-8.1c-2.4,0-4,1.1-4.4,1.2
		c-1.8-0.8-3.9-1.2-6-1.2h0c-2.1,0-4.1,0.4-6,1.2c-0.4-0.2-2-1.2-4.4-1.2c-4.5,0-8.1,3.6-8.1,8.1v8.3C18.6,25.5,19.8,27.2,21.4,28
		L21.4,28z M36,9.4v9.7c0,4.2-3.4,7.6-7.6,7.6h-4.1c0.5-1.4,0.8-2.8,0.8-4.3v-2.2C25.2,14.4,30,9.9,36,9.4L36,9.4z M37.1,31
		c-1.8,0-3.2-1.4-3.3-3.2c0.2-0.2,1.3-0.8,3.3-0.8c2,0,3.1,0.5,3.3,0.8C40.3,29.6,38.9,31,37.1,31L37.1,31z M23,31.8
		c0-1,0.1-2,0.5-2.9h5c1.1,0,2.3-0.2,3.3-0.6c0.2,2.4,2,4.3,4.3,4.8v3.2c0,0.9-0.4,1.7-1,2.3c-0.6,0.6-1.4,0.9-2.3,0.9
		C30.4,39.4,23,38.2,23,31.8L23,31.8z M37.1,48.4c-1.8,0-3.3-1.5-3.3-3.3v-3.6c0.8-0.2,1.5-0.5,2.2-1v2.4c0,0.6,0.5,1.1,1.1,1.1
		c0.6,0,1.1-0.5,1.1-1.1v-2.4c0.6,0.5,1.4,0.8,2.2,1v3.6C40.3,46.9,38.9,48.4,37.1,48.4L37.1,48.4z M41.4,39.5
		c-2.1,0-3.2-1.9-3.2-3.2v-3.2c2.5-0.5,4.3-2.7,4.3-5.3c0-1.8-2.1-2.9-5.4-2.9c-0.3,0-0.6,0-0.8,0c1.2-1.6,1.9-3.6,1.9-5.8V9.4
		c6,0.5,10.8,5.1,10.8,10.8v2.2c0,4.4,2.2,5.3,2.2,9.3C51.2,37.7,44.7,39.4,41.4,39.5L41.4,39.5z M53.3,15.3v8.3c0,1-0.6,2-1.5,2.4
		c-0.5-1.1-0.7-2.3-0.7-3.6v-2.2c0-4.2-2.2-8.1-5.8-10.5c0.6-0.2,1.3-0.4,2-0.4C50.7,9.3,53.3,12,53.3,15.3L53.3,15.3z M20.8,15.3
		c0-3.3,2.7-5.9,5.9-5.9c0.7,0,1.4,0.1,2,0.4C25.1,12.1,23,16,23,20.2v2.3c0,1.2-0.2,2.4-0.7,3.6c-0.9-0.5-1.5-1.4-1.5-2.4V15.3z"/>
	<path class="st0" d="M13,36.4c0,0.6-0.5,1.1-1.1,1.1c-0.6,0-1.1-0.5-1.1-1.1s0.5-1.1,1.1-1.1C12.5,35.3,13,35.8,13,36.4L13,36.4z"
		/>
</g>
</svg>
