<?xml version="1.0" encoding="utf-8"?>
<!-- Generator: Adobe Illustrator 24.3.0, SVG Export Plug-In . SVG Version: 6.00 Build 0)  -->
<svg version="1.1" id="Capa_1" xmlns="http://www.w3.org/2000/svg" xmlns:xlink="http://www.w3.org/1999/xlink" x="0px" y="0px"
	 viewBox="0 0 142.39 117.45" style="enable-background:new 0 0 142.39 117.45;" xml:space="preserve">
<style type="text/css">
	.st0{fill:#732DAA;}
	.st1{opacity:0.15;}
	.st2{fill:#FFFFFF;}
	.st3{opacity:0.7;fill:#F4F4F4;}
	.st4{opacity:0.9;fill:#732DAA;}
	.st5{fill:#F7F7FA;}
	.st6{fill:#F39200;}
	.st7{opacity:0.4;fill:#606060;}
	.st8{fill:none;stroke:#F39200;stroke-width:2;stroke-linecap:round;stroke-linejoin:round;stroke-miterlimit:10;}
	.st9{fill:#8F12D1;}
	.st10{fill:#606060;}
	.st11{fill-rule:evenodd;clip-rule:evenodd;fill:url(#SVGID_9_);}
	.st12{fill-rule:evenodd;clip-rule:evenodd;fill:#FFFFFF;}
	.st13{opacity:0.86;fill:#DADADA;}
	.st14{fill:#FFFFFF;stroke:#878787;stroke-width:0.5;stroke-miterlimit:10;}
	.st15{fill:url(#SVGID_10_);}
	.st16{fill-rule:evenodd;clip-rule:evenodd;fill:url(#bubble_1_);}
	.st17{fill:#FD0000;}
	.st18{fill:#EC1655;}
	.st19{fill:#0CBAC6;}
	.st20{clip-path:url(#SVGID_12_);}
	.st21{fill:#1677F0;}
	.st22{fill:#EDEDED;}
	.st23{clip-path:url(#SVGID_16_);fill:url(#SVGID_17_);}
	.st24{fill:url(#path70_1_);}
	.st25{fill:url(#path94_1_);}
	.st26{fill:url(#path114_1_);}
	.st27{fill:url(#path140_1_);}
	.st28{fill:#28E3D7;}
	.st29{clip-path:url(#SVGID_19_);}
	.st30{fill:#7C4DFF;}
	.st31{fill:#1D1D1B;}
	.st32{clip-path:url(#SVGID_21_);}
	.st33{opacity:0.21;fill:#6F35A4;}
	.st34{opacity:0.8;fill:#FFFFFF;}
	.st35{fill:url(#SVGID_22_);}
	.st36{opacity:0.49;fill:#011525;}
	.st37{fill:#39C1DA;}
	.st38{fill:#FFCD57;}
	.st39{fill:#FDFDFE;}
	.st40{fill:#FDFDFD;}
	.st41{fill:#FCFCFC;}
	.st42{fill:#FEFEFE;}
	.st43{fill:#FBDEDD;}
	.st44{fill:#00B3BA;}
	.st45{fill:#91230D;}
	.st46{fill:#513D38;}
	.st47{fill:#ED6C76;}
	.st48{fill:#DF030D;}
	.st49{fill:#F4AE00;}
	.st50{fill:#0BB5CB;}
	.st51{fill:#00546C;}
	.st52{fill:#8D0701;}
	.st53{fill:none;}
	.st54{fill:none;stroke:#8D0701;stroke-width:2;}
</style>
<g>
	<g>
		<path class="st48" d="M61.87,28.2c-1.21,0-2.34-0.77-2.73-1.98l-4.57-13.93h-9.14c-1.59,0-2.88-1.29-2.88-2.88
			s1.29-2.88,2.88-2.88h10.61c1.61,0,3.03,1.03,3.53,2.56l5.03,15.33c0.5,1.51-0.33,3.14-1.84,3.63
			C62.47,28.15,62.17,28.2,61.87,28.2z M56.05,12.29L56.05,12.29L56.05,12.29z"/>
	</g>
	<g>
		<path class="st48" d="M84.78,29.09H54.81c-1.59,0-2.88-1.29-2.88-2.88s1.29-2.88,2.88-2.88h29.97c1.59,0,2.88,1.29,2.88,2.88
			S86.37,29.09,84.78,29.09z"/>
	</g>
	<g>
		<path class="st49" d="M94.85,40.96H48.16c-1.59,0-2.88-1.29-2.88-2.88c0-1.59,1.29-2.88,2.88-2.88h46.69
			c1.59,0,2.88,1.29,2.88,2.88C97.73,39.67,96.44,40.96,94.85,40.96z"/>
	</g>
	<g>
		<path class="st49" d="M98.98,29.09h-5.4c-1.59,0-2.88-1.29-2.88-2.88s1.29-2.88,2.88-2.88h5.4c1.59,0,2.88,1.29,2.88,2.88
			S100.57,29.09,98.98,29.09z"/>
	</g>
	<g>
		<path class="st49" d="M48.58,53.16h-6.24c-1.59,0-2.88-1.29-2.88-2.88c0-1.59,1.29-2.88,2.88-2.88h6.24
			c1.59,0,2.88,1.29,2.88,2.88C51.46,51.87,50.17,53.16,48.58,53.16z"/>
	</g>
	<g>
		<path class="st48" d="M100.06,53.16H56.69c-1.59,0-2.88-1.29-2.88-2.88c0-1.59,1.29-2.88,2.88-2.88H98.4l10.02-28.33H81.95
			c-1.59,0-2.88-1.29-2.88-2.88s1.29-2.88,2.88-2.88h29.76c1.11,0,2.15,0.54,2.8,1.45c0.64,0.91,0.8,2.07,0.43,3.12l-11.67,33
			C102.79,52.24,101.5,53.16,100.06,53.16z M111.72,19.07L111.72,19.07L111.72,19.07z"/>
	</g>
	<g>
		<circle class="st48" cx="73.86" cy="59.85" r="3.94"/>
	</g>
	<g>
		<circle class="st48" cx="88.09" cy="59.85" r="3.94"/>
	</g>
	<g>
		<path class="st48" d="M9.37,92.81c-0.43,0-0.6-0.27-0.47-0.67l7.71-22.63c0.13-0.3,0.33-0.46,0.63-0.46h5.05
			c0.3,0,0.53,0.17,0.63,0.46l7.71,22.63c0.17,0.4-0.03,0.67-0.47,0.67h-4.42c-0.33,0-0.6-0.17-0.7-0.5l-1.23-4.05h-8.08l-1.26,4.05
			c-0.1,0.33-0.37,0.5-0.66,0.5H9.37z M17.12,83.64h5.35c-0.93-2.92-1.96-6.55-2.63-8.77h-0.13C19.04,77.09,18.01,80.71,17.12,83.64
			z"/>
		<path class="st48" d="M37.65,93.24c-3.92,0-6.15-2.39-6.15-6.45V69.65c0-0.4,0.2-0.6,0.6-0.6h3.92c0.37,0,0.56,0.2,0.56,0.6v16.52
			c0,1.66,0.67,2.43,1.96,2.43c0.33,0,0.7,0,1.03-0.03c0.4-0.03,0.63,0.17,0.63,0.57v3.32c0,0.3-0.13,0.56-0.37,0.6
			C39.28,93.14,38.55,93.24,37.65,93.24z"/>
		<path class="st48" d="M44.06,73.14c-1.63,0-2.83-1.23-2.83-2.79c0-1.63,1.2-2.79,2.83-2.79c1.66,0,2.79,1.16,2.79,2.79
			C46.85,71.91,45.72,73.14,44.06,73.14z M42.1,92.81c-0.37,0-0.6-0.2-0.6-0.6V76.09c0-0.37,0.23-0.56,0.6-0.56h3.92
			c0.37,0,0.57,0.2,0.57,0.56v16.12c0,0.4-0.2,0.6-0.57,0.6H42.1z"/>
		<path class="st48" d="M65.86,75.1c4.39,0,7.41,2.59,7.41,7.28v9.84c0,0.4-0.2,0.6-0.56,0.6h-3.86c-0.4,0-0.6-0.2-0.6-0.6v-10
			c0-1.63-0.8-2.59-2.56-2.59c-0.73,0-1.46,0.17-2.16,0.53c0.23,0.67,0.33,1.4,0.33,2.16v9.9c0,0.4-0.2,0.6-0.56,0.6h-3.86
			c-0.4,0-0.6-0.2-0.6-0.6v-10c0-1.73-0.8-2.62-2.43-2.62c-0.7,0-1.43,0.13-1.96,0.3v12.33c0,0.4-0.23,0.6-0.6,0.6h-3.86
			c-0.4,0-0.6-0.2-0.6-0.6V77.12c0-0.33,0.13-0.56,0.46-0.73c1.93-0.8,4.32-1.3,6.48-1.3c1.73,0,3.26,0.5,4.52,1.4
			C62.64,75.56,64.07,75.1,65.86,75.1z"/>
		<path class="st48" d="M90.55,85.33c0,0.37-0.2,0.56-0.6,0.56h-9.41v0.53c0,1.7,1.1,2.56,2.86,2.56c1.66,0,3.02-0.5,4.22-1.2
			c0.3-0.23,0.56-0.17,0.76,0.13l1.73,2.29c0.2,0.3,0.2,0.6-0.1,0.83c-1.7,1.3-3.86,2.19-6.78,2.19c-4.32,0-7.81-2.29-7.81-6.91
			v-4.19c0-4.95,3.49-7.08,7.71-7.08c4.09,0,7.41,2.06,7.41,7.08V85.33z M83.11,79.28c-1.53,0-2.56,0.8-2.56,2.63v0.7h5.12v-0.7
			C85.67,80.12,84.6,79.28,83.11,79.28z"/>
		<path class="st48" d="M93.28,92.81c-0.4,0-0.6-0.2-0.6-0.6V77.12c0-0.3,0.13-0.53,0.43-0.7c1.83-0.9,3.96-1.36,6.12-1.36
			c1,0,2.03,0.13,3.22,0.33c0.37,0.07,0.53,0.27,0.53,0.63v3.06c0,0.4-0.23,0.6-0.63,0.53c-0.67-0.1-1.4-0.13-2.06-0.13
			c-1,0-1.89,0.17-2.53,0.43v12.3c0,0.4-0.2,0.6-0.56,0.6H93.28z"/>
		<path class="st48" d="M111.45,93.24c-5.02,0-7.88-2.79-7.88-7.24v-3.76c0-4.39,2.89-7.18,7.84-7.18c1.93,0,3.75,0.53,5.45,1.56
			c0.3,0.2,0.37,0.5,0.17,0.83l-1.76,2.66c-0.2,0.33-0.46,0.37-0.83,0.2c-0.86-0.46-1.83-0.76-2.79-0.76c-1.83,0-2.92,1-2.92,2.69
			V86c0,1.86,1.16,2.76,2.89,2.76c1.13,0,2.19-0.33,3.19-0.96c0.33-0.2,0.63-0.13,0.83,0.17l1.79,2.66c0.2,0.3,0.17,0.6-0.1,0.8
			C115.64,92.61,113.75,93.24,111.45,93.24z"/>
		<path class="st48" d="M125.74,75.06c4.59,0,7.28,2.39,7.28,7.44v9.11c0,0.33-0.17,0.56-0.5,0.66c-1.96,0.6-4.59,0.96-6.85,0.96
			c-4.79,0-7.81-1.79-7.81-5.72c0-3.46,2.72-5.18,7.25-5.18c1.03,0,1.99,0.1,2.82,0.2v-0.33c0-1.76-0.63-2.73-2.79-2.73
			c-1.46,0-3.19,0.4-4.15,0.93c-0.3,0.17-0.63,0.13-0.8-0.2l-1.36-2.59c-0.17-0.33-0.17-0.57,0.07-0.73
			C120.46,75.9,122.88,75.06,125.74,75.06z M125.67,89.12c0.76,0,1.66-0.13,2.26-0.27v-2.92c-0.66-0.13-1.56-0.2-2.29-0.2
			c-1.83,0-2.62,0.6-2.62,1.66C123.02,88.56,124.08,89.12,125.67,89.12z"/>
	</g>
	<g>
		<path class="st31" d="M44.01,108.04c-1.76,0-3.14-0.44-4.13-1.31c0.09-0.89,0.47-1.55,1.14-1.97c0.83,0.67,1.84,1.01,3.04,1.01
			c1.1,0,1.65-0.32,1.65-0.96c0-0.3-0.14-0.54-0.41-0.72c-0.27-0.18-0.85-0.39-1.73-0.62c-1.06-0.25-1.88-0.62-2.47-1.09
			c-0.59-0.47-0.89-1.2-0.9-2.17c0-1.01,0.37-1.83,1.12-2.43s1.73-0.91,2.95-0.91c1.53,0,2.76,0.36,3.69,1.09
			c-0.02,0.4-0.14,0.78-0.34,1.16c-0.2,0.38-0.47,0.66-0.8,0.84c-0.78-0.55-1.69-0.83-2.71-0.83c-0.47,0-0.84,0.08-1.11,0.24
			c-0.26,0.16-0.4,0.37-0.4,0.62c0,0.28,0.13,0.49,0.38,0.65c0.25,0.16,0.84,0.35,1.75,0.57c1.08,0.28,1.91,0.66,2.49,1.16
			s0.87,1.19,0.88,2.08c0.02,1.14-0.33,2.01-1.07,2.64S45.3,108.04,44.01,108.04z"/>
		<path class="st31" d="M55.49,99.84c0.5,0,0.91,0.03,1.24,0.1v7.21c-1.07,0.61-2.37,0.91-3.9,0.91c-2.51,0-3.77-1.06-3.77-3.19
			v-4.93c0.33-0.07,0.74-0.1,1.24-0.1s0.9,0.03,1.22,0.1v4.38c0,0.56,0.11,0.97,0.32,1.21c0.22,0.25,0.61,0.37,1.18,0.37
			c0.49,0,0.9-0.08,1.24-0.25v-5.72C54.6,99.87,55,99.84,55.49,99.84z"/>
		<path class="st31" d="M61.76,99.66c1.3,0,2.35,0.36,3.15,1.07s1.2,1.74,1.2,3.08c0,1.29-0.41,2.32-1.24,3.09
			c-0.83,0.77-1.85,1.16-3.06,1.16c-0.52,0-0.96-0.05-1.34-0.15v2.91c-0.42,0.07-0.83,0.1-1.24,0.1c-0.41,0-0.82-0.03-1.22-0.1
			v-9.94C59.04,100.06,60.29,99.66,61.76,99.66z M61.61,105.91c0.62,0.01,1.11-0.17,1.47-0.53c0.36-0.36,0.55-0.87,0.55-1.52
			c0-0.63-0.19-1.12-0.56-1.47c-0.38-0.35-0.87-0.53-1.49-0.53c-0.39,0-0.76,0.07-1.11,0.21v3.64
			C60.75,105.84,61.13,105.91,61.61,105.91z"/>
		<path class="st31" d="M74.48,103.31c0,0.44-0.03,0.83-0.08,1.16h-5.23c0.14,1.07,0.79,1.6,1.94,1.6c0.73,0,1.5-0.26,2.32-0.79
			c0.52,0.4,0.82,0.95,0.89,1.67c-0.97,0.74-2.13,1.11-3.47,1.11c-1.25,0-2.25-0.37-3.03-1.1c-0.77-0.73-1.16-1.75-1.16-3.04
			c0-1.23,0.39-2.25,1.17-3.04c0.78-0.79,1.76-1.18,2.94-1.18c1.11,0,2.01,0.33,2.7,0.98C74.13,101.35,74.48,102.22,74.48,103.31z
			 M69.17,103.08h2.98c0-0.42-0.11-0.77-0.33-1.05s-0.57-0.43-1.04-0.46c-0.46,0-0.83,0.14-1.11,0.41
			C69.39,102.25,69.22,102.62,69.17,103.08z"/>
		<path class="st31" d="M78.91,99.67c0.73,0,1.33,0.08,1.82,0.23c-0.02,0.86-0.25,1.57-0.69,2.13c-0.28-0.08-0.59-0.12-0.94-0.12
			c-0.5,0-0.9,0.08-1.21,0.23v5.62c-0.4,0.07-0.81,0.1-1.24,0.1c-0.41,0-0.82-0.03-1.22-0.1v-6.9c0.34-0.31,0.82-0.59,1.42-0.83
			S78.14,99.67,78.91,99.67z"/>
		<path class="st31" d="M93.84,97.08c0.42,0,0.84,0.04,1.26,0.12v10.58c-0.41,0.07-0.78,0.1-1.12,0.1c-0.32,0-0.71-0.03-1.16-0.1
			v-5.13l0.08-1.55l-0.41,1.21l-1.82,4.58c-0.34,0.04-0.68,0.07-1.03,0.07c-0.33,0-0.68-0.02-1.04-0.07l-1.92-4.6l-0.38-1.01
			l0.07,1.37v5.13c-0.4,0.07-0.78,0.1-1.16,0.1c-0.32,0-0.69-0.03-1.12-0.1V97.21c0.33-0.09,0.74-0.13,1.24-0.13
			c0.43,0,0.88,0.03,1.34,0.1l2.86,6.55l0.2,0.53l0.17-0.53l2.65-6.55C93.01,97.11,93.44,97.08,93.84,97.08z"/>
		<path class="st31" d="M99.81,99.71c1.2,0,2.14,0.28,2.83,0.83s1.03,1.42,1.03,2.6v4.12c-1.27,0.52-2.59,0.78-3.97,0.78
			c-1.14,0-2.01-0.22-2.63-0.65c-0.62-0.44-0.93-1.08-0.93-1.93c0-0.8,0.31-1.42,0.93-1.85c0.62-0.43,1.45-0.64,2.49-0.63
			c0.66,0.02,1.21,0.1,1.65,0.23v-0.31c0-0.77-0.54-1.16-1.62-1.16c-0.83,0-1.54,0.23-2.13,0.68c-0.59-0.33-0.95-0.85-1.06-1.57
			c0.31-0.28,0.76-0.53,1.37-0.78C98.37,99.83,99.05,99.71,99.81,99.71z M98.6,105.36c0,0.3,0.12,0.53,0.36,0.7
			c0.24,0.17,0.6,0.26,1.06,0.26c0.38,0,0.77-0.06,1.19-0.18v-1.44c-0.42-0.12-0.87-0.18-1.36-0.18
			C99.02,104.52,98.6,104.8,98.6,105.36z"/>
		<path class="st31" d="M108.26,99.67c0.73,0,1.33,0.08,1.82,0.23c-0.02,0.86-0.25,1.57-0.69,2.13c-0.28-0.08-0.59-0.12-0.94-0.12
			c-0.5,0-0.9,0.08-1.21,0.23v5.62c-0.4,0.07-0.81,0.1-1.24,0.1c-0.41,0-0.82-0.03-1.22-0.1v-6.9c0.34-0.31,0.82-0.59,1.42-0.83
			S107.49,99.67,108.26,99.67z"/>
		<path class="st31" d="M115.52,103.86l3.41,3.84c-0.38,0.13-0.98,0.2-1.8,0.2c-0.54,0-0.96-0.02-1.26-0.05l-2.28-2.6
			c-0.2,0.11-0.37,0.19-0.51,0.25v2.28c-0.38,0.07-0.78,0.1-1.21,0.1c-0.39,0-0.81-0.03-1.26-0.1V96.91c0.32-0.07,0.72-0.1,1.21-0.1
			c0.5,0,0.92,0.03,1.26,0.1v6c1.09-0.74,1.97-1.73,2.63-2.98c0.28-0.03,0.68-0.05,1.21-0.05c0.62,0,1.15,0.04,1.6,0.12
			C117.62,101.57,116.63,102.85,115.52,103.86z"/>
		<path class="st31" d="M126.17,103.31c0,0.44-0.03,0.83-0.08,1.16h-5.23c0.14,1.07,0.79,1.6,1.94,1.6c0.73,0,1.5-0.26,2.32-0.79
			c0.52,0.4,0.82,0.95,0.89,1.67c-0.97,0.74-2.13,1.11-3.47,1.11c-1.25,0-2.25-0.37-3.03-1.1c-0.77-0.73-1.16-1.75-1.16-3.04
			c0-1.23,0.39-2.25,1.17-3.04c0.78-0.79,1.76-1.18,2.94-1.18c1.11,0,2.01,0.33,2.7,0.98C125.83,101.35,126.17,102.22,126.17,103.31
			z M120.86,103.08h2.98c0-0.42-0.11-0.77-0.33-1.05s-0.57-0.43-1.04-0.46c-0.46,0-0.83,0.14-1.11,0.41
			C121.09,102.25,120.92,102.62,120.86,103.08z"/>
		<path class="st31" d="M132.51,105.46c0.24,0.14,0.46,0.38,0.66,0.7c0.2,0.33,0.32,0.65,0.36,0.98c-0.74,0.58-1.59,0.88-2.55,0.88
			s-1.73-0.22-2.3-0.65s-0.86-1.11-0.86-2.03v-3.39h-1.34c-0.06-0.35-0.08-0.7-0.08-1.04c0-0.29,0.03-0.61,0.08-0.98h1.34v-1.95
			c0.43-0.07,0.85-0.1,1.26-0.1c0.42,0,0.82,0.03,1.19,0.1v1.95h2.75c0.08,0.36,0.12,0.69,0.12,0.98s-0.04,0.63-0.12,1.04h-2.75
			v2.78c0,0.43,0.09,0.74,0.28,0.92s0.47,0.27,0.86,0.27C131.79,105.92,132.16,105.77,132.51,105.46z"/>
	</g>
</g>
</svg>
