<?xml version="1.0" encoding="utf-8"?>
<!-- Generator: Adobe Illustrator 24.3.0, SVG Export Plug-In . SVG Version: 6.00 Build 0)  -->
<svg version="1.1" id="Capa_1" xmlns="http://www.w3.org/2000/svg" xmlns:xlink="http://www.w3.org/1999/xlink" x="0px" y="0px"
	 viewBox="0 0 142.39 117.45" style="enable-background:new 0 0 142.39 117.45;" xml:space="preserve">
<style type="text/css">
	.st0{fill:#732DAA;}
	.st1{opacity:0.15;}
	.st2{fill:#FFFFFF;}
	.st3{opacity:0.7;fill:#F4F4F4;}
	.st4{opacity:0.9;fill:#732DAA;}
	.st5{fill:#F7F7FA;}
	.st6{fill:#F39200;}
	.st7{opacity:0.4;fill:#606060;}
	.st8{fill:none;stroke:#F39200;stroke-width:2;stroke-linecap:round;stroke-linejoin:round;stroke-miterlimit:10;}
	.st9{fill:#8F12D1;}
	.st10{fill:#606060;}
	.st11{fill-rule:evenodd;clip-rule:evenodd;fill:url(#SVGID_9_);}
	.st12{fill-rule:evenodd;clip-rule:evenodd;fill:#FFFFFF;}
	.st13{opacity:0.86;fill:#DADADA;}
	.st14{fill:#FFFFFF;stroke:#878787;stroke-width:0.5;stroke-miterlimit:10;}
	.st15{fill:url(#SVGID_10_);}
	.st16{fill-rule:evenodd;clip-rule:evenodd;fill:url(#bubble_1_);}
	.st17{fill:#FD0000;}
	.st18{fill:#EC1655;}
	.st19{fill:#0CBAC6;}
	.st20{clip-path:url(#SVGID_12_);}
	.st21{fill:#1677F0;}
	.st22{fill:#EDEDED;}
	.st23{clip-path:url(#SVGID_16_);fill:url(#SVGID_17_);}
	.st24{fill:url(#path70_1_);}
	.st25{fill:url(#path94_1_);}
	.st26{fill:url(#path114_1_);}
	.st27{fill:url(#path140_1_);}
	.st28{fill:#28E3D7;}
	.st29{clip-path:url(#SVGID_19_);}
	.st30{fill:#7C4DFF;}
	.st31{fill:#1D1D1B;}
	.st32{clip-path:url(#SVGID_21_);}
	.st33{opacity:0.21;fill:#6F35A4;}
	.st34{opacity:0.8;fill:#FFFFFF;}
	.st35{fill:url(#SVGID_22_);}
	.st36{opacity:0.49;fill:#011525;}
	.st37{fill:#39C1DA;}
	.st38{fill:#FFCD57;}
	.st39{fill:#FDFDFE;}
	.st40{fill:#FDFDFD;}
	.st41{fill:#FCFCFC;}
	.st42{fill:#FEFEFE;}
	.st43{fill:#FBDEDD;}
	.st44{fill:#00B3BA;}
	.st45{fill:none;}
	.st46{fill:#91230D;}
	.st47{fill:#513D38;}
	.st48{fill:#ED6C76;}
	.st49{fill:#DF030D;}
	.st50{fill:#F4AE00;}
	.st51{fill:#0BB5CB;}
	.st52{fill:#00546C;}
	.st53{fill:#8D0701;}
	.st54{fill:none;stroke:#8D0701;stroke-width:2;}
</style>
<g>
	<g>
		<g>
			<path d="M71.2,109.79c-17.44,0-33.93-4.01-46.43-11.28c-6.37-3.7-11.41-8.09-15-13.02C5.8,80.03,3.79,74.16,3.79,68.03
				s2.01-12,5.98-17.45c3.59-4.94,8.63-9.32,15-13.02c12.5-7.27,28.99-11.28,46.43-11.28c17.44,0,33.93,4.01,46.43,11.28
				c6.37,3.7,11.41,8.09,15,13.02c3.97,5.46,5.98,11.33,5.98,17.45s-2.01,12-5.98,17.45c-3.59,4.94-8.63,9.32-15,13.02
				C105.13,105.78,88.64,109.79,71.2,109.79z"/>
			<g>
				<g>
					<path d="M67.44,113.51c-0.08,0-0.15,0-0.23-0.01c-1.27-0.06-2.43-0.58-3.27-1.49c-0.84-0.93-1.26-2.12-1.17-3.36
						c0.08-1.21,0.63-2.33,1.54-3.14c0.85-0.77,1.93-1.2,3.04-1.2c0.06,0,0.13,0,0.2,0c0.63,0.03,1.21,0.17,1.72,0.41
						c0.53,0.24,1.01,0.58,1.42,1c0.85,0.88,1.31,2.04,1.31,3.25c0,1.24-0.49,2.4-1.4,3.25c-0.44,0.41-0.95,0.74-1.52,0.96
						C68.55,113.4,67.99,113.51,67.44,113.51z"/>
					<path d="M59.8,112.98c-0.17,0-0.34-0.01-0.5-0.03c-0.66-0.07-1.27-0.26-1.8-0.55c-0.54-0.31-1-0.7-1.38-1.17
						c-0.77-0.97-1.1-2.19-0.93-3.42c0.17-1.2,0.79-2.28,1.75-3.03c0.47-0.37,0.98-0.63,1.54-0.79c0.44-0.13,0.88-0.2,1.32-0.2
						c0.15,0,0.3,0.01,0.44,0.02c0.6,0.06,1.18,0.24,1.71,0.54c0.12,0.07,0.25,0.15,0.37,0.23c0.12,0.08,0.23,0.16,0.34,0.25
						c0.22,0.18,0.43,0.39,0.62,0.61c0.79,0.93,1.17,2.11,1.09,3.33c-0.08,1.24-0.66,2.36-1.61,3.15c-0.23,0.19-0.48,0.36-0.74,0.51
						c-0.13,0.07-0.27,0.14-0.41,0.2l-0.02,0.01c-0.14,0.06-0.29,0.11-0.43,0.15C60.73,112.91,60.27,112.98,59.8,112.98z"/>
					<path d="M52.23,111.92c-0.27,0-0.54-0.02-0.81-0.07l-0.02,0c-1.24-0.24-2.34-0.95-3.03-1.95c-0.33-0.48-0.57-1.05-0.69-1.65
						c-0.12-0.61-0.11-1.23,0.02-1.84c0.13-0.6,0.38-1.16,0.73-1.67c0.32-0.46,0.74-0.87,1.23-1.21c0.77-0.53,1.65-0.8,2.55-0.8
						c0.27,0,0.55,0.03,0.82,0.08c1.17,0.2,2.2,0.85,2.91,1.84c0.17,0.24,0.32,0.49,0.44,0.75c0.12,0.26,0.23,0.54,0.3,0.82
						c0.16,0.6,0.19,1.21,0.11,1.82c-0.09,0.62-0.29,1.2-0.62,1.73c-0.16,0.26-0.34,0.5-0.54,0.72c-0.21,0.22-0.44,0.42-0.68,0.59
						C54.17,111.62,53.2,111.92,52.23,111.92z"/>
					<path d="M44.86,110.3c-0.42,0-0.83-0.05-1.24-0.16c-0.64-0.17-1.21-0.44-1.7-0.82c-0.49-0.39-0.89-0.85-1.19-1.38
						c-0.62-1.08-0.75-2.33-0.39-3.52c0.36-1.16,1.14-2.12,2.2-2.72c0.52-0.29,1.07-0.47,1.64-0.55c0.21-0.03,0.44-0.05,0.66-0.05
						c0.38,0,0.75,0.05,1.1,0.14c0.58,0.15,1.12,0.42,1.6,0.79c0.46,0.35,0.85,0.78,1.15,1.27c0.64,1.04,0.84,2.26,0.59,3.45
						c-0.26,1.22-1,2.24-2.06,2.88c-0.53,0.32-1.12,0.53-1.71,0.62C45.28,110.28,45.07,110.3,44.86,110.3z"/>
					<path d="M37.52,108.06c-0.21,0-0.42-0.01-0.63-0.04c-0.16-0.02-0.31-0.05-0.47-0.08l-0.02-0.01c-0.15-0.04-0.31-0.09-0.46-0.15
						c-1.23-0.46-2.18-1.32-2.69-2.44c-0.52-1.14-0.54-2.41-0.06-3.56c0.46-1.12,1.32-2,2.43-2.5c0.61-0.27,1.28-0.42,1.92-0.42
						c0.52,0,1.02,0.09,1.5,0.27c0.13,0.05,0.27,0.11,0.4,0.17c0.13,0.06,0.26,0.13,0.39,0.2c0.25,0.15,0.49,0.32,0.71,0.52
						c0.43,0.39,0.78,0.85,1.04,1.38c0.54,1.11,0.64,2.34,0.29,3.48c-0.37,1.2-1.21,2.18-2.31,2.71c-0.54,0.26-1.13,0.41-1.74,0.45
						C37.72,108.06,37.62,108.06,37.52,108.06z"/>
				</g>
				<g>
					<path d="M30.54,105.17c-0.07,0-0.14,0-0.22,0c-0.63-0.03-1.25-0.18-1.84-0.45c-0.55-0.24-1.07-0.63-1.54-1.15
						c-0.42-0.47-0.72-0.99-0.92-1.57c-0.1-0.28-0.17-0.58-0.21-0.87c-0.04-0.29-0.05-0.6-0.02-0.91c0.05-0.62,0.23-1.21,0.53-1.76
						c0.29-0.54,0.68-1.01,1.16-1.4c0.21-0.18,0.45-0.33,0.72-0.48c0.25-0.14,0.52-0.26,0.79-0.35c0.49-0.17,0.99-0.25,1.49-0.25
						c0.07,0,0.14,0,0.22,0.01c0.53,0.02,1.08,0.16,1.68,0.42l0.01,0.01c0.55,0.25,1.03,0.6,1.43,1.05c0.36,0.4,0.66,0.89,0.88,1.45
						c0.45,1.14,0.44,2.38-0.02,3.5c-0.47,1.15-1.38,2.04-2.54,2.48C31.64,105.07,31.1,105.17,30.54,105.17z"/>
					<path d="M23.77,101.56c-0.23,0-0.45-0.02-0.67-0.05c-0.67-0.11-1.28-0.34-1.81-0.67c-0.57-0.36-1.04-0.8-1.4-1.32
						c-0.36-0.52-0.61-1.09-0.74-1.68c-0.26-1.22,0-2.46,0.73-3.48c0.69-0.97,1.73-1.64,2.92-1.89c0.33-0.07,0.66-0.1,0.99-0.1
						c0.24,0,0.48,0.02,0.71,0.06c0.61,0.1,1.16,0.31,1.63,0.61c0.53,0.33,0.95,0.74,1.28,1.2c0.34,0.48,0.58,0.99,0.72,1.53
						c0.31,1.17,0.17,2.4-0.41,3.46c-0.59,1.1-1.59,1.88-2.8,2.19C24.55,101.51,24.16,101.56,23.77,101.56z"/>
					<path d="M17.63,97.15c-0.44,0-0.89-0.06-1.32-0.19l-0.02-0.01c-0.64-0.2-1.21-0.51-1.7-0.92c-0.53-0.45-0.94-0.96-1.22-1.53
						c-0.14-0.27-0.25-0.56-0.34-0.86c-0.08-0.29-0.13-0.6-0.15-0.92c-0.09-1.23,0.37-2.46,1.25-3.35c0.83-0.84,1.95-1.34,3.16-1.42
						c0.1-0.01,0.19-0.01,0.28-0.01c0.18,0,0.37,0.01,0.56,0.03c0.28,0.03,0.56,0.09,0.83,0.17c0.59,0.19,1.09,0.46,1.52,0.82
						c0.46,0.39,0.82,0.84,1.08,1.34c0.26,0.49,0.43,1.04,0.5,1.62c0.15,1.19-0.15,2.39-0.84,3.37c-0.73,1.02-1.82,1.67-3.06,1.82
						C17.96,97.14,17.79,97.15,17.63,97.15z"/>
					<path d="M12.18,91.82c-0.08,0-0.17,0-0.25-0.01c-0.64-0.04-1.27-0.21-1.8-0.48c-0.28-0.14-0.55-0.31-0.81-0.51
						c-0.26-0.2-0.49-0.43-0.73-0.71c-0.42-0.48-0.74-1.06-0.95-1.73l0-0.01c-0.18-0.6-0.24-1.24-0.17-1.86
						c0.16-1.27,0.82-2.36,1.87-3.07c0.8-0.55,1.75-0.83,2.74-0.83c0.21,0,0.42,0.01,0.62,0.04c0.55,0.06,1.09,0.22,1.58,0.48
						c0.49,0.24,0.92,0.58,1.32,1.04c0.18,0.21,0.34,0.45,0.49,0.72c0.13,0.24,0.25,0.5,0.33,0.78c0.17,0.57,0.24,1.12,0.21,1.66
						c-0.03,0.59-0.16,1.15-0.37,1.66c-0.24,0.57-0.57,1.08-1,1.51c-0.44,0.45-0.96,0.79-1.54,1.02
						C13.23,91.72,12.71,91.82,12.18,91.82z"/>
					<path d="M7.82,85.54c-0.37,0-0.74-0.05-1.11-0.14c-0.57-0.15-1.14-0.43-1.67-0.85c-0.23-0.18-0.46-0.4-0.71-0.7
						c-0.25-0.31-0.43-0.58-0.58-0.87c-0.33-0.66-0.52-1.32-0.55-1.95c-0.02-0.31-0.01-0.63,0.02-0.94
						c0.04-0.31,0.12-0.62,0.23-0.93c0.42-1.18,1.35-2.11,2.55-2.55c0.53-0.19,1.1-0.29,1.67-0.29c0.59,0,1.18,0.1,1.76,0.31
						c0.25,0.09,0.49,0.2,0.75,0.35c0.24,0.13,0.47,0.29,0.68,0.46l0.01,0.01c0.47,0.41,0.81,0.83,1.04,1.29
						c0.14,0.28,0.24,0.53,0.31,0.77c0.08,0.28,0.12,0.55,0.15,0.79c0.06,0.51,0.01,1.06-0.14,1.65c-0.3,1.17-1,2.17-1.98,2.84
						C9.52,85.28,8.68,85.54,7.82,85.54z"/>
				</g>
				<g>
					<path d="M5.05,78.4c-0.11,0-0.22,0-0.32-0.01c-0.31-0.02-0.61-0.08-0.91-0.17c-0.3-0.1-0.58-0.22-0.85-0.38
						c-0.27-0.15-0.52-0.34-0.76-0.55c-0.23-0.2-0.44-0.44-0.65-0.73c-0.16-0.23-0.36-0.53-0.51-0.89c-0.13-0.3-0.24-0.63-0.31-0.97
						c-0.09-0.37-0.11-0.73-0.12-1.04l0-0.02c0-0.41,0.03-0.72,0.1-1.02c0.15-0.69,0.4-1.26,0.76-1.75
						c0.37-0.51,0.83-0.92,1.36-1.22c0.55-0.3,1.15-0.47,1.79-0.52c0.11-0.01,0.22-0.01,0.33-0.01c0.49,0,0.98,0.08,1.45,0.22
						c0.55,0.17,1.06,0.42,1.51,0.75c0.49,0.37,0.88,0.75,1.14,1.16c0.15,0.22,0.28,0.44,0.39,0.69c0.12,0.25,0.18,0.5,0.25,0.76
						l0,0.01c0.07,0.28,0.1,0.56,0.1,0.85c0,0.27-0.01,0.52-0.07,0.8c-0.04,0.23-0.11,0.48-0.22,0.77c-0.09,0.25-0.21,0.5-0.35,0.75
						c-0.14,0.24-0.3,0.47-0.48,0.69C8.51,76.79,8.32,77,8.1,77.19c-0.46,0.41-0.98,0.72-1.54,0.93C6.07,78.3,5.56,78.4,5.05,78.4z"
						/>
					<path d="M4.4,70.75c-0.52,0-1.03-0.09-1.51-0.27c-0.59-0.23-1.13-0.58-1.55-1.03c-0.45-0.48-0.8-1.05-1-1.64
						c-0.11-0.31-0.19-0.63-0.24-0.96l0-0.02c-0.04-0.34-0.05-0.68-0.03-1.02c0.02-0.33,0.08-0.67,0.18-1.04
						c0.1-0.35,0.22-0.66,0.37-0.93l0.01-0.01c0.33-0.6,0.74-1.1,1.22-1.47c0.5-0.39,1.06-0.65,1.66-0.79
						c0.29-0.07,0.6-0.1,0.91-0.1c0.31,0,0.63,0.03,0.95,0.1c0.58,0.13,1.13,0.36,1.65,0.7c0.48,0.32,0.9,0.7,1.24,1.15
						c0.36,0.47,0.62,0.95,0.77,1.42c0.1,0.28,0.16,0.54,0.19,0.79c0.03,0.24,0.04,0.49,0.02,0.8l0,0.02
						C9.24,66.72,9.19,67,9.1,67.27c-0.07,0.27-0.17,0.52-0.29,0.76c-0.27,0.52-0.59,0.94-0.97,1.3c-0.43,0.41-0.88,0.72-1.38,0.95
						c-0.56,0.26-1.14,0.42-1.74,0.46C4.62,70.75,4.51,70.75,4.4,70.75z"/>
					<path d="M6.06,63.25c-0.34,0-0.69-0.04-1.02-0.11c-0.63-0.14-1.19-0.39-1.69-0.77c-0.5-0.38-0.92-0.87-1.19-1.42
						c-0.6-1.16-0.67-2.56-0.19-3.84c0.21-0.61,0.57-1.19,1.06-1.72l0.01-0.01c0.44-0.45,0.97-0.82,1.56-1.07l0.01-0.01
						C5.12,54.1,5.66,54,6.2,54c0.7,0,1.37,0.17,2,0.5c1.03,0.54,1.85,1.45,2.29,2.56c0.21,0.51,0.33,1.04,0.35,1.59
						c0.03,0.52-0.05,1.05-0.24,1.62l-0.01,0.03c-0.39,1.02-1.13,1.83-2.16,2.37c-0.53,0.27-1.05,0.44-1.59,0.53
						C6.58,63.23,6.32,63.25,6.06,63.25z"/>
					<path d="M9.73,56.48c-0.8,0-1.58-0.19-2.27-0.55c-1.13-0.59-1.92-1.6-2.2-2.84c-0.14-0.58-0.15-1.22-0.03-1.88
						c0.05-0.29,0.14-0.59,0.29-0.95C5.67,49.9,5.82,49.61,6,49.35c0.77-1.11,1.93-1.86,3.18-2.04c0.21-0.03,0.43-0.05,0.65-0.05
						c1.01,0,2,0.37,2.79,1.04c0.89,0.75,1.48,1.83,1.66,3.02c0.04,0.26,0.06,0.53,0.05,0.83c0,0.28-0.04,0.57-0.09,0.84
						c-0.14,0.63-0.36,1.13-0.67,1.56c-0.19,0.27-0.35,0.47-0.53,0.64c-0.21,0.21-0.44,0.37-0.64,0.51
						c-0.43,0.29-0.94,0.51-1.53,0.65C10.5,56.43,10.12,56.48,9.73,56.48z"/>
					<path d="M14.74,50.66c-0.24,0-0.49-0.02-0.73-0.05c-0.28-0.04-0.57-0.11-0.84-0.2c-0.59-0.19-1.12-0.49-1.58-0.88
						c-0.48-0.41-0.87-0.9-1.13-1.46c-0.13-0.27-0.23-0.56-0.31-0.86c-0.07-0.29-0.11-0.6-0.11-0.91c-0.01-0.64,0.11-1.27,0.35-1.84
						c0.12-0.29,0.27-0.58,0.45-0.84l0.01-0.01c0.19-0.27,0.4-0.52,0.63-0.76c0.12-0.12,0.24-0.23,0.37-0.33l0.01-0.01
						c0.13-0.1,0.26-0.19,0.4-0.29c0.27-0.17,0.56-0.32,0.85-0.44c0.55-0.21,1.11-0.32,1.69-0.32c0.05,0,0.09,0,0.14,0
						c1.26,0.05,2.4,0.61,3.21,1.59c0.76,0.92,1.15,2.08,1.09,3.29c-0.02,0.56-0.14,1.12-0.36,1.64c-0.11,0.26-0.24,0.52-0.4,0.75
						c-0.08,0.11-0.16,0.22-0.26,0.34c-0.09,0.11-0.19,0.22-0.29,0.32c-0.21,0.21-0.44,0.39-0.68,0.54
						c-0.24,0.16-0.49,0.29-0.75,0.39c-0.54,0.21-1.09,0.32-1.64,0.33C14.81,50.66,14.78,50.66,14.74,50.66z"/>
				</g>
				<g>
					<path d="M20.61,45.8c-0.22,0-0.44-0.02-0.66-0.04c-0.57-0.08-1.13-0.26-1.64-0.53c-0.54-0.29-1.02-0.68-1.4-1.14
						c-0.41-0.49-0.7-1.04-0.86-1.63c-0.16-0.58-0.2-1.19-0.12-1.8c0.17-1.24,0.88-2.39,1.95-3.15c0.52-0.37,1.11-0.64,1.75-0.79
						l0.02,0c0.33-0.07,0.66-0.1,0.99-0.1c0.28,0,0.56,0.03,0.84,0.08c1.24,0.24,2.28,0.96,2.94,2.03c0.63,1.02,0.85,2.24,0.61,3.43
						c-0.11,0.57-0.32,1.1-0.62,1.58c-0.3,0.49-0.69,0.91-1.18,1.27C22.46,45.51,21.56,45.8,20.61,45.8z"/>
					<path d="M27.13,41.8c-0.15,0-0.3-0.01-0.46-0.02c-0.28-0.02-0.56-0.07-0.84-0.15c-0.56-0.15-1.09-0.41-1.56-0.75
						c-0.5-0.36-0.91-0.81-1.24-1.33c-0.33-0.54-0.54-1.12-0.63-1.73c-0.08-0.6-0.04-1.2,0.12-1.79c0.08-0.29,0.19-0.58,0.33-0.85
						l0.01-0.01c0.14-0.27,0.31-0.52,0.51-0.77c0.4-0.49,0.89-0.9,1.46-1.22c0.54-0.31,1.16-0.5,1.84-0.56
						c0.14-0.01,0.28-0.02,0.42-0.02c0.47,0,0.94,0.07,1.38,0.21c1.16,0.35,2.14,1.21,2.67,2.35c0.5,1.07,0.58,2.3,0.21,3.47
						c-0.18,0.57-0.46,1.08-0.82,1.52c-0.35,0.42-0.79,0.79-1.33,1.1l-0.01,0.01c-0.52,0.29-1.09,0.46-1.69,0.52
						C27.4,41.79,27.26,41.8,27.13,41.8z"/>
					<path d="M33.91,38.55c-0.56,0-1.12-0.11-1.65-0.32c-1.13-0.45-2.04-1.29-2.56-2.38c-0.53-1.13-0.57-2.39-0.11-3.55
						c0.23-0.57,0.56-1.08,0.99-1.52l0.02-0.02c0.45-0.44,0.98-0.79,1.58-1.04c0.61-0.25,1.21-0.37,1.8-0.37l0.07,0
						c0.63,0.02,1.22,0.15,1.78,0.39c1.14,0.5,2,1.42,2.42,2.59c0.4,1.14,0.36,2.38-0.14,3.49c-0.24,0.54-0.57,1.02-0.98,1.42
						c-0.44,0.43-0.93,0.76-1.46,0.98c-0.52,0.21-1.08,0.32-1.65,0.32C33.99,38.55,33.91,38.55,33.91,38.55z"/>
					<path d="M41.09,36c-0.14,0-0.27-0.01-0.4-0.02c-0.57-0.05-1.13-0.22-1.65-0.49c-0.51-0.26-0.99-0.63-1.38-1.06
						c-0.41-0.45-0.73-0.98-0.93-1.56c-0.21-0.59-0.3-1.2-0.25-1.82c0.04-0.6,0.2-1.17,0.49-1.72c0.28-0.54,0.66-1.01,1.13-1.41
						c0.52-0.44,1.09-0.75,1.69-0.91c0.45-0.13,0.92-0.2,1.39-0.2c0.16,0,0.32,0.01,0.47,0.02c0.3,0.03,0.6,0.09,0.89,0.18
						c0.29,0.09,0.58,0.21,0.85,0.36c1.09,0.6,1.86,1.6,2.17,2.8c0.31,1.17,0.15,2.4-0.45,3.46c-0.14,0.25-0.3,0.48-0.48,0.7
						c-0.19,0.23-0.39,0.44-0.61,0.63c-0.46,0.39-0.99,0.67-1.57,0.84C41.97,35.93,41.52,36,41.09,36z"/>
					<path d="M48.51,34.08c-0.27,0-0.55-0.03-0.82-0.08c-0.28-0.05-0.57-0.14-0.84-0.25c-0.28-0.11-0.53-0.23-0.76-0.38
						c-1.04-0.63-1.78-1.63-2.08-2.8c-0.32-1.2-0.13-2.45,0.53-3.51c0.17-0.27,0.35-0.51,0.55-0.72c0.21-0.22,0.45-0.42,0.7-0.59
						c0.52-0.36,1.09-0.61,1.72-0.76c0.31-0.07,0.63-0.11,0.95-0.12l0.06,0c0.28,0,0.58,0.03,0.88,0.09
						c0.61,0.12,1.17,0.35,1.67,0.68c1.04,0.68,1.73,1.73,1.95,2.95c0.21,1.19-0.04,2.41-0.72,3.43c-0.33,0.49-0.73,0.91-1.21,1.24
						c-0.23,0.16-0.48,0.3-0.77,0.42c-0.26,0.12-0.55,0.22-0.85,0.29C49.15,34.04,48.83,34.08,48.51,34.08z"/>
				</g>
				<g>
					<path d="M56.04,32.72c-0.1,0-0.2,0-0.3-0.01c-0.29-0.01-0.59-0.06-0.88-0.13c-0.56-0.14-1.09-0.39-1.57-0.74
						c-0.99-0.72-1.65-1.78-1.86-2.97c-0.22-1.22,0.07-2.45,0.81-3.45c0.36-0.48,0.81-0.89,1.33-1.21c0.26-0.16,0.55-0.3,0.84-0.4
						c0.28-0.1,0.59-0.18,0.95-0.23c0.22-0.03,0.44-0.04,0.65-0.04c1.04,0,2.05,0.34,2.85,0.95c0.99,0.77,1.6,1.87,1.72,3.1
						c0.12,1.21-0.22,2.4-0.98,3.36c-0.76,0.97-1.82,1.59-2.98,1.74C56.44,32.71,56.25,32.72,56.04,32.72z"/>
					<path d="M63.57,31.95c-1.04,0-2.09-0.39-2.94-1.09c-0.94-0.79-1.52-1.89-1.65-3.09c-0.13-1.23,0.24-2.44,1.05-3.39
						c0.78-0.94,1.93-1.51,3.23-1.61c0.12-0.01,0.24-0.01,0.36-0.01c0.2,0,0.4,0.01,0.6,0.04c0.32,0.04,0.64,0.11,0.93,0.22
						c0.57,0.2,1.09,0.51,1.54,0.91c0.93,0.82,1.46,1.96,1.5,3.2c0.04,1.21-0.39,2.38-1.2,3.29c-0.4,0.44-0.86,0.79-1.38,1.05
						c-0.28,0.13-0.54,0.24-0.81,0.31c-0.3,0.08-0.6,0.14-0.9,0.16C63.79,31.94,63.68,31.95,63.57,31.95z"/>
					<path d="M71.14,31.68c-1.17,0-2.28-0.46-3.14-1.3c-0.88-0.87-1.38-2-1.42-3.19c-0.04-1.24,0.43-2.45,1.29-3.31
						c0.87-0.87,2.05-1.37,3.32-1.38h0.02c1.27,0.02,2.45,0.51,3.32,1.39c0.86,0.86,1.33,2.06,1.29,3.31
						c-0.04,1.19-0.55,2.33-1.42,3.19c-0.86,0.84-1.98,1.31-3.14,1.31H71.14z"/>
					<path d="M78.83,31.95c-0.11,0-0.22,0-0.33-0.01c-0.3-0.02-0.6-0.08-0.9-0.16c-0.26-0.08-0.53-0.18-0.8-0.31
						c-0.53-0.26-0.99-0.61-1.39-1.05c-0.82-0.91-1.24-2.08-1.2-3.29c0.04-1.24,0.58-2.38,1.5-3.2c0.45-0.4,0.97-0.71,1.55-0.91
						c0.28-0.1,0.6-0.18,0.92-0.22c0.19-0.02,0.4-0.04,0.59-0.04c0.12,0,0.24,0,0.36,0.01c1.3,0.1,2.45,0.67,3.24,1.61
						c0.8,0.94,1.17,2.15,1.04,3.38c-0.13,1.21-0.71,2.3-1.64,3.09C80.91,31.56,79.87,31.95,78.83,31.95z"/>
					<path d="M86.36,32.72c-0.21,0-0.41-0.01-0.59-0.04c-1.16-0.15-2.22-0.77-2.98-1.74c-0.75-0.95-1.1-2.14-0.97-3.35
						c0.13-1.23,0.74-2.34,1.72-3.1c0.79-0.61,1.81-0.95,2.85-0.95c0.21,0,0.43,0.01,0.65,0.04c0.36,0.05,0.67,0.12,0.95,0.23
						c0.29,0.11,0.57,0.24,0.84,0.4c0.52,0.32,0.97,0.73,1.33,1.21c0.74,1,1.03,2.22,0.81,3.45c-0.21,1.19-0.87,2.25-1.86,2.97
						c-0.48,0.35-1,0.6-1.57,0.74c-0.29,0.07-0.58,0.12-0.88,0.13C86.56,32.72,86.46,32.72,86.36,32.72z"/>
				</g>
				<g>
					<path d="M93.89,34.08c-0.32,0-0.65-0.04-0.96-0.11c-0.3-0.07-0.59-0.17-0.86-0.29c-0.27-0.12-0.52-0.26-0.76-0.42
						c-0.47-0.33-0.88-0.74-1.21-1.24c-0.68-1.02-0.93-2.24-0.72-3.43c0.22-1.23,0.91-2.27,1.95-2.95c0.5-0.33,1.07-0.56,1.67-0.68
						c0.31-0.06,0.6-0.09,0.89-0.09l0.05,0c0.33,0.01,0.65,0.05,0.96,0.12c0.63,0.14,1.2,0.4,1.72,0.76
						c0.25,0.17,0.48,0.37,0.69,0.59c0.2,0.21,0.39,0.46,0.56,0.73c0.66,1.06,0.85,2.31,0.53,3.51c-0.31,1.17-1.05,2.17-2.09,2.8
						c-0.23,0.14-0.48,0.27-0.77,0.38C95.28,33.86,95,33.94,94.71,34C94.44,34.05,94.16,34.08,93.89,34.08z"/>
					<path d="M101.3,36c-0.43,0-0.87-0.07-1.34-0.19c-0.59-0.17-1.12-0.46-1.58-0.85c-0.22-0.19-0.43-0.4-0.61-0.62
						c-0.18-0.22-0.34-0.46-0.48-0.7c-0.6-1.06-0.76-2.29-0.45-3.47c0.31-1.2,1.09-2.2,2.18-2.8c0.26-0.15,0.55-0.27,0.85-0.36
						c0.28-0.09,0.59-0.15,0.89-0.18c0.16-0.02,0.32-0.02,0.47-0.02c0.47,0,0.94,0.07,1.4,0.2c0.59,0.16,1.15,0.47,1.67,0.91
						c0.47,0.4,0.85,0.87,1.13,1.41c0.28,0.55,0.45,1.13,0.49,1.72c0.04,0.62-0.04,1.23-0.25,1.82c-0.21,0.58-0.52,1.1-0.93,1.56
						c-0.39,0.43-0.87,0.8-1.38,1.06c-0.53,0.27-1.08,0.43-1.66,0.49C101.57,35.99,101.44,36,101.3,36z"/>
					<path d="M108.38,38.55c-0.57,0-1.13-0.11-1.65-0.33c-0.52-0.21-1.02-0.54-1.46-0.98c-0.41-0.39-0.74-0.87-0.98-1.41
						c-0.49-1.12-0.54-2.36-0.14-3.49c0.42-1.18,1.28-2.1,2.42-2.59c0.55-0.24,1.15-0.37,1.77-0.39l0.07,0c0.59,0,1.2,0.12,1.8,0.37
						c0.6,0.25,1.13,0.6,1.58,1.04l0.02,0.02c0.43,0.45,0.76,0.96,0.99,1.53c0.46,1.16,0.43,2.42-0.11,3.55
						c-0.52,1.09-1.42,1.94-2.55,2.38c-0.53,0.21-1.09,0.32-1.65,0.32C108.48,38.55,108.41,38.55,108.38,38.55z"/>
					<path d="M115.27,41.8c-0.13,0-0.27-0.01-0.4-0.02c-0.6-0.05-1.17-0.23-1.69-0.52l-0.01-0.01c-0.53-0.31-0.98-0.68-1.33-1.1
						c-0.36-0.44-0.64-0.95-0.82-1.51c-0.37-1.18-0.29-2.41,0.21-3.48c0.53-1.14,1.51-1.99,2.68-2.35c0.44-0.14,0.9-0.21,1.38-0.21
						c0.14,0,0.28,0.01,0.42,0.02c0.68,0.06,1.3,0.25,1.85,0.57c0.56,0.31,1.05,0.72,1.45,1.21c0.2,0.24,0.37,0.5,0.51,0.77
						l0.01,0.01c0.14,0.27,0.25,0.56,0.33,0.85c0.17,0.59,0.21,1.2,0.12,1.79c-0.09,0.61-0.3,1.2-0.63,1.73
						c-0.32,0.52-0.74,0.97-1.24,1.33c-0.48,0.34-1,0.6-1.56,0.75c-0.28,0.08-0.56,0.13-0.84,0.15
						C115.57,41.79,115.42,41.8,115.27,41.8z"/>
					<path d="M121.79,45.8c-0.95,0-1.86-0.29-2.61-0.83c-0.49-0.35-0.89-0.78-1.18-1.27c-0.3-0.48-0.51-1.01-0.62-1.58
						c-0.23-1.18-0.02-2.4,0.61-3.42c0.66-1.07,1.7-1.79,2.93-2.02c0.28-0.05,0.56-0.08,0.84-0.08c0.33,0,0.66,0.03,0.99,0.1l0.02,0
						c0.65,0.15,1.24,0.42,1.75,0.79c1.06,0.76,1.77,1.91,1.95,3.15c0.09,0.61,0.05,1.22-0.12,1.8c-0.17,0.59-0.46,1.14-0.86,1.63
						c-0.39,0.47-0.86,0.85-1.4,1.14c-0.51,0.28-1.07,0.46-1.64,0.53C122.23,45.78,122,45.8,121.79,45.8z"/>
				</g>
				<g>
					<path d="M127.66,50.66c-0.04,0-0.08,0-0.11,0c-0.55-0.01-1.1-0.12-1.63-0.33c-0.27-0.11-0.52-0.24-0.76-0.39
						c-0.25-0.16-0.48-0.34-0.68-0.54c-0.1-0.1-0.2-0.21-0.29-0.32c-0.09-0.11-0.18-0.23-0.26-0.34c-0.16-0.23-0.3-0.49-0.41-0.76
						c-0.22-0.52-0.34-1.07-0.36-1.64c-0.05-1.2,0.34-2.37,1.1-3.28c0.81-0.97,1.94-1.54,3.2-1.59c0.05,0,0.1,0,0.14,0
						c0.58,0,1.15,0.11,1.68,0.31c0.3,0.12,0.59,0.27,0.86,0.44c0.14,0.09,0.28,0.19,0.4,0.29l0.01,0.01
						c0.13,0.1,0.25,0.22,0.37,0.33c0.24,0.23,0.45,0.49,0.63,0.76l0.01,0.01c0.18,0.27,0.33,0.55,0.45,0.85
						c0.24,0.56,0.36,1.2,0.35,1.83c-0.01,0.32-0.04,0.62-0.11,0.91c-0.07,0.3-0.17,0.59-0.31,0.86c-0.27,0.56-0.65,1.05-1.13,1.46
						c-0.46,0.39-0.99,0.69-1.58,0.88c-0.27,0.09-0.56,0.16-0.84,0.2C128.14,50.64,127.9,50.66,127.66,50.66z"/>
					<path d="M132.67,56.48c-0.39,0-0.78-0.04-1.15-0.13c-0.58-0.14-1.1-0.36-1.53-0.65c-0.2-0.14-0.43-0.3-0.64-0.51
						c-0.18-0.17-0.35-0.37-0.54-0.64c-0.3-0.42-0.52-0.93-0.66-1.54c-0.06-0.28-0.09-0.56-0.1-0.85c-0.01-0.3,0.01-0.57,0.05-0.83
						c0.18-1.2,0.77-2.27,1.67-3.03c0.79-0.67,1.78-1.04,2.79-1.04c0.22,0,0.44,0.02,0.66,0.05c1.24,0.18,2.4,0.92,3.17,2.04
						c0.18,0.25,0.33,0.54,0.48,0.9c0.15,0.37,0.24,0.67,0.29,0.96c0.12,0.66,0.11,1.29-0.03,1.88c-0.29,1.24-1.07,2.25-2.2,2.84
						C134.25,56.29,133.46,56.48,132.67,56.48z"/>
					<path d="M136.34,63.25c-0.26,0-0.52-0.02-0.79-0.06c-0.54-0.08-1.06-0.26-1.59-0.52c-1.03-0.53-1.77-1.35-2.16-2.37l-0.01-0.03
						c-0.19-0.57-0.27-1.1-0.24-1.62c0.02-0.55,0.14-1.08,0.35-1.59c0.44-1.11,1.25-2.02,2.29-2.56c0.63-0.33,1.3-0.5,2-0.5
						c0.54,0,1.08,0.1,1.59,0.31l0.01,0.01c0.59,0.25,1.12,0.62,1.56,1.07l0.01,0.01c0.49,0.53,0.84,1.11,1.06,1.72
						c0.48,1.28,0.41,2.68-0.19,3.85c-0.28,0.54-0.69,1.03-1.19,1.41c-0.49,0.37-1.06,0.63-1.69,0.77
						C137.03,63.21,136.68,63.25,136.34,63.25z"/>
					<path d="M137.99,70.75c-0.11,0-0.22,0-0.32-0.01c-0.6-0.04-1.18-0.2-1.74-0.46c-0.5-0.23-0.95-0.54-1.37-0.95
						c-0.38-0.36-0.7-0.78-0.97-1.29c-0.13-0.25-0.22-0.5-0.3-0.77c-0.08-0.27-0.13-0.55-0.15-0.83l0-0.02
						c-0.01-0.31,0-0.56,0.02-0.8c0.03-0.25,0.09-0.5,0.19-0.79c0.15-0.47,0.41-0.95,0.77-1.42c0.34-0.44,0.76-0.83,1.24-1.15
						c0.52-0.34,1.08-0.58,1.65-0.71c0.31-0.07,0.63-0.1,0.95-0.1c0.31,0,0.62,0.03,0.91,0.1c0.6,0.13,1.16,0.4,1.66,0.79
						c0.48,0.37,0.89,0.86,1.22,1.47l0.01,0.01c0.14,0.28,0.26,0.58,0.37,0.93c0.11,0.37,0.17,0.71,0.18,1.05
						c0.02,0.33,0.01,0.68-0.03,1.01l0,0.02c-0.05,0.32-0.13,0.65-0.24,0.97c-0.19,0.58-0.54,1.15-0.99,1.63
						c-0.42,0.45-0.95,0.8-1.54,1.03C139.02,70.66,138.52,70.75,137.99,70.75z"/>
					<path d="M137.34,78.4c-0.51,0-1.02-0.09-1.51-0.27c-0.56-0.21-1.08-0.52-1.54-0.93c-0.21-0.19-0.41-0.4-0.59-0.62
						c-0.17-0.21-0.33-0.44-0.47-0.68c-0.14-0.24-0.26-0.5-0.35-0.75c-0.1-0.29-0.17-0.54-0.22-0.77c-0.05-0.28-0.06-0.54-0.07-0.79
						c0-0.3,0.03-0.58,0.1-0.86l0-0.01c0.07-0.26,0.13-0.51,0.25-0.76c0.11-0.25,0.25-0.47,0.39-0.68c0.27-0.41,0.66-0.8,1.14-1.16
						c0.46-0.33,0.97-0.59,1.52-0.76c0.47-0.15,0.96-0.22,1.45-0.22c0.11,0,0.22,0,0.33,0.01c0.64,0.05,1.24,0.22,1.78,0.52
						c0.54,0.3,1,0.71,1.37,1.23c0.36,0.48,0.61,1.06,0.76,1.75c0.07,0.29,0.1,0.6,0.09,1.01l0,0.02c-0.01,0.3-0.03,0.67-0.12,1.05
						c-0.07,0.33-0.18,0.65-0.32,0.96c-0.15,0.35-0.35,0.65-0.5,0.87c-0.22,0.3-0.43,0.54-0.65,0.74c-0.24,0.21-0.5,0.4-0.77,0.55
						c-0.27,0.16-0.55,0.28-0.84,0.37c-0.31,0.09-0.61,0.15-0.92,0.17C137.56,78.39,137.45,78.4,137.34,78.4z"/>
				</g>
				<g>
					<path d="M134.57,85.54c-0.86,0-1.7-0.26-2.43-0.76c-0.97-0.66-1.67-1.67-1.97-2.83c-0.15-0.59-0.2-1.15-0.14-1.65
						c0.03-0.25,0.07-0.52,0.15-0.8c0.07-0.24,0.17-0.49,0.31-0.77c0.23-0.46,0.56-0.88,1.03-1.29l0.01-0.01
						c0.21-0.17,0.44-0.33,0.69-0.47c0.25-0.14,0.49-0.25,0.74-0.34c0.58-0.21,1.17-0.31,1.76-0.31c0.58,0,1.14,0.1,1.67,0.29
						c1.2,0.44,2.13,1.37,2.55,2.55c0.11,0.3,0.19,0.61,0.23,0.92c0.04,0.32,0.05,0.64,0.02,0.96c-0.03,0.62-0.22,1.27-0.55,1.93
						c-0.15,0.29-0.33,0.56-0.57,0.86c-0.26,0.31-0.48,0.54-0.72,0.72c-0.53,0.42-1.1,0.7-1.67,0.85
						C135.32,85.49,134.94,85.54,134.57,85.54z"/>
					<path d="M130.21,91.82c-0.53,0-1.05-0.1-1.55-0.3c-0.58-0.22-1.09-0.57-1.54-1.02c-0.43-0.43-0.76-0.94-1-1.51
						c-0.21-0.52-0.34-1.08-0.37-1.66c-0.03-0.54,0.04-1.09,0.21-1.65c0.09-0.28,0.2-0.55,0.34-0.8c0.15-0.27,0.3-0.5,0.48-0.71
						c0.41-0.47,0.84-0.81,1.33-1.05c0.49-0.25,1.03-0.42,1.59-0.48c0.19-0.02,0.4-0.04,0.61-0.04c0.99,0,1.94,0.29,2.74,0.83
						c1.05,0.71,1.72,1.8,1.87,3.06c0.07,0.63,0.01,1.27-0.17,1.87l0,0.01c-0.21,0.67-0.53,1.25-0.95,1.73
						c-0.23,0.27-0.47,0.5-0.72,0.69c-0.26,0.2-0.54,0.38-0.82,0.52c-0.53,0.27-1.15,0.44-1.8,0.48
						C130.38,91.82,130.3,91.82,130.21,91.82z"/>
					<path d="M124.77,97.15c-0.17,0-0.34-0.01-0.5-0.03c-1.25-0.15-2.34-0.8-3.07-1.82c-0.69-0.98-0.99-2.17-0.84-3.37
						c0.07-0.57,0.23-1.12,0.5-1.61c0.25-0.5,0.62-0.95,1.08-1.34c0.42-0.36,0.93-0.63,1.5-0.82c0.28-0.09,0.56-0.14,0.84-0.17
						c0.19-0.02,0.38-0.03,0.56-0.03c0.09,0,0.19,0,0.28,0.01c1.21,0.08,2.33,0.58,3.16,1.42c0.88,0.89,1.34,2.12,1.25,3.35
						c-0.02,0.32-0.07,0.62-0.15,0.91c-0.09,0.3-0.2,0.59-0.34,0.87c-0.28,0.56-0.69,1.07-1.21,1.52c-0.49,0.41-1.06,0.72-1.7,0.92
						l-0.02,0.01C125.66,97.08,125.21,97.15,124.77,97.15z"/>
					<path d="M118.63,101.56c-0.39,0-0.78-0.05-1.17-0.15c-1.21-0.31-2.21-1.09-2.8-2.19c-0.57-1.06-0.71-2.29-0.41-3.46
						c0.14-0.53,0.38-1.05,0.73-1.53c0.32-0.46,0.75-0.86,1.27-1.19c0.48-0.3,1.03-0.51,1.63-0.61c0.24-0.04,0.48-0.06,0.72-0.06
						c0.32,0,0.65,0.03,0.98,0.1c1.19,0.25,2.23,0.92,2.92,1.89c0.73,1.02,0.99,2.26,0.73,3.49c-0.12,0.59-0.37,1.15-0.74,1.68
						c-0.35,0.51-0.82,0.96-1.4,1.32c-0.53,0.33-1.13,0.56-1.8,0.67C119.08,101.55,118.85,101.56,118.63,101.56z"/>
					<path d="M111.86,105.17c-0.56,0-1.1-0.1-1.59-0.29c-1.16-0.45-2.06-1.33-2.53-2.48c-0.46-1.12-0.47-2.36-0.03-3.49
						c0.23-0.57,0.53-1.05,0.89-1.46c0.4-0.45,0.88-0.8,1.43-1.05l0.01-0.01c0.59-0.26,1.14-0.39,1.68-0.42
						c0.07,0,0.14-0.01,0.21-0.01c0.5,0,1,0.08,1.49,0.25c0.27,0.09,0.54,0.21,0.79,0.35c0.27,0.15,0.5,0.31,0.72,0.48
						c0.48,0.39,0.86,0.86,1.16,1.4c0.3,0.55,0.48,1.15,0.53,1.76c0.03,0.32,0.02,0.62-0.02,0.91c-0.04,0.29-0.11,0.59-0.21,0.87
						c-0.2,0.57-0.51,1.1-0.92,1.56c-0.47,0.52-0.99,0.91-1.55,1.16c-0.58,0.26-1.2,0.41-1.83,0.44
						C112,105.17,111.93,105.17,111.86,105.17z"/>
				</g>
				<g>
					<path d="M104.87,108.06c-0.1,0-0.2,0-0.3-0.01c-0.62-0.04-1.2-0.19-1.75-0.46c-1.1-0.52-1.94-1.51-2.3-2.7
						c-0.35-1.13-0.24-2.37,0.29-3.47c0.26-0.54,0.61-1,1.04-1.39c0.22-0.2,0.46-0.37,0.71-0.52c0.12-0.07,0.26-0.14,0.39-0.2
						c0.13-0.07,0.27-0.12,0.41-0.17c0.48-0.18,0.98-0.27,1.5-0.27c0.65,0,1.31,0.15,1.93,0.42c1.1,0.49,1.97,1.38,2.43,2.5
						c0.47,1.15,0.45,2.41-0.06,3.56c-0.51,1.12-1.47,1.99-2.69,2.44c-0.16,0.06-0.31,0.11-0.47,0.15l-0.02,0.01
						c-0.15,0.04-0.31,0.06-0.47,0.08C105.29,108.05,105.08,108.06,104.87,108.06z"/>
					<path d="M97.54,110.3c-0.21,0-0.43-0.01-0.63-0.04c-0.6-0.09-1.19-0.3-1.71-0.62c-1.07-0.64-1.8-1.67-2.06-2.88
						c-0.26-1.18-0.05-2.41,0.59-3.45c0.3-0.48,0.68-0.91,1.15-1.27c0.47-0.37,1.01-0.64,1.59-0.79c0.35-0.09,0.72-0.14,1.1-0.14
						c0.22,0,0.45,0.02,0.67,0.05c0.56,0.07,1.11,0.26,1.63,0.54c1.06,0.6,1.84,1.56,2.2,2.72c0.37,1.19,0.23,2.44-0.39,3.52
						c-0.3,0.53-0.7,0.99-1.18,1.37c-0.5,0.38-1.07,0.66-1.71,0.83C98.37,110.24,97.96,110.3,97.54,110.3z"/>
					<path d="M90.16,111.92c-0.97,0-1.94-0.3-2.72-0.85c-0.24-0.17-0.47-0.37-0.67-0.58c-0.21-0.23-0.39-0.47-0.55-0.72
						c-0.32-0.53-0.53-1.11-0.62-1.73c-0.09-0.61-0.05-1.22,0.11-1.82c0.07-0.28,0.18-0.56,0.3-0.83c0.12-0.26,0.27-0.51,0.44-0.75
						c0.71-0.99,1.74-1.64,2.91-1.84c0.27-0.05,0.55-0.08,0.82-0.08c0.9,0,1.78,0.28,2.54,0.8c0.5,0.35,0.92,0.75,1.24,1.22
						c0.35,0.5,0.6,1.06,0.73,1.66c0.13,0.61,0.14,1.23,0.02,1.84c-0.12,0.61-0.36,1.18-0.7,1.66c-0.69,1-1.79,1.71-3.03,1.95
						l-0.02,0C90.7,111.9,90.43,111.92,90.16,111.92z"/>
					<path d="M82.59,112.98c-0.47,0-0.92-0.07-1.36-0.2c-0.14-0.04-0.29-0.09-0.43-0.15l-0.02-0.01c-0.14-0.06-0.28-0.13-0.41-0.2
						c-0.26-0.15-0.51-0.32-0.74-0.51c-0.96-0.8-1.53-1.92-1.61-3.15c-0.08-1.21,0.31-2.39,1.09-3.32c0.19-0.22,0.4-0.43,0.62-0.61
						c0.11-0.09,0.23-0.17,0.34-0.25c0.12-0.08,0.24-0.16,0.37-0.23c0.53-0.3,1.11-0.48,1.71-0.54c0.14-0.02,0.29-0.02,0.44-0.02
						c0.44,0,0.89,0.07,1.33,0.2c0.55,0.16,1.07,0.42,1.53,0.79c0.96,0.75,1.58,1.83,1.75,3.03c0.17,1.23-0.16,2.44-0.93,3.42
						c-0.38,0.47-0.84,0.87-1.37,1.17c-0.54,0.3-1.15,0.49-1.81,0.56C82.93,112.97,82.76,112.98,82.59,112.98z"/>
					<path d="M74.95,113.51c-0.55,0-1.11-0.11-1.65-0.32c-0.57-0.22-1.08-0.55-1.52-0.96c-0.9-0.85-1.4-2.01-1.4-3.25
						c0-1.21,0.47-2.37,1.31-3.25c0.41-0.43,0.89-0.77,1.42-1.01c0.52-0.23,1.09-0.37,1.71-0.4c0.07,0,0.14,0,0.2,0
						c1.11,0,2.2,0.43,3.05,1.21c0.9,0.81,1.45,1.92,1.53,3.13c0.09,1.24-0.33,2.43-1.16,3.35c-0.84,0.91-2.01,1.44-3.28,1.49
						C75.11,113.51,75.03,113.51,74.95,113.51z"/>
				</g>
			</g>
		</g>
		<g>
			<path class="st43" d="M71.2,108.98c-17.3,0-33.65-3.97-46.03-11.17c-6.27-3.65-11.23-7.95-14.75-12.8
				C6.56,79.69,4.6,73.98,4.6,68.03s1.96-11.66,5.82-16.98c3.52-4.85,8.48-9.15,14.75-12.8c12.38-7.2,28.72-11.17,46.03-11.17
				s33.65,3.97,46.03,11.17c6.27,3.65,11.23,7.95,14.75,12.8c3.86,5.32,5.82,11.03,5.82,16.98s-1.96,11.66-5.82,16.98
				c-3.52,4.84-8.48,9.15-14.75,12.8C104.85,105.02,88.5,108.98,71.2,108.98z"/>
			<g>
				<g>
					<path class="st43" d="M63.58,108.71c0.07-1.04,0.56-1.96,1.27-2.59c0.71-0.65,1.65-1.04,2.67-0.99
						c0.51,0.03,0.99,0.14,1.43,0.33c0.44,0.2,0.83,0.48,1.17,0.83c0.67,0.7,1.09,1.65,1.09,2.7c0,1.05-0.43,1.99-1.14,2.66
						c-0.36,0.34-0.78,0.61-1.26,0.79c-0.47,0.18-1,0.29-1.54,0.26c-1.09-0.05-2.06-0.51-2.72-1.23
						C63.87,110.73,63.5,109.76,63.58,108.71z"/>
					<path class="st43" d="M55.99,107.93c0.15-1.04,0.7-1.92,1.45-2.51c0.38-0.3,0.81-0.52,1.27-0.65c0.46-0.14,0.95-0.2,1.46-0.15
						c0.51,0.05,0.98,0.21,1.4,0.44c0.11,0.06,0.21,0.12,0.31,0.19c0.1,0.07,0.2,0.14,0.29,0.21c0.19,0.15,0.36,0.32,0.51,0.5
						c0.62,0.73,0.97,1.71,0.9,2.75c-0.07,1.04-0.56,1.96-1.32,2.59c-0.19,0.16-0.4,0.3-0.62,0.42c-0.11,0.06-0.22,0.12-0.34,0.17
						c-0.12,0.05-0.23,0.09-0.36,0.12c-0.49,0.14-1.01,0.2-1.56,0.14c-0.54-0.06-1.05-0.21-1.49-0.46
						c-0.45-0.25-0.83-0.58-1.14-0.97C56.14,109.96,55.84,108.96,55.99,107.93z"/>
					<path class="st43" d="M48.48,106.58c0.11-0.51,0.32-0.97,0.6-1.38c0.28-0.4,0.63-0.73,1.03-1.01c0.8-0.54,1.78-0.79,2.77-0.59
						c1,0.17,1.84,0.73,2.4,1.51c0.14,0.2,0.26,0.41,0.37,0.63c0.1,0.22,0.19,0.45,0.25,0.68c0.12,0.47,0.16,0.98,0.09,1.5
						c-0.07,0.52-0.25,1-0.51,1.42c-0.13,0.21-0.28,0.41-0.45,0.59c-0.17,0.18-0.35,0.34-0.55,0.48c-0.8,0.56-1.85,0.83-2.93,0.65
						c-1.07-0.21-1.97-0.81-2.52-1.62c-0.28-0.4-0.47-0.87-0.57-1.35C48.37,107.6,48.37,107.09,48.48,106.58z"/>
					<path class="st43" d="M41.1,104.66c0.31-1,0.99-1.79,1.83-2.26c0.42-0.23,0.87-0.39,1.35-0.45c0.47-0.07,0.97-0.05,1.46,0.07
						c0.49,0.13,0.93,0.35,1.31,0.65c0.38,0.29,0.71,0.64,0.96,1.05c0.5,0.82,0.71,1.83,0.49,2.86c-0.22,1.02-0.85,1.85-1.69,2.36
						c-0.42,0.25-0.9,0.44-1.41,0.51c-0.5,0.07-1.04,0.04-1.57-0.1c-0.53-0.14-1.01-0.37-1.41-0.68c-0.4-0.32-0.74-0.71-0.98-1.14
						C40.93,106.68,40.8,105.66,41.1,104.66z"/>
					<path class="st43" d="M33.92,102.09c0.4-0.97,1.15-1.68,2.02-2.07c0.87-0.39,1.88-0.48,2.82-0.13
						c0.12,0.04,0.23,0.09,0.34,0.15c0.11,0.05,0.22,0.11,0.32,0.17c0.21,0.12,0.4,0.26,0.58,0.42c0.35,0.32,0.64,0.71,0.86,1.14
						c0.42,0.87,0.55,1.88,0.25,2.89c-0.31,1-1,1.79-1.88,2.22c-0.44,0.21-0.93,0.34-1.45,0.38c-0.26,0.02-0.52,0.01-0.78-0.03
						c-0.13-0.02-0.26-0.04-0.39-0.07c-0.13-0.03-0.26-0.08-0.39-0.12c-1.03-0.39-1.83-1.12-2.24-2.02
						C33.56,104.1,33.53,103.06,33.92,102.09z"/>
				</g>
				<g>
					<path class="st43" d="M27.03,98.84c0.25-0.46,0.58-0.85,0.96-1.16c0.19-0.16,0.39-0.29,0.6-0.4c0.21-0.12,0.43-0.22,0.66-0.29
						c0.45-0.16,0.93-0.23,1.4-0.2c0.47,0.02,0.94,0.15,1.4,0.35c0.45,0.21,0.84,0.5,1.16,0.86c0.32,0.35,0.56,0.78,0.74,1.21
						c0.35,0.88,0.38,1.92-0.02,2.89c-0.4,0.97-1.16,1.68-2.09,2.04c-0.47,0.19-0.97,0.26-1.48,0.23c-0.51-0.02-1.04-0.15-1.54-0.38
						c-0.51-0.22-0.93-0.57-1.27-0.95c-0.34-0.39-0.6-0.83-0.76-1.29c-0.08-0.23-0.14-0.47-0.17-0.71
						c-0.03-0.24-0.04-0.49-0.02-0.74C26.64,99.79,26.78,99.3,27.03,98.84z"/>
					<path class="st43" d="M20.55,94.83c0.61-0.85,1.5-1.38,2.43-1.57c0.46-0.09,0.94-0.11,1.41-0.04c0.46,0.08,0.92,0.23,1.34,0.5
						c0.42,0.26,0.77,0.59,1.04,0.98c0.27,0.39,0.48,0.81,0.6,1.27c0.24,0.92,0.16,1.96-0.34,2.88c-0.5,0.92-1.32,1.55-2.29,1.79
						c-0.48,0.12-1,0.16-1.51,0.08c-0.51-0.08-1.03-0.26-1.5-0.56c-0.47-0.3-0.87-0.67-1.17-1.1c-0.3-0.43-0.51-0.89-0.61-1.38
						C19.74,96.7,19.93,95.68,20.55,94.83z"/>
					<path class="st43" d="M14.7,89.94c0.73-0.74,1.69-1.12,2.64-1.18c0.24-0.01,0.47-0.01,0.7,0.02c0.23,0.03,0.46,0.07,0.68,0.14
						c0.44,0.14,0.86,0.35,1.23,0.67c0.37,0.31,0.67,0.68,0.88,1.1c0.22,0.41,0.36,0.86,0.41,1.34c0.12,0.94-0.09,1.95-0.7,2.81
						c-0.61,0.85-1.51,1.37-2.51,1.49c-0.49,0.05-1.01,0.01-1.51-0.13c-0.5-0.16-0.99-0.41-1.43-0.77
						c-0.43-0.37-0.78-0.79-1.02-1.27c-0.12-0.23-0.21-0.48-0.28-0.72c-0.07-0.25-0.11-0.5-0.13-0.75
						C13.6,91.68,13.96,90.69,14.7,89.94z"/>
					<path class="st43" d="M9.79,84.12c0.87-0.59,1.89-0.78,2.81-0.66c0.47,0.05,0.91,0.19,1.32,0.4c0.41,0.2,0.77,0.5,1.08,0.85
						c0.15,0.18,0.28,0.38,0.39,0.58c0.11,0.2,0.2,0.41,0.27,0.63c0.13,0.44,0.2,0.9,0.17,1.37c-0.03,0.47-0.12,0.95-0.31,1.4
						c-0.19,0.45-0.46,0.88-0.83,1.26c-0.37,0.37-0.79,0.65-1.25,0.83c-0.46,0.18-0.96,0.26-1.46,0.23c-0.5-0.03-1.01-0.15-1.48-0.4
						c-0.24-0.12-0.47-0.26-0.69-0.43c-0.22-0.17-0.42-0.37-0.61-0.59c-0.38-0.44-0.63-0.94-0.8-1.45c-0.15-0.51-0.2-1.04-0.14-1.54
						C8.39,85.6,8.93,84.7,9.79,84.12z"/>
					<path class="st43" d="M6.28,77.37c0.98-0.36,2-0.3,2.88,0.02c0.22,0.08,0.42,0.18,0.62,0.29c0.2,0.11,0.39,0.24,0.56,0.38
						c0.33,0.29,0.64,0.63,0.84,1.04c0.1,0.21,0.2,0.41,0.26,0.63c0.06,0.22,0.09,0.44,0.12,0.66c0.05,0.44-0.01,0.91-0.12,1.36
						c-0.23,0.9-0.79,1.78-1.65,2.37c-0.87,0.59-1.89,0.76-2.88,0.5c-0.49-0.13-0.96-0.37-1.38-0.71c-0.22-0.17-0.4-0.37-0.58-0.58
						c-0.18-0.22-0.34-0.46-0.48-0.72c-0.26-0.53-0.43-1.08-0.47-1.62c-0.02-0.27-0.01-0.54,0.02-0.8c0.03-0.26,0.1-0.51,0.19-0.75
						C4.55,78.47,5.3,77.72,6.28,77.37z"/>
				</g>
				<g>
					<path class="st43" d="M4.67,69.94c0.52-0.04,1.03,0.03,1.49,0.18c0.47,0.14,0.9,0.36,1.28,0.63c0.36,0.27,0.71,0.59,0.95,0.95
						c0.12,0.18,0.24,0.37,0.33,0.57c0.09,0.2,0.15,0.41,0.2,0.63c0.05,0.22,0.08,0.44,0.07,0.66c0,0.22-0.01,0.44-0.05,0.66
						c-0.04,0.22-0.11,0.43-0.18,0.64c-0.08,0.21-0.17,0.42-0.29,0.62c-0.12,0.2-0.25,0.4-0.4,0.58c-0.15,0.18-0.31,0.36-0.49,0.52
						c-0.36,0.32-0.8,0.6-1.29,0.78c-0.49,0.18-1,0.25-1.49,0.21c-0.25-0.02-0.49-0.07-0.74-0.14c-0.24-0.08-0.47-0.18-0.69-0.3
						c-0.22-0.13-0.43-0.28-0.63-0.46c-0.2-0.18-0.37-0.38-0.53-0.6c-0.16-0.22-0.31-0.46-0.42-0.73c-0.11-0.26-0.21-0.54-0.27-0.84
						c-0.07-0.29-0.09-0.59-0.1-0.87c0-0.29,0.01-0.57,0.08-0.84c0.12-0.54,0.31-1.03,0.62-1.45c0.3-0.42,0.68-0.75,1.11-0.99
						C3.66,70.12,4.15,69.97,4.67,69.94z"/>
					<path class="st43" d="M5.21,62.35c0.51,0.11,0.97,0.32,1.38,0.59c0.41,0.27,0.76,0.6,1.04,0.97c0.28,0.36,0.51,0.76,0.64,1.18
						c0.07,0.21,0.13,0.42,0.15,0.64c0.03,0.22,0.03,0.44,0.02,0.66c-0.01,0.23-0.05,0.44-0.12,0.66c-0.06,0.21-0.13,0.42-0.23,0.61
						c-0.21,0.39-0.47,0.76-0.81,1.08c-0.34,0.32-0.73,0.6-1.17,0.81c-0.44,0.21-0.93,0.35-1.45,0.39
						c-0.52,0.04-1.03-0.03-1.49-0.21c-0.46-0.18-0.9-0.46-1.24-0.83c-0.35-0.37-0.65-0.83-0.82-1.35c-0.09-0.26-0.16-0.53-0.2-0.82
						c-0.03-0.28-0.04-0.58-0.02-0.88c0.01-0.3,0.07-0.59,0.15-0.87c0.08-0.28,0.18-0.54,0.31-0.78c0.27-0.49,0.6-0.9,1.01-1.22
						c0.41-0.31,0.86-0.53,1.35-0.64C4.18,62.24,4.7,62.24,5.21,62.35z"/>
					<path class="st43" d="M7.83,55.21c0.93,0.49,1.58,1.3,1.92,2.15c0.18,0.43,0.27,0.88,0.29,1.32c0.03,0.45-0.05,0.88-0.2,1.32
						c-0.32,0.85-0.95,1.51-1.77,1.94c-0.42,0.21-0.86,0.37-1.35,0.45c-0.48,0.08-0.99,0.07-1.51-0.04s-0.97-0.32-1.37-0.62
						c-0.39-0.3-0.73-0.69-0.96-1.14c-0.47-0.9-0.58-2.08-0.15-3.2c0.2-0.57,0.52-1.05,0.89-1.44c0.38-0.39,0.83-0.69,1.29-0.88
						C5.86,54.68,6.9,54.73,7.83,55.21z"/>
					<path class="st43" d="M12.1,48.91c0.8,0.68,1.25,1.6,1.39,2.53c0.04,0.23,0.04,0.46,0.04,0.69c0,0.23-0.03,0.46-0.08,0.68
						c-0.1,0.44-0.26,0.88-0.53,1.26c-0.14,0.19-0.28,0.37-0.44,0.53c-0.16,0.16-0.35,0.3-0.53,0.42c-0.37,0.25-0.81,0.42-1.26,0.53
						c-0.9,0.21-1.94,0.13-2.86-0.35c-0.93-0.49-1.56-1.31-1.79-2.31c-0.12-0.5-0.12-1.02-0.02-1.56c0.05-0.27,0.13-0.53,0.24-0.79
						c0.11-0.26,0.24-0.52,0.41-0.75c0.66-0.96,1.64-1.56,2.64-1.7C10.29,47.95,11.3,48.24,12.1,48.91z"/>
					<path class="st43" d="M17.52,43.56c0.67,0.81,0.95,1.8,0.91,2.74c-0.02,0.48-0.12,0.93-0.3,1.36c-0.09,0.21-0.2,0.42-0.33,0.61
						c-0.07,0.1-0.14,0.19-0.21,0.28c-0.07,0.09-0.15,0.18-0.24,0.26c-0.17,0.17-0.36,0.32-0.55,0.44c-0.19,0.13-0.4,0.23-0.61,0.32
						c-0.43,0.17-0.88,0.26-1.36,0.27c-0.24,0.01-0.48-0.01-0.71-0.05c-0.24-0.03-0.47-0.09-0.7-0.17
						c-0.46-0.15-0.91-0.39-1.31-0.73c-0.4-0.34-0.71-0.74-0.93-1.19c-0.11-0.22-0.19-0.46-0.25-0.7c-0.06-0.24-0.09-0.49-0.09-0.74
						c-0.01-0.5,0.08-1.02,0.29-1.51c0.1-0.24,0.23-0.49,0.38-0.72c0.16-0.23,0.34-0.44,0.54-0.64c0.1-0.1,0.21-0.2,0.31-0.28
						c0.11-0.09,0.22-0.17,0.34-0.24c0.23-0.15,0.47-0.27,0.71-0.37c0.49-0.19,1.01-0.27,1.51-0.26
						C15.92,42.31,16.86,42.76,17.52,43.56z"/>
				</g>
				<g>
					<path class="st43" d="M23.72,39.13c0.55,0.89,0.69,1.92,0.51,2.85c-0.09,0.47-0.26,0.91-0.51,1.31
						c-0.24,0.4-0.57,0.75-0.97,1.04c-0.8,0.57-1.75,0.76-2.69,0.64c-0.47-0.06-0.93-0.21-1.37-0.45c-0.43-0.23-0.83-0.54-1.17-0.95
						c-0.33-0.4-0.57-0.86-0.71-1.33c-0.13-0.47-0.16-0.97-0.09-1.47c0.14-0.99,0.7-1.95,1.62-2.61c0.46-0.33,0.96-0.54,1.47-0.66
						c0.51-0.11,1.03-0.11,1.51-0.02C22.31,37.66,23.17,38.24,23.72,39.13z"/>
					<path class="st43" d="M30.43,35.5c0.45,0.95,0.46,1.97,0.17,2.89c-0.15,0.46-0.37,0.88-0.67,1.25
						c-0.3,0.37-0.68,0.67-1.11,0.91c-0.43,0.24-0.9,0.38-1.37,0.42c-0.24,0.02-0.48,0.02-0.71,0c-0.23-0.02-0.47-0.06-0.7-0.12
						c-0.46-0.13-0.9-0.34-1.3-0.63c-0.4-0.29-0.75-0.65-1.02-1.1c-0.28-0.44-0.45-0.93-0.52-1.42c-0.07-0.49-0.03-0.99,0.1-1.46
						c0.07-0.24,0.16-0.47,0.27-0.7c0.12-0.22,0.26-0.43,0.42-0.63c0.33-0.4,0.74-0.75,1.23-1.02c0.48-0.28,1.01-0.42,1.52-0.46
						c0.52-0.04,1.02,0.01,1.49,0.16C29.19,33.87,29.99,34.56,30.43,35.5z"/>
					<path class="st43" d="M37.48,32.6c0.35,0.99,0.27,2.03-0.11,2.9c-0.19,0.44-0.47,0.83-0.81,1.16c-0.34,0.33-0.74,0.62-1.2,0.81
						c-0.46,0.19-0.95,0.27-1.42,0.26c-0.47,0-0.94-0.09-1.39-0.26c-0.89-0.35-1.67-1.03-2.12-1.98c-0.45-0.95-0.46-1.98-0.09-2.9
						c0.18-0.46,0.46-0.89,0.82-1.27c0.36-0.36,0.81-0.66,1.32-0.87c0.51-0.21,1.04-0.32,1.55-0.31c0.52,0.01,1.01,0.12,1.47,0.32
						C36.41,30.88,37.13,31.62,37.48,32.6z"/>
					<path class="st43" d="M44.77,30.37c0.26,1.01,0.09,2.04-0.37,2.86c-0.12,0.21-0.25,0.4-0.4,0.59c-0.15,0.19-0.32,0.36-0.5,0.51
						c-0.37,0.31-0.8,0.55-1.28,0.69c-0.49,0.14-0.97,0.19-1.44,0.15c-0.47-0.04-0.94-0.18-1.37-0.4c-0.43-0.22-0.82-0.52-1.15-0.88
						c-0.33-0.36-0.6-0.79-0.77-1.29s-0.24-1-0.21-1.5c0.03-0.5,0.17-0.97,0.4-1.4c0.23-0.44,0.54-0.83,0.94-1.17
						c0.39-0.33,0.86-0.61,1.38-0.75c0.53-0.16,1.06-0.2,1.57-0.15c0.25,0.03,0.5,0.07,0.74,0.15c0.24,0.07,0.47,0.17,0.68,0.29
						C43.85,28.55,44.51,29.36,44.77,30.37z"/>
					<path class="st43" d="M52.22,28.73c0.18,1.03-0.07,2.04-0.6,2.84c-0.27,0.4-0.6,0.75-1,1.02c-0.2,0.14-0.41,0.25-0.63,0.35
						c-0.22,0.1-0.46,0.18-0.7,0.24c-0.49,0.11-0.99,0.11-1.46,0.02c-0.24-0.04-0.47-0.11-0.69-0.2c-0.22-0.09-0.44-0.19-0.64-0.31
						c-0.81-0.5-1.46-1.31-1.73-2.32c-0.27-1.01-0.09-2.04,0.44-2.88c0.13-0.21,0.28-0.41,0.45-0.59c0.17-0.18,0.36-0.34,0.57-0.49
						c0.42-0.29,0.9-0.51,1.44-0.63c0.27-0.06,0.53-0.09,0.8-0.1c0.26,0,0.52,0.02,0.77,0.07c0.5,0.1,0.97,0.29,1.38,0.56
						C51.45,26.85,52.04,27.7,52.22,28.73z"/>
				</g>
				<g>
					<path class="st43" d="M59.78,27.68c0.11,1.04-0.22,2.03-0.81,2.77c-0.59,0.76-1.45,1.31-2.45,1.44
						c-0.25,0.03-0.5,0.04-0.75,0.02c-0.24-0.01-0.48-0.05-0.71-0.11c-0.46-0.12-0.9-0.33-1.29-0.61c-0.78-0.57-1.36-1.44-1.54-2.46
						c-0.19-1.03,0.07-2.03,0.66-2.82c0.29-0.39,0.67-0.74,1.1-1c0.22-0.13,0.45-0.25,0.7-0.34c0.25-0.09,0.51-0.15,0.78-0.18
						c1.08-0.14,2.12,0.14,2.9,0.75C59.14,25.74,59.67,26.64,59.78,27.68z"/>
					<path class="st43" d="M67.38,27.15c0.03,1.05-0.36,2.01-1,2.72c-0.32,0.36-0.71,0.65-1.14,0.86c-0.22,0.1-0.44,0.19-0.68,0.26
						c-0.24,0.07-0.48,0.11-0.74,0.13c-1.01,0.08-1.97-0.3-2.7-0.9c-0.73-0.61-1.25-1.51-1.36-2.55c-0.11-1.04,0.22-2.03,0.86-2.78
						c0.64-0.77,1.59-1.25,2.68-1.33c0.27-0.02,0.54-0.01,0.8,0.02c0.26,0.03,0.51,0.09,0.75,0.18c0.48,0.17,0.92,0.43,1.28,0.76
						C66.89,25.18,67.35,26.11,67.38,27.15z"/>
					<path class="st43" d="M75.01,27.15c-0.04,1.05-0.49,1.96-1.18,2.65c-0.69,0.68-1.62,1.09-2.63,1.07
						c-1.02,0.02-1.94-0.4-2.63-1.07c-0.69-0.68-1.14-1.6-1.18-2.65c-0.04-1.04,0.36-2.02,1.05-2.71c0.69-0.7,1.67-1.13,2.76-1.15
						c1.09,0.02,2.07,0.45,2.76,1.15C74.65,25.13,75.05,26.11,75.01,27.15z"/>
					<path class="st43" d="M82.62,27.68c-0.11,1.04-0.63,1.94-1.36,2.55c-0.73,0.6-1.68,0.98-2.7,0.9c-0.25-0.02-0.5-0.06-0.74-0.13
						c-0.24-0.07-0.46-0.16-0.68-0.26c-0.43-0.21-0.82-0.5-1.14-0.86c-0.64-0.71-1.03-1.68-1-2.72c0.03-1.05,0.5-1.97,1.23-2.63
						c0.37-0.33,0.8-0.59,1.28-0.76c0.24-0.09,0.49-0.15,0.75-0.18c0.26-0.03,0.53-0.04,0.8-0.02c1.09,0.08,2.04,0.56,2.68,1.33
						C82.4,25.65,82.73,26.64,82.62,27.68z"/>
					<path class="st43" d="M90.17,28.73c-0.18,1.03-0.77,1.89-1.54,2.46c-0.39,0.28-0.83,0.49-1.29,0.61
						c-0.23,0.06-0.47,0.1-0.71,0.11c-0.24,0.01-0.49,0.01-0.75-0.02c-1.01-0.13-1.86-0.68-2.45-1.44
						c-0.59-0.75-0.91-1.73-0.81-2.77c0.11-1.04,0.63-1.94,1.42-2.55c0.78-0.6,1.81-0.88,2.9-0.75c0.27,0.04,0.53,0.09,0.78,0.18
						c0.25,0.09,0.48,0.2,0.7,0.34c0.44,0.26,0.81,0.61,1.1,1C90.1,26.7,90.36,27.7,90.17,28.73z"/>
				</g>
				<g>
					<path class="st43" d="M97.62,30.37c-0.27,1.01-0.91,1.82-1.73,2.32c-0.2,0.13-0.42,0.23-0.64,0.31
						c-0.22,0.09-0.45,0.16-0.69,0.2c-0.47,0.09-0.97,0.09-1.46-0.02c-0.25-0.06-0.48-0.14-0.7-0.24c-0.22-0.1-0.44-0.21-0.63-0.35
						c-0.39-0.27-0.73-0.62-1-1.02c-0.53-0.8-0.78-1.81-0.6-2.84c0.18-1.03,0.77-1.88,1.6-2.42c0.41-0.27,0.88-0.46,1.38-0.56
						c0.25-0.05,0.51-0.08,0.77-0.07c0.26,0.01,0.53,0.04,0.8,0.1c0.53,0.12,1.02,0.34,1.44,0.63c0.21,0.15,0.4,0.31,0.57,0.49
						c0.17,0.18,0.32,0.38,0.45,0.59C97.71,28.33,97.89,29.36,97.62,30.37z"/>
					<path class="st43" d="M104.91,32.6c-0.18,0.49-0.44,0.93-0.77,1.29c-0.33,0.36-0.72,0.67-1.15,0.88
						c-0.43,0.22-0.89,0.36-1.37,0.4c-0.48,0.05-0.96-0.01-1.44-0.15c-0.48-0.14-0.91-0.38-1.28-0.69c-0.18-0.15-0.35-0.33-0.5-0.51
						c-0.15-0.19-0.29-0.39-0.4-0.59c-0.47-0.83-0.64-1.85-0.37-2.86c0.26-1.01,0.92-1.82,1.79-2.3c0.22-0.12,0.45-0.22,0.68-0.29
						c0.24-0.07,0.49-0.12,0.74-0.15c0.51-0.05,1.04,0,1.57,0.15c0.53,0.15,0.99,0.42,1.38,0.75c0.39,0.33,0.71,0.73,0.94,1.17
						c0.23,0.44,0.37,0.91,0.4,1.4C105.15,31.6,105.09,32.11,104.91,32.6z"/>
					<path class="st43" d="M111.96,35.5c-0.45,0.95-1.23,1.63-2.12,1.98c-0.44,0.17-0.91,0.26-1.39,0.26
						c-0.48,0.01-0.96-0.07-1.42-0.26c-0.46-0.19-0.86-0.48-1.2-0.81c-0.34-0.33-0.61-0.73-0.81-1.16c-0.39-0.87-0.46-1.91-0.11-2.9
						c0.35-0.99,1.07-1.73,1.98-2.12c0.45-0.2,0.95-0.31,1.47-0.32c0.51-0.01,1.04,0.1,1.55,0.31c0.51,0.21,0.96,0.51,1.32,0.87
						c0.36,0.37,0.64,0.8,0.82,1.27C112.42,33.52,112.41,34.56,111.96,35.5z"/>
					<path class="st43" d="M118.67,39.13c-0.28,0.44-0.63,0.81-1.02,1.1c-0.4,0.29-0.84,0.5-1.3,0.63c-0.23,0.06-0.46,0.1-0.7,0.12
						c-0.24,0.02-0.48,0.03-0.71,0c-0.47-0.04-0.94-0.18-1.37-0.42c-0.43-0.25-0.81-0.55-1.11-0.91c-0.3-0.37-0.53-0.79-0.67-1.25
						c-0.29-0.92-0.27-1.94,0.17-2.89c0.44-0.94,1.25-1.63,2.19-1.92c0.47-0.15,0.98-0.2,1.49-0.16c0.52,0.04,1.04,0.18,1.52,0.46
						c0.49,0.27,0.9,0.62,1.23,1.02c0.16,0.2,0.3,0.41,0.42,0.63c0.11,0.23,0.21,0.46,0.27,0.7c0.13,0.48,0.17,0.98,0.1,1.46
						C119.12,38.2,118.95,38.68,118.67,39.13z"/>
					<path class="st43" d="M124.87,43.56c-0.34,0.4-0.73,0.72-1.17,0.95c-0.43,0.23-0.9,0.38-1.37,0.45
						c-0.94,0.13-1.89-0.07-2.69-0.64c-0.4-0.29-0.73-0.63-0.97-1.04c-0.25-0.4-0.42-0.84-0.51-1.31c-0.18-0.93-0.04-1.96,0.51-2.85
						c0.55-0.89,1.42-1.47,2.4-1.66c0.49-0.09,1-0.08,1.51,0.02c0.51,0.12,1.01,0.33,1.47,0.66c0.92,0.66,1.48,1.62,1.62,2.61
						c0.07,0.5,0.04,1-0.09,1.47C125.44,42.71,125.2,43.16,124.87,43.56z"/>
				</g>
				<g>
					<path class="st43" d="M130.29,48.91c-0.4,0.34-0.85,0.58-1.31,0.73c-0.23,0.08-0.47,0.13-0.7,0.17
						c-0.24,0.03-0.48,0.05-0.71,0.05c-0.47-0.01-0.92-0.11-1.36-0.27c-0.21-0.09-0.42-0.19-0.61-0.32
						c-0.2-0.12-0.38-0.27-0.55-0.44c-0.09-0.08-0.16-0.17-0.24-0.26c-0.08-0.09-0.15-0.18-0.21-0.28c-0.13-0.19-0.24-0.4-0.33-0.61
						c-0.18-0.43-0.28-0.88-0.3-1.36c-0.04-0.94,0.24-1.94,0.91-2.74c0.67-0.8,1.61-1.26,2.61-1.3c0.5-0.01,1.01,0.07,1.51,0.26
						c0.24,0.1,0.48,0.22,0.71,0.37c0.12,0.07,0.23,0.15,0.34,0.24c0.11,0.09,0.21,0.18,0.31,0.28c0.2,0.2,0.38,0.42,0.54,0.64
						c0.15,0.23,0.28,0.47,0.38,0.72c0.21,0.49,0.29,1.01,0.29,1.51c-0.01,0.25-0.03,0.5-0.09,0.74c-0.06,0.24-0.14,0.48-0.25,0.7
						C131,48.17,130.69,48.58,130.29,48.91z"/>
					<path class="st43" d="M134.57,55.21c-0.92,0.48-1.97,0.56-2.86,0.35c-0.45-0.11-0.89-0.28-1.26-0.53
						c-0.18-0.13-0.37-0.26-0.53-0.42c-0.16-0.16-0.31-0.34-0.44-0.53c-0.27-0.38-0.43-0.82-0.53-1.26
						c-0.05-0.22-0.07-0.45-0.08-0.68c0-0.23,0.01-0.46,0.04-0.69c0.14-0.93,0.59-1.85,1.39-2.53c0.8-0.68,1.81-0.96,2.81-0.8
						c1,0.14,1.97,0.74,2.64,1.7c0.17,0.24,0.3,0.5,0.41,0.75c0.11,0.26,0.19,0.52,0.24,0.79c0.1,0.53,0.1,1.06-0.02,1.56
						C136.13,53.91,135.5,54.73,134.57,55.21z"/>
					<path class="st43" d="M137.19,62.35c-0.51,0.11-1.02,0.11-1.51,0.04c-0.49-0.08-0.93-0.23-1.35-0.45
						c-0.83-0.43-1.45-1.09-1.77-1.94c-0.15-0.43-0.23-0.87-0.2-1.32c0.02-0.44,0.11-0.89,0.29-1.32c0.34-0.86,0.99-1.67,1.92-2.15
						c0.92-0.49,1.97-0.54,2.92-0.16c0.46,0.19,0.91,0.49,1.29,0.88c0.37,0.4,0.7,0.88,0.89,1.44c0.42,1.12,0.32,2.3-0.15,3.2
						c-0.23,0.45-0.57,0.84-0.96,1.14C138.16,62.03,137.7,62.24,137.19,62.35z"/>
					<path class="st43" d="M137.73,69.94c-0.52-0.04-1.01-0.18-1.45-0.39c-0.44-0.21-0.83-0.49-1.17-0.81
						c-0.34-0.32-0.6-0.68-0.81-1.08c-0.1-0.2-0.18-0.4-0.23-0.61c-0.06-0.21-0.1-0.43-0.12-0.66c-0.01-0.23-0.01-0.45,0.02-0.66
						c0.03-0.22,0.08-0.43,0.15-0.64c0.13-0.42,0.36-0.82,0.64-1.18c0.28-0.36,0.63-0.69,1.04-0.97c0.41-0.27,0.87-0.48,1.38-0.59
						c0.51-0.11,1.03-0.11,1.51,0c0.48,0.11,0.94,0.33,1.35,0.64c0.41,0.31,0.74,0.73,1.01,1.22c0.13,0.24,0.23,0.51,0.31,0.78
						c0.08,0.28,0.14,0.57,0.15,0.87c0.02,0.3,0.01,0.59-0.02,0.88c-0.04,0.28-0.11,0.56-0.2,0.82c-0.17,0.52-0.47,0.98-0.82,1.35
						c-0.35,0.37-0.78,0.65-1.24,0.83C138.75,69.9,138.25,69.97,137.73,69.94z"/>
					<path class="st43" d="M136.11,77.37c-0.49-0.18-0.92-0.45-1.29-0.78c-0.18-0.16-0.35-0.34-0.49-0.52
						c-0.15-0.19-0.29-0.38-0.4-0.58c-0.12-0.2-0.21-0.41-0.29-0.62c-0.08-0.21-0.14-0.43-0.18-0.64c-0.04-0.22-0.05-0.43-0.05-0.66
						c0-0.22,0.02-0.44,0.07-0.66c0.06-0.22,0.11-0.43,0.2-0.63c0.09-0.2,0.21-0.39,0.33-0.57c0.24-0.36,0.58-0.68,0.95-0.95
						c0.37-0.27,0.81-0.49,1.28-0.63c0.46-0.14,0.97-0.21,1.49-0.18c0.52,0.04,1.01,0.18,1.45,0.42c0.43,0.24,0.81,0.58,1.11,0.99
						c0.31,0.42,0.5,0.91,0.62,1.45c0.06,0.27,0.08,0.55,0.08,0.84c-0.01,0.29-0.02,0.58-0.1,0.87c-0.07,0.29-0.16,0.57-0.27,0.84
						c-0.11,0.26-0.26,0.5-0.42,0.73c-0.16,0.22-0.34,0.43-0.53,0.6c-0.2,0.18-0.41,0.33-0.63,0.46c-0.22,0.13-0.45,0.23-0.69,0.3
						c-0.24,0.07-0.49,0.12-0.74,0.14C137.11,77.62,136.6,77.55,136.11,77.37z"/>
				</g>
				<g>
					<path class="st43" d="M132.6,84.12c-0.86-0.59-1.42-1.47-1.65-2.37c-0.11-0.45-0.17-0.92-0.12-1.36
						c0.03-0.22,0.06-0.45,0.12-0.66c0.06-0.22,0.15-0.43,0.26-0.63c0.2-0.41,0.51-0.75,0.84-1.04c0.17-0.14,0.36-0.27,0.56-0.38
						c0.2-0.11,0.4-0.21,0.62-0.29c0.88-0.31,1.9-0.38,2.88-0.02c0.98,0.36,1.73,1.1,2.07,2.06c0.09,0.24,0.15,0.49,0.19,0.75
						c0.03,0.26,0.04,0.53,0.02,0.8c-0.03,0.55-0.2,1.09-0.47,1.62c-0.13,0.26-0.3,0.5-0.48,0.72c-0.18,0.22-0.37,0.42-0.58,0.58
						c-0.43,0.33-0.89,0.58-1.38,0.71C134.49,84.88,133.47,84.71,132.6,84.12z"/>
					<path class="st43" d="M127.7,89.94c-0.37-0.37-0.64-0.8-0.83-1.26c-0.19-0.45-0.29-0.92-0.31-1.4
						c-0.03-0.47,0.04-0.93,0.17-1.37c0.07-0.22,0.16-0.43,0.27-0.63c0.11-0.2,0.24-0.4,0.39-0.58c0.31-0.36,0.67-0.65,1.08-0.85
						c0.4-0.21,0.85-0.34,1.32-0.4c0.92-0.12,1.94,0.08,2.81,0.66c0.87,0.59,1.4,1.48,1.52,2.49c0.05,0.5,0.01,1.02-0.14,1.54
						c-0.16,0.5-0.42,1.01-0.8,1.45c-0.19,0.22-0.39,0.42-0.61,0.59c-0.22,0.17-0.45,0.31-0.69,0.43c-0.47,0.24-0.99,0.37-1.48,0.4
						c-0.5,0.03-1-0.05-1.46-0.23C128.49,90.6,128.07,90.32,127.7,89.94z"/>
					<path class="st43" d="M121.85,94.83c-0.61-0.85-0.82-1.87-0.7-2.81c0.06-0.47,0.19-0.93,0.41-1.34
						c0.21-0.42,0.51-0.79,0.88-1.1c0.37-0.31,0.8-0.53,1.23-0.67c0.22-0.07,0.45-0.12,0.68-0.14c0.23-0.03,0.46-0.03,0.7-0.02
						c0.94,0.06,1.9,0.44,2.64,1.18c0.74,0.74,1.09,1.73,1.02,2.73c-0.02,0.25-0.06,0.5-0.13,0.75c-0.07,0.24-0.17,0.49-0.28,0.72
						c-0.24,0.47-0.58,0.9-1.02,1.27c-0.43,0.37-0.93,0.61-1.43,0.77c-0.51,0.14-1.02,0.19-1.51,0.13
						C123.36,96.2,122.46,95.68,121.85,94.83z"/>
					<path class="st43" d="M115.37,98.84c-0.5-0.92-0.58-1.96-0.34-2.88c0.12-0.46,0.33-0.88,0.6-1.27
						c0.27-0.39,0.63-0.71,1.04-0.98c0.42-0.26,0.88-0.42,1.34-0.5c0.46-0.08,0.94-0.06,1.41,0.04c0.93,0.19,1.82,0.72,2.43,1.57
						c0.61,0.85,0.81,1.87,0.6,2.85c-0.1,0.49-0.31,0.96-0.61,1.38c-0.3,0.43-0.69,0.8-1.17,1.1c-0.47,0.3-0.99,0.47-1.5,0.56
						c-0.51,0.08-1.03,0.04-1.51-0.08C116.69,100.39,115.86,99.76,115.37,98.84z"/>
					<path class="st43" d="M108.47,102.09c-0.4-0.97-0.37-2.01-0.02-2.89c0.18-0.44,0.42-0.86,0.74-1.21
						c0.32-0.36,0.71-0.65,1.16-0.86c0.46-0.2,0.92-0.33,1.4-0.35c0.47-0.02,0.95,0.05,1.4,0.2c0.23,0.08,0.45,0.18,0.66,0.29
						c0.21,0.12,0.41,0.25,0.6,0.4c0.38,0.31,0.71,0.7,0.96,1.16c0.25,0.46,0.39,0.95,0.43,1.45c0.02,0.25,0.02,0.5-0.02,0.74
						c-0.03,0.24-0.09,0.48-0.17,0.71c-0.16,0.47-0.42,0.91-0.76,1.29c-0.34,0.38-0.77,0.73-1.27,0.95
						c-0.5,0.23-1.03,0.35-1.54,0.38c-0.51,0.02-1.01-0.05-1.48-0.23C109.63,103.77,108.87,103.06,108.47,102.09z"/>
				</g>
				<g>
					<path class="st43" d="M101.29,104.66c-0.31-1-0.17-2.02,0.25-2.89c0.21-0.43,0.5-0.82,0.86-1.14c0.18-0.16,0.37-0.3,0.58-0.42
						c0.1-0.06,0.21-0.12,0.32-0.17c0.11-0.05,0.22-0.1,0.34-0.15c0.94-0.35,1.94-0.26,2.82,0.13c0.87,0.38,1.62,1.1,2.02,2.07
						c0.4,0.97,0.36,2.01-0.05,2.92c-0.41,0.9-1.2,1.64-2.24,2.02c-0.13,0.05-0.26,0.09-0.39,0.12c-0.13,0.03-0.26,0.05-0.39,0.07
						c-0.26,0.03-0.52,0.04-0.78,0.03c-0.51-0.03-1-0.16-1.45-0.38C102.29,106.45,101.6,105.65,101.29,104.66z"/>
					<path class="st43" d="M93.91,106.58c-0.22-1.02-0.01-2.04,0.49-2.86c0.25-0.41,0.57-0.76,0.96-1.05
						c0.38-0.3,0.82-0.52,1.31-0.65c0.49-0.13,0.98-0.14,1.46-0.07c0.47,0.06,0.93,0.22,1.35,0.45c0.83,0.47,1.52,1.26,1.83,2.26
						c0.31,1,0.17,2.03-0.32,2.89c-0.24,0.43-0.58,0.82-0.98,1.14c-0.41,0.31-0.88,0.54-1.41,0.68c-0.53,0.14-1.06,0.17-1.57,0.1
						c-0.51-0.07-0.98-0.26-1.41-0.51C94.76,108.44,94.13,107.61,93.91,106.58z"/>
					<path class="st43" d="M86.41,107.93c-0.07-0.52-0.04-1.03,0.09-1.5c0.06-0.24,0.15-0.46,0.25-0.68
						c0.1-0.22,0.23-0.43,0.37-0.63c0.56-0.79,1.4-1.35,2.4-1.51c0.99-0.19,1.97,0.05,2.77,0.59c0.4,0.28,0.75,0.61,1.03,1.01
						c0.28,0.4,0.49,0.86,0.6,1.38c0.11,0.51,0.11,1.02,0.02,1.51c-0.1,0.48-0.29,0.95-0.57,1.35c-0.56,0.81-1.45,1.41-2.52,1.62
						c-1.08,0.18-2.13-0.08-2.93-0.65c-0.2-0.14-0.39-0.3-0.55-0.48c-0.17-0.18-0.32-0.38-0.45-0.59
						C86.65,108.92,86.48,108.45,86.41,107.93z"/>
					<path class="st43" d="M78.82,108.71c-0.07-1.04,0.29-2.02,0.9-2.75c0.15-0.18,0.33-0.35,0.51-0.5
						c0.09-0.07,0.19-0.15,0.29-0.21c0.1-0.07,0.2-0.13,0.31-0.19c0.42-0.24,0.89-0.39,1.4-0.44c0.51-0.05,1,0.01,1.46,0.15
						c0.46,0.13,0.89,0.36,1.27,0.65c0.75,0.59,1.31,1.48,1.45,2.51c0.15,1.04-0.15,2.03-0.76,2.8c-0.31,0.39-0.69,0.72-1.14,0.97
						c-0.45,0.25-0.95,0.4-1.49,0.46c-0.54,0.06-1.07,0-1.56-0.14c-0.12-0.04-0.24-0.08-0.36-0.12c-0.12-0.05-0.23-0.11-0.34-0.17
						c-0.22-0.12-0.43-0.26-0.62-0.42C79.38,110.67,78.89,109.76,78.82,108.71z"/>
					<path class="st43" d="M71.2,108.98c0-1.05,0.42-2,1.09-2.7c0.33-0.35,0.73-0.63,1.17-0.83c0.44-0.2,0.92-0.31,1.43-0.33
						c1.02-0.05,1.95,0.34,2.67,0.99c0.71,0.64,1.2,1.55,1.27,2.59c0.07,1.04-0.29,2.02-0.96,2.76c-0.67,0.72-1.63,1.18-2.72,1.23
						c-0.54,0.03-1.07-0.07-1.54-0.26c-0.47-0.18-0.9-0.46-1.26-0.79C71.63,110.97,71.2,110.03,71.2,108.98z"/>
				</g>
			</g>
		</g>
	</g>
	<path class="st44" d="M71.2,105.76c-16.74,0-32.51-3.81-44.41-10.73c-5.88-3.42-10.51-7.43-13.77-11.91
		c-3.46-4.75-5.21-9.83-5.21-15.09s1.75-10.33,5.21-15.09c3.26-4.48,7.89-8.49,13.77-11.91C38.68,34.11,54.46,30.3,71.2,30.3
		c16.74,0,32.51,3.81,44.41,10.73c5.88,3.42,10.51,7.43,13.77,11.91c3.46,4.75,5.21,9.83,5.21,15.09s-1.75,10.33-5.21,15.09
		c-3.26,4.48-7.89,8.49-13.77,11.91C103.71,101.95,87.94,105.76,71.2,105.76z"/>
	<ellipse class="st2" cx="71.2" cy="68.03" rx="61.37" ry="35.72"/>
	<path id="SVGID_x5F_2_x5F_" class="st45" d="M128.06,68.03c0,18.28-25.46,33.09-56.86,33.09S14.34,86.31,14.34,68.03
		S39.79,34.94,71.2,34.94S128.06,49.75,128.06,68.03z"/>
	<text>	<textPath  xlink:href="#SVGID_x5F_2_x5F_" startOffset="-33.1767%">
<tspan  style="font-family:'HelveticaNeueLTCom-MdEx'; font-size:6.8539px; letter-spacing:100;">Pastelera y ms</tspan>	</textPath>
</text>
	<g>
		<g>
			<path class="st46" d="M42.64,76.57c0,0,1.75,7.09,4.43,7.51c0,0,0.87,0.6,2.75-3.15c1.88-3.76,3.76-6.44,4.43-6.84
				c-0.94,4.56-1.88,6.98-1.74,9.79s0.54,4.56,2.82,5.63c0.4,0,0.54-0.4-0.13-0.94c-0.67-0.54-0.94-1.07-0.94-2.28
				c0-1.21,0.27-5.9,1.21-8.99c0.94-3.09,2.15-6.31,2.68-6.44c0.54-0.13,1.34,1.21,1.74,1.34c0.4,0.13,0.8-0.27,0.4-0.94
				s-0.94-2.15-2.41-2.15s-3.22,0.8-4.83,2.55c-1.61,1.74-4.83,7.78-4.83,7.78s-1.61,2.68-1.88,2.68s-2.15-4.02-2.55-6.98
				c-0.4-2.95-0.4-4.02-0.94-4.43c-0.54-0.4-0.94-0.4-0.94,0s-1.88,8.18-2.82,11.4c-0.94,3.22-1.48,4.7-1.34,5.1
				s1.34,1.48,1.48,1.34s0.4-1.34,1.07-3.76C40.96,82.41,42.64,76.57,42.64,76.57z"/>
			<path class="st46" d="M62.89,79.25c0,0,0.54-0.94,0.8-1.07s0.2-0.07,0.74,0.34c0.54,0.4,0.8,0.67,0.67,0.94s-1.48,2.68-1.88,3.76
				c-0.4,1.07-0.54,2.55-0.13,2.68s2.43-2.23,3.83-4.56c1.4-2.34,1.43-2.67,1.43-2.67s-1.17-0.27-1.08-1.02
				c0.09-0.74,1.34-1.58,2.14-1.6c0.8-0.02,0.62,0.95,0.31,1.38c-0.32,0.43-0.27,0.49-0.27,0.49s0.41,0.19,0.54,0.22
				s2.35-0.07,2.53-0.02c0.17,0.04,0.28,0.21-0.2,1.15s-2.7,4.14-2.51,5.05s1.18,0.88,2-0.11c0.82-0.99,4.26-6.19,4.41-6.21
				s1.5,0.67,1.39,1.09c-0.11,0.43-2.57,5.01-2.45,5.81s1.5,1.35,2.79-0.01c1.3-1.36,3.12-4.65,4.04-5.6
				c0.92-0.95,2.77-1.62,3.96-0.81c1.19,0.81,0.16,5.43-4.2,5.88c0.16,0.99,0.69,1.67,1.74,1.46c1.05-0.21,4.32-5.14,4.32-5.14
				l2.81-4.85c0,0,2.52-3.95,2.96-4.02c0.44-0.07,1.32,0.9,1.27,1.14c-0.05,0.24-2.18,3-3.92,5.85c-1.74,2.85-3.11,5.84-2.02,6.26
				s2.95-2.04,4.42-3.93c1.47-1.89,3.42-3.53,4.93-3.08s1.54,0.94,1.75,0.86c0.21-0.08,0.8-1.11,1.04-1.02
				c0.24,0.1,1.2,0.76,1.14,1.18c-0.07,0.41-1.44,2.37-2.04,4.01c-0.6,1.64-0.6,2.39-0.26,2.52c0.34,0.13,1.74-0.71,3.08-2.85
				c1.34-2.14,1.57-2.33,1.72-2.34s0.47-0.1,0,0.63c-0.47,0.73-3,4.95-4.9,5.91c-1.9,0.96-1.7-2.43-1.9-2.46
				c-0.2-0.02-1.87,2.65-3.9,2.52c-2.03-0.13-1.33-2.94-1.31-3.48c0.02-0.55-1.17,0.51-1.82,1.53s-1.44,1.69-2.94,1.63
				c-1.5-0.07-1.14-3.13-1.14-3.13s-2.18,4.19-5.16,3.89c-1.82-0.19-1.87-3.64-1.87-3.64s-2.33,3.92-4.93,3.65
				c-2.61-0.27-1.28-4.35-1.28-4.35s-1.89,3.58-4.53,3.66c-2.64,0.08,0.37-5.95,1.06-6.91c0.69-0.96,0.72-1.06,0.72-1.06
				s-1.05,0.16-1.65,0.05c-0.52,0.81-4.22,9.07-7.17,8.78c-1.19-0.12-0.98-2.95-0.98-2.95s-1.89,3-3.82,2.72
				c-1.93-0.28-1.62-4.19-0.09-6.42C58.6,78.73,60.43,77.24,62.89,79.25z M58.93,81.58c-1.17,1.65-2.24,3.83-1.06,4.25
				c2.57,0.92,4.69-5.74,4.69-5.74C61.31,79.95,60.1,79.93,58.93,81.58z M81.75,83.03c0,0,2.18,0.01,3.01-1.17s0.48-2.5-0.44-2.5
				C83.4,79.36,82.15,80.26,81.75,83.03z M95.27,82.11c-1.48,2.23-1.29,3.81,0.54,3.27c1.83-0.54,3.71-5.58,3.71-5.58
				C97.89,79.35,96.75,79.88,95.27,82.11z"/>
			<path class="st46" d="M77.54,75.49c0,0-0.14,0.27,0.48,0.78c0.62,0.51,0.93,0.85,1.53-0.09c0.6-0.94,1.12-1.52,0.82-1.85
				s-1.06-1.04-1.3-0.87S77.54,75.49,77.54,75.49z"/>
			<path class="st46" d="M87.09,75.26c0,0,0.03-0.6,0.94-0.5c0.9,0.1,1.89,0.36,4.49-0.01c2.6-0.37,3.17-0.03,3.2,0.26
				c0.03,0.29-0.02,1.03-0.5,1.06s-0.82-0.49-0.82-0.49s-1.47-0.41-4.32,0.13C88.52,75.86,87.46,75.82,87.09,75.26z"/>
		</g>
		<g>
			<g>
				<path class="st47" d="M27.76,68.89V49.59h8.95c1.72,0,3.09,0.24,4.2,0.72c1.11,0.49,2.05,1.21,2.78,2.13
					c0.71,0.9,1.24,1.96,1.55,3.14c0.3,1.13,0.46,2.34,0.46,3.6c0,1.99-0.23,3.52-0.71,4.68c-0.48,1.15-1.15,2.13-2,2.92
					c-0.87,0.8-1.82,1.34-2.84,1.61c-1.25,0.33-2.4,0.5-3.44,0.5H27.76z M35.44,62.85c1.26,0,1.72-0.17,1.87-0.25
					c0.25-0.13,0.45-0.38,0.61-0.76c0.12-0.27,0.31-0.95,0.31-2.55c0-2.02-0.39-2.76-0.62-3.02c-0.38-0.43-1.1-0.64-2.15-0.64h-0.25
					v7.23H35.44z"/>
				<path class="st47" d="M56.08,69.18c-0.87,0-1.83-0.06-2.86-0.18c-1.11-0.13-2.07-0.41-2.85-0.81c-0.78-0.41-1.5-0.99-2.14-1.73
					c-0.65-0.75-1.1-1.55-1.34-2.37c-0.36-1.19-0.54-2.27-0.54-3.21v-11.3h7.44v11.54c0,0.65,0.15,1.12,0.47,1.44
					c0.31,0.32,0.77,0.47,1.4,0.47c0.62,0,1.08-0.15,1.39-0.46c0.31-0.31,0.46-0.78,0.46-1.45V49.59h7.44v11.3
					c0,1.13-0.18,2.22-0.53,3.23c-0.37,1.05-0.95,1.98-1.74,2.77c-0.78,0.78-1.63,1.34-2.51,1.67
					C59.01,68.97,57.64,69.18,56.08,69.18z"/>
				<polygon class="st47" points="66.31,68.89 66.31,49.59 73.76,49.59 73.76,62.52 82.03,62.52 82.03,68.89 				"/>
				<path class="st47" d="M91.26,69.18c-2.01,0-3.7-0.31-5.02-0.91c-1.37-0.63-2.56-1.73-3.52-3.26c-0.96-1.53-1.45-3.49-1.45-5.81
					c0-3.12,0.87-5.57,2.58-7.3c1.71-1.73,4.12-2.6,7.17-2.6c2.38,0,4.3,0.51,5.72,1.51c1.42,1.01,2.48,2.54,3.16,4.57l0.37,1.13
					l-6.8,1.51l-0.29-0.94c-0.17-0.55-0.3-0.76-0.35-0.83c-0.2-0.28-0.43-0.48-0.71-0.62c-0.28-0.14-0.59-0.21-0.95-0.21
					c-0.84,0-1.43,0.31-1.87,0.97c-0.25,0.37-0.55,1.15-0.55,2.79c0,2.15,0.39,2.95,0.62,3.23c0.37,0.45,0.88,0.66,1.6,0.66
					c0.7,0,1.2-0.16,1.51-0.5c0.39-0.43,0.68-1.09,0.87-1.99l0.25-1.14l6.73,2.03l-0.24,0.98c-0.35,1.44-0.91,2.68-1.67,3.67
					c-0.78,1.01-1.76,1.79-2.91,2.3C94.37,68.93,92.94,69.18,91.26,69.18z"/>
				<polygon class="st47" points="100.52,68.89 100.52,49.59 116.88,49.59 116.88,55.4 107.98,55.4 107.98,55.98 116.24,55.98 
					116.24,61.62 107.98,61.62 107.98,62.86 117.14,62.86 117.14,68.89 				"/>
			</g>
			<g>
				<path class="st2" d="M26.87,67.99V48.69h8.95c1.72,0,3.09,0.24,4.2,0.72c1.11,0.49,2.05,1.21,2.78,2.13
					c0.71,0.9,1.24,1.96,1.55,3.14c0.3,1.13,0.46,2.34,0.46,3.6c0,1.99-0.23,3.52-0.71,4.68c-0.48,1.15-1.15,2.13-2,2.92
					c-0.87,0.8-1.82,1.34-2.84,1.61c-1.25,0.33-2.4,0.5-3.44,0.5H26.87z M34.54,61.95c1.26,0,1.72-0.17,1.87-0.25
					c0.25-0.13,0.45-0.38,0.61-0.76c0.12-0.27,0.31-0.95,0.31-2.55c0-2.02-0.39-2.76-0.62-3.02c-0.38-0.43-1.1-0.64-2.15-0.64h-0.25
					v7.23H34.54z"/>
				<path class="st2" d="M55.18,68.29c-0.87,0-1.83-0.06-2.86-0.18c-1.11-0.13-2.07-0.41-2.85-0.81c-0.78-0.41-1.5-0.99-2.14-1.73
					c-0.65-0.75-1.1-1.55-1.34-2.37c-0.36-1.19-0.54-2.27-0.54-3.21v-11.3h7.44v11.54c0,0.65,0.15,1.12,0.47,1.44
					c0.31,0.32,0.77,0.47,1.4,0.47c0.62,0,1.08-0.15,1.39-0.46c0.31-0.31,0.46-0.78,0.46-1.45V48.69h7.44v11.3
					c0,1.13-0.18,2.22-0.53,3.23c-0.37,1.05-0.95,1.98-1.74,2.77c-0.78,0.78-1.63,1.34-2.51,1.67
					C58.12,68.07,56.74,68.29,55.18,68.29z"/>
				<polygon class="st2" points="65.41,67.99 65.41,48.69 72.86,48.69 72.86,61.62 81.14,61.62 81.14,67.99 				"/>
				<path class="st2" d="M90.36,68.29c-2.01,0-3.7-0.31-5.02-0.91c-1.37-0.63-2.56-1.73-3.52-3.26c-0.96-1.53-1.45-3.49-1.45-5.81
					c0-3.12,0.87-5.57,2.58-7.3c1.71-1.73,4.12-2.6,7.17-2.6c2.38,0,4.3,0.51,5.72,1.51c1.42,1.01,2.48,2.54,3.16,4.57l0.37,1.13
					l-6.8,1.51l-0.29-0.94c-0.17-0.55-0.3-0.76-0.35-0.83c-0.2-0.28-0.43-0.48-0.71-0.62c-0.28-0.14-0.59-0.21-0.95-0.21
					c-0.84,0-1.43,0.31-1.87,0.97c-0.25,0.37-0.55,1.15-0.55,2.79c0,2.15,0.39,2.95,0.62,3.23c0.37,0.45,0.88,0.66,1.6,0.66
					c0.7,0,1.2-0.16,1.51-0.5c0.39-0.43,0.68-1.09,0.87-1.99l0.25-1.14l6.73,2.03l-0.24,0.98c-0.35,1.44-0.91,2.68-1.67,3.67
					c-0.78,1.01-1.76,1.79-2.91,2.3C93.47,68.03,92.05,68.29,90.36,68.29z"/>
				<polygon class="st2" points="99.63,67.99 99.63,48.69 115.98,48.69 115.98,54.5 107.09,54.5 107.09,55.08 115.34,55.08 
					115.34,60.72 107.09,60.72 107.09,61.96 116.24,61.96 116.24,67.99 				"/>
			</g>
			<g>
				<path class="st47" d="M27.94,49.76h7.88c1.55,0,2.81,0.21,3.76,0.63c0.96,0.42,1.75,1.03,2.37,1.81
					c0.62,0.79,1.08,1.71,1.36,2.75c0.28,1.05,0.42,2.15,0.42,3.32c0,1.83-0.21,3.26-0.63,4.27c-0.42,1.01-1,1.86-1.74,2.54
					c-0.74,0.68-1.54,1.14-2.39,1.36c-1.16,0.31-2.22,0.47-3.16,0.47h-7.88V49.76z M33.24,53.65v9.38h1.3c1.11,0,1.9-0.12,2.36-0.37
					c0.47-0.25,0.83-0.67,1.1-1.29c0.27-0.61,0.4-1.61,0.4-2.98c0-1.82-0.3-3.06-0.89-3.73c-0.59-0.67-1.58-1.01-2.95-1.01H33.24z"
					/>
				<path class="st47" d="M57.68,49.76h5.29v10.22c0,1.01-0.16,1.97-0.47,2.87c-0.32,0.9-0.81,1.69-1.49,2.36
					c-0.68,0.67-1.38,1.15-2.12,1.42c-1.03,0.38-2.27,0.57-3.71,0.57c-0.84,0-1.75-0.06-2.73-0.18c-0.99-0.12-1.81-0.35-2.48-0.7
					c-0.66-0.35-1.27-0.84-1.82-1.48c-0.55-0.64-0.93-1.3-1.13-1.98c-0.33-1.09-0.49-2.06-0.49-2.9V49.76h5.29v10.47
					c0,0.94,0.26,1.67,0.78,2.19c0.52,0.53,1.24,0.79,2.16,0.79c0.91,0,1.63-0.26,2.15-0.78c0.52-0.52,0.78-1.25,0.78-2.2V49.76z"/>
				<path class="st47" d="M66.49,49.76h5.3v12.93h8.28v4.23H66.49V49.76z"/>
				<path class="st47" d="M93.49,59.9l4.65,1.4c-0.31,1.3-0.8,2.39-1.47,3.27c-0.67,0.87-1.5,1.53-2.5,1.98
					c-0.99,0.44-2.26,0.67-3.8,0.67c-1.87,0-3.39-0.27-4.57-0.81c-1.18-0.54-2.2-1.5-3.06-2.86c-0.86-1.36-1.29-3.11-1.29-5.24
					c0-2.84,0.76-5.02,2.26-6.54c1.51-1.52,3.65-2.29,6.41-2.29c2.16,0,3.86,0.44,5.1,1.31c1.24,0.87,2.16,2.22,2.76,4.03
					l-4.68,1.04c-0.16-0.52-0.34-0.91-0.52-1.15c-0.3-0.41-0.66-0.72-1.09-0.94c-0.43-0.22-0.91-0.33-1.44-0.33
					c-1.2,0-2.12,0.48-2.76,1.45c-0.48,0.72-0.73,1.84-0.73,3.38c0,1.9,0.29,3.21,0.87,3.91c0.58,0.71,1.39,1.06,2.43,1.06
					c1.01,0,1.78-0.28,2.3-0.85C92.88,61.81,93.26,60.98,93.49,59.9z"/>
				<path class="st47" d="M100.7,49.76h14.21v3.66h-8.9v2.73h8.25v3.5h-8.25v3.38h9.15v3.89H100.7V49.76z"/>
			</g>
		</g>
		<g>
			<g>
				<path d="M65.45,47.96c-4.29,0-5.33-2.04-6.08-3.53l-0.02-0.04c-0.75-1.47-1.4-7.19-1.59-8.91l0-0.04l-0.26-5.14l12.21-0.78
					l12.21,0.78l-0.26,5.14l0,0.04c-0.18,1.72-0.84,7.45-1.59,8.91l-0.02,0.04c-0.76,1.49-1.79,3.53-6.08,3.53H65.45z"/>
				<path class="st44" d="M69.7,30.87l-10.8,0.69l0.19,3.78c0,0,0.76,7.09,1.45,8.45c0.69,1.36,1.4,2.83,4.91,2.83
					c3.89,0,4.26,0,4.26,0s0.37,0,4.26,0c3.5,0,4.21-1.47,4.91-2.83s1.45-8.45,1.45-8.45l0.19-3.78L69.7,30.87z"/>
			</g>
			<g>
				<rect x="68.46" y="35.86" width="2.49" height="9.05"/>
				<g>
					<path d="M64.51,34.18l1.13,10.73c0,0-1.94-0.31-2.23-2.49s-1.1-8.05-1.1-8.05L64.51,34.18z"/>
					<path d="M74.9,34.18l-1.13,10.73c0,0,1.94-0.31,2.23-2.49s1.1-8.05,1.1-8.05L74.9,34.18z"/>
				</g>
			</g>
			<g>
				<path d="M75.73,38.44c-5.41-0.04-9.28-3-9.63-3.28c-0.09-0.07-0.18-0.14-0.28-0.22c-0.6-0.03-1.18-0.14-1.74-0.33
					c-1.05,0.69-2.28,1.06-3.54,1.06c-3.55,0-6.45-2.89-6.45-6.45c0-2.5,1.44-4.73,3.62-5.8c-0.02-0.19-0.03-0.37-0.03-0.56
					c0-2.97,2.03-5.46,4.8-6.15c0.4-3.11,3.07-5.53,6.29-5.53c2.58,0,4.87,1.55,5.84,3.87c2.47,0.39,4.74,1.6,6.46,3.45
					c1.94,2.09,3.01,4.8,3.01,7.65c0,0.95-0.12,1.89-0.35,2.8c0.62,0.97,1.18,2.23,0.98,3.49c-0.36,2.31-3.09,5.98-8.89,5.98
					C75.83,38.44,75.73,38.44,75.73,38.44z"/>
				<path class="st43" d="M82.27,29.21c0.31-0.96,0.48-1.98,0.48-3.04c0-5.21-4.02-9.48-9.13-9.87c-0.55-2.16-2.51-3.76-4.84-3.76
					c-2.76,0-5,2.24-5,5c0,0.12,0.01,0.24,0.01,0.35c-2.65,0.12-4.76,2.31-4.76,4.99c0,0.49,0.07,0.97,0.21,1.42
					c-2.19,0.57-3.81,2.57-3.81,4.94c0,2.82,2.29,5.1,5.1,5.1c1.28,0,2.45-0.47,3.34-1.25c0.68,0.34,1.45,0.53,2.26,0.53
					c0.06,0,0.11,0,0.17,0c0.19,0.17,0.39,0.34,0.6,0.49l0,0c0,0,3.67,2.96,8.82,3c5.15,0.04,7.39-3.14,7.65-4.85
					C83.56,31.17,82.83,29.96,82.27,29.21z"/>
			</g>
			<g>
				<path d="M69.09,24.22c-0.11-0.33-2.64-8.2-1.98-13.51c0.56-4.55,2.6-6.77,6.21-6.77c0.29,0,0.6,0.01,0.92,0.04
					c2.97,0.27,4.85,2.27,5.26,5.47c0.71-0.19,1.36-0.28,1.97-0.28c1.49,0,2.77,0.55,3.94,1.69c1.25,1.22,1.99,3.19,1.87,5.02
					c-0.09,1.32-0.64,3.24-2.79,4.86c-5.27,3.95-13.7,4.39-14.06,4.41l-1.02,0.05L69.09,24.22z"/>
				<path class="st48" d="M70.37,23.8c0,0-2.55-7.85-1.92-12.93c0.59-4.78,2.76-5.82,5.68-5.55c2.92,0.27,4.26,2.59,4.11,5.99
					c2.95-1.25,4.69-1.01,6.24,0.5s2.65,5.27-0.79,7.84C78.69,23.41,70.37,23.8,70.37,23.8z"/>
			</g>
		</g>
	</g>
</g>
</svg>
