<?xml version="1.0" encoding="utf-8"?>
<!-- Generator: Adobe Illustrator 24.3.0, SVG Export Plug-In . SVG Version: 6.00 Build 0)  -->
<svg version="1.1" id="Capa_1" xmlns="http://www.w3.org/2000/svg" xmlns:xlink="http://www.w3.org/1999/xlink" x="0px" y="0px"
	 viewBox="0 0 281.63 117.45" style="enable-background:new 0 0 281.63 117.45;" xml:space="preserve">
<style type="text/css">
	.st0{fill:#732DAA;}
	.st1{opacity:0.15;}
	.st2{fill:#FFFFFF;}
	.st3{opacity:0.7;fill:#F4F4F4;}
	.st4{opacity:0.9;fill:#732DAA;}
	.st5{fill:#F7F7FA;}
	.st6{fill:#F39200;}
	.st7{opacity:0.4;fill:#606060;}
	.st8{fill:none;stroke:#F39200;stroke-width:2;stroke-linecap:round;stroke-linejoin:round;stroke-miterlimit:10;}
	.st9{fill:#8F12D1;}
	.st10{fill:#606060;}
	.st11{fill-rule:evenodd;clip-rule:evenodd;fill:url(#SVGID_9_);}
	.st12{fill-rule:evenodd;clip-rule:evenodd;fill:#FFFFFF;}
	.st13{opacity:0.86;fill:#DADADA;}
	.st14{fill:#FFFFFF;stroke:#878787;stroke-width:0.5;stroke-miterlimit:10;}
	.st15{fill:url(#SVGID_10_);}
	.st16{fill-rule:evenodd;clip-rule:evenodd;fill:url(#bubble_1_);}
	.st17{fill:#FD0000;}
	.st18{fill:#EC1655;}
	.st19{fill:#0CBAC6;}
	.st20{clip-path:url(#SVGID_12_);}
	.st21{fill:#1677F0;}
	.st22{fill:#EDEDED;}
	.st23{clip-path:url(#SVGID_16_);fill:url(#SVGID_17_);}
	.st24{fill:url(#path70_1_);}
	.st25{fill:url(#path94_1_);}
	.st26{fill:url(#path114_1_);}
	.st27{fill:url(#path140_1_);}
	.st28{fill:#28E3D7;}
	.st29{clip-path:url(#SVGID_19_);}
	.st30{fill:#7C4DFF;}
	.st31{fill:#1D1D1B;}
	.st32{clip-path:url(#SVGID_21_);}
	.st33{opacity:0.21;fill:#6F35A4;}
	.st34{opacity:0.8;fill:#FFFFFF;}
	.st35{fill:url(#SVGID_22_);}
	.st36{opacity:0.49;fill:#011525;}
	.st37{fill:#39C1DA;}
	.st38{fill:#FFCD57;}
	.st39{fill:#FDFDFE;}
	.st40{fill:#FDFDFD;}
	.st41{fill:#FCFCFC;}
	.st42{fill:#FEFEFE;}
	.st43{fill:#FBDEDD;}
	.st44{fill:#00B3BA;}
	.st45{fill:#91230D;}
	.st46{fill:#513D38;}
	.st47{fill:#ED6C76;}
	.st48{fill:#DF030D;}
	.st49{fill:#F4AE00;}
	.st50{fill:#0BB5CB;}
	.st51{fill:#00546C;}
	.st52{fill:#8D0701;}
	.st53{fill:none;}
	.st54{fill:none;stroke:#8D0701;stroke-width:2;}
</style>
<g>
	<g>
		<path class="st31" d="M50.29,15.37c1.74-0.95,4.83-0.36,5.06,1.93c-4.38,3-7.8,7.15-11.11,11.24
			c-7.89,10.04-14.86,20.77-21.19,31.86c-4.22,7.46-8.28,15.03-11.48,22.99C9.6,88.33,7.88,93.42,7,98.69
			c4.38-6.03,9.35-11.6,14.4-17.07c10.42-11.17,21.13-22.08,32.25-32.57c1.29-1.08,2.42-2.59,4.17-2.88c2.06-0.2,4.2,0.87,5.35,2.58
			c0.83,1.36-0.58,2.6-1.09,3.79c-2.82,5.81-4.79,12-6.49,18.21c-1.26,4.93-2.56,9.98-2.07,15.11c3.98-5.09,8.31-9.89,12.91-14.41
			c2.94-2.77,5.83-5.67,9.33-7.74c1.3-0.7,3-1.53,4.4-0.59c1.46,1.04,1.88,2.91,2.54,4.47c0.87,2.29,2.29,4.84,4.93,5.29
			c4.47,0.38,8.79-1.37,12.7-3.35c6.12-3.31,11.94-7.18,17.3-11.62c2.06-1.75,4.4-3.27,5.85-5.62c2.07-2.46,4.46-5.22,7.85-5.64
			c1.89-0.24,3.96-0.26,5.67,0.71c-4.69,6.22-8.27,13.21-11.25,20.39c-0.64,1.74-1.48,3.47-1.52,5.35c2.01,0.22,3.78-0.96,5.42-1.95
			c5.97-3.98,11.15-8.98,16.32-13.92c2.07-1.88,3.86-4.04,5.89-5.96c2.8-2.27,6.02-4.39,9.69-4.74c3.48-0.35,6.78,1.31,9.37,3.49
			c3.92-8.56,9.85-16.18,17.15-22.13c1.98-1.54,4.67-2.71,7.16-1.75c0.48,0.27,1.38,0.9,0.73,1.46
			c-5.31,5.24-9.15,11.71-12.96,18.07c-4.04,7-7.8,14.17-10.97,21.6c-0.9,2.33-2.02,4.62-2.31,7.13c2.94-0.17,5.41-1.97,7.78-3.53
			c6.62-4.74,12.8-10.06,18.83-15.53c1.28-1.06,2.02-2.58,3.09-3.83c2.02-2.38,4.38-4.61,7.24-5.92c3.26-1.52,7.24-1.04,10.21,0.91
			c0.92,0.7,1.29,1.92,1.19,3.05c-0.15,2.65-1.74,4.97-3.64,6.72c-2.39,2.27-5.62,3.39-8.82,3.87c-1.99,3.98-3.77,8.16-4.33,12.61
			c3.29-1.47,6.24-3.55,9.04-5.79c4.74-3.83,9.31-7.88,13.53-12.28c5.32-6.22,12.07-11.55,20.04-13.81
			c3.68-1.07,7.95-0.62,10.95,1.9c1.38,0.94,1.91,2.62,1.87,4.22c1.35,0.13,3.55,0.07,3.97,1.69c-3.02,5.13-5.67,10.5-7.94,16.01
			c-0.69,1.9-1.64,3.8-1.53,5.88c2.56-0.08,4.73-1.57,6.75-2.99c6.89-5.12,12.95-11.24,19.03-17.28c1.16-0.98,2.39,1.38,1.22,2.09
			c-6.28,6.64-12.53,13.51-20.35,18.4c-2.33,1.43-5.01,2.66-7.82,2.3c-2.13-0.18-3.72-1.95-4.51-3.82c-1.42-3.4-1.08-7.24-0.07-10.7
			c-5.12,4.62-10.57,8.93-16.56,12.36c-2.43,1.24-5.37,2.54-8.08,1.41c-2.82-1.8-3.33-5.62-2.32-8.6c-3.22,3.19-6.71,6.1-10.47,8.62
			c-2.44,1.58-5.11,3.28-8.12,3.19c-2.45-0.08-4.02-2.26-5.11-4.2c-1.75-3.29-1.36-7.21-0.31-10.65
			c-5.49,5.31-11.41,10.19-17.84,14.31c-2.71,1.57-5.77,3.18-9.01,2.75c-1.8-0.16-2.51-2.15-2.67-3.69
			c-0.51-5.58,1.07-11.06,2.68-16.35c-2.87,3.24-5.93,6.34-9.3,9.06c-2.06,1.66-4.31,3.42-7.03,3.71c-1.87,0.22-3.89-0.58-4.79-2.29
			c-1.38-1.91-1.44-4.35-1.15-6.6c-3.24,3.32-6.77,6.35-10.49,9.11c-3.34,2.4-6.99,5.13-11.3,5.04c-2.6,0.1-4.34-2.36-4.86-4.64
			c-0.84-3.75-0.32-7.69,0.85-11.32c-4.76,3.93-9.89,7.4-15.24,10.49c-4.88,2.69-10.2,5.11-15.87,5.17
			c-5.04-0.3-8.88-4.38-10.77-8.78c-4.76,6.01-9.49,12.14-15.34,17.14c-2.48,2.12-5.2,4.31-8.52,4.8c-2.2,0.42-4.39-1.04-5.26-3.02
			c-1.17-2.73-1.01-5.79-0.9-8.69c0.64-7.46,2.88-14.7,5.54-21.67C38.06,70.63,22.68,85.82,7.14,100.84
			c-0.6,0.5-0.52,1.85-1.53,1.66c-1.87-0.45-2.74-2.63-2.64-4.4c0.73-10.46,3.51-20.74,7.9-30.25c2.11-4.68,4.71-9.12,7.33-13.52
			c3.69-6.13,7.66-12.1,12.03-17.77c4.18-5.42,8.75-10.52,13.48-15.45C45.79,19.08,47.76,16.85,50.29,15.37z M245.51,47.91
			c-5.53,3.68-10.47,8.21-14.9,13.16c-2.3,2.65-4.58,5.43-5.95,8.7c3.31-1.56,6.35-3.62,9.32-5.73c5.06-3.75,10.01-7.64,14.81-11.71
			c1.59-1.58,3.23-3.13,5.13-4.34c-0.01-1.08-0.49-2.31-1.71-2.44C249.76,45.27,247.53,46.67,245.51,47.91z M211.67,51.11
			c-1.91,1.91-3.43,4.18-4.76,6.53c3.43-1.74,6.66-4.51,7.89-8.27C213.54,49.45,212.52,50.25,211.67,51.11z M163.92,52.7
			c-3.2,1.51-5.86,3.98-8.13,6.66c-1.93,2.3-3.62,4.91-4.28,7.88c3.54-1.67,6.58-4.21,9.42-6.86c2.68-2.51,5.4-4.98,7.85-7.71
			C167.25,51.86,165.44,51.95,163.92,52.7z"/>
	</g>
	<path class="st31" d="M143.32,32.63c1.11-0.56,2.32,0.27,3.09,1.05c0.45,0.47,1.14,1.29,0.43,1.85c-2.12,2.29-4.04,4.75-5.99,7.18
		c-1.08,1.82-3.98,1.04-4.9-0.54c-0.14-0.94,0.75-1.61,1.2-2.33C139.17,37.41,141.03,34.81,143.32,32.63z"/>
	<g>
		<path class="st31" d="M163.55,97.48l-1.29-3.36h-6.62l-1.29,3.36h-1.06l5.14-13.22h1.06l5.12,13.22H163.55z M156,93.17h5.89
			l-2.95-7.68L156,93.17z"/>
		<path class="st31" d="M175.5,97.69c-1.42,0-2.61-0.47-3.55-1.42c-0.94-0.94-1.42-2.11-1.42-3.51s0.47-2.57,1.42-3.51
			c0.94-0.94,2.13-1.42,3.55-1.42c0.92,0,1.75,0.22,2.49,0.65c0.74,0.43,1.28,1.02,1.62,1.77l-0.77,0.45
			c-0.28-0.6-0.71-1.08-1.31-1.44c-0.6-0.35-1.27-0.53-2.03-0.53c-1.13,0-2.08,0.39-2.85,1.16c-0.77,0.77-1.15,1.73-1.15,2.86
			c0,1.13,0.38,2.09,1.15,2.86c0.77,0.77,1.72,1.16,2.85,1.16c0.76,0,1.43-0.18,2.03-0.53c0.6-0.35,1.05-0.83,1.37-1.43l0.79,0.47
			c-0.38,0.73-0.94,1.31-1.69,1.75C177.25,97.47,176.42,97.69,175.5,97.69z"/>
		<path class="st31" d="M195.01,88.04h0.96v9.44h-0.96v-2.13c-0.4,0.73-0.96,1.3-1.66,1.72c-0.71,0.42-1.5,0.62-2.4,0.62
			c-1.35,0-2.5-0.48-3.46-1.43c-0.96-0.95-1.44-2.12-1.44-3.5c0-1.38,0.48-2.55,1.44-3.5c0.96-0.95,2.11-1.43,3.46-1.43
			c0.89,0,1.69,0.21,2.4,0.62c0.7,0.42,1.26,0.99,1.66,1.72V88.04z M188.18,95.61c0.77,0.78,1.72,1.17,2.84,1.17
			s2.06-0.39,2.83-1.17c0.77-0.78,1.15-1.73,1.15-2.85s-0.38-2.07-1.15-2.85c-0.77-0.78-1.71-1.17-2.83-1.17s-2.07,0.39-2.84,1.17
			c-0.77,0.78-1.16,1.73-1.16,2.85S187.41,94.83,188.18,95.61z"/>
		<path class="st31" d="M208.9,87.83c1.36,0,2.51,0.48,3.47,1.43c0.95,0.95,1.43,2.12,1.43,3.5c0,1.39-0.48,2.55-1.43,3.5
			c-0.95,0.95-2.11,1.43-3.47,1.43c-0.89,0-1.7-0.21-2.41-0.64c-0.71-0.43-1.26-1.01-1.65-1.76v2.19h-0.94V84.26h0.94v5.97
			c0.39-0.74,0.94-1.33,1.65-1.76C207.21,88.04,208.01,87.83,208.9,87.83z M206.01,95.61c0.77,0.78,1.72,1.17,2.84,1.17
			c1.12,0,2.07-0.39,2.84-1.17c0.77-0.78,1.16-1.73,1.16-2.85s-0.39-2.07-1.16-2.85c-0.77-0.78-1.72-1.17-2.84-1.17
			c-1.12,0-2.07,0.39-2.84,1.17c-0.77,0.78-1.16,1.73-1.16,2.85S205.23,94.83,206.01,95.61z"/>
		<path class="st31" d="M229.41,88.04h0.96v9.44h-0.96v-2.13c-0.4,0.73-0.96,1.3-1.66,1.72c-0.71,0.42-1.5,0.62-2.4,0.62
			c-1.35,0-2.5-0.48-3.46-1.43c-0.96-0.95-1.44-2.12-1.44-3.5c0-1.38,0.48-2.55,1.44-3.5c0.96-0.95,2.11-1.43,3.46-1.43
			c0.89,0,1.69,0.21,2.4,0.62c0.7,0.42,1.26,0.99,1.66,1.72V88.04z M222.58,95.61c0.77,0.78,1.72,1.17,2.84,1.17
			c1.12,0,2.06-0.39,2.83-1.17c0.77-0.78,1.15-1.73,1.15-2.85s-0.38-2.07-1.15-2.85c-0.77-0.78-1.71-1.17-2.83-1.17
			c-1.12,0-2.07,0.39-2.84,1.17c-0.77,0.78-1.16,1.73-1.16,2.85S221.81,94.83,222.58,95.61z"/>
		<path class="st31" d="M246.63,84.26h0.94v13.22h-0.94v-2.19c-0.39,0.74-0.94,1.33-1.65,1.76c-0.71,0.43-1.51,0.64-2.41,0.64
			c-1.36,0-2.51-0.48-3.46-1.43c-0.95-0.95-1.43-2.12-1.43-3.5c0-1.38,0.47-2.55,1.43-3.5c0.95-0.95,2.11-1.43,3.46-1.43
			c0.89,0,1.7,0.21,2.41,0.64c0.71,0.43,1.26,1.01,1.65,1.76V84.26z M239.79,95.61c0.77,0.78,1.72,1.17,2.84,1.17
			c1.12,0,2.07-0.39,2.84-1.17c0.77-0.78,1.16-1.73,1.16-2.85s-0.39-2.07-1.16-2.85c-0.77-0.78-1.72-1.17-2.84-1.17
			c-1.12,0-2.07,0.39-2.84,1.17c-0.77,0.78-1.16,1.73-1.16,2.85S239.01,94.83,239.79,95.61z"/>
		<path class="st31" d="M259.83,97.69c-1.38,0-2.56-0.48-3.52-1.43c-0.96-0.95-1.44-2.12-1.44-3.5c0-1.38,0.48-2.55,1.44-3.5
			c0.96-0.95,2.14-1.43,3.52-1.43c1.37,0,2.54,0.48,3.5,1.43c0.96,0.95,1.44,2.12,1.44,3.5c0,1.39-0.48,2.55-1.44,3.5
			C262.37,97.21,261.2,97.69,259.83,97.69z M256.99,95.61c0.77,0.78,1.72,1.17,2.84,1.17c1.12,0,2.06-0.39,2.83-1.17
			c0.77-0.78,1.15-1.73,1.15-2.85s-0.38-2.07-1.15-2.85c-0.77-0.78-1.71-1.17-2.83-1.17c-1.12,0-2.07,0.39-2.84,1.17
			c-0.77,0.78-1.16,1.73-1.16,2.85S256.22,94.83,256.99,95.61z"/>
		<path class="st31" d="M272.52,90.48c0,0.46,0.2,0.82,0.59,1.08c0.39,0.26,0.87,0.46,1.43,0.61c0.56,0.15,1.12,0.3,1.69,0.44
			c0.57,0.15,1.04,0.42,1.43,0.81c0.39,0.39,0.58,0.92,0.58,1.58c0,0.78-0.31,1.42-0.93,1.93c-0.62,0.5-1.44,0.76-2.45,0.76
			c-0.91,0-1.67-0.19-2.29-0.58c-0.62-0.38-1.05-0.89-1.29-1.52l0.81-0.47c0.18,0.52,0.51,0.92,0.99,1.22
			c0.48,0.3,1.08,0.44,1.78,0.44c0.7,0,1.29-0.15,1.75-0.46c0.46-0.31,0.69-0.75,0.69-1.31c0-0.47-0.2-0.84-0.59-1.11
			c-0.39-0.28-0.87-0.49-1.43-0.64c-0.56-0.15-1.12-0.3-1.69-0.45c-0.57-0.15-1.05-0.41-1.43-0.79c-0.39-0.38-0.59-0.88-0.59-1.51
			c0-0.76,0.3-1.39,0.9-1.91s1.37-0.77,2.31-0.77c0.76,0,1.41,0.17,1.97,0.51c0.56,0.34,0.97,0.8,1.24,1.38l-0.79,0.45
			c-0.19-0.47-0.5-0.82-0.94-1.07c-0.44-0.25-0.93-0.37-1.47-0.37c-0.64,0-1.18,0.16-1.61,0.47
			C272.74,89.52,272.52,89.95,272.52,90.48z"/>
	</g>
</g>
</svg>
