<svg id="Capa_1" data-name="Capa 1" xmlns="http://www.w3.org/2000/svg" viewBox="0 0 65 52"><defs><style>.cls-1{fill:#ff9200;}</style></defs><path class="cls-1" d="M8.93,25.45a8.37,8.37,0,0,1,.91-1.67,3.23,3.23,0,0,1,5.43,1.09.55.55,0,0,0,.65.44c.55,0,1.11,0,1.66,0,.28,0,.34-.11.38-.37.16-1,.34-2.05.56-3.07.12-.58.47-.82.88-.72s.6.51.43,1.13a13.18,13.18,0,1,0,1.3-3c-.05.08-.09.17-.14.24a.73.73,0,0,1-1,.36.69.69,0,0,1-.2-1c.51-.77,1.05-1.51,1.58-2.26a4.1,4.1,0,0,1,.29-.36L18.53,13.1A5.37,5.37,0,0,1,14,14a5.21,5.21,0,0,1-3.13-2.2,5.39,5.39,0,0,1,7.83-7.23,5.44,5.44,0,0,1,1,7.44l3.11,3.13c3.73-2.73,4-2.84,9.07-3.75,0-.76,0-1.54,0-2.31,0-.1-.22-.22-.36-.27A3.28,3.28,0,1,1,35.74,5.3a3.22,3.22,0,0,1-2.08,3.47c-.37.13-.49.29-.47.67,0,.64,0,1.29,0,2a14.76,14.76,0,0,1,9.08,3.74L45.39,12a5.42,5.42,0,0,1-1-3.58A5.39,5.39,0,1,1,53,13.09c-.46.34-.86.34-1.13,0s-.16-.71.31-1.09a3.86,3.86,0,0,0,1.5-4,3.81,3.81,0,0,0-3-3.06,4,4,0,1,0-1.27,7.87l.36,0a.67.67,0,0,1,.63.76.66.66,0,0,1-.74.6,5.21,5.21,0,0,1-2.86-.86l-.36-.25L44.88,14.6l-1.59,1.58a14.7,14.7,0,0,1,3.78,9.12c.79,0,1.57,0,2.34,0,.11,0,.23-.24.29-.39a3.28,3.28,0,0,1,6.18,0,3.27,3.27,0,0,1-2,4.16,3.23,3.23,0,0,1-4.18-1.9.61.61,0,0,0-.72-.48c-.63,0-1.28,0-1.94,0a14.68,14.68,0,0,1-3.74,9.07l3.16,3.1A5.38,5.38,0,1,1,45.39,40l-3.13-3.11a14.63,14.63,0,0,1-9.06,3.72c0,.8,0,1.59,0,2.38,0,.09.27.2.42.26a3.19,3.19,0,0,1,2.13,3,3.15,3.15,0,0,1-1.83,3.06,8.61,8.61,0,0,1-.89.34H32s0,0-.07-.06a3.28,3.28,0,0,1-.31-6.37c.09,0,.22-.12.22-.19,0-.79,0-1.58,0-2.37a14.6,14.6,0,0,1-9-3.7L19.62,40a2,2,0,0,1,.17.26,5.4,5.4,0,0,1-1.2,7.19c-.54.42-1,.46-1.25.11s-.18-.75.4-1.2a4,4,0,1,0-2.5.85c.49,0,.74.31.71.73a.67.67,0,0,1-.79.64A6.25,6.25,0,0,1,14,48.46a5.39,5.39,0,1,1,4.47-9.57l3.16-3.11a.27.27,0,0,0-.06-.1A14.36,14.36,0,0,1,18,27c0-.27-.13-.33-.37-.32-.55,0-1.11,0-1.66,0a.55.55,0,0,0-.65.45,3.22,3.22,0,0,1-3.12,2.14A3.27,3.27,0,0,1,9.09,27l-.16-.42Zm6.3-12.67a4,4,0,0,0,.1-8,4,4,0,1,0-.1,8ZM45.72,43.24a4,4,0,1,0,4-4A4,4,0,0,0,45.72,43.24ZM32.49,7.6A1.89,1.89,0,1,0,30.6,5.69,1.89,1.89,0,0,0,32.49,7.6ZM14.1,26a1.89,1.89,0,1,0-1.91,1.89A1.9,1.9,0,0,0,14.1,26Zm40.58,0a1.89,1.89,0,1,0-1.92,1.88A1.91,1.91,0,0,0,54.68,26ZM32.5,48.19a1.92,1.92,0,0,0,1.9-1.91,1.9,1.9,0,1,0-1.9,1.91Z"/><path class="cls-1" d="M39.88,28.62V31a2.26,2.26,0,0,1-4.43.8.63.63,0,0,0-.29-.31L29.22,29,29,28.93v.51c0,1.12,0,2.24,0,3.36a2.13,2.13,0,0,1-4.15.7,3,3,0,0,1-.12-.9c0-1.27,0-2.55,0-3.82a.54.54,0,0,0-.31-.58,1.9,1.9,0,0,1-1-1.72c0-1.09,0-2.18,0-3.27a2,2,0,0,1,2.1-2c.75,0,1.51,0,2.26,0a2.14,2.14,0,0,0,.71-.14q3.29-1.35,6.57-2.74a.94.94,0,0,0,.42-.46A2.3,2.3,0,0,1,38,16.34a2.25,2.25,0,0,1,1.86,2.2c0,.75,0,1.5,0,2.25a.52.52,0,0,0,.25.4,3.85,3.85,0,0,1-.08,7.33Zm-4.54-8.89h-.15c-2,.82-3.95,1.65-5.93,2.46-.27.1-.28.27-.28.49,0,1.43,0,2.85,0,4.28a.52.52,0,0,0,.38.57c1.89.77,3.76,1.55,5.64,2.33.11.05.22.07.35.12Zm3.15,5.12V23.06c0-1.48,0-2.95,0-4.42a.86.86,0,0,0-1-.93c-.5.06-.76.44-.76,1.09V30.9a2.17,2.17,0,0,0,0,.36A.87.87,0,0,0,38,31.9,1,1,0,0,0,38.5,31Q38.49,27.91,38.49,24.85ZM27.57,22.57c-.75,0-1.47,0-2.18,0a.57.57,0,0,0-.58.6c0,1.12,0,2.24,0,3.36a.76.76,0,0,0,.49.55c.74.06,1.49,0,2.25,0Zm-1.5,6v4.06c0,.61.29.94.77.94s.75-.34.75-1c0-1.24,0-2.49,0-3.73,0-.1,0-.2,0-.32ZM39.9,27.07a2.43,2.43,0,0,0,1.49-2.31,2.31,2.31,0,0,0-1.49-2.11Z"/></svg>