<svg id="Capa_1" data-name="Capa 1" xmlns="http://www.w3.org/2000/svg" viewBox="0 0 65 52"><defs><style>.cls-1{fill:#ff9200;}</style></defs><path class="cls-1" d="M14,24.36h0a.85.85,0,0,0-1.23,0l-.84.85a6,6,0,0,0-1.1-.14,2.33,2.33,0,0,0-2.17,1.8v1c.05.11.12.21.16.32a2.3,2.3,0,0,0,2.31,1.41,2.21,2.21,0,0,0,2-1.86,6.26,6.26,0,0,0-.05-1.32l.86-.88A.84.84,0,0,0,14,24.36Zm-3,3.69a.79.79,0,0,1-.77-.82.68.68,0,0,1,.76-.7.79.79,0,0,1,.76.79A.73.73,0,0,1,11,28.05Z"/><path class="cls-1" d="M55.71,36.74l-4.64-2.32c0-.13-.1-.23-.13-.33-1-2.51-1.93-5-2.89-7.52a1.17,1.17,0,0,0-.69-.75l-19-7.6a.87.87,0,0,0-1.06.22c-.76.78-1.52,1.55-2.31,2.31a1,1,0,0,0-.23,1.17c2.53,6.3,5,12.62,7.59,18.92a1.41,1.41,0,0,0,.69.67c.83.37,1.7.67,2.56,1l.16.06.53-1.39-2.62-1L26.22,21.61l.41-.3c3.17,3.16,6.36,6.36,9.56,9.56a4.4,4.4,0,1,0,7.27,0c-1.35-2-3.53-2.38-6.13-1.16l-9.61-9.62.39-.36,18.55,7.42c1,2.53,2,5.06,2.9,7.54l-8.38,8.37L37.6,41.69l-.54,1.39,3.85,1.48,2.32,4.64c.41.82.87.9,1.51.27L56,38.26C56.59,37.61,56.52,37.15,55.71,36.74ZM39.87,30.46a2.89,2.89,0,0,1,2.87,2.88,2.93,2.93,0,0,1-2.91,2.91A2.9,2.9,0,0,1,37,33.33,2.86,2.86,0,0,1,39.87,30.46Zm4.3,17.28-1.78-3.55,8.29-8.28,3.48,1.74.06,0Z"/><path class="cls-1" d="M43.41,11.34,44,9.94a21.89,21.89,0,0,0-15.08.61l4-4.05.29.1A2.28,2.28,0,0,0,36,3.92a2.37,2.37,0,0,0-1.79-1.8h-.91a2.31,2.31,0,0,0-1.8,2.16,5.66,5.66,0,0,0,.14,1.07L24.39,12.6a3.86,3.86,0,0,0-5.29,5.34l-4.17,4.19a.84.84,0,0,0,0,1.17h0a.84.84,0,0,0,1.22,0l.94-.95C14.14,30,15,37.24,19.82,44.15c-.38.35-.8.72-1.2,1.11a.85.85,0,0,0,0,1.18q1.56,1.58,3.13,3.12a.86.86,0,0,0,1.22,0c1-1,2.07-2.06,3.1-3.1a.86.86,0,0,0,0-1.21L23,42.14a.77.77,0,0,0-1.25,0c-.28.27-.52.58-.78.88-5.77-7.67-4.87-17.84-.39-23.77a3.74,3.74,0,0,0,4.23-.48,3.8,3.8,0,0,0,1-4.75A20.43,20.43,0,0,1,43.41,11.34ZM33.82,3.62a.79.79,0,1,1-.06,1.58.79.79,0,0,1,.06-1.58ZM22.35,43.72c.69.7,1.41,1.42,2.1,2.1l-2.11,2.11-2.1-2.09Zm.5-25.58a2.33,2.33,0,0,1-2.77-2.81,2.34,2.34,0,0,1,4.57,1A2.32,2.32,0,0,1,22.85,18.14Z"/><path class="cls-1" d="M56.05,15.24Q54.52,13.7,53,12.17a.77.77,0,0,0-1.28,0c-.37.39-.72.8-1,1.16a26.27,26.27,0,0,0-5.35-2.91l-.56,1.37a18.49,18.49,0,0,1,4.7,2.63c-.27.26-.53.52-.79.79a.78.78,0,0,0,0,1.28l3.08,3.06a.77.77,0,0,0,1.25,0c1-1,2.05-2,3.06-3.06A.76.76,0,0,0,56.05,15.24ZM52.35,18l-2.09-2.11c.69-.68,1.41-1.4,2.09-2.09l2.1,2.09Z"/></svg>