<?xml version="1.0" encoding="utf-8"?>
<!-- Generator: Adobe Illustrator 26.0.0, SVG Export Plug-In . SVG Version: 6.00 Build 0)  -->
<svg version="1.1" id="Capa_1" xmlns="http://www.w3.org/2000/svg" xmlns:xlink="http://www.w3.org/1999/xlink" x="0px" y="0px"
	 viewBox="0 0 1096.5 315.55" style="enable-background:new 0 0 1096.5 315.55;" xml:space="preserve">
<style type="text/css">
	.st0{fill:#FFFFFF;}
</style>
<g>
	<g>
		<path class="st0" d="M174.13,23.67v21.07c0,8.59-6.96,15.55-15.55,15.55h-43.69v154.33c0,8.59-6.96,15.55-15.55,15.55H75.12
			c-8.59,0-15.55-6.96-15.55-15.55V60.29H15.55C6.96,60.29,0,53.33,0,44.74V23.67C0,15.08,6.96,8.11,15.55,8.11h143.02
			C167.17,8.11,174.13,15.08,174.13,23.67z"/>
		<path class="st0" d="M1007.39,234.11c-17.29,0-34.63-3.2-52.02-9.59c-11.89-4.37-22.54-9.7-31.93-15.98
			c-7.08-4.73-8.81-14.42-4.06-21.48l10.97-16.34c4.81-7.16,14.43-8.9,21.65-4.18c6.24,4.08,12.95,7.61,20.11,10.59
			c12.2,5.08,23.86,7.62,34.97,7.62c9.22,0,17-1.67,23.34-5.03c6.34-3.35,9.51-7.8,9.51-13.36c0-1.99-0.42-3.77-1.26-5.34
			c-0.84-1.57-2.26-3.04-4.24-4.4c-1.99-1.36-3.98-2.54-5.97-3.54c-1.99-0.99-4.85-2.07-8.56-3.22c-3.72-1.15-6.92-2.07-9.59-2.75
			c-2.67-0.68-6.52-1.65-11.55-2.91c-52.39-12.78-78.58-36.93-78.58-72.45c0-20.43,8.02-36.8,24.05-49.11
			c16.03-12.31,37.19-18.47,63.49-18.47c16.45,0,31.67,2.51,45.66,7.54c8.17,2.94,15.45,6.41,21.85,10.42
			c7.24,4.53,9.56,13.98,5.16,21.3l-11.48,19.06c-3.39,5.62-10.76,7.62-16.33,4.14c-4.63-2.9-9.78-5.41-15.47-7.53
			c-9.95-3.72-19.96-5.58-30.02-5.58c-8.8,0-15.98,1.52-21.53,4.56c-5.56,3.04-8.33,6.97-8.33,11.79c0,5.13,3.27,9.38,9.82,12.73
			c6.55,3.36,15.58,6.39,27.11,9.12c3.87,0.84,7.47,1.7,10.77,2.59c3.3,0.89,7.91,2.36,13.83,4.4c5.92,2.04,11.26,4.27,16.03,6.68
			c4.77,2.41,9.87,5.55,15.32,9.43c5.45,3.88,9.98,8.07,13.6,12.57c3.62,4.51,6.65,9.95,9.11,16.34c2.46,6.39,3.7,13.2,3.7,20.43
			c0,13.62-3.93,25.8-11.79,36.54c-7.86,10.74-18.55,18.99-32.06,24.75C1039.14,231.22,1024.05,234.11,1007.39,234.11z"/>
		<path class="st0" d="M529.63,8.11c21.37,0,40.75,4.82,58.15,14.46c17.39,9.64,31.04,22.92,40.94,39.84
			c9.9,16.92,14.85,35.81,14.85,56.66c0,20.85-4.95,39.76-14.85,56.73c-9.9,16.97-23.55,30.28-40.94,39.92
			c-17.39,9.64-36.77,14.46-58.15,14.46h-72.3c-8.59,0-15.55-6.96-15.55-15.55V23.67c0-8.59,6.96-15.55,15.55-15.55H529.63z
			 M528.37,178c16.66,0,30.54-5.63,41.65-16.89c11.1-11.26,16.66-25.28,16.66-42.04c0-16.76-5.56-30.75-16.66-41.96
			c-11.11-11.21-24.99-16.82-41.65-16.82H497.1V178H528.37z"/>
		<path class="st0" d="M294.83,234.11c-16.45,0-31.96-2.96-46.52-8.88c-14.56-5.92-27.03-13.96-37.4-24.12
			c-10.37-10.16-18.57-22.34-24.59-36.54c-6.03-14.2-9.04-29.36-9.04-45.5c0-21.48,5.11-40.99,15.32-58.54
			c10.22-17.55,24.31-31.33,42.28-41.33c17.97-10,37.95-15.01,59.96-15.01c22.11,0,42.14,5.01,60.11,15.01
			c17.97,10.01,32.06,23.78,42.28,41.33c10.22,17.55,15.32,37.07,15.32,58.54c0,21.48-5.11,41.02-15.32,58.62
			c-10.22,17.6-24.31,31.41-42.28,41.41C336.97,229.11,316.94,234.11,294.83,234.11z M294.83,180.68c17.39,0,31.93-5.89,43.61-17.68
			c11.68-11.79,17.52-26.43,17.52-43.93c0-17.5-5.84-32.11-17.52-43.85c-11.68-11.73-26.22-17.6-43.61-17.6
			c-17.29,0-31.75,5.87-43.38,17.6c-11.63,11.74-17.45,26.35-17.45,43.85c0,17.5,5.84,32.14,17.52,43.93
			C263.21,174.78,277.65,180.68,294.83,180.68z"/>
		<path class="st0" d="M882.02,60.18c-10.22-17.55-24.31-31.33-42.28-41.33c-17.97-10-38.01-15.01-60.11-15.01
			c-22,0-41.99,5.01-59.96,15.01c-17.97,10.01-32.06,23.78-42.27,41.33c-10.22,17.55-15.32,37.07-15.32,58.54
			c0,16.14,3.01,31.3,9.03,45.5c6.03,14.2,14.23,26.38,24.6,36.54c10.37,10.16,22.84,18.21,37.41,24.12
			c14.56,5.92,30.07,8.88,46.52,8.88c22.11,0,42.14-5.01,60.11-15.01c17.97-10,32.06-23.81,42.28-41.41
			c10.22-17.6,15.32-37.14,15.32-58.62C897.34,97.24,892.23,77.73,882.02,60.18z M830.15,107.5l5.1,5.1c1.88,1.88,1.88,4.92,0,6.8
			l-39.62,39.62l-11.9-11.9l39.62-39.62C825.22,105.63,828.27,105.63,830.15,107.5z M824.67,95.01l-46.53,46.53l-11.9-11.9
			l46.53-46.53c1.88-1.88,4.92-1.88,6.8,0l5.1,5.1C826.55,90.09,826.55,93.13,824.67,95.01z M809.19,51.71
			c1.88-1.88,4.92-1.88,6.8,0l5.1,5.1c1.88,1.88,1.88,4.92,0,6.8l-60.44,60.44l-11.9-11.9L809.19,51.71z M842.53,147.1l-27.43,27.43
			c-22.68,22.68-60.33,23.22-82.9,0.42c-21.95-22.18-22.31-57.8-1.1-80.44l-0.04-0.04c7.44-7.44,7.78-19.29,1.02-27.13
			c-0.59-0.59-0.59-1.54,0-2.12l7.22-7.22c2.06-2.06,5.51-1.85,7.24,0.5c10.28,13.89,9.52,33.43-2.26,46.49l0.04,0.04
			c-16.25,16.25-16.05,42.8,0.57,58.8c16.24,15.64,42.21,14.9,58.15-1.05l27.58-27.58c1.88-1.88,4.93-1.88,6.8,0l5.11,5.11
			C844.41,142.17,844.41,145.22,842.53,147.1z"/>
	</g>
	<g>
		<path class="st0" d="M138.75,308.36c0.13,0.81-0.02,1.44-0.43,1.88c-0.41,0.45-1.04,0.67-1.87,0.67h-3.25
			c-1.51,0-2.36-0.85-2.55-2.55l-2.81-23.13l-9.67,23.58c-0.77,1.62-1.81,2.42-3.13,2.42h-0.54c-1.43,0-2.47-0.81-3.13-2.42
			l-9.73-23.58l-2.74,23.13c-0.19,1.7-1.06,2.55-2.62,2.55h-3.73c-0.81,0-1.42-0.22-1.82-0.67c-0.41-0.45-0.56-1.07-0.48-1.88
			l5.49-38.03c0.19-1.47,1.04-2.2,2.55-2.2h0.54c1.25,0,2.21,0.73,2.87,2.2l13.05,29.03l12.63-29.03c0.66-1.47,1.64-2.2,2.94-2.2
			h0.51c1.45,0,2.3,0.73,2.55,2.2L138.75,308.36z"/>
		<path class="st0" d="M204.08,308.36c0.34,0.81,0.35,1.44,0.03,1.88c-0.32,0.45-0.92,0.67-1.79,0.67h-5.11
			c-0.32,0-0.6-0.05-0.85-0.14s-0.44-0.18-0.57-0.25s-0.3-0.27-0.49-0.59s-0.31-0.53-0.35-0.64s-0.18-0.42-0.41-0.93l-2.27-5.49
			h-19.37l-2.33,5.49c-0.21,0.51-0.37,0.88-0.48,1.1c-0.11,0.22-0.26,0.47-0.46,0.75c-0.2,0.28-0.44,0.46-0.72,0.56
			s-0.62,0.14-1.02,0.14h-4.79c-0.85,0-1.44-0.22-1.75-0.67c-0.32-0.45-0.3-1.07,0.06-1.88l17.96-38.1c0.68-1.47,1.7-2.2,3.06-2.2
			h0.61c1.4,0,2.45,0.73,3.13,2.2L204.08,308.36z M175.65,296.53h13.94l-6.86-16.46L175.65,296.53z"/>
		<path class="st0" d="M253.68,293.4l8.29,14.9c0.43,0.85,0.48,1.5,0.16,1.95c-0.32,0.45-0.89,0.67-1.72,0.67h-4.79
			c-0.77,0-1.32-0.15-1.68-0.46c-0.35-0.31-0.79-0.94-1.32-1.9l-7.82-14.1h-7.21v13.85c0,0.83-0.21,1.47-0.64,1.93
			c-0.43,0.46-1.04,0.69-1.85,0.69h-3.77c-0.81,0-1.44-0.23-1.88-0.7c-0.45-0.47-0.67-1.11-0.67-1.91V271c0-0.81,0.23-1.44,0.7-1.88
			c0.47-0.45,1.11-0.67,1.91-0.67h15.09c5.19,0,9.17,1.16,11.93,3.48c2.76,2.32,4.15,5.55,4.15,9.7c0,2.92-0.78,5.38-2.34,7.4
			C258.67,291.05,256.49,292.5,253.68,293.4z M237.6,275.75v12.41h9.29c2.02,0,3.64-0.55,4.85-1.66c1.21-1.11,1.82-2.59,1.82-4.47
			c0-1.89-0.61-3.41-1.82-4.56c-1.21-1.15-2.83-1.72-4.85-1.72H237.6z"/>
		<path class="st0" d="M323.12,308.3c0.51,0.75,0.64,1.37,0.4,1.87c-0.25,0.5-0.77,0.75-1.58,0.75h-5.36
			c-0.81,0-1.47-0.19-1.99-0.56c-0.52-0.37-1.1-1.02-1.74-1.93l-11.42-15.6l-3.8,3.99v11.49c0,0.83-0.21,1.47-0.64,1.93
			c-0.43,0.46-1.04,0.69-1.85,0.69h-3.76c-0.81,0-1.44-0.23-1.88-0.7c-0.45-0.47-0.67-1.11-0.67-1.91V271
			c0-0.81,0.22-1.44,0.67-1.88c0.45-0.45,1.07-0.67,1.88-0.67h3.76c1.66,0,2.49,0.85,2.49,2.55v15.98l14.84-16.11
			c0.55-0.64,0.96-1.09,1.23-1.36c0.27-0.27,0.63-0.51,1.08-0.73c0.46-0.22,0.95-0.33,1.48-0.33h5.42c0.81,0,1.36,0.25,1.64,0.77
			s0.15,1.11-0.4,1.79l-15.09,16.53L323.12,308.3z"/>
		<path class="st0" d="M351.02,310.91c-0.81,0-1.45-0.23-1.91-0.7c-0.47-0.47-0.7-1.11-0.7-1.91V271c0-0.81,0.23-1.44,0.7-1.88
			s1.11-0.67,1.91-0.67h25.08c0.83,0,1.47,0.21,1.93,0.64c0.46,0.43,0.69,1.04,0.69,1.85v2.27c0,0.81-0.23,1.44-0.7,1.88
			c-0.47,0.45-1.11,0.67-1.92,0.67h-18.89v10.34h14.2c0.83,0,1.47,0.21,1.93,0.64s0.69,1.04,0.69,1.85v1.95
			c0,0.81-0.23,1.44-0.7,1.88c-0.47,0.45-1.11,0.67-1.91,0.67h-14.2v10.53h19.02c1.7,0,2.55,0.82,2.55,2.46v2.3
			c0,0.81-0.22,1.44-0.67,1.88c-0.45,0.45-1.07,0.67-1.88,0.67H351.02z"/>
		<path class="st0" d="M416.38,310.91c-0.81,0-1.42-0.23-1.83-0.69c-0.41-0.46-0.62-1.1-0.62-1.93v-32.54h-11.01
			c-0.81,0-1.43-0.22-1.87-0.67c-0.44-0.45-0.65-1.07-0.65-1.88v-2.27c0-1.66,0.84-2.49,2.52-2.49h30.73c0.83,0,1.47,0.21,1.93,0.64
			c0.46,0.43,0.69,1.04,0.69,1.85v2.27c0,0.81-0.23,1.44-0.7,1.88c-0.47,0.45-1.11,0.67-1.92,0.67h-10.91v32.54
			c0,0.81-0.22,1.45-0.67,1.91c-0.45,0.47-1.08,0.7-1.88,0.7H416.38z"/>
		<path class="st0" d="M463.04,310.91c-0.81,0-1.44-0.23-1.88-0.7c-0.45-0.47-0.67-1.11-0.67-1.91V271c0-0.81,0.22-1.44,0.67-1.88
			c0.45-0.45,1.07-0.67,1.88-0.67h3.76c1.66,0,2.49,0.85,2.49,2.55v37.3c0,0.83-0.21,1.47-0.64,1.93c-0.43,0.46-1.04,0.69-1.85,0.69
			H463.04z"/>
		<path class="st0" d="M532.39,268.45c0.81,0,1.44,0.22,1.88,0.67c0.45,0.45,0.67,1.07,0.67,1.88v37.49c0,0.89-0.28,1.57-0.85,2.04
			c-0.56,0.47-1.26,0.7-2.09,0.7h-0.54c-0.72,0-1.38-0.19-1.96-0.57s-1.21-0.97-1.87-1.75l-21.06-25.11v24.5
			c0,0.83-0.21,1.47-0.64,1.93c-0.43,0.46-1.04,0.69-1.85,0.69h-3.7c-0.81,0-1.44-0.23-1.88-0.7c-0.45-0.47-0.67-1.11-0.67-1.91
			v-37.43c0-0.91,0.28-1.6,0.83-2.06c0.55-0.46,1.25-0.69,2.11-0.69h0.51c1.28,0,2.56,0.78,3.86,2.33l21.06,25.05V271
			c0-1.7,0.82-2.55,2.46-2.55H532.39z"/>
		<path class="st0" d="M583.2,311.71c-3.11,0-6.04-0.57-8.79-1.71c-2.75-1.14-5.13-2.68-7.12-4.63c-1.99-1.95-3.56-4.29-4.71-7.02
			c-1.15-2.73-1.72-5.63-1.72-8.69c0-3.08,0.58-5.99,1.74-8.71c1.16-2.72,2.73-5.06,4.71-7s4.36-3.48,7.15-4.61
			c2.79-1.13,5.74-1.69,8.87-1.69c5.28,0,9.97,1.6,14.07,4.79c0.66,0.53,0.99,1.13,0.99,1.8s-0.31,1.28-0.92,1.83l-2.04,1.92
			c-1.13,1.02-2.41,1.04-3.86,0.06c-2.57-1.7-5.25-2.55-8.04-2.55c-3.89,0-7.16,1.36-9.81,4.07s-3.97,6.08-3.97,10.1
			c0,4.17,1.34,7.61,4.04,10.32c2.69,2.71,6.01,4.07,9.97,4.07c1.36,0,2.69-0.17,3.97-0.51c1.29-0.34,2.16-0.63,2.62-0.86
			c0.46-0.23,1.2-0.63,2.22-1.18v-7.85h-7.91c-1.7,0-2.55-0.82-2.55-2.46v-1.72c0-0.79,0.22-1.4,0.67-1.83
			c0.45-0.44,1.07-0.65,1.88-0.65h13.34c0.81,0,1.44,0.23,1.88,0.69c0.45,0.46,0.67,1.08,0.67,1.87v14.26c0,0.79-0.2,1.46-0.61,2.01
			c-0.4,0.55-1.03,1.1-1.88,1.63c-0.94,0.55-1.72,0.99-2.36,1.32c-0.64,0.33-1.62,0.77-2.95,1.31c-1.33,0.54-2.8,0.95-4.4,1.23
			C586.72,311.57,585.01,311.71,583.2,311.71z"/>
		<path class="st0" d="M662.84,310.91c-0.81,0-1.45-0.23-1.92-0.7c-0.47-0.47-0.7-1.11-0.7-1.91V271c0-0.81,0.23-1.44,0.7-1.88
			s1.11-0.67,1.92-0.67h15.41c6.76,0,12.17,1.94,16.21,5.81c4.04,3.87,6.06,8.99,6.06,15.35c0,6.42-2.02,11.58-6.06,15.47
			s-9.44,5.84-16.21,5.84H662.84z M669.03,303.61h8.97c4.08,0,7.36-1.26,9.83-3.78c2.47-2.52,3.7-5.91,3.7-10.16
			c0-4.28-1.23-7.66-3.7-10.16c-2.47-2.5-5.74-3.75-9.83-3.75h-8.97V303.61z"/>
		<path class="st0" d="M729.15,310.91c-0.81,0-1.44-0.23-1.88-0.7c-0.45-0.47-0.67-1.11-0.67-1.91V271c0-0.81,0.22-1.44,0.67-1.88
			c0.45-0.45,1.07-0.67,1.88-0.67h3.76c1.66,0,2.49,0.85,2.49,2.55v37.3c0,0.83-0.21,1.47-0.64,1.93c-0.43,0.46-1.04,0.69-1.85,0.69
			H729.15z"/>
		<path class="st0" d="M783.67,311.71c-3.11,0-6.04-0.57-8.79-1.71c-2.75-1.14-5.13-2.68-7.12-4.63c-1.99-1.95-3.56-4.29-4.71-7.02
			c-1.15-2.73-1.72-5.63-1.72-8.69c0-3.08,0.58-5.99,1.74-8.71c1.16-2.72,2.73-5.06,4.71-7s4.36-3.48,7.15-4.61
			c2.79-1.13,5.74-1.69,8.87-1.69c5.28,0,9.97,1.6,14.07,4.79c0.66,0.53,0.99,1.13,0.99,1.8s-0.31,1.28-0.92,1.83l-2.04,1.92
			c-1.13,1.02-2.41,1.04-3.86,0.06c-2.57-1.7-5.25-2.55-8.04-2.55c-3.89,0-7.16,1.36-9.81,4.07s-3.97,6.08-3.97,10.1
			c0,4.17,1.34,7.61,4.04,10.32c2.69,2.71,6.01,4.07,9.97,4.07c1.36,0,2.69-0.17,3.97-0.51c1.29-0.34,2.16-0.63,2.62-0.86
			c0.46-0.23,1.2-0.63,2.22-1.18v-7.85h-7.91c-1.7,0-2.55-0.82-2.55-2.46v-1.72c0-0.79,0.22-1.4,0.67-1.83
			c0.45-0.44,1.07-0.65,1.88-0.65h13.34c0.81,0,1.44,0.23,1.88,0.69c0.45,0.46,0.67,1.08,0.67,1.87v14.26c0,0.79-0.2,1.46-0.61,2.01
			c-0.4,0.55-1.03,1.1-1.88,1.63c-0.94,0.55-1.72,0.99-2.36,1.32c-0.64,0.33-1.62,0.77-2.95,1.31c-1.33,0.54-2.8,0.95-4.4,1.23
			C787.18,311.57,785.47,311.71,783.67,311.71z"/>
		<path class="st0" d="M830.2,310.91c-0.81,0-1.44-0.23-1.88-0.7c-0.45-0.47-0.67-1.11-0.67-1.91V271c0-0.81,0.22-1.44,0.67-1.88
			c0.45-0.45,1.07-0.67,1.88-0.67h3.76c1.66,0,2.49,0.85,2.49,2.55v37.3c0,0.83-0.21,1.47-0.64,1.93c-0.43,0.46-1.04,0.69-1.85,0.69
			H830.2z"/>
		<path class="st0" d="M876.74,310.91c-0.81,0-1.42-0.23-1.83-0.69c-0.42-0.46-0.62-1.1-0.62-1.93v-32.54h-11.01
			c-0.81,0-1.43-0.22-1.87-0.67c-0.44-0.45-0.65-1.07-0.65-1.88v-2.27c0-1.66,0.84-2.49,2.52-2.49H894c0.83,0,1.47,0.21,1.93,0.64
			c0.46,0.43,0.69,1.04,0.69,1.85v2.27c0,0.81-0.23,1.44-0.7,1.88c-0.47,0.45-1.11,0.67-1.91,0.67h-10.91v32.54
			c0,0.81-0.22,1.45-0.67,1.91c-0.45,0.47-1.07,0.7-1.88,0.7H876.74z"/>
		<path class="st0" d="M954.35,308.36c0.34,0.81,0.35,1.44,0.03,1.88c-0.32,0.45-0.91,0.67-1.79,0.67h-5.11
			c-0.32,0-0.6-0.05-0.85-0.14c-0.24-0.1-0.44-0.18-0.57-0.25s-0.3-0.27-0.49-0.59s-0.31-0.53-0.35-0.64
			c-0.04-0.11-0.18-0.42-0.42-0.93l-2.27-5.49h-19.37l-2.33,5.49c-0.21,0.51-0.37,0.88-0.48,1.1c-0.11,0.22-0.26,0.47-0.46,0.75
			c-0.2,0.28-0.44,0.46-0.72,0.56s-0.62,0.14-1.02,0.14h-4.79c-0.85,0-1.44-0.22-1.75-0.67c-0.32-0.45-0.3-1.07,0.06-1.88
			l17.96-38.1c0.68-1.47,1.7-2.2,3.06-2.2h0.61c1.4,0,2.45,0.73,3.13,2.2L954.35,308.36z M925.92,296.53h13.94L933,280.06
			L925.92,296.53z"/>
		<path class="st0" d="M981.61,310.91c-0.81,0-1.44-0.22-1.88-0.67c-0.45-0.45-0.67-1.07-0.67-1.88V271c0-0.81,0.22-1.44,0.67-1.88
			c0.45-0.45,1.07-0.67,1.88-0.67h3.76c1.66,0,2.49,0.85,2.49,2.55v32.61h16.08c0.83,0,1.47,0.21,1.93,0.62
			c0.46,0.42,0.69,1.03,0.69,1.83v2.3c0,0.81-0.23,1.44-0.7,1.88c-0.47,0.45-1.11,0.67-1.92,0.67H981.61z"/>
	</g>
</g>
</svg>
