<svg id="Capa_1" data-name="Capa 1" xmlns="http://www.w3.org/2000/svg" xmlns:xlink="http://www.w3.org/1999/xlink" viewBox="0 0 1096.5 315.55"><defs><style>.cls-1{fill:url(#Degradado_sin_nombre_15);}.cls-2{fill:url(#Degradado_sin_nombre_15-2);}.cls-3{fill:url(#Degradado_sin_nombre_15-3);}.cls-4{fill:url(#Degradado_sin_nombre_15-4);}.cls-5{fill:url(#Degradado_sin_nombre_15-5);}.cls-6{font-size:65.34px;fill:#4d4d4d;font-family:Goldplay-SemiBold, Goldplay;font-weight:600;letter-spacing:0.28em;}.cls-7{letter-spacing:0.2em;}.cls-8{letter-spacing:0.28em;}.cls-9{letter-spacing:0.25em;}</style><linearGradient id="Degradado_sin_nombre_15" x1="80.53" y1="205.89" x2="91.16" y2="-79.47" gradientUnits="userSpaceOnUse"><stop offset="0" stop-color="#721ec7"/><stop offset="1" stop-color="#5f1fea"/></linearGradient><linearGradient id="Degradado_sin_nombre_15-2" x1="1003.63" y1="240.29" x2="1014.27" y2="-45.07" xlink:href="#Degradado_sin_nombre_15"/><linearGradient id="Degradado_sin_nombre_15-3" x1="536.92" y1="222.9" x2="547.56" y2="-62.46" xlink:href="#Degradado_sin_nombre_15"/><linearGradient id="Degradado_sin_nombre_15-4" x1="291.24" y1="213.75" x2="301.87" y2="-71.62" xlink:href="#Degradado_sin_nombre_15"/><linearGradient id="Degradado_sin_nombre_15-5" x1="775.35" y1="231.79" x2="785.98" y2="-53.57" xlink:href="#Degradado_sin_nombre_15"/></defs><path class="cls-1" d="M174.13,19.83V40.9a15.55,15.55,0,0,1-15.55,15.55h-43.7V210.79a15.55,15.55,0,0,1-15.55,15.55H75.12a15.56,15.56,0,0,1-15.56-15.55V56.45h-44A15.55,15.55,0,0,1,0,40.9V19.83A15.55,15.55,0,0,1,15.55,4.28h143A15.55,15.55,0,0,1,174.13,19.83Z"/><path class="cls-2" d="M1007.39,230.27a150,150,0,0,1-52-9.58,150.73,150.73,0,0,1-31.93-16,15.47,15.47,0,0,1-4.06-21.48l11-16.34A15.64,15.64,0,0,1,952,162.71a123.48,123.48,0,0,0,20.11,10.59q18.3,7.62,35,7.63,13.83,0,23.34-5t9.51-13.36a11.18,11.18,0,0,0-1.26-5.35,13.07,13.07,0,0,0-4.24-4.4,51.3,51.3,0,0,0-6-3.53,58.46,58.46,0,0,0-8.56-3.22c-3.72-1.16-6.92-2.07-9.59-2.76s-6.52-1.65-11.55-2.9q-78.59-19.18-78.58-72.45,0-30.65,24.05-49.12T1007.71.35a134,134,0,0,1,45.65,7.54,113.24,113.24,0,0,1,21.85,10.42,15.61,15.61,0,0,1,5.16,21.3l-11.48,19a11.85,11.85,0,0,1-16.32,4.15,89,89,0,0,0-45.49-13.11q-13.2,0-21.53,4.55T977.22,66q0,7.71,9.82,12.73t27.11,9.12q5.82,1.26,10.77,2.59t13.83,4.4a128.82,128.82,0,0,1,16,6.68A121,121,0,0,1,1070.1,111a67.58,67.58,0,0,1,13.6,12.57,61.08,61.08,0,0,1,9.11,16.35,56.37,56.37,0,0,1,3.69,20.43,60.32,60.32,0,0,1-11.78,36.53q-11.79,16.13-32.07,24.76T1007.39,230.27Z"/><path class="cls-3" d="M529.63,4.28q32.05,0,58.14,14.46a106.1,106.1,0,0,1,41,39.84Q643.57,84,643.57,115.23T628.72,172a106,106,0,0,1-41,39.92q-26.09,14.45-58.14,14.45h-72.3a15.55,15.55,0,0,1-15.55-15.55v-191A15.55,15.55,0,0,1,457.33,4.28Zm-1.26,169.89q25,0,41.65-16.9t16.66-42q0-25.14-16.66-42T528.37,56.45H497.1V174.17Z"/><path class="cls-4" d="M294.83,230.27a122.37,122.37,0,0,1-46.52-8.88,114.2,114.2,0,0,1-37.4-24.12,111.51,111.51,0,0,1-24.6-36.54,115.33,115.33,0,0,1-9-45.5q0-32.2,15.32-58.54a109.69,109.69,0,0,1,42.28-41.33q26.94-15,59.95-15,33.17,0,60.12,15a109.73,109.73,0,0,1,42.27,41.33Q412.55,83,412.54,115.23t-15.32,58.62A109.51,109.51,0,0,1,355,215.26Q328,230.28,294.83,230.27Zm0-53.43q26.09,0,43.61-17.68T356,115.23Q356,89,338.44,71.38t-43.61-17.6q-25.93,0-43.37,17.6T234,115.23q0,26.25,17.52,43.93T294.83,176.84Z"/><path class="cls-5" d="M882,56.34A109.83,109.83,0,0,0,839.74,15q-27-15-60.11-15t-60,15a109.83,109.83,0,0,0-42.28,41.33q-15.32,26.32-15.32,58.54a115.13,115.13,0,0,0,9,45.5,111.33,111.33,0,0,0,24.59,36.54A114,114,0,0,0,733.11,221a122.33,122.33,0,0,0,46.52,8.89q33.15,0,60.11-15A109.54,109.54,0,0,0,882,173.5q15.32-26.4,15.32-58.62T882,56.34Zm-51.87,47.33,5.1,5.1a4.8,4.8,0,0,1,0,6.8l-39.62,39.62-11.91-11.9,39.62-39.62A4.82,4.82,0,0,1,830.15,103.67Zm-5.48-12.5-46.53,46.54-11.9-11.91,46.53-46.53a4.8,4.8,0,0,1,6.8,0l5.1,5.1A4.8,4.8,0,0,1,824.67,91.17ZM809.19,47.88a4.82,4.82,0,0,1,6.81,0l5.1,5.1a4.8,4.8,0,0,1,0,6.8l-60.44,60.44-11.91-11.9Zm33.34,95.38-27.42,27.43c-22.69,22.68-60.34,23.22-82.9.42a58.07,58.07,0,0,1-1.1-80.44l0,0a20,20,0,0,0,1-27.12,1.5,1.5,0,0,1,0-2.13l7.22-7.22a4.8,4.8,0,0,1,7.24.5,36.84,36.84,0,0,1-2.26,46.48l0,0a41.22,41.22,0,0,0,.57,58.8c16.24,15.64,42.2,14.9,58.15-1l27.58-27.58a4.8,4.8,0,0,1,6.8,0l5.11,5.11A4.81,4.81,0,0,1,842.53,143.26Z"/><text class="cls-6" transform="translate(87.07 307.08)">MARKETING DIGI<tspan class="cls-7" x="772.82" y="0">T</tspan><tspan class="cls-8" x="823.31" y="0">A</tspan><tspan class="cls-9" x="886.89" y="0">L</tspan></text></svg>