<?xml version="1.0" encoding="utf-8"?>
<!-- Generator: Adobe Illustrator 26.0.0, SVG Export Plug-In . SVG Version: 6.00 Build 0)  -->
<svg version="1.1" id="Capa_1" xmlns="http://www.w3.org/2000/svg" xmlns:xlink="http://www.w3.org/1999/xlink" x="0px" y="0px"
	 viewBox="0 0 40 40" style="enable-background:new 0 0 40 40;" xml:space="preserve">
<style type="text/css">
	.st0{fill:#FFFFFF;}
	.st1{fill:#00D035;}
</style>
<g>
	<path class="st0" d="M39.71,18.62c-0.03-0.37-0.06-0.74-0.1-1.11c-0.07-0.55-0.15-1.09-0.26-1.63c-0.15-0.75-0.35-1.48-0.58-2.2
		c-0.22-0.67-0.48-1.33-0.77-1.98c-0.24-0.52-0.5-1.04-0.78-1.54c-0.59-1.04-1.27-2.03-2.05-2.95c-0.36-0.43-0.74-0.84-1.13-1.24
		c-0.19-0.2-0.4-0.38-0.6-0.57c-0.27-0.26-0.56-0.51-0.85-0.75c-0.69-0.57-1.41-1.09-2.17-1.56c-0.51-0.32-1.03-0.61-1.57-0.88
		c-0.24-0.12-0.48-0.23-0.72-0.34c-0.46-0.22-0.94-0.41-1.41-0.58c-1.1-0.4-2.22-0.68-3.38-0.87c-0.8-0.13-1.61-0.22-2.42-0.25
		c-1.49-0.06-2.98,0.03-4.45,0.31c-1.22,0.23-2.41,0.54-3.56,1.03c-0.69,0.29-1.37,0.59-2.03,0.94c-0.61,0.32-1.2,0.68-1.77,1.06
		C8.63,3.82,8.19,4.15,7.75,4.5C7.31,4.85,6.89,5.22,6.49,5.61C5.98,6.1,5.5,6.6,5.05,7.14C4.47,7.83,3.93,8.56,3.44,9.32
		c-0.53,0.84-1,1.71-1.39,2.61c-0.31,0.7-0.57,1.42-0.8,2.15c-0.21,0.69-0.39,1.4-0.52,2.11c-0.08,0.42-0.15,0.85-0.2,1.28
		c-0.04,0.33-0.08,0.67-0.1,1.01c-0.01,0.24-0.03,0.47-0.03,0.71c-0.01,0.7-0.01,1.41,0.04,2.11c0.04,0.5,0.09,1,0.17,1.49
		c0.09,0.62,0.21,1.23,0.36,1.83c0.19,0.78,0.44,1.55,0.73,2.3c0.32,0.84,0.7,1.65,1.14,2.44c0.06,0.1,0.11,0.21,0.17,0.31
		c-0.47,1.7-0.92,3.4-1.39,5.09c-0.46,1.63-1.37,5-1.37,5.1c3.47-0.91,6.93-1.82,10.4-2.73c0.26,0.12,0.5,0.26,0.75,0.38
		c0.48,0.23,0.96,0.45,1.45,0.64c0.87,0.34,1.76,0.62,2.67,0.84c0.98,0.23,1.97,0.39,2.97,0.47c0.33,0.03,0.67,0.05,1,0.05
		c0.55,0,1.11,0.02,1.66-0.02c0.24-0.02,0.48-0.03,0.72-0.05c0.44-0.04,0.88-0.09,1.32-0.16c0.74-0.12,1.47-0.28,2.19-0.48
		c0.84-0.23,1.66-0.53,2.46-0.87c0.71-0.31,1.4-0.65,2.06-1.04c0.74-0.43,1.46-0.91,2.14-1.43c0.55-0.42,1.08-0.87,1.58-1.35
		c0.38-0.37,0.75-0.75,1.11-1.14c0.54-0.61,1.05-1.25,1.51-1.92c0.63-0.9,1.17-1.85,1.64-2.84c0.45-0.96,0.83-1.95,1.12-2.97
		c0.19-0.67,0.35-1.35,0.46-2.04c0.09-0.52,0.16-1.04,0.21-1.57c0.04-0.44,0.06-0.88,0.08-1.32c0.01-0.33,0-0.66,0-0.99
		C39.74,19.08,39.73,18.85,39.71,18.62z"/>
	<path class="st1" d="M11.14,33.56c-2.05,0.54-4.11,1.08-6.19,1.62c0.56-2.03,1.1-4.03,1.65-6.03c-0.08-0.12-0.15-0.24-0.22-0.36
		c-0.55-0.86-1.03-1.75-1.42-2.7c-0.44-1.05-0.76-2.14-0.97-3.26c-0.1-0.55-0.17-1.1-0.22-1.66c-0.06-0.71-0.07-1.43-0.04-2.14
		c0.06-1.31,0.28-2.6,0.65-3.85c0.55-1.85,1.41-3.55,2.56-5.1c0.6-0.8,1.26-1.54,1.99-2.22c1-0.93,2.1-1.73,3.3-2.38
		c1.26-0.69,2.58-1.2,3.98-1.54c0.76-0.19,1.54-0.31,2.32-0.39c0.69-0.07,1.39-0.09,2.09-0.06c0.85,0.03,1.69,0.12,2.52,0.28
		c1.6,0.3,3.12,0.84,4.57,1.6c1.16,0.62,2.24,1.37,3.22,2.24c1.19,1.06,2.22,2.27,3.06,3.63c0.94,1.51,1.61,3.13,2.01,4.86
		c0.19,0.82,0.31,1.65,0.38,2.48c0.05,0.61,0.06,1.22,0.04,1.83c-0.06,1.52-0.31,3.01-0.79,4.46c-0.69,2.11-1.76,4-3.22,5.68
		c-1.49,1.71-3.26,3.06-5.31,4.04c-1.29,0.62-2.64,1.06-4.05,1.32c-0.53,0.1-1.07,0.17-1.6,0.22c-0.73,0.06-1.45,0.07-2.18,0.04
		c-0.98-0.04-1.95-0.18-2.91-0.4c-1.19-0.28-2.34-0.68-3.44-1.22c-0.58-0.28-1.13-0.6-1.69-0.93
		C11.21,33.61,11.17,33.59,11.14,33.56z M13.52,10.74c-0.12,0-0.25,0-0.37,0c-0.47,0-0.87,0.17-1.21,0.48
		c-0.13,0.12-0.24,0.25-0.36,0.37c-0.92,0.98-1.41,2.15-1.49,3.49c-0.04,0.67,0.05,1.34,0.23,1.98c0.25,0.88,0.64,1.7,1.11,2.49
		c0.24,0.4,0.52,0.77,0.78,1.15c0.97,1.43,2.06,2.76,3.31,3.95c0.72,0.69,1.49,1.32,2.31,1.88c0.9,0.61,1.85,1.11,2.86,1.5
		c1.03,0.4,2.07,0.77,3.15,1.03c0.47,0.11,0.95,0.19,1.44,0.2c0.34,0.01,0.69-0.03,1.03-0.07c0.18-0.02,0.36-0.05,0.54-0.11
		c0.86-0.29,1.62-0.74,2.27-1.37c0.31-0.3,0.55-0.66,0.67-1.08c0.09-0.3,0.17-0.59,0.22-0.9c0.05-0.31,0.07-0.63,0.06-0.95
		c-0.01-0.21-0.1-0.38-0.28-0.48c-0.08-0.05-0.16-0.09-0.25-0.14c-0.26-0.13-0.53-0.26-0.79-0.39c-0.92-0.45-1.85-0.91-2.79-1.34
		c-0.2-0.09-0.4-0.17-0.62-0.22c-0.25-0.06-0.47,0.01-0.64,0.21c-0.02,0.03-0.05,0.05-0.07,0.08c-0.27,0.39-0.57,0.76-0.87,1.12
		c-0.25,0.3-0.51,0.6-0.76,0.9c-0.21,0.24-0.46,0.31-0.76,0.21c-0.06-0.02-0.12-0.04-0.18-0.07c-0.31-0.14-0.62-0.28-0.93-0.42
		c-1.32-0.62-2.5-1.44-3.54-2.46c-0.51-0.5-0.97-1.05-1.4-1.62c-0.34-0.45-0.65-0.92-0.93-1.41c-0.19-0.34-0.16-0.58,0.1-0.86
		c0.01-0.01,0.02-0.02,0.03-0.03c0.18-0.17,0.33-0.36,0.49-0.55c0.31-0.37,0.61-0.73,0.81-1.18c0.13-0.29,0.14-0.56,0.02-0.84
		c-0.2-0.44-0.37-0.89-0.55-1.33c-0.33-0.81-0.66-1.63-1.01-2.43c-0.08-0.17-0.17-0.33-0.28-0.47c-0.17-0.21-0.4-0.32-0.67-0.34
		C13.96,10.75,13.74,10.74,13.52,10.74z"/>
</g>
</svg>
