<?xml version="1.0" encoding="utf-8"?>
<!-- Generator: Adobe Illustrator 26.0.0, SVG Export Plug-In . SVG Version: 6.00 Build 0)  -->
<svg version="1.1" id="Capa_1" xmlns="http://www.w3.org/2000/svg" xmlns:xlink="http://www.w3.org/1999/xlink" x="0px" y="0px"
	 viewBox="0 0 40 40" style="enable-background:new 0 0 40 40;" xml:space="preserve">
<style type="text/css">
	.st0{fill:#FFFFFF;}
	.st1{fill:#00D035;}
</style>
<g>
	<path class="st0" d="M23.85,32.75c-2.56,0-5.11,0-7.67,0c-0.16-0.01-0.31-0.04-0.47-0.04c-1.01-0.03-2.02-0.07-3.02-0.31
		c-2.11-0.51-3.68-1.71-4.61-3.68c-0.58-1.22-0.75-2.54-0.77-3.88c-0.03-2.75-0.05-5.5-0.04-8.24c0.01-1.32,0.01-2.64,0.33-3.94
		c0.56-2.25,1.87-3.87,4.04-4.75c1.16-0.47,2.39-0.61,3.63-0.62c2.59-0.03,5.18-0.05,7.77-0.04c1.36,0.01,2.73,0,4.07,0.29
		c2.47,0.54,4.2,1.96,5.07,4.36c0.42,1.16,0.52,2.36,0.52,3.58c0.01,2.94,0.02,5.88-0.01,8.82c-0.01,0.84-0.07,1.68-0.2,2.5
		c-0.26,1.69-1.02,3.13-2.36,4.23c-1.3,1.07-2.84,1.5-4.49,1.62C25.06,32.69,24.46,32.71,23.85,32.75z M20.02,30.49
		c0-0.01,0-0.03,0-0.04c0.67,0,1.35,0.02,2.02,0c1.45-0.05,2.91-0.03,4.35-0.22c1.96-0.25,3.29-1.38,3.76-3.34
		c0.19-0.78,0.26-1.61,0.27-2.42c0.05-2.37,0.06-4.73,0.04-7.1c-0.01-1.23-0.05-2.48-0.19-3.7c-0.24-2.05-1.54-3.44-3.55-3.84
		c-0.88-0.17-1.8-0.23-2.7-0.24c-2.39-0.04-4.78-0.04-7.17-0.01c-1.11,0.01-2.23,0.05-3.32,0.21c-1.95,0.28-3.27,1.55-3.66,3.47
		c-0.17,0.83-0.23,1.69-0.25,2.55c-0.04,2.06-0.06,4.12-0.04,6.18c0.02,1.43,0.05,2.86,0.19,4.27c0.14,1.46,0.84,2.65,2.15,3.4
		c0.8,0.46,1.69,0.65,2.6,0.69C16.35,30.42,18.18,30.45,20.02,30.49z"/>
	<path class="st0" d="M13.46,19.99c0-3.61,2.95-6.56,6.56-6.55c3.62,0.01,6.53,2.92,6.54,6.54c0.01,3.61-2.93,6.56-6.55,6.56
		C16.4,26.55,13.46,23.61,13.46,19.99z M20.01,24.24c2.35,0,4.24-1.89,4.25-4.24c0-2.35-1.88-4.24-4.23-4.25
		c-2.36-0.01-4.26,1.89-4.26,4.25C15.77,22.35,17.66,24.24,20.01,24.24z"/>
	<path class="st0" d="M26.86,11.66c0.86,0.02,1.51,0.71,1.49,1.57c-0.02,0.84-0.71,1.49-1.56,1.48c-0.84-0.01-1.51-0.72-1.49-1.58
		C25.32,12.3,26.01,11.64,26.86,11.66z"/>
</g>
</svg>
