<?xml version="1.0" encoding="utf-8"?>
<!-- Generator: Adobe Illustrator 26.0.0, SVG Export Plug-In . SVG Version: 6.00 Build 0)  -->
<svg version="1.1" id="Capa_1" xmlns="http://www.w3.org/2000/svg" xmlns:xlink="http://www.w3.org/1999/xlink" x="0px" y="0px"
	 viewBox="0 0 40 40" style="enable-background:new 0 0 40 40;" xml:space="preserve">
<style type="text/css">
	.st0{fill:#FFFFFF;}
	.st1{fill:#00D035;}
</style>
<g>
	<path class="st0" d="M7.27,20.77c0-0.5,0-0.99,0-1.49c0.02-0.08,0.03-0.16,0.05-0.24c0.14-0.79,0.2-1.6,0.42-2.37
		c1.92-6.96,9.14-10.92,16.02-8.8c6.35,1.95,10.18,8.53,8.63,15c-1.11,4.64-4.04,7.72-8.55,9.27c-0.73,0.25-1.5,0.37-2.27,0.55
		c0-3.38,0-6.68,0-10.02c1.02,0,2.03,0,3.04,0c0.15-1.19,0.3-2.35,0.46-3.55c-1.18,0-2.35,0-3.52,0c0-0.73,0-1.42,0-2.12
		c0-0.16,0-0.32,0.01-0.47c0.09-0.92,0.53-1.35,1.46-1.38c0.63-0.02,1.26-0.02,1.89-0.03c0.09,0,0.17-0.01,0.26-0.01
		c0-1.07,0-2.11,0-3.14c-0.04-0.01-0.06-0.03-0.09-0.03c-1.04-0.04-2.09-0.12-3.13-0.1c-0.95,0.02-1.83,0.34-2.58,0.97
		c-0.98,0.83-1.4,1.93-1.47,3.17c-0.05,0.94-0.03,1.89-0.04,2.83c0,0.1,0,0.19,0,0.32c-1.04,0-2.04,0-3.04,0c0,1.19,0,2.36,0,3.55
		c1.02,0,2.02,0,3.03,0c0,3.3,0,6.57,0,9.84c-0.04,0-0.06,0.01-0.08,0.01c-1.12-0.19-2.18-0.54-3.2-1.02
		c-1.92-0.91-3.52-2.22-4.79-3.93c-1.19-1.6-1.97-3.38-2.31-5.35C7.39,21.76,7.34,21.26,7.27,20.77z"/>
</g>
</svg>
