<?xml version="1.0" encoding="utf-8"?>
<!-- Generator: Adobe Illustrator 26.0.0, SVG Export Plug-In . SVG Version: 6.00 Build 0)  -->
<svg version="1.1" id="Capa_1" xmlns="http://www.w3.org/2000/svg" xmlns:xlink="http://www.w3.org/1999/xlink" x="0px" y="0px"
	 viewBox="0 0 40 40" style="enable-background:new 0 0 40 40;" xml:space="preserve">
<style type="text/css">
	.st0{fill:#FFFFFF;}
	.st1{fill:#00D035;}
</style>
<g>
	<path class="st0" d="M2.33,21.49c0-1.01,0-2.03,0-3.04c0.02-0.27,0.05-0.55,0.07-0.82c0.16-1.78,0.3-3.56,0.5-5.33
		c0.15-1.32,0.74-2.43,1.82-3.25C5.57,8.39,6.57,8.16,7.6,8.09c2.59-0.17,5.17-0.38,7.76-0.41c3.95-0.05,7.91-0.02,11.86,0.07
		c2,0.05,4,0.25,5.99,0.47c1.98,0.22,3.39,1.55,3.85,3.49c0.42,1.78,0.57,3.6,0.59,5.42c0.04,2.28,0.02,4.56-0.08,6.84
		c-0.06,1.36-0.23,2.73-0.48,4.08c-0.38,2.05-1.63,3.36-3.7,3.67c-1.69,0.26-3.41,0.4-5.12,0.46c-3.27,0.11-6.54,0.17-9.82,0.16
		c-3.8-0.01-7.6-0.07-11.39-0.55c-2.18-0.28-3.69-1.59-4.09-3.75c-0.25-1.37-0.36-2.76-0.5-4.15C2.4,23.1,2.38,22.29,2.33,21.49z
		 M25.75,19.99c-3.1-1.79-6.15-3.54-9.24-5.32c0,3.58,0,7.07,0,10.64C19.6,23.53,22.65,21.77,25.75,19.99z"/>
</g>
</svg>
