<?xml version="1.0" encoding="utf-8"?>
<!-- Generator: Adobe Illustrator 26.0.0, SVG Export Plug-In . SVG Version: 6.00 Build 0)  -->
<svg version="1.1" id="Capa_1" xmlns="http://www.w3.org/2000/svg" xmlns:xlink="http://www.w3.org/1999/xlink" x="0px" y="0px"
	 viewBox="0 0 40 40" style="enable-background:new 0 0 40 40;" xml:space="preserve">
<style type="text/css">
	.st0{fill:#FFFFFF;}
	.st1{fill:#00D035;}
</style>
<g>
	<path class="st0" d="M16.6,32.62c-0.56-0.08-1.13-0.13-1.68-0.25c-3.11-0.71-5.54-3.41-5.93-6.57c-0.52-4.21,2.34-8.02,6.55-8.71
		c0.81-0.13,1.63-0.15,2.46-0.01c0,1.38,0,2.75,0,4.15c-0.22-0.04-0.42-0.09-0.63-0.12c-2.03-0.3-3.96,1.12-4.23,3.1
		c-0.29,2.12,1.13,3.99,3.22,4.28c2.1,0.28,4.24-1.35,4.22-3.82c-0.02-2.99,0-5.99,0-8.98c0-2.66,0-5.31,0-7.97
		c0-0.11,0-0.21,0-0.33c1.38,0,2.73,0,4.06,0c0.44,3.84,2.56,5.95,6.43,6.36c0,1.31,0,2.67,0,4.04c-2.36-0.01-4.46-0.74-6.37-2.16
		c0,0.13,0,0.22,0,0.31c0.01,2.91,0.02,5.82,0.03,8.74c0.01,1.59-0.39,3.06-1.28,4.38c-1.46,2.15-3.49,3.33-6.09,3.54
		c-0.09,0.01-0.18,0.03-0.27,0.04C16.93,32.62,16.76,32.62,16.6,32.62z"/>
</g>
</svg>
