<?xml version="1.0" encoding="utf-8"?>
<!-- Generator: Adobe Illustrator 26.0.0, SVG Export Plug-In . SVG Version: 6.00 Build 0)  -->
<svg version="1.1" id="Capa_1" xmlns="http://www.w3.org/2000/svg" xmlns:xlink="http://www.w3.org/1999/xlink" x="0px" y="0px"
	 viewBox="0 0 40 40" style="enable-background:new 0 0 40 40;" xml:space="preserve">
<style type="text/css">
	.st0{fill:#FFFFFF;}
	.st1{fill:#00D035;}
</style>
<g>
	<g>
		<path class="st0" d="M14.49,16.66c1.05,4.31,4.95,7.93,8.85,8.85c0.42-0.48,0.86-0.98,1.3-1.48c0.18-0.2,0.35-0.39,0.53-0.59
			c0.3-0.33,0.66-0.42,1.06-0.22c0.73,0.36,1.47,0.7,2.16,1.11c1.01,0.6,2,1.25,2.98,1.89c0.23,0.15,0.45,0.35,0.64,0.55
			c0.29,0.31,0.32,0.57,0.07,0.91c-0.24,0.33-0.51,0.65-0.79,0.94c-1.15,1.16-2.43,2.17-3.75,3.15c-0.65,0.49-1.3,0.57-2.07,0.4
			c-2.06-0.45-3.95-1.28-5.72-2.4c-4.2-2.65-7.58-6.1-10.04-10.42c-0.92-1.61-1.6-3.31-1.93-5.15c-0.1-0.54-0.04-1.01,0.28-1.47
			c1.12-1.6,2.33-3.11,3.77-4.43c0.15-0.14,0.32-0.27,0.5-0.39c0.34-0.23,0.58-0.21,0.89,0.06c0.14,0.13,0.28,0.26,0.39,0.42
			c1.12,1.58,2.16,3.21,2.99,4.96c0.45,0.95,0.41,1.11-0.38,1.81C15.64,15.67,15.06,16.17,14.49,16.66z"/>
		<path class="st0" d="M20.87,9.5c0-0.59,0-1.15,0-1.7c5.67-0.24,11.43,4.73,11.37,11.34c-0.57,0-1.14,0-1.72,0
			c-0.06-2.64-0.97-4.92-2.84-6.79C25.8,10.47,23.52,9.56,20.87,9.5z"/>
		<path class="st0" d="M27.85,19.14c-0.58,0-1.13,0-1.68,0c-0.34-3.19-2.09-4.95-5.29-5.3c0-0.54,0-1.11,0-1.68
			C24.57,12.05,27.94,15.29,27.85,19.14z"/>
	</g>
</g>
</svg>
